<?xml version="1.0" encoding="UTF-8" standalone="no"?>
<svg
   width="50.8mm"
   height="128.5mm"
   viewBox="0 0 50.8 128.5"
   version="1.1"
   id="svg14055"
   sodipodi:docname="Ahriman.svg"
   inkscape:version="1.2.2 (732a01da63, 2022-12-09)"
   xmlns:inkscape="http://www.inkscape.org/namespaces/inkscape"
   xmlns:sodipodi="http://sodipodi.sourceforge.net/DTD/sodipodi-0.dtd"
   xmlns="http://www.w3.org/2000/svg"
   xmlns:svg="http://www.w3.org/2000/svg">
  <sodipodi:namedview
     id="namedview14057"
     pagecolor="#505050"
     bordercolor="#eeeeee"
     borderopacity="1"
     inkscape:showpageshadow="0"
     inkscape:pageopacity="0"
     inkscape:pagecheckerboard="0"
     inkscape:deskcolor="#505050"
     inkscape:document-units="mm"
     showgrid="false"
     inkscape:zoom="1.4952534"
     inkscape:cx="17.722749"
     inkscape:cy="278.21371"
     inkscape:window-width="2560"
     inkscape:window-height="1369"
     inkscape:window-x="-8"
     inkscape:window-y="-8"
     inkscape:window-maximized="1"
     inkscape:current-layer="svg14055" />
  <defs
     id="defs13967">
    <linearGradient
       id="panelGradient"
       x1="0"
       x2="0"
       y1="0"
       y2="1">
      <stop
         offset="0"
         stop-color="#2b2d33"
         id="stop13960" />
      <stop
         offset="1"
         stop-color="#1b1d22"
         id="stop13962" />
    </linearGradient>
    <style
       id="style13965">
      .title { font-family: 'Roboto', 'Liberation Sans', sans-serif; font-size: 4.2px; fill: #f5f6fa; font-weight: 600; letter-spacing: 1.2px; }
      .subtitle { font-family: 'Roboto', 'Liberation Sans', sans-serif; font-size: 2.4px; fill: #a7acb7; text-anchor: middle; }
      .label { font-family: 'Roboto', 'Liberation Sans', sans-serif; font-size: 2.8px; fill: #cfd3dc; text-anchor: middle; }
      .jack { font-family: 'Roboto', 'Liberation Sans', sans-serif; font-size: 2.4px; fill: #d9dde5; text-anchor: middle; }
      .divider { stroke: #434750; stroke-width: 0.25; stroke-linecap: round; }
    </style>
  </defs>
  <!-- Background -->
  <rect
     width="50.8"
     height="128.5"
     fill="url(#panelGradient)"
     rx="2"
     ry="2"
     id="rect13969"
     style="fill:none;fill-opacity:1;stroke:#000000;stroke-opacity:1" />
  <!-- Header -->
  <g
     aria-label="AHRIMAN"
     id="text13971"
     class="title"
     style="font-weight:600;font-size:4.2px;font-family:Roboto, 'Liberation Sans', sans-serif;letter-spacing:1.2px;text-anchor:middle;fill:#f5f6fa">
    <path
       d="M 14.208008,6.4000001 13.95166,5.6617189 h -1.101269 l -0.256348,0.7382812 h -0.604981 l 1.054102,-2.8895507 h 0.713672 l 1.05,2.8895507 z M 13.4,3.955469 l -0.0123,0.045117 q -0.02051,0.073828 -0.04922,0.1681641 -0.02871,0.094336 -0.352734,1.0376953 h 0.830566 L 13.53125,4.3758791 13.443066,4.0969729 Z"
       id="path14311" />
    <path
       d="M 18.262695,6.4000001 V 5.1613283 H 17.003516 V 6.4000001 H 16.398535 V 3.5104494 h 0.604981 v 1.1504883 h 1.259179 V 3.5104494 h 0.604981 v 2.8895507 z"
       id="path14313" />
    <path
       d="M 22.616797,6.4000001 21.946192,5.3028322 h -0.709571 v 1.0971679 h -0.60498 V 3.5104494 h 1.44375 q 0.516797,0 0.797754,0.2235352 0.280957,0.2214844 0.280957,0.6377929 0,0.3035156 -0.172266,0.525 -0.172265,0.2194336 -0.465527,0.2891602 l 0.781347,1.2140624 z M 22.54502,4.3963869 q 0,-0.4163086 -0.533203,-0.4163086 h -0.775196 v 0.853125 h 0.791602 q 0.254297,0 0.385547,-0.1148438 0.13125,-0.1148437 0.13125,-0.3219726 z"
       id="path14315" />
    <path
       d="M 24.864746,6.4000001 V 3.5104494 h 0.60498 v 2.8895507 z"
       id="path14317" />
    <path
       d="M 29.631054,6.4000001 V 4.648633 q 0,-0.059473 0,-0.1189453 0.0021,-0.059473 0.02051,-0.5106445 -0.145605,0.5516601 -0.215332,0.7690429 l -0.520898,1.611914 H 28.484668 L 27.963769,4.7880861 27.744336,4.0190432 q 0.02461,0.4757812 0.02461,0.6295898 V 6.4000001 H 27.23164 V 3.5104494 h 0.810059 l 0.516797,1.6160156 0.04512,0.1558594 0.09844,0.3875976 0.1292,-0.4634765 0.531152,-1.6959961 h 0.805957 v 2.8895507 z"
       id="path14319" />
    <path
       d="M 33.972851,6.4000001 33.716503,5.6617189 h -1.10127 l -0.256347,0.7382812 h -0.604981 l 1.054102,-2.8895507 h 0.713672 l 1.05,2.8895507 z m -0.808008,-2.4445311 -0.0123,0.045117 q -0.02051,0.073828 -0.04922,0.1681641 -0.02871,0.094336 -0.352734,1.0376953 h 0.830566 L 33.296093,4.3758791 33.207909,4.0969729 Z"
       id="path14321" />
    <path
       d="M 37.922949,6.4000001 36.66377,4.1749025 q 0.03691,0.3240235 0.03691,0.5208985 V 6.4000001 H 36.163379 V 3.5104494 h 0.691113 L 38.132129,5.754004 Q 38.095215,5.4443361 38.095215,5.1900392 V 3.5104494 h 0.537305 v 2.8895507 z"
       id="path14323" />
  </g>
  <g
     aria-label="CASCADE REVERB"
     id="text13973"
     style="font-size:2.4px;font-family:Roboto, 'Liberation Sans', sans-serif;-inkscape-font-specification:'Roboto, Liberation Sans, sans-serif, Normal';text-anchor:middle;fill:#ffffff"
     class="subtitle">
    <path
       d="m 15.258593,8.4070308 q -0.274219,0 -0.426563,0.1769531 -0.152343,0.1757813 -0.152343,0.4828126 0,0.3035156 0.158203,0.4886719 0.159375,0.1839843 0.430078,0.1839843 0.346875,0 0.521484,-0.3433594 l 0.182813,0.091406 q -0.101953,0.2132813 -0.28711,0.3246094 -0.183984,0.1113281 -0.427734,0.1113281 -0.249609,0 -0.432422,-0.103125 -0.18164,-0.1042969 -0.277734,-0.2964844 -0.09492,-0.1933594 -0.09492,-0.4570312 0,-0.3949219 0.213281,-0.6187501 0.213281,-0.2238281 0.590625,-0.2238281 0.263672,0 0.440625,0.103125 0.176953,0.103125 0.260156,0.3058594 l -0.212109,0.070312 Q 15.687499,8.5593746 15.559765,8.4832027 15.433202,8.4070308 15.258593,8.4070308 Z"
       id="path14284"
       style="fill:#ffffff" />
    <path
       d="M 17.431249,9.8999996 17.242577,9.4171871 H 16.490234 L 16.30039,9.8999996 h -0.232031 l 0.673828,-1.6511719 h 0.254297 l 0.663281,1.6511719 z m -0.564843,-1.4824219 -0.01055,0.032812 q -0.0293,0.097266 -0.08672,0.2496094 l -0.210938,0.5425781 h 0.617579 l -0.21211,-0.5449219 q -0.03281,-0.080859 -0.06563,-0.1828125 z"
       id="path14286"
       style="fill:#ffffff" />
    <path
       d="m 19.155077,9.4441402 q 0,0.2285157 -0.179297,0.3539063 -0.178125,0.1253906 -0.502734,0.1253906 -0.603516,0 -0.699609,-0.4195312 l 0.216797,-0.043359 q 0.0375,0.1488281 0.159375,0.2191406 0.121875,0.069141 0.33164,0.069141 0.216797,0 0.333985,-0.073828 0.118359,-0.075 0.118359,-0.2191406 0,-0.080859 -0.0375,-0.13125 -0.03633,-0.050391 -0.103125,-0.083203 -0.0668,-0.032813 -0.159375,-0.055078 -0.09258,-0.022266 -0.205078,-0.048047 -0.195703,-0.043359 -0.297656,-0.086719 -0.100782,-0.043359 -0.159375,-0.096094 -0.05859,-0.053906 -0.09023,-0.1253906 -0.03047,-0.071484 -0.03047,-0.1640625 0,-0.2121094 0.161719,-0.3269531 0.162891,-0.1148438 0.465235,-0.1148438 0.28125,0 0.430078,0.086719 0.148828,0.085547 0.208593,0.2929687 l -0.220312,0.038672 q -0.03633,-0.13125 -0.138281,-0.1898438 -0.101953,-0.059766 -0.282422,-0.059766 -0.198047,0 -0.302344,0.065625 -0.104297,0.065625 -0.104297,0.1957031 0,0.076172 0.03984,0.1265625 0.04102,0.049219 0.117187,0.084375 0.07617,0.033984 0.303516,0.084375 0.07617,0.017578 0.151172,0.036328 0.07617,0.017578 0.145312,0.043359 0.06914,0.024609 0.128907,0.058594 0.06094,0.033984 0.105468,0.083203 0.04453,0.049219 0.06914,0.1160157 0.02578,0.066797 0.02578,0.1570312 z"
       id="path14288"
       style="fill:#ffffff" />
    <path
       d="m 20.193359,8.4070308 q -0.274219,0 -0.426563,0.1769531 -0.152343,0.1757813 -0.152343,0.4828126 0,0.3035156 0.158203,0.4886719 0.159375,0.1839843 0.430078,0.1839843 0.346875,0 0.521484,-0.3433594 l 0.182813,0.091406 q -0.101953,0.2132813 -0.28711,0.3246094 -0.183984,0.1113281 -0.427734,0.1113281 -0.249609,0 -0.432422,-0.103125 -0.181641,-0.1042969 -0.277734,-0.2964844 -0.09492,-0.1933594 -0.09492,-0.4570312 0,-0.3949219 0.213281,-0.6187501 0.213281,-0.2238281 0.590625,-0.2238281 0.263672,0 0.440625,0.103125 0.176953,0.103125 0.260156,0.3058594 l -0.212109,0.070312 Q 20.622265,8.5593746 20.494531,8.4832027 20.367968,8.4070308 20.193359,8.4070308 Z"
       id="path14290"
       style="fill:#ffffff" />
    <path
       d="M 22.366015,9.8999996 22.177343,9.4171871 h -0.752344 l -0.189844,0.4828125 h -0.232031 l 0.673828,-1.6511719 h 0.254297 l 0.663281,1.6511719 z m -0.564844,-1.4824219 -0.01055,0.032812 q -0.0293,0.097266 -0.08672,0.2496094 l -0.210937,0.5425781 h 0.617578 L 21.898437,8.6976558 q -0.03281,-0.080859 -0.06563,-0.1828125 z"
       id="path14292"
       style="fill:#ffffff" />
    <path
       d="m 24.217578,9.0574215 q 0,0.2554687 -0.09961,0.4476562 -0.09961,0.1910157 -0.282422,0.2929688 -0.182812,0.1019531 -0.421875,0.1019531 H 22.796093 V 8.2488277 h 0.546094 q 0.419531,0 0.646875,0.2109375 0.228516,0.2097656 0.228516,0.5976563 z m -0.225,0 q 0,-0.3070313 -0.16875,-0.4675782 -0.167579,-0.1617187 -0.486329,-0.1617187 h -0.317578 v 1.2925781 h 0.367969 q 0.181641,0 0.31875,-0.079688 0.138281,-0.079688 0.212109,-0.2296875 0.07383,-0.15 0.07383,-0.3539062 z"
       id="path14294"
       style="fill:#ffffff" />
    <path
       d="M 24.529296,9.8999996 V 8.2488277 h 1.252734 v 0.1828125 h -1.028906 v 0.5296875 h 0.958594 v 0.1804688 h -0.958594 v 0.5753906 h 1.076953 v 0.1828125 z"
       id="path14296"
       style="fill:#ffffff" />
    <path
       d="M 27.964062,9.8999996 27.535155,9.2144527 H 27.020702 V 9.8999996 H 26.796874 V 8.2488277 h 0.776953 q 0.278907,0 0.430078,0.1253906 0.152344,0.1242188 0.152344,0.346875 0,0.1839844 -0.107812,0.309375 -0.106641,0.1253907 -0.295313,0.1582032 l 0.46875,0.7113281 z m -0.03281,-1.1765625 q 0,-0.1441407 -0.09844,-0.2191407 -0.09727,-0.076172 -0.28125,-0.076172 h -0.53086 v 0.609375 h 0.540235 q 0.176953,0 0.273047,-0.082031 0.09727,-0.083203 0.09727,-0.2320312 z"
       id="path14298"
       style="fill:#ffffff" />
    <path
       d="M 28.530078,9.8999996 V 8.2488277 h 1.252734 V 8.4316402 H 28.753906 V 8.9613277 H 29.7125 v 0.1804688 h -0.958594 v 0.5753906 h 1.076953 v 0.1828125 z"
       id="path14300"
       style="fill:#ffffff" />
    <path
       d="M 30.850391,9.8999996 H 30.61836 L 29.944531,8.2488277 h 0.235547 l 0.457032,1.1625 0.09844,0.2917969 0.09844,-0.2917969 0.454687,-1.1625 h 0.235547 z"
       id="path14302"
       style="fill:#ffffff" />
    <path
       d="M 31.731641,9.8999996 V 8.2488277 h 1.252734 v 0.1828125 h -1.028906 v 0.5296875 h 0.958594 v 0.1804688 h -0.958594 v 0.5753906 h 1.076953 v 0.1828125 z"
       id="path14304"
       style="fill:#ffffff" />
    <path
       d="M 34.499609,9.8999996 34.070703,9.2144527 H 33.55625 V 9.8999996 H 33.332421 V 8.2488277 h 0.776954 q 0.278906,0 0.430078,0.1253906 0.152343,0.1242188 0.152343,0.346875 0,0.1839844 -0.107812,0.309375 -0.106641,0.1253907 -0.295313,0.1582032 l 0.46875,0.7113281 z m -0.03281,-1.1765625 q 0,-0.1441407 -0.09844,-0.2191407 -0.09727,-0.076172 -0.28125,-0.076172 H 33.55625 v 0.609375 h 0.540234 q 0.176953,0 0.273047,-0.082031 0.09727,-0.083203 0.09727,-0.2320312 z"
       id="path14306"
       style="fill:#ffffff" />
    <path
       d="m 36.342969,9.4347652 q 0,0.2203125 -0.160547,0.3433594 -0.160547,0.121875 -0.446484,0.121875 H 35.065625 V 8.2488277 h 0.6 q 0.58125,0 0.58125,0.4007812 0,0.1464844 -0.08203,0.2460938 -0.08203,0.099609 -0.232031,0.1335938 0.196875,0.023437 0.303516,0.1324218 0.10664,0.1078125 0.10664,0.2730469 z M 36.021875,8.6765621 q 0,-0.1335938 -0.09141,-0.1910157 -0.09141,-0.057422 -0.264844,-0.057422 h -0.376172 v 0.5226562 h 0.376172 q 0.179297,0 0.267188,-0.066797 0.08906,-0.067969 0.08906,-0.2074219 z m 0.09492,0.740625 q 0,-0.2917969 -0.410156,-0.2917969 h -0.417188 v 0.5953125 h 0.434766 q 0.205078,0 0.298828,-0.076172 0.09375,-0.076172 0.09375,-0.2273438 z"
       id="path14308"
       style="fill:#ffffff" />
  </g>
  <!-- Main Knob Section -->
  <!-- Controls Row 1: TONE / REGEN -->
  <!-- Controls Row 2: SPEED / INDEX -->
  <!-- Controls Row 3: SIZE / DENSE -->
  <!-- Switches Section -->
  <g
     aria-label="MODE"
     id="text14001"
     class="label"
     style="font-size:2.8px;font-family:Roboto, 'Liberation Sans', sans-serif;text-anchor:middle;fill:#cfd3dc">
    <path
       d="m 12.667578,69 v -1.285156 q 0,-0.213281 0.0123,-0.410156 -0.06699,0.244726 -0.120313,0.382812 L 12.061914,69 h -0.183203 l -0.504492,-1.3125 -0.07656,-0.232422 -0.04512,-0.15039 0.0041,0.151757 0.0055,0.258399 V 69 h -0.232421 v -1.926367 h 0.343164 l 0.512695,1.335742 q 0.02734,0.08066 0.05195,0.173633 0.02598,0.0916 0.03418,0.132617 0.01094,-0.05469 0.04512,-0.16543 0.03555,-0.112109 0.04785,-0.14082 l 0.503125,-1.335742 h 0.334961 V 69 Z"
       id="path14712" />
    <path
       d="m 15.176367,68.02793 q 0,0.302148 -0.116211,0.529101 -0.114844,0.226953 -0.330859,0.348633 -0.216016,0.12168 -0.509961,0.12168 -0.29668,0 -0.512695,-0.120313 -0.214649,-0.120312 -0.328125,-0.347265 -0.113477,-0.228321 -0.113477,-0.531836 0,-0.46211 0.25293,-0.721875 0.252929,-0.261133 0.704101,-0.261133 0.293946,0 0.509961,0.117578 0.216016,0.116211 0.329492,0.339063 0.114844,0.222851 0.114844,0.526367 z m -0.266601,0 q 0,-0.359571 -0.180469,-0.564649 -0.179102,-0.205078 -0.507227,-0.205078 -0.330859,0 -0.511328,0.202344 -0.180469,0.202344 -0.180469,0.567383 0,0.362304 0.181836,0.575586 0.183203,0.211914 0.507227,0.211914 0.333594,0 0.511328,-0.205078 0.179102,-0.206446 0.179102,-0.582422 z"
       id="path14714" />
    <path
       d="m 17.198437,68.016992 q 0,0.298047 -0.116211,0.522266 -0.116211,0.222851 -0.329492,0.341797 Q 16.539453,69 16.260547,69 h -0.720508 v -1.926367 h 0.637109 q 0.489453,0 0.754688,0.246094 0.266601,0.244726 0.266601,0.697265 z m -0.2625,0 q 0,-0.358203 -0.196875,-0.545508 -0.195508,-0.188671 -0.567383,-0.188671 h -0.370507 v 1.508007 h 0.429296 q 0.211914,0 0.371875,-0.09297 0.161329,-0.09297 0.247461,-0.267969 0.08613,-0.175 0.08613,-0.412891 z"
       id="path14716" />
    <path
       d="m 17.562109,69 v -1.926367 h 1.461524 v 0.213281 h -1.200391 v 0.617969 h 1.118359 v 0.210547 h -1.118359 v 0.671289 h 1.256445 V 69 Z"
       id="path14718" />
  </g>
  <g
     aria-label="RESP"
     id="text14003"
     class="label"
     style="font-size:2.8px;font-family:Roboto, 'Liberation Sans', sans-serif;text-anchor:middle;fill:#cfd3dc">
    <path
       d="m 33.579003,69 -0.50039,-0.799805 H 32.478417 V 69 h -0.261133 v -1.926367 h 0.906446 q 0.32539,0 0.501758,0.146289 0.177734,0.144922 0.177734,0.404687 0,0.214649 -0.125781,0.360938 -0.124414,0.146289 -0.344532,0.18457 L 33.879784,69 Z m -0.03828,-1.372656 q 0,-0.168164 -0.114844,-0.255664 -0.113476,-0.08887 -0.328125,-0.08887 h -0.619336 v 0.710937 h 0.630274 q 0.206445,0 0.318554,-0.0957 0.113477,-0.09707 0.113477,-0.270703 z"
       id="path14728" />
    <path
       d="m 34.239355,69 v -1.926367 h 1.461523 v 0.213281 h -1.200391 v 0.617969 h 1.11836 v 0.210547 h -1.11836 v 0.671289 h 1.256446 V 69 Z"
       id="path14730" />
    <path
       d="m 37.616308,68.468164 q 0,0.266602 -0.20918,0.412891 -0.207812,0.146289 -0.586523,0.146289 -0.704102,0 -0.816211,-0.489453 l 0.25293,-0.05059 q 0.04375,0.173633 0.185937,0.255664 0.142188,0.08066 0.386914,0.08066 0.25293,0 0.389648,-0.08613 0.138086,-0.0875 0.138086,-0.255664 0,-0.09434 -0.04375,-0.153125 -0.04238,-0.05879 -0.120312,-0.09707 -0.07793,-0.03828 -0.185938,-0.06426 -0.108007,-0.02598 -0.239257,-0.05606 -0.228321,-0.05059 -0.347266,-0.101172 -0.117578,-0.05059 -0.185937,-0.112109 -0.06836,-0.06289 -0.105274,-0.146289 -0.03555,-0.0834 -0.03555,-0.191406 0,-0.247461 0.188672,-0.381446 0.190039,-0.133984 0.542774,-0.133984 0.328124,0 0.501757,0.101172 0.173633,0.0998 0.24336,0.341797 l -0.257032,0.04512 q -0.04238,-0.153125 -0.161328,-0.221485 -0.118945,-0.06973 -0.329492,-0.06973 -0.231055,0 -0.352734,0.07656 -0.12168,0.07656 -0.12168,0.228321 0,0.08887 0.04648,0.147656 0.04785,0.05742 0.136719,0.09844 0.08887,0.03965 0.354102,0.09844 0.08887,0.02051 0.176367,0.04238 0.08887,0.02051 0.169531,0.05059 0.08066,0.02871 0.150391,0.06836 0.07109,0.03965 0.123047,0.09707 0.05195,0.05742 0.08066,0.135352 0.03008,0.07793 0.03008,0.183203 z"
       id="path14732" />
    <path
       d="m 39.464745,67.65332 q 0,0.273438 -0.179101,0.434766 -0.177735,0.161328 -0.483985,0.161328 H 38.235644 V 69 h -0.261133 v -1.926367 h 0.810742 q 0.324024,0 0.501758,0.151758 0.177734,0.151757 0.177734,0.427929 z m -0.2625,0.0027 q 0,-0.373242 -0.448437,-0.373242 h -0.518164 v 0.760156 h 0.529101 q 0.4375,0 0.4375,-0.386914 z"
       id="path14734" />
  </g>
  <!-- FSU Button -->
  <!-- CV Input Section -->
  <!-- I/O Section -->
  <!-- Footer -->
  <g
     aria-label="AMBUSHED CAT DSP"
     id="text14053"
     class="subtitle"
     style="font-size:2.4px;font-family:Roboto, 'Liberation Sans', sans-serif;text-anchor:middle;fill:#a7acb7">
    <path
       d="m 14.543163,127 -0.188672,-0.48281 H 13.602148 L 13.412304,127 h -0.232031 l 0.673828,-1.65117 h 0.254297 L 14.771679,127 Z m -0.564844,-1.48242 -0.01055,0.0328 q -0.0293,0.0973 -0.08672,0.24961 l -0.210938,0.54258 h 0.617578 l -0.212109,-0.54492 q -0.03281,-0.0809 -0.06563,-0.18282 z"
       id="path18551" />
    <path
       d="m 16.377148,127 v -1.10156 q 0,-0.18282 0.01055,-0.35157 -0.05742,0.20977 -0.103125,0.32813 L 15.858007,127 h -0.157031 l -0.432422,-1.125 -0.06563,-0.19922 -0.03867,-0.12891 0.0035,0.13008 0.0047,0.22149 V 127 h -0.199219 v -1.65117 h 0.294141 l 0.439453,1.14492 q 0.02344,0.0691 0.04453,0.14883 0.02227,0.0785 0.0293,0.11367 0.0094,-0.0469 0.03867,-0.1418 0.03047,-0.0961 0.04102,-0.1207 l 0.43125,-1.14492 H 16.57871 V 127 Z"
       id="path18553" />
    <path
       d="m 18.249804,126.53477 q 0,0.22031 -0.160547,0.34335 Q 17.92871,127 17.642773,127 H 16.97246 v -1.65117 h 0.6 q 0.58125,0 0.58125,0.40078 0,0.14648 -0.08203,0.24609 -0.08203,0.0996 -0.232031,0.1336 0.196875,0.0234 0.303515,0.13242 0.106641,0.10781 0.106641,0.27305 z m -0.321094,-0.75821 q 0,-0.13359 -0.09141,-0.19101 -0.09141,-0.0574 -0.264844,-0.0574 h -0.376172 v 0.52266 h 0.376172 q 0.179297,0 0.267188,-0.0668 0.08906,-0.068 0.08906,-0.20742 z m 0.09492,0.74063 q 0,-0.2918 -0.410156,-0.2918 h -0.417188 v 0.59531 h 0.434766 q 0.205078,0 0.298828,-0.0762 0.09375,-0.0762 0.09375,-0.22734 z"
       id="path18555" />
    <path
       d="m 19.233007,127.02344 q -0.202734,0 -0.353906,-0.0738 -0.151172,-0.0738 -0.234375,-0.21445 -0.0832,-0.14063 -0.0832,-0.33516 v -1.05117 h 0.223828 v 1.03242 q 0,0.22617 0.114844,0.34336 0.114843,0.11719 0.33164,0.11719 0.222656,0 0.345703,-0.12071 0.124219,-0.12187 0.124219,-0.35507 v -1.01719 h 0.222656 v 1.03008 q 0,0.20039 -0.08555,0.3457 -0.08437,0.14531 -0.240234,0.22266 -0.154687,0.0762 -0.365625,0.0762 z"
       id="path18557" />
    <path
       d="m 21.600195,126.54414 q 0,0.22852 -0.179297,0.35391 -0.178125,0.12539 -0.502734,0.12539 -0.603516,0 -0.69961,-0.41953 l 0.216797,-0.0434 q 0.0375,0.14882 0.159375,0.21914 0.121875,0.0691 0.331641,0.0691 0.216797,0 0.333984,-0.0738 0.11836,-0.075 0.11836,-0.21914 0,-0.0809 -0.0375,-0.13125 -0.03633,-0.0504 -0.103126,-0.0832 -0.0668,-0.0328 -0.159375,-0.0551 -0.09258,-0.0223 -0.205078,-0.0481 -0.195703,-0.0434 -0.297656,-0.0867 -0.100781,-0.0434 -0.159375,-0.0961 -0.05859,-0.0539 -0.09023,-0.12539 -0.03047,-0.0715 -0.03047,-0.16406 0,-0.21211 0.161719,-0.32696 0.16289,-0.11484 0.465234,-0.11484 0.28125,0 0.430078,0.0867 0.148828,0.0855 0.208594,0.29297 l -0.220312,0.0387 q -0.03633,-0.13125 -0.138282,-0.18985 -0.101953,-0.0598 -0.282422,-0.0598 -0.198047,0 -0.302343,0.0656 -0.104297,0.0656 -0.104297,0.19571 0,0.0762 0.03984,0.12656 0.04102,0.0492 0.117188,0.0844 0.07617,0.034 0.303516,0.0844 0.07617,0.0176 0.151171,0.0363 0.07617,0.0176 0.145313,0.0434 0.06914,0.0246 0.128906,0.0586 0.06094,0.034 0.105469,0.0832 0.04453,0.0492 0.06914,0.11602 0.02578,0.0668 0.02578,0.15703 z"
       id="path18559" />
    <path
       d="m 23.024023,127 v -0.76523 H 22.131054 V 127 h -0.223828 v -1.65117 h 0.223828 v 0.69844 h 0.892969 v -0.69844 h 0.223828 V 127 Z"
       id="path18561" />
    <path
       d="m 23.640429,127 v -1.65117 h 1.252735 v 0.18281 h -1.028907 v 0.52969 h 0.958594 v 0.18047 h -0.958594 v 0.57539 h 1.076954 V 127 Z"
       id="path18563" />
    <path
       d="m 26.662695,126.15742 q 0,0.25547 -0.09961,0.44766 -0.09961,0.19101 -0.282422,0.29297 Q 26.097851,127 25.858789,127 h -0.617578 v -1.65117 h 0.546093 q 0.419532,0 0.646875,0.21094 0.228516,0.20976 0.228516,0.59765 z m -0.225,0 q 0,-0.30703 -0.16875,-0.46758 -0.167578,-0.16172 -0.486328,-0.16172 h -0.317578 v 1.29258 h 0.367969 q 0.18164,0 0.31875,-0.0797 0.138281,-0.0797 0.212109,-0.22969 0.07383,-0.15 0.07383,-0.35391 z"
       id="path18565" />
    <path
       d="m 28.37246,125.50703 q -0.274218,0 -0.426562,0.17695 -0.152344,0.17579 -0.152344,0.48282 0,0.30351 0.158203,0.48867 0.159375,0.18398 0.430078,0.18398 0.346875,0 0.521485,-0.34336 l 0.182812,0.0914 q -0.101953,0.21328 -0.287109,0.32461 -0.183985,0.11133 -0.427735,0.11133 -0.249609,0 -0.432421,-0.10313 -0.181641,-0.10429 -0.277735,-0.29648 -0.09492,-0.19336 -0.09492,-0.45703 0,-0.39493 0.213282,-0.61875 0.213281,-0.22383 0.590625,-0.22383 0.263671,0 0.440625,0.10312 0.176953,0.10313 0.260156,0.30586 l -0.21211,0.0703 q -0.05742,-0.14415 -0.185156,-0.22032 -0.126562,-0.0762 -0.301172,-0.0762 z"
       id="path18567" />
    <path
       d="m 30.545116,127 -0.188672,-0.48281 H 29.604101 L 29.414257,127 h -0.232031 l 0.673828,-1.65117 h 0.254297 L 30.773632,127 Z m -0.564843,-1.48242 -0.01055,0.0328 q -0.0293,0.0973 -0.08672,0.24961 l -0.210938,0.54258 h 0.617579 l -0.21211,-0.54492 q -0.03281,-0.0809 -0.06563,-0.18282 z"
       id="path18569" />
    <path
       d="M 31.443945,125.53164 V 127 h -0.222656 v -1.46836 h -0.567188 v -0.18281 h 1.357032 v 0.18281 z"
       id="path18571" />
    <path
       d="m 34.308007,126.15742 q 0,0.25547 -0.09961,0.44766 -0.09961,0.19101 -0.282422,0.29297 Q 33.743164,127 33.504101,127 h -0.617578 v -1.65117 h 0.546094 q 0.419531,0 0.646875,0.21094 0.228515,0.20976 0.228515,0.59765 z m -0.225,0 q 0,-0.30703 -0.16875,-0.46758 -0.167578,-0.16172 -0.486328,-0.16172 h -0.317578 v 1.29258 h 0.367969 q 0.18164,0 0.31875,-0.0797 0.138281,-0.0797 0.212109,-0.22969 0.07383,-0.15 0.07383,-0.35391 z"
       id="path18573" />
    <path
       d="m 35.913477,126.54414 q 0,0.22852 -0.179297,0.35391 -0.178125,0.12539 -0.502734,0.12539 -0.603516,0 -0.69961,-0.41953 l 0.216797,-0.0434 q 0.0375,0.14882 0.159375,0.21914 0.121875,0.0691 0.331641,0.0691 0.216797,0 0.333984,-0.0738 0.11836,-0.075 0.11836,-0.21914 0,-0.0809 -0.0375,-0.13125 -0.03633,-0.0504 -0.103125,-0.0832 -0.0668,-0.0328 -0.159375,-0.0551 -0.09258,-0.0223 -0.205079,-0.0481 -0.195703,-0.0434 -0.297656,-0.0867 -0.100781,-0.0434 -0.159375,-0.0961 -0.05859,-0.0539 -0.09023,-0.12539 -0.03047,-0.0715 -0.03047,-0.16406 0,-0.21211 0.161719,-0.32696 0.16289,-0.11484 0.465234,-0.11484 0.28125,0 0.430078,0.0867 0.148828,0.0855 0.208594,0.29297 l -0.220312,0.0387 q -0.03633,-0.13125 -0.138282,-0.18985 -0.101953,-0.0598 -0.282422,-0.0598 -0.198047,0 -0.302343,0.0656 -0.104297,0.0656 -0.104297,0.19571 0,0.0762 0.03984,0.12656 0.04102,0.0492 0.117188,0.0844 0.07617,0.034 0.303516,0.0844 0.07617,0.0176 0.151172,0.0363 0.07617,0.0176 0.145312,0.0434 0.06914,0.0246 0.128906,0.0586 0.06094,0.034 0.105469,0.0832 0.04453,0.0492 0.06914,0.11602 0.02578,0.0668 0.02578,0.15703 z"
       id="path18575" />
    <path
       d="m 37.497851,125.8457 q 0,0.23438 -0.153515,0.37266 -0.152344,0.13828 -0.414844,0.13828 H 36.444335 V 127 h -0.223828 v -1.65117 h 0.694922 q 0.277735,0 0.430078,0.13008 0.152344,0.13007 0.152344,0.36679 z m -0.225,0.002 q 0,-0.31993 -0.384375,-0.31993 h -0.444141 v 0.65157 h 0.453516 q 0.375,0 0.375,-0.33164 z"
       id="path18577" />
  </g>
</svg>
