<?xml version="1.0" encoding="UTF-8" standalone="no"?>
<svg
   width="60.96mm"
   height="128.5mm"
   viewBox="0 0 60.96 128.5"
   version="1.1"
   id="svg263"
   sodipodi:docname="Andras.svg"
   inkscape:version="1.2.2 (732a01da63, 2022-12-09)"
   xmlns:inkscape="http://www.inkscape.org/namespaces/inkscape"
   xmlns:sodipodi="http://sodipodi.sourceforge.net/DTD/sodipodi-0.dtd"
   xmlns="http://www.w3.org/2000/svg"
   xmlns:svg="http://www.w3.org/2000/svg">
  <sodipodi:namedview
     id="namedview265"
     pagecolor="#505050"
     bordercolor="#eeeeee"
     borderopacity="1"
     inkscape:showpageshadow="0"
     inkscape:pageopacity="0"
     inkscape:pagecheckerboard="0"
     inkscape:deskcolor="#505050"
     inkscape:document-units="mm"
     showgrid="false"
     inkscape:zoom="2.34698"
     inkscape:cx="139.54103"
     inkscape:cy="38.773231"
     inkscape:window-width="1920"
     inkscape:window-height="1009"
     inkscape:window-x="5112"
     inkscape:window-y="229"
     inkscape:window-maximized="1"
     inkscape:current-layer="svg263" />
  <defs
     id="defs189">
    <linearGradient
       id="linearGradient2356"
       inkscape:swatch="solid">
      <stop
         style="stop-color:#3a3d46;stop-opacity:1;"
         offset="0"
         id="stop2354" />
    </linearGradient>
    <linearGradient
       id="panelGradient"
       x1="0"
       x2="0"
       y1="0"
       y2="1">
      <stop
         offset="0"
         stop-color="#2b2d33"
         id="stop182" />
      <stop
         offset="1"
         stop-color="#1b1d22"
         id="stop184" />
    </linearGradient>
    <style
       id="style187">
      .title { font-family: 'Roboto', 'Liberation Sans', sans-serif; font-size: 4.2px; fill: #f5f6fa; font-weight: 600; letter-spacing: 1.2px; }
      .subtitle { font-family: 'Roboto', 'Liberation Sans', sans-serif; font-size: 2.4px; fill: #a7acb7; text-anchor: middle; }
      .label { font-family: 'Roboto', 'Liberation Sans', sans-serif; font-size: 2.8px; fill: #cfd3dc; text-anchor: middle; }
      .jack { font-family: 'Roboto', 'Liberation Sans', sans-serif; font-size: 2.4px; fill: #d9dde5; text-anchor: middle; }
      .divider { stroke: #434750; stroke-width: 0.25; stroke-linecap: round; }
    </style>
  </defs>
  <!-- Background -->
  <rect
     width="60.959999"
     height="128.5"
     fill="url(#panelGradient)"
     rx="2"
     ry="2"
     id="rect191"
     style="fill:none;fill-opacity:1;stroke:#3a3d46;stroke-opacity:1"
     x="-0.11273353"
     y="-0.22546706" />
  <!-- Header -->
  <g
     aria-label="ANDRAS"
     id="text193"
     class="title"
     style="font-weight:600;font-size:4.2px;font-family:Roboto, 'Liberation Sans', sans-serif;letter-spacing:1.2px;text-anchor:middle;fill:#f5f6fa"
     transform="translate(0,-2.1166667)">
    <path
       d="M 20.820088,8.5 20.56374,7.7617188 H 19.46247 L 19.206123,8.5 h -0.604981 l 1.054102,-2.8895507 h 0.713672 L 21.418916,8.5 Z M 20.01208,6.0554689 19.999775,6.100586 q -0.02051,0.073828 -0.04922,0.1681641 -0.02871,0.094336 -0.352734,1.0376953 h 0.830566 L 20.14333,6.475879 20.055146,6.1969728 Z"
       id="path418" />
    <path
       d="M 24.770185,8.5 23.511006,6.2749024 q 0.03691,0.3240235 0.03691,0.5208985 V 8.5 H 23.010615 V 5.6104493 h 0.691113 l 1.277637,2.2435546 Q 24.942451,7.544336 24.942451,7.2900391 V 5.6104493 h 0.537305 V 8.5 Z"
       id="path420" />
    <path
       d="m 29.819502,7.0336915 q 0,0.4470703 -0.176367,0.7813476 Q 29.468818,8.1472656 29.146846,8.3236328 28.826924,8.5 28.412666,8.5 H 27.243721 V 5.6104493 h 1.045898 q 0.730078,0 1.129981,0.3691407 0.399902,0.3670898 0.399902,1.0541015 z m -0.609082,0 q 0,-0.4655273 -0.241992,-0.7095703 -0.241992,-0.2460937 -0.691113,-0.2460937 h -0.428614 v 1.9543944 h 0.512696 q 0.389648,0 0.619336,-0.2686523 0.229687,-0.2686524 0.229687,-0.7300781 z"
       id="path422" />
    <path
       d="M 33.461982,8.5 32.791376,7.4028321 h -0.70957 V 8.5 h -0.60498 V 5.6104493 h 1.44375 q 0.516796,0 0.797753,0.2235352 0.280957,0.2214844 0.280957,0.6377929 0,0.3035156 -0.172265,0.525 -0.172266,0.2194336 -0.465528,0.2891602 L 34.142841,8.5 Z m -0.07178,-2.0036132 q 0,-0.4163086 -0.533203,-0.4163086 h -0.775195 v 0.853125 h 0.791602 q 0.254296,0 0.385546,-0.1148437 0.13125,-0.1148438 0.13125,-0.3219727 z"
       id="path424" />
    <path
       d="M 37.75251,8.5 37.496163,7.7617188 h -1.10127 L 36.138545,8.5 h -0.60498 l 1.054102,-2.8895507 h 0.713671 L 38.351338,8.5 Z m -0.808008,-2.4445311 -0.0123,0.045117 q -0.02051,0.073828 -0.04922,0.1681641 -0.02871,0.094336 -0.352734,1.0376953 h 0.830566 L 37.075752,6.475879 36.987569,6.1969728 Z"
       id="path426" />
    <path
       d="m 42.299384,7.6673829 q 0,0.4245116 -0.31582,0.6500976 -0.313769,0.2235351 -0.922851,0.2235351 -0.555762,0 -0.871582,-0.196875 -0.315821,-0.196875 -0.406055,-0.5967773 l 0.584473,-0.096387 q 0.05947,0.2296875 0.231738,0.3342773 0.172266,0.1025391 0.477832,0.1025391 0.633691,0 0.633691,-0.3855469 0,-0.1230468 -0.07383,-0.2030273 Q 41.5652,7.4192375 41.431902,7.3659177 41.300652,7.3125977 40.925359,7.2367185 40.601336,7.1608395 40.474187,7.1157224 40.347039,7.0685544 40.2445,7.007031 40.141961,6.943457 40.070183,6.8552732 39.998403,6.7670892 39.95739,6.6481443 39.91843,6.529199 39.91843,6.3753904 q 0,-0.3916992 0.293261,-0.5988281 0.295313,-0.2091797 0.857227,-0.2091797 0.537304,0 0.805957,0.1681641 0.270703,0.1681641 0.348633,0.5557617 l -0.586524,0.07998 q -0.04512,-0.1866211 -0.18457,-0.2809571 -0.137402,-0.094336 -0.395801,-0.094336 -0.549609,0 -0.549609,0.3445312 0,0.112793 0.05742,0.1845703 0.05947,0.071777 0.174316,0.1230469 0.114844,0.049219 0.465527,0.1250977 0.416309,0.088184 0.594727,0.1640625 0.180469,0.073828 0.285058,0.1743164 0.10459,0.098438 0.159961,0.2378906 0.05537,0.1374023 0.05537,0.3178711 z"
       id="path428" />
  </g>
  <g
     aria-label="BIT TABLE OSCILLATOR"
     id="text195"
     class="subtitle"
     style="font-size:2.4px;font-family:Roboto, 'Liberation Sans', sans-serif;text-anchor:middle;fill:#ffffff"
     transform="translate(0,-2.1166667)">
    <path
       d="m 18.260272,11.534766 q 0,0.220312 -0.160546,0.343359 Q 17.939179,12 17.653241,12 h -0.670312 v -1.651172 h 0.6 q 0.58125,0 0.58125,0.400781 0,0.146485 -0.08203,0.246094 -0.08203,0.09961 -0.232031,0.133594 0.196875,0.02344 0.303516,0.132422 0.10664,0.107812 0.10664,0.273047 z m -0.321093,-0.758204 q 0,-0.133593 -0.09141,-0.191015 -0.09141,-0.05742 -0.264843,-0.05742 h -0.376172 v 0.522656 h 0.376172 q 0.179297,0 0.267187,-0.0668 0.08906,-0.06797 0.08906,-0.207422 z m 0.09492,0.740625 q 0,-0.291796 -0.410157,-0.291796 h -0.417187 v 0.595312 h 0.434765 q 0.205079,0 0.298829,-0.07617 0.09375,-0.07617 0.09375,-0.227344 z"
       id="path381"
       style="fill:#ffffff" />
    <path
       d="m 18.608319,12 v -1.651172 h 0.223829 V 12 Z"
       id="path383"
       style="fill:#ffffff" />
    <path
       d="M 19.897382,10.531641 V 12 h -0.222656 v -1.468359 h -0.567188 v -0.182813 h 1.357031 v 0.182813 z"
       id="path385"
       style="fill:#ffffff" />
    <path
       d="M 21.943476,10.531641 V 12 H 21.72082 v -1.468359 h -0.567188 v -0.182813 h 1.357031 v 0.182813 z"
       id="path387"
       style="fill:#ffffff" />
    <path
       d="M 23.755194,12 23.566522,11.517187 H 22.814179 L 22.624335,12 h -0.232031 l 0.673828,-1.651172 h 0.254297 L 23.98371,12 Z m -0.564843,-1.482422 -0.01055,0.03281 q -0.0293,0.09727 -0.08672,0.249609 l -0.210938,0.542578 h 0.617579 l -0.21211,-0.544922 q -0.03281,-0.08086 -0.06563,-0.182812 z"
       id="path389"
       style="fill:#ffffff" />
    <path
       d="m 25.462616,11.534766 q 0,0.220312 -0.160546,0.343359 Q 25.141523,12 24.855585,12 h -0.670312 v -1.651172 h 0.6 q 0.58125,0 0.58125,0.400781 0,0.146485 -0.08203,0.246094 -0.08203,0.09961 -0.232031,0.133594 0.196875,0.02344 0.303516,0.132422 0.10664,0.107812 0.10664,0.273047 z m -0.321093,-0.758204 q 0,-0.133593 -0.09141,-0.191015 -0.09141,-0.05742 -0.264843,-0.05742 h -0.376172 v 0.522656 h 0.376172 q 0.179297,0 0.267187,-0.0668 0.08906,-0.06797 0.08906,-0.207422 z m 0.09492,0.740625 q 0,-0.291796 -0.410157,-0.291796 h -0.417187 v 0.595312 h 0.434765 q 0.205079,0 0.298829,-0.07617 0.09375,-0.07617 0.09375,-0.227344 z"
       id="path391"
       style="fill:#ffffff" />
    <path
       d="m 25.786054,12 v -1.651172 h 0.223828 v 1.468359 h 0.834375 V 12 Z"
       id="path393"
       style="fill:#ffffff" />
    <path
       d="m 27.12082,12 v -1.651172 h 1.252734 v 0.182813 h -1.028906 v 0.529687 h 0.958593 v 0.180469 h -0.958593 v 0.57539 h 1.076953 V 12 Z"
       id="path395"
       style="fill:#ffffff" />
    <path
       d="m 30.943476,11.166797 q 0,0.258984 -0.09961,0.453515 -0.09844,0.194532 -0.283593,0.298829 -0.185157,0.104297 -0.43711,0.104297 -0.254297,0 -0.439453,-0.103126 -0.183984,-0.103125 -0.28125,-0.297656 -0.09727,-0.195703 -0.09727,-0.455859 0,-0.396094 0.216796,-0.61875 0.216797,-0.223828 0.603516,-0.223828 0.251953,0 0.437109,0.100781 0.185157,0.09961 0.282422,0.290625 0.09844,0.191016 0.09844,0.451172 z m -0.228516,0 q 0,-0.308203 -0.154687,-0.483985 -0.153516,-0.175781 -0.434766,-0.175781 -0.283594,0 -0.438281,0.173438 -0.154688,0.173437 -0.154688,0.486328 0,0.310547 0.15586,0.493359 0.157031,0.181641 0.434765,0.181641 0.285938,0 0.438282,-0.175781 0.153515,-0.176954 0.153515,-0.499219 z"
       id="path397"
       style="fill:#ffffff" />
    <path
       d="m 32.548945,11.544141 q 0,0.228515 -0.179297,0.353906 -0.178125,0.125391 -0.502734,0.125391 -0.603516,0 -0.69961,-0.419532 l 0.216797,-0.04336 q 0.0375,0.148828 0.159375,0.21914 0.121875,0.06914 0.331641,0.06914 0.216797,0 0.333984,-0.07383 0.11836,-0.075 0.11836,-0.219141 0,-0.08086 -0.0375,-0.13125 -0.03633,-0.05039 -0.103125,-0.0832 -0.0668,-0.03281 -0.159375,-0.05508 -0.09258,-0.02227 -0.205078,-0.04805 -0.195704,-0.04336 -0.297657,-0.08672 -0.100781,-0.04336 -0.159375,-0.09609 -0.05859,-0.05391 -0.09023,-0.125391 -0.03047,-0.07148 -0.03047,-0.164062 0,-0.21211 0.161719,-0.326954 0.162891,-0.114843 0.465234,-0.114843 0.28125,0 0.430078,0.08672 0.148829,0.08555 0.208594,0.292969 l -0.220312,0.03867 q -0.03633,-0.13125 -0.138282,-0.189844 -0.101953,-0.05976 -0.282421,-0.05976 -0.198047,0 -0.302344,0.06562 -0.104297,0.06563 -0.104297,0.195703 0,0.07617 0.03984,0.126562 0.04101,0.04922 0.117187,0.08438 0.07617,0.03398 0.303516,0.08437 0.07617,0.01758 0.151172,0.03633 0.07617,0.01758 0.145312,0.04336 0.06914,0.02461 0.128906,0.05859 0.06094,0.03398 0.105469,0.0832 0.04453,0.04922 0.06914,0.116015 0.02578,0.0668 0.02578,0.157032 z"
       id="path399"
       style="fill:#ffffff" />
    <path
       d="m 33.587227,10.507031 q -0.274219,0 -0.426563,0.176953 -0.152344,0.175782 -0.152344,0.482813 0,0.303515 0.158203,0.488672 0.159375,0.183984 0.430079,0.183984 0.346875,0 0.521484,-0.343359 l 0.182812,0.09141 q -0.101953,0.213281 -0.287109,0.324609 -0.183984,0.111329 -0.427734,0.111329 -0.24961,0 -0.432422,-0.103126 -0.181641,-0.104296 -0.277735,-0.296484 -0.09492,-0.193359 -0.09492,-0.457031 0,-0.394922 0.213281,-0.61875 0.213281,-0.223828 0.590625,-0.223828 0.263672,0 0.440625,0.103125 0.176953,0.103125 0.260156,0.305859 l -0.212109,0.07031 q -0.05742,-0.144141 -0.185157,-0.220313 -0.126562,-0.07617 -0.301171,-0.07617 z"
       id="path401"
       style="fill:#ffffff" />
    <path
       d="m 34.613789,12 v -1.651172 h 0.223828 V 12 Z"
       id="path403"
       style="fill:#ffffff" />
    <path
       d="m 35.255977,12 v -1.651172 h 0.223828 v 1.468359 H 36.31418 V 12 Z"
       id="path405"
       style="fill:#ffffff" />
    <path
       d="m 36.590742,12 v -1.651172 h 0.223828 v 1.468359 h 0.834375 V 12 Z"
       id="path407"
       style="fill:#ffffff" />
    <path
       d="M 39.096211,12 38.907539,11.517187 H 38.155195 L 37.965352,12 H 37.73332 l 0.673829,-1.651172 h 0.254296 L 39.324727,12 Z m -0.564844,-1.482422 -0.01055,0.03281 q -0.0293,0.09727 -0.08672,0.249609 l -0.210938,0.542578 h 0.617578 l -0.212109,-0.544922 q -0.03281,-0.08086 -0.06562,-0.182812 z"
       id="path409"
       style="fill:#ffffff" />
    <path
       d="M 39.995038,10.531641 V 12 h -0.222656 v -1.468359 h -0.567188 v -0.182813 h 1.357032 v 0.182813 z"
       id="path411"
       style="fill:#ffffff" />
    <path
       d="m 42.325898,11.166797 q 0,0.258984 -0.09961,0.453515 -0.09844,0.194532 -0.283594,0.298829 -0.185156,0.104297 -0.437109,0.104297 -0.254297,0 -0.439453,-0.103126 -0.183985,-0.103125 -0.28125,-0.297656 -0.09727,-0.195703 -0.09727,-0.455859 0,-0.396094 0.216797,-0.61875 0.216797,-0.223828 0.603515,-0.223828 0.251954,0 0.43711,0.100781 0.185156,0.09961 0.282422,0.290625 0.09844,0.191016 0.09844,0.451172 z m -0.228515,0 q 0,-0.308203 -0.154688,-0.483985 -0.153516,-0.175781 -0.434766,-0.175781 -0.283593,0 -0.438281,0.173438 -0.154687,0.173437 -0.154687,0.486328 0,0.310547 0.155859,0.493359 0.157031,0.181641 0.434766,0.181641 0.285937,0 0.438281,-0.175781 0.153516,-0.176954 0.153516,-0.499219 z"
       id="path413"
       style="fill:#ffffff" />
    <path
       d="M 43.804804,12 43.375898,11.314453 H 42.861445 V 12 h -0.223828 v -1.651172 h 0.776953 q 0.278906,0 0.430078,0.125391 0.152344,0.124218 0.152344,0.346875 0,0.183984 -0.107813,0.309375 -0.106641,0.12539 -0.295312,0.158203 L 44.062617,12 Z m -0.03281,-1.176563 q 0,-0.14414 -0.09844,-0.21914 -0.09727,-0.07617 -0.28125,-0.07617 H 42.861445 V 11.1375 h 0.540234 q 0.176953,0 0.273047,-0.08203 0.09727,-0.0832 0.09727,-0.232032 z"
       id="path415"
       style="fill:#ffffff" />
  </g>
  <!-- Top row section -->
  <rect
     x="2"
     y="11.412501"
     width="56.959999"
     height="6.5"
     fill="#202228"
     stroke="#3a3d46"
     stroke-width="0.4"
     rx="1.2"
     id="rect197" />
  <g
     aria-label="PITCH"
     id="text199"
     class="label"
     style="font-size:2.8px;font-family:Roboto, 'Liberation Sans', sans-serif;text-anchor:middle;fill:#cfd3dc"
     transform="translate(0,-2.6458334)">
    <path
       d="m 11.519922,17.15332 q 0,0.273438 -0.179102,0.434766 -0.177734,0.161328 -0.483984,0.161328 H 10.29082 V 18.5 h -0.261132 v -1.926367 h 0.810742 q 0.324023,0 0.501758,0.151758 0.177734,0.151757 0.177734,0.427929 z m -0.2625,0.0027 q 0,-0.373242 -0.448438,-0.373242 H 10.29082 v 0.760156 h 0.529102 q 0.4375,0 0.4375,-0.386914 z"
       id="path686" />
    <path
       d="m 11.925977,18.5 v -1.926367 h 0.261132 V 18.5 Z"
       id="path688" />
    <path
       d="M 13.429883,16.786914 V 18.5 h -0.259766 v -1.713086 h -0.661718 v -0.213281 h 1.583203 v 0.213281 z"
       id="path690" />
    <path
       d="m 15.238672,16.758203 q -0.319922,0 -0.497656,0.206445 -0.177735,0.205079 -0.177735,0.563282 0,0.354101 0.184571,0.570117 0.185937,0.214648 0.501757,0.214648 0.404688,0 0.608399,-0.400586 l 0.213281,0.106641 q -0.118945,0.248828 -0.334961,0.378711 -0.214648,0.129883 -0.499023,0.129883 -0.291211,0 -0.504493,-0.120313 -0.211914,-0.121679 -0.324023,-0.345898 -0.110742,-0.225586 -0.110742,-0.533203 0,-0.460742 0.248828,-0.721875 0.248828,-0.261133 0.689062,-0.261133 0.307618,0 0.514063,0.120312 0.206445,0.120313 0.303516,0.356836 l -0.247461,0.08203 q -0.06699,-0.168164 -0.216016,-0.257032 -0.147656,-0.08887 -0.351367,-0.08887 z"
       id="path692" />
    <path
       d="M 17.710547,18.5 V 17.607227 H 16.66875 V 18.5 h -0.261133 v -1.926367 h 0.261133 v 0.814844 h 1.041797 V 16.573633 H 17.97168 V 18.5 Z"
       id="path694" />
  </g>
  <g
     aria-label="WAVEFORM"
     id="text201"
     class="label"
     style="font-size:2.8px;font-family:Roboto, 'Liberation Sans', sans-serif;text-anchor:middle;fill:#cfd3dc"
     transform="translate(0,-2.6458334)">
    <path
       d="M 40.977539,18.5 H 40.66582 l -0.333593,-1.223633 q -0.03281,-0.114844 -0.0957,-0.411523 -0.03555,0.158594 -0.06016,0.265234 -0.02461,0.106641 -0.373242,1.369922 h -0.311719 l -0.567382,-1.926367 h 0.27207 l 0.345898,1.223633 q 0.06152,0.229687 0.113477,0.473047 0.03281,-0.150391 0.0752,-0.328125 0.04375,-0.177735 0.380078,-1.368555 h 0.250196 l 0.334961,1.199023 q 0.07656,0.293946 0.120312,0.497657 l 0.0123,-0.04785 q 0.03691,-0.157227 0.06016,-0.255664 0.02324,-0.0998 0.38418,-1.393164 h 0.27207 z"
       id="path669" />
    <path
       d="M 43.046094,18.5 42.825977,17.936719 H 41.948242 L 41.726758,18.5 h -0.270703 l 0.786133,-1.926367 h 0.296679 L 43.312695,18.5 Z m -0.658984,-1.729492 -0.0123,0.03828 Q 42.340625,16.922266 42.273633,17.1 l -0.246094,0.633008 h 0.720508 l -0.247461,-0.635742 q -0.03828,-0.09434 -0.07656,-0.213282 z"
       id="path671" />
    <path
       d="m 44.179492,18.5 h -0.270703 l -0.786133,-1.926367 h 0.274805 l 0.533203,1.35625 0.114844,0.34043 0.114844,-0.34043 0.530468,-1.35625 h 0.274805 z"
       id="path673" />
    <path
       d="m 45.207617,18.5 v -1.926367 h 1.461524 v 0.213281 H 45.46875 v 0.617969 h 1.118359 V 17.61543 H 45.46875 v 0.671289 h 1.256445 V 18.5 Z"
       id="path675" />
    <path
       d="m 47.336328,16.786914 v 0.716406 h 1.07461 v 0.216016 h -1.07461 V 18.5 h -0.261132 v -1.926367 h 1.368554 v 0.213281 z"
       id="path677" />
    <path
       d="m 50.599804,17.52793 q 0,0.302148 -0.116211,0.529101 -0.114843,0.226953 -0.330859,0.348633 -0.216016,0.12168 -0.509961,0.12168 -0.29668,0 -0.512695,-0.120313 -0.214649,-0.120312 -0.328125,-0.347265 -0.113477,-0.228321 -0.113477,-0.531836 0,-0.46211 0.25293,-0.721875 0.25293,-0.261133 0.704102,-0.261133 0.293945,0 0.50996,0.117578 0.216016,0.116211 0.329493,0.339063 0.114843,0.222851 0.114843,0.526367 z m -0.266601,0 q 0,-0.359571 -0.180469,-0.564649 -0.179101,-0.205078 -0.507226,-0.205078 -0.33086,0 -0.511329,0.202344 -0.180468,0.202344 -0.180468,0.567383 0,0.362304 0.181836,0.575586 0.183203,0.211914 0.507226,0.211914 0.333594,0 0.511328,-0.205078 0.179102,-0.206446 0.179102,-0.582422 z"
       id="path679" />
    <path
       d="m 52.325195,18.5 -0.50039,-0.799805 H 51.224609 V 18.5 h -0.261132 v -1.926367 h 0.906445 q 0.32539,0 0.501758,0.146289 0.177734,0.144922 0.177734,0.404687 0,0.214649 -0.125781,0.360938 -0.124414,0.146289 -0.344532,0.18457 L 52.625976,18.5 Z m -0.03828,-1.372656 q 0,-0.168164 -0.114844,-0.255664 -0.113476,-0.08887 -0.328125,-0.08887 H 51.22461 v 0.710937 h 0.630274 q 0.206445,0 0.318554,-0.0957 0.113477,-0.09707 0.113477,-0.270703 z"
       id="path681" />
    <path
       d="m 54.623438,18.5 v -1.285156 q 0,-0.213281 0.0123,-0.410156 -0.06699,0.244726 -0.120313,0.382812 L 54.017774,18.5 h -0.183203 l -0.504492,-1.3125 -0.07656,-0.232422 -0.04512,-0.15039 0.0041,0.151757 0.0055,0.258399 V 18.5 h -0.232422 v -1.926367 h 0.343164 l 0.512696,1.335742 q 0.02734,0.08066 0.05195,0.173633 0.02598,0.0916 0.03418,0.132617 0.01094,-0.05469 0.04512,-0.16543 0.03555,-0.112109 0.04785,-0.14082 l 0.503125,-1.335742 h 0.334961 V 18.5 Z"
       id="path683" />
  </g>
  <line
     class="divider"
     x1="3"
     y1="35"
     x2="57.96"
     y2="35"
     id="line203" />
  <!-- Mid controls row 1 -->
  <g
     aria-label="NOISE"
     id="text205"
     class="label"
     style="font-size:2.8px;font-family:Roboto, 'Liberation Sans', sans-serif;text-anchor:middle;fill:#ffffff">
    <path
       d="m 11.122754,45 -1.030859,-1.640625 0.0068,0.132617 0.0068,0.228321 V 45 H 9.8731446 V 43.073633 H 10.17666 l 1.041797,1.651562 q -0.01641,-0.267968 -0.01641,-0.388281 v -1.263281 h 0.235156 V 45 Z"
       id="path658"
       style="fill:#ffffff" />
    <path
       d="m 13.709473,44.02793 q 0,0.302148 -0.116211,0.529101 -0.114844,0.226953 -0.33086,0.348633 -0.216015,0.12168 -0.509961,0.12168 -0.296679,0 -0.512695,-0.120313 -0.214648,-0.120312 -0.328125,-0.347265 -0.113477,-0.228321 -0.113477,-0.531836 0,-0.46211 0.25293,-0.721875 0.25293,-0.261133 0.704102,-0.261133 0.293945,0 0.509961,0.117578 0.216015,0.116211 0.329492,0.339063 0.114844,0.222851 0.114844,0.526367 z m -0.266602,0 q 0,-0.359571 -0.180469,-0.564649 -0.179101,-0.205078 -0.507226,-0.205078 -0.33086,0 -0.511328,0.202344 -0.180469,0.202344 -0.180469,0.567383 0,0.362304 0.181836,0.575586 0.183203,0.211914 0.507226,0.211914 0.333594,0 0.511328,-0.205078 0.179102,-0.206446 0.179102,-0.582422 z"
       id="path660"
       style="fill:#ffffff" />
    <path
       d="m 14.101855,45 v -1.926367 h 0.261133 V 45 Z"
       id="path662"
       style="fill:#ffffff" />
    <path
       d="m 16.360449,44.468164 q 0,0.266602 -0.20918,0.412891 -0.207812,0.146289 -0.586523,0.146289 -0.704101,0 -0.816211,-0.489453 l 0.25293,-0.05059 q 0.04375,0.173633 0.185937,0.255664 0.142188,0.08066 0.386914,0.08066 0.25293,0 0.389649,-0.08613 0.138086,-0.0875 0.138086,-0.255664 0,-0.09434 -0.04375,-0.153125 -0.04238,-0.05879 -0.120313,-0.09707 -0.07793,-0.03828 -0.185937,-0.06426 -0.108008,-0.02598 -0.239258,-0.05606 -0.22832,-0.05059 -0.347266,-0.101172 -0.117578,-0.05059 -0.185937,-0.112109 -0.06836,-0.06289 -0.105274,-0.146289 -0.03555,-0.0834 -0.03555,-0.191406 0,-0.247461 0.188671,-0.381446 0.190039,-0.133984 0.542774,-0.133984 0.328125,0 0.501758,0.101172 0.173632,0.0998 0.243359,0.341797 l -0.257031,0.04512 q -0.04238,-0.153125 -0.161328,-0.221485 -0.118946,-0.06973 -0.329493,-0.06973 -0.231054,0 -0.352734,0.07656 -0.12168,0.07656 -0.12168,0.228321 0,0.08887 0.04649,0.147656 0.04785,0.05742 0.136718,0.09844 0.08887,0.03965 0.354102,0.09844 0.08887,0.02051 0.176367,0.04238 0.08887,0.02051 0.169531,0.05059 0.08066,0.02871 0.150391,0.06836 0.07109,0.03965 0.123047,0.09707 0.05195,0.05742 0.08066,0.135352 0.03008,0.07793 0.03008,0.183203 z"
       id="path664"
       style="fill:#ffffff" />
    <path
       d="m 16.718652,45 v -1.926367 h 1.461524 v 0.213281 h -1.200391 v 0.617969 h 1.118359 v 0.210547 h -1.118359 v 0.671289 H 18.23623 V 45 Z"
       id="path666"
       style="fill:#ffffff" />
  </g>
  <g
     aria-label="SHAPE"
     id="text207"
     class="label"
     style="font-size:2.8px;font-family:Roboto, 'Liberation Sans', sans-serif;text-anchor:middle;fill:#ffffff">
    <path
       d="m 27.492871,44.468164 q 0,0.266602 -0.20918,0.412891 -0.207812,0.146289 -0.586523,0.146289 -0.704102,0 -0.816211,-0.489453 l 0.25293,-0.05059 q 0.04375,0.173633 0.185937,0.255664 0.142188,0.08066 0.386914,0.08066 0.25293,0 0.389649,-0.08613 0.138086,-0.0875 0.138086,-0.255664 0,-0.09434 -0.04375,-0.153125 -0.04238,-0.05879 -0.120313,-0.09707 -0.07793,-0.03828 -0.185937,-0.06426 -0.108008,-0.02598 -0.239258,-0.05606 -0.22832,-0.05059 -0.347266,-0.101172 -0.117578,-0.05059 -0.185937,-0.112109 -0.06836,-0.06289 -0.105274,-0.146289 -0.03555,-0.0834 -0.03555,-0.191406 0,-0.247461 0.188672,-0.381446 0.190039,-0.133984 0.542774,-0.133984 0.328125,0 0.501758,0.101172 0.173632,0.0998 0.243359,0.341797 l -0.257031,0.04512 q -0.04238,-0.153125 -0.161328,-0.221485 -0.118946,-0.06973 -0.329493,-0.06973 -0.231054,0 -0.352734,0.07656 -0.12168,0.07656 -0.12168,0.228321 0,0.08887 0.04649,0.147656 0.04785,0.05742 0.136718,0.09844 0.08887,0.03965 0.354102,0.09844 0.08887,0.02051 0.176367,0.04238 0.08887,0.02051 0.169531,0.05059 0.08066,0.02871 0.150391,0.06836 0.07109,0.03965 0.123047,0.09707 0.05195,0.05742 0.08066,0.135352 0.03008,0.07793 0.03008,0.183203 z"
       id="path647"
       style="fill:#ffffff" />
    <path
       d="M 29.154004,45 V 44.107227 H 28.112207 V 45 h -0.261133 v -1.926367 h 0.261133 v 0.814844 h 1.041797 v -0.814844 h 0.261133 V 45 Z"
       id="path649"
       style="fill:#ffffff" />
    <path
       d="M 31.238965,45 31.018848,44.436719 H 30.141113 L 29.919629,45 h -0.270703 l 0.786133,-1.926367 h 0.296679 L 31.505566,45 Z m -0.658984,-1.729492 -0.01231,0.03828 Q 30.533496,43.422266 30.466504,43.6 l -0.246094,0.633008 h 0.720508 l -0.247461,-0.635742 q -0.03828,-0.09434 -0.07656,-0.213282 z"
       id="path651"
       style="fill:#ffffff" />
    <path
       d="m 33.230957,43.65332 q 0,0.273438 -0.179102,0.434766 -0.177734,0.161328 -0.483984,0.161328 H 32.001855 V 45 h -0.261132 v -1.926367 h 0.810742 q 0.324023,0 0.501758,0.151758 0.177734,0.151757 0.177734,0.427929 z m -0.2625,0.0027 q 0,-0.373242 -0.448438,-0.373242 h -0.518164 v 0.760156 h 0.529102 q 0.4375,0 0.4375,-0.386914 z"
       id="path653"
       style="fill:#ffffff" />
    <path
       d="m 33.608301,45 v -1.926367 h 1.461523 v 0.213281 h -1.200391 v 0.617969 h 1.11836 v 0.210547 h -1.11836 v 0.671289 h 1.256446 V 45 Z"
       id="path655"
       style="fill:#ffffff" />
  </g>
  <g
     aria-label="TIME MOD"
     id="text209"
     class="label"
     style="font-size:2.8px;font-family:Roboto, 'Liberation Sans', sans-serif;text-anchor:middle;fill:#ffffff">
    <path
       d="M 40.985059,43.286914 V 45 h -0.259766 v -1.713086 h -0.661719 v -0.213281 h 1.583203 v 0.213281 z"
       id="path632"
       style="fill:#ffffff" />
    <path
       d="m 41.969434,45 v -1.926367 h 0.261133 V 45 Z"
       id="path634"
       style="fill:#ffffff" />
    <path
       d="m 44.356543,45 v -1.285156 q 0,-0.213281 0.0123,-0.410156 -0.06699,0.244726 -0.120313,0.382812 L 43.750879,45 h -0.183203 l -0.504492,-1.3125 -0.07656,-0.232422 -0.04512,-0.15039 0.0041,0.151757 0.0055,0.258399 V 45 h -0.232422 v -1.926367 h 0.343165 l 0.512695,1.335742 q 0.02734,0.08066 0.05195,0.173633 0.02598,0.0916 0.03418,0.132617 0.01094,-0.05469 0.04512,-0.16543 0.03555,-0.112109 0.04785,-0.14082 l 0.503125,-1.335742 h 0.334961 V 45 Z"
       id="path636"
       style="fill:#ffffff" />
    <path
       d="m 45.051074,45 v -1.926367 h 1.461524 v 0.213281 h -1.200391 v 0.617969 h 1.118359 v 0.210547 h -1.118359 v 0.671289 h 1.256445 V 45 Z"
       id="path638"
       style="fill:#ffffff" />
    <path
       d="m 49.334473,45 v -1.285156 q 0,-0.213281 0.0123,-0.410156 -0.06699,0.244726 -0.120312,0.382812 L 48.728809,45 h -0.183204 l -0.504492,-1.3125 -0.07656,-0.232422 -0.04512,-0.15039 0.0041,0.151757 0.0055,0.258399 V 45 h -0.232422 v -1.926367 h 0.343164 l 0.512695,1.335742 q 0.02734,0.08066 0.05195,0.173633 0.02598,0.0916 0.03418,0.132617 0.01094,-0.05469 0.04512,-0.16543 0.03555,-0.112109 0.04785,-0.14082 l 0.503125,-1.335742 h 0.334961 V 45 Z"
       id="path640"
       style="fill:#ffffff" />
    <path
       d="m 51.843262,44.02793 q 0,0.302148 -0.116211,0.529101 -0.114844,0.226953 -0.33086,0.348633 -0.216015,0.12168 -0.509961,0.12168 -0.296679,0 -0.512695,-0.120313 -0.214648,-0.120312 -0.328125,-0.347265 -0.113476,-0.228321 -0.113476,-0.531836 0,-0.46211 0.252929,-0.721875 0.25293,-0.261133 0.704102,-0.261133 0.293945,0 0.509961,0.117578 0.216015,0.116211 0.329492,0.339063 0.114844,0.222851 0.114844,0.526367 z m -0.266602,0 q 0,-0.359571 -0.180469,-0.564649 -0.179101,-0.205078 -0.507226,-0.205078 -0.33086,0 -0.511328,0.202344 -0.180469,0.202344 -0.180469,0.567383 0,0.362304 0.181836,0.575586 0.183203,0.211914 0.507226,0.211914 0.333594,0 0.511328,-0.205078 0.179102,-0.206446 0.179102,-0.582422 z"
       id="path642"
       style="fill:#ffffff" />
    <path
       d="m 53.865332,44.016992 q 0,0.298047 -0.116211,0.522266 -0.116211,0.222851 -0.329492,0.341797 Q 53.206348,45 52.927442,45 h -0.720508 v -1.926367 h 0.637109 q 0.489453,0 0.754688,0.246094 0.266601,0.244726 0.266601,0.697265 z m -0.2625,0 q 0,-0.358203 -0.196875,-0.545508 -0.195508,-0.188671 -0.567383,-0.188671 h -0.370507 v 1.508007 h 0.429296 q 0.211914,0 0.371875,-0.09297 0.161329,-0.09297 0.247461,-0.267969 0.08613,-0.175 0.08613,-0.412891 z"
       id="path644"
       style="fill:#ffffff" />
  </g>
  <line
     class="divider"
     x1="3"
     y1="66"
     x2="57.96"
     y2="66"
     id="line211" />
  <!-- Mid controls row 2 -->
  <g
     aria-label="COMB"
     id="text213"
     class="label"
     style="font-size:2.8px;font-family:Roboto, 'Liberation Sans', sans-serif;text-anchor:middle;fill:#ffffff">
    <path
       d="m 10.882813,71.258203 q -0.319922,0 -0.497657,0.206445 -0.177734,0.205079 -0.177734,0.563282 0,0.354101 0.18457,0.570117 0.185938,0.214648 0.501758,0.214648 0.404688,0 0.608398,-0.400586 l 0.213282,0.106641 q -0.118946,0.248828 -0.334961,0.378711 -0.214649,0.129883 -0.499024,0.129883 -0.291211,0 -0.504492,-0.120313 -0.211914,-0.121679 -0.324023,-0.345898 -0.1107424,-0.225586 -0.1107424,-0.533203 0,-0.460742 0.2488284,-0.721875 0.248828,-0.261133 0.689062,-0.261133 0.307617,0 0.514063,0.120312 0.206445,0.120313 0.303515,0.356836 l -0.247461,0.08203 q -0.06699,-0.168164 -0.216015,-0.257032 -0.147657,-0.08887 -0.351367,-0.08887 z"
       id="path623"
       style="fill:#ffffff" />
    <path
       d="m 13.866016,72.02793 q 0,0.302148 -0.116211,0.529101 -0.114844,0.226953 -0.33086,0.348633 -0.216015,0.12168 -0.509961,0.12168 -0.296679,0 -0.512695,-0.120313 -0.214648,-0.120312 -0.328125,-0.347265 -0.113477,-0.228321 -0.113477,-0.531836 0,-0.46211 0.25293,-0.721875 0.25293,-0.261133 0.704102,-0.261133 0.293945,0 0.509961,0.117578 0.216015,0.116211 0.329492,0.339063 0.114844,0.222851 0.114844,0.526367 z m -0.266602,0 q 0,-0.359571 -0.180469,-0.564649 -0.179101,-0.205078 -0.507226,-0.205078 -0.33086,0 -0.511328,0.202344 -0.180469,0.202344 -0.180469,0.567383 0,0.362304 0.181836,0.575586 0.183203,0.211914 0.507226,0.211914 0.333594,0 0.511328,-0.205078 0.179102,-0.206446 0.179102,-0.582422 z"
       id="path625"
       style="fill:#ffffff" />
    <path
       d="m 15.867578,73 v -1.285156 q 0,-0.213281 0.0123,-0.410156 -0.06699,0.244726 -0.120313,0.382812 L 15.261914,73 h -0.183203 l -0.504492,-1.3125 -0.07656,-0.232422 -0.04512,-0.15039 0.0041,0.151757 0.0055,0.258399 V 73 h -0.232422 v -1.926367 h 0.343164 l 0.512696,1.335742 q 0.02734,0.08066 0.05195,0.173633 0.02598,0.0916 0.03418,0.132617 0.01094,-0.05469 0.04512,-0.16543 0.03555,-0.112109 0.04785,-0.14082 l 0.503125,-1.335742 h 0.334961 V 73 Z"
       id="path627"
       style="fill:#ffffff" />
    <path
       d="m 18.052344,72.457227 q 0,0.257031 -0.187305,0.400586 Q 17.677734,73 17.34414,73 h -0.782031 v -1.926367 h 0.7 q 0.678125,0 0.678125,0.467578 0,0.170898 -0.0957,0.287109 -0.0957,0.116211 -0.270703,0.15586 0.229687,0.02734 0.354101,0.154492 0.124415,0.125781 0.124415,0.318555 z m -0.37461,-0.884571 q 0,-0.155859 -0.10664,-0.222851 -0.106641,-0.06699 -0.308985,-0.06699 h -0.438867 v 0.609765 h 0.438867 q 0.20918,0 0.311719,-0.07793 0.103906,-0.0793 0.103906,-0.241992 z m 0.110742,0.864063 q 0,-0.34043 -0.478515,-0.34043 h -0.486719 v 0.694531 h 0.507227 q 0.239257,0 0.348632,-0.08887 0.109375,-0.08887 0.109375,-0.265234 z"
       id="path629"
       style="fill:#ffffff" />
  </g>
  <g
     aria-label="SOFT FOLD"
     id="text215"
     class="label"
     style="font-size:2.8px;font-family:Roboto, 'Liberation Sans', sans-serif;text-anchor:middle;fill:#ffffff">
    <path
       d="m 24.408496,72.468164 q 0,0.266602 -0.209179,0.412891 -0.207813,0.146289 -0.586524,0.146289 -0.704101,0 -0.816211,-0.489453 l 0.25293,-0.05059 q 0.04375,0.173633 0.185937,0.255664 0.142188,0.08066 0.386914,0.08066 0.25293,0 0.389649,-0.08613 0.138086,-0.0875 0.138086,-0.255664 0,-0.09434 -0.04375,-0.153125 -0.04238,-0.05879 -0.120313,-0.09707 -0.07793,-0.03828 -0.185937,-0.06426 -0.108008,-0.02598 -0.239258,-0.05606 -0.22832,-0.05059 -0.347266,-0.101172 -0.117578,-0.05059 -0.185937,-0.112109 -0.06836,-0.06289 -0.105274,-0.146289 -0.03555,-0.0834 -0.03555,-0.191406 0,-0.247461 0.188671,-0.381446 0.190039,-0.133984 0.542774,-0.133984 0.328125,0 0.501758,0.101172 0.173632,0.0998 0.243359,0.341797 l -0.257031,0.04512 q -0.04238,-0.153125 -0.161328,-0.221485 -0.118946,-0.06973 -0.329493,-0.06973 -0.231054,0 -0.352734,0.07656 -0.12168,0.07656 -0.12168,0.228321 0,0.08887 0.04649,0.147656 0.04785,0.05742 0.136719,0.09844 0.08887,0.03965 0.354101,0.09844 0.08887,0.02051 0.176367,0.04238 0.08887,0.02051 0.169532,0.05059 0.08066,0.02871 0.15039,0.06836 0.07109,0.03965 0.123047,0.09707 0.05195,0.05742 0.08066,0.135352 0.03008,0.07793 0.03008,0.183203 z"
       id="path606"
       style="fill:#ffffff" />
    <path
       d="m 26.580957,72.02793 q 0,0.302148 -0.116211,0.529101 -0.114844,0.226953 -0.330859,0.348633 -0.216016,0.12168 -0.509961,0.12168 -0.29668,0 -0.512695,-0.120313 -0.214649,-0.120312 -0.328125,-0.347265 -0.113477,-0.228321 -0.113477,-0.531836 0,-0.46211 0.25293,-0.721875 0.252929,-0.261133 0.704101,-0.261133 0.293946,0 0.509961,0.117578 0.216016,0.116211 0.329492,0.339063 0.114844,0.222851 0.114844,0.526367 z m -0.266601,0 q 0,-0.359571 -0.180469,-0.564649 -0.179102,-0.205078 -0.507227,-0.205078 -0.330859,0 -0.511328,0.202344 -0.180469,0.202344 -0.180469,0.567383 0,0.362304 0.181836,0.575586 0.183203,0.211914 0.507227,0.211914 0.333594,0 0.511328,-0.205078 0.179102,-0.206446 0.179102,-0.582422 z"
       id="path608"
       style="fill:#ffffff" />
    <path
       d="m 27.205762,71.286914 v 0.716406 h 1.074609 v 0.216016 H 27.205762 V 73 h -0.261133 v -1.926367 h 1.368555 v 0.213281 z"
       id="path610"
       style="fill:#ffffff" />
    <path
       d="M 29.409668,71.286914 V 73 h -0.259766 v -1.713086 h -0.661718 v -0.213281 h 1.583203 v 0.213281 z"
       id="path612"
       style="fill:#ffffff" />
    <path
       d="m 31.353809,71.286914 v 0.716406 h 1.074609 v 0.216016 H 31.353809 V 73 h -0.261133 v -1.926367 h 1.368555 v 0.213281 z"
       id="path614"
       style="fill:#ffffff" />
    <path
       d="m 34.617285,72.02793 q 0,0.302148 -0.116211,0.529101 -0.114844,0.226953 -0.330859,0.348633 -0.216016,0.12168 -0.509961,0.12168 -0.29668,0 -0.512696,-0.120313 -0.214648,-0.120312 -0.328125,-0.347265 -0.113476,-0.228321 -0.113476,-0.531836 0,-0.46211 0.252929,-0.721875 0.25293,-0.261133 0.704102,-0.261133 0.293945,0 0.509961,0.117578 0.216016,0.116211 0.329492,0.339063 0.114844,0.222851 0.114844,0.526367 z m -0.266602,0 q 0,-0.359571 -0.180468,-0.564649 -0.179102,-0.205078 -0.507227,-0.205078 -0.330859,0 -0.511328,0.202344 -0.180469,0.202344 -0.180469,0.567383 0,0.362304 0.181836,0.575586 0.183203,0.211914 0.507227,0.211914 0.333593,0 0.511328,-0.205078 0.179101,-0.206446 0.179101,-0.582422 z"
       id="path616"
       style="fill:#ffffff" />
    <path
       d="m 34.980957,73 v -1.926367 h 0.261133 v 1.713086 h 0.973437 V 73 Z"
       id="path618"
       style="fill:#ffffff" />
    <path
       d="m 38.196583,72.016992 q 0,0.298047 -0.116211,0.522266 -0.116211,0.222851 -0.329493,0.341797 Q 37.537598,73 37.258692,73 h -0.720508 v -1.926367 h 0.637109 q 0.489454,0 0.754688,0.246094 0.266602,0.244726 0.266602,0.697265 z m -0.2625,0 q 0,-0.358203 -0.196875,-0.545508 -0.195508,-0.188671 -0.567383,-0.188671 h -0.370508 v 1.508007 h 0.429297 q 0.211914,0 0.371875,-0.09297 0.161328,-0.09297 0.247461,-0.267969 0.08613,-0.175 0.08613,-0.412891 z"
       id="path620"
       style="fill:#ffffff" />
  </g>
  <!-- Mode section -->
  <rect
     x="40.290531"
     y="68.803734"
     width="12.534464"
     height="21.094053"
     fill="#202228"
     stroke="#3a3d46"
     stroke-width="0.3"
     rx="0.89531887"
     id="rect217" />
  <g
     aria-label="MODE"
     id="text219"
     class="subtitle"
     style="font-size:2.4px;font-family:Roboto, 'Liberation Sans', sans-serif;text-anchor:middle;fill:#a7acb7"
     transform="translate(-0.52916663)">
    <path
       d="m 45.000781,73 v -1.101563 q 0,-0.182812 0.01055,-0.351562 -0.05742,0.209766 -0.103125,0.328125 L 44.481641,73 h -0.157032 l -0.432422,-1.125 -0.06562,-0.199219 -0.03867,-0.128906 0.0035,0.130078 0.0047,0.221484 V 73 h -0.199219 v -1.651172 h 0.294141 l 0.439453,1.144922 q 0.02344,0.06914 0.04453,0.148828 0.02227,0.07852 0.0293,0.113672 0.0094,-0.04687 0.03867,-0.141797 0.03047,-0.09609 0.04102,-0.120703 l 0.43125,-1.144922 h 0.28711 V 73 Z"
       id="path597" />
    <path
       d="m 47.151172,72.166797 q 0,0.258984 -0.09961,0.453515 -0.09844,0.194532 -0.283593,0.298829 -0.185157,0.104297 -0.43711,0.104297 -0.254297,0 -0.439453,-0.103126 -0.183984,-0.103125 -0.28125,-0.297656 -0.09727,-0.195703 -0.09727,-0.455859 0,-0.396094 0.216796,-0.61875 0.216797,-0.223828 0.603516,-0.223828 0.251953,0 0.437109,0.100781 0.185157,0.09961 0.282422,0.290625 0.09844,0.191016 0.09844,0.451172 z m -0.228516,0 q 0,-0.308203 -0.154687,-0.483985 -0.153516,-0.175781 -0.434766,-0.175781 -0.283594,0 -0.438281,0.173438 -0.154688,0.173437 -0.154688,0.486328 0,0.310547 0.15586,0.493359 0.157031,0.181641 0.434765,0.181641 0.285938,0 0.438282,-0.175781 0.153515,-0.176954 0.153515,-0.499219 z"
       id="path599" />
    <path
       d="m 48.884375,72.157422 q 0,0.255469 -0.09961,0.447656 -0.09961,0.191016 -0.282422,0.292969 Q 48.319531,73 48.080469,73 h -0.617578 v -1.651172 h 0.546094 q 0.419531,0 0.646875,0.210938 0.228515,0.209765 0.228515,0.597656 z m -0.225,0 q 0,-0.307031 -0.16875,-0.467578 -0.167578,-0.161719 -0.486328,-0.161719 h -0.317578 v 1.292578 h 0.367969 q 0.18164,0 0.31875,-0.07969 0.138281,-0.07969 0.212109,-0.229688 0.07383,-0.15 0.07383,-0.353906 z"
       id="path601" />
    <path
       d="m 49.196094,73 v -1.651172 h 1.252734 v 0.182813 h -1.028906 v 0.529687 h 0.958594 v 0.180469 h -0.958594 v 0.57539 h 1.076953 V 73 Z"
       id="path603" />
  </g>
  <g
     aria-label="LFSR"
     id="text221"
     style="font-size:1.9px;font-family:Roboto, 'Liberation Sans', sans-serif;text-anchor:middle;fill:#d9dde5"
     class="jack"
     transform="translate(-3.7041668)">
    <path
       d="m 44.727515,77 v -1.307178 h 0.177197 v 1.162451 h 0.660547 V 77 Z"
       id="path588" />
    <path
       d="m 45.961401,75.837549 v 0.486133 h 0.7292 v 0.146582 h -0.7292 V 77 h -0.177197 v -1.307178 h 0.928662 v 0.144727 z"
       id="path590" />
    <path
       d="m 47.969019,76.639111 q 0,0.180909 -0.141944,0.280176 -0.141015,0.09927 -0.397998,0.09927 -0.477783,0 -0.553857,-0.332129 l 0.171631,-0.03433 q 0.02969,0.117822 0.126171,0.173486 0.09648,0.05474 0.262549,0.05474 0.171631,0 0.264405,-0.05845 0.0937,-0.05938 0.0937,-0.173486 0,-0.06401 -0.02969,-0.103907 -0.02876,-0.03989 -0.08164,-0.06587 -0.05288,-0.02598 -0.126172,-0.0436 -0.07329,-0.01763 -0.162354,-0.03804 -0.154931,-0.03433 -0.235644,-0.06865 -0.07978,-0.03433 -0.126172,-0.07607 -0.04639,-0.04268 -0.07144,-0.09927 -0.02412,-0.05659 -0.02412,-0.129883 0,-0.16792 0.128028,-0.258838 0.128955,-0.09092 0.36831,-0.09092 0.222656,0 0.340479,0.06865 0.117822,0.06773 0.165136,0.231934 l -0.174414,0.03061 q -0.02876,-0.103906 -0.109472,-0.150293 -0.08071,-0.04731 -0.223584,-0.04731 -0.156787,0 -0.239356,0.05195 -0.08257,0.05195 -0.08257,0.154931 0,0.0603 0.03154,0.100196 0.03247,0.03897 0.09277,0.0668 0.0603,0.0269 0.240283,0.0668 0.0603,0.01392 0.119678,0.02876 0.0603,0.01392 0.115039,0.03433 0.05474,0.01948 0.102051,0.04639 0.04824,0.0269 0.0835,0.06587 0.03525,0.03896 0.05474,0.09185 0.02041,0.05288 0.02041,0.124316 z"
       id="path592" />
    <path
       d="M 49.136108,77 48.796557,76.457275 H 48.389282 V 77 h -0.177197 v -1.307178 h 0.615088 q 0.2208,0 0.340478,0.09927 0.120606,0.09834 0.120606,0.274609 0,0.145655 -0.08535,0.244922 -0.08442,0.09927 -0.233789,0.125244 L 49.34021,77 Z m -0.02598,-0.931445 q 0,-0.114112 -0.07793,-0.173487 -0.077,-0.0603 -0.222656,-0.0603 h -0.420264 v 0.482422 h 0.427686 q 0.140087,0 0.216162,-0.06494 0.077,-0.06587 0.077,-0.183691 z"
       id="path594" />
  </g>
  <g
     aria-label="SQR"
     id="text223"
     style="font-size:1.9px;font-family:Roboto, 'Liberation Sans', sans-serif;text-anchor:middle;fill:#d9dde5"
     class="jack"
     transform="translate(-3.7041668)">
    <path
       d="m 46.121436,81.639111 q 0,0.180909 -0.141944,0.280176 -0.141015,0.09927 -0.397998,0.09927 -0.477783,0 -0.553857,-0.332129 l 0.171631,-0.03433 q 0.02969,0.117822 0.126171,0.173486 0.09648,0.05474 0.262549,0.05474 0.171631,0 0.264405,-0.05845 0.0937,-0.05938 0.0937,-0.173486 0,-0.06401 -0.02969,-0.103907 -0.02876,-0.03989 -0.08164,-0.06587 -0.05288,-0.02598 -0.126172,-0.0436 -0.07329,-0.01763 -0.162354,-0.03804 -0.154931,-0.03433 -0.235644,-0.06865 -0.07978,-0.03433 -0.126172,-0.07607 -0.04639,-0.04268 -0.07144,-0.09927 -0.02412,-0.05659 -0.02412,-0.129883 0,-0.16792 0.128028,-0.258838 0.128955,-0.09092 0.36831,-0.09092 0.222656,0 0.340479,0.06865 0.117822,0.06773 0.165136,0.231934 l -0.174414,0.03061 q -0.02876,-0.103906 -0.109472,-0.150293 -0.08071,-0.04731 -0.223584,-0.04731 -0.156787,0 -0.239356,0.05195 -0.08257,0.05195 -0.08257,0.154931 0,0.0603 0.03154,0.100196 0.03247,0.03897 0.09277,0.0668 0.0603,0.0269 0.240283,0.0668 0.0603,0.01392 0.119678,0.02876 0.0603,0.01392 0.115039,0.03433 0.05474,0.01948 0.102051,0.04639 0.04824,0.0269 0.0835,0.06587 0.03525,0.03896 0.05474,0.09185 0.02041,0.05288 0.02041,0.124316 z"
       id="path581" />
    <path
       d="m 47.595605,81.340381 q 0,0.276465 -0.13916,0.45459 -0.13916,0.178125 -0.386865,0.210595 0.03804,0.116895 0.09927,0.168848 0.06216,0.05195 0.156787,0.05195 0.05103,0 0.106689,-0.01206 v 0.124316 q -0.08628,0.02041 -0.165137,0.02041 -0.140087,0 -0.231005,-0.07979 -0.08999,-0.07886 -0.14751,-0.264404 -0.183692,-0.0093 -0.317285,-0.09277 -0.132666,-0.08442 -0.203174,-0.233789 -0.06958,-0.150293 -0.06958,-0.3479 0,-0.313574 0.171631,-0.489844 0.171631,-0.177197 0.477783,-0.177197 0.199463,0 0.346045,0.07979 0.146582,0.07886 0.223584,0.230078 0.07793,0.151221 0.07793,0.357178 z m -0.180908,0 q 0,-0.243994 -0.122461,-0.383154 -0.121533,-0.139161 -0.344189,-0.139161 -0.224512,0 -0.346973,0.137305 -0.122461,0.137305 -0.122461,0.38501 0,0.245849 0.123389,0.390576 0.124316,0.143799 0.344189,0.143799 0.226368,0 0.346973,-0.13916 0.121533,-0.140088 0.121533,-0.395215 z"
       id="path583" />
    <path
       d="M 48.766406,82 48.426855,81.457275 H 48.01958 V 82 h -0.177197 v -1.307178 h 0.615088 q 0.2208,0 0.340478,0.09927 0.120606,0.09834 0.120606,0.274609 0,0.145655 -0.08535,0.244922 -0.08442,0.09927 -0.233789,0.125244 L 48.970508,82 Z m -0.02598,-0.931445 q 0,-0.114112 -0.07793,-0.173487 -0.077,-0.0603 -0.222656,-0.0603 h -0.42026 v 0.482422 h 0.427685 q 0.140088,0 0.216163,-0.06494 0.077,-0.06587 0.077,-0.183691 z"
       id="path585" />
  </g>
  <g
     aria-label="SQR2"
     id="text225"
     style="font-size:1.9px;font-family:Roboto, 'Liberation Sans', sans-serif;text-anchor:middle;fill:#d9dde5"
     class="jack"
     transform="translate(-3.7041668)">
    <path
       d="m 45.593091,86.639111 q 0,0.180909 -0.141944,0.280176 -0.141015,0.09927 -0.397998,0.09927 -0.477783,0 -0.553857,-0.332129 l 0.171631,-0.03433 q 0.02969,0.117822 0.126172,0.173486 0.09648,0.05474 0.262549,0.05474 0.17163,0 0.264404,-0.05845 0.0937,-0.05938 0.0937,-0.173486 0,-0.06401 -0.02969,-0.103907 -0.02876,-0.03989 -0.08164,-0.06587 -0.05288,-0.02598 -0.126172,-0.0436 -0.07329,-0.01763 -0.162353,-0.03804 -0.154932,-0.03433 -0.235645,-0.06865 -0.07979,-0.03433 -0.126172,-0.07607 -0.04639,-0.04268 -0.07144,-0.09927 -0.02412,-0.05659 -0.02412,-0.129883 0,-0.16792 0.128028,-0.258838 0.128955,-0.09092 0.36831,-0.09092 0.222657,0 0.340479,0.06865 0.117822,0.06773 0.165137,0.231934 l -0.174414,0.03061 q -0.02876,-0.103906 -0.109473,-0.150293 -0.08071,-0.04731 -0.223584,-0.04731 -0.156787,0 -0.239356,0.05195 -0.08257,0.05195 -0.08257,0.154931 0,0.0603 0.03154,0.100196 0.03247,0.03897 0.09277,0.0668 0.0603,0.0269 0.240284,0.0668 0.0603,0.01392 0.119677,0.02876 0.0603,0.01392 0.115039,0.03433 0.05474,0.01948 0.102051,0.04639 0.04824,0.0269 0.0835,0.06587 0.03525,0.03896 0.05474,0.09185 0.02041,0.05288 0.02041,0.124316 z"
       id="path572" />
    <path
       d="m 47.067261,86.340381 q 0,0.276465 -0.13916,0.45459 -0.139161,0.178125 -0.386866,0.210595 0.03804,0.116895 0.09927,0.168848 0.06216,0.05195 0.156787,0.05195 0.05103,0 0.106689,-0.01206 v 0.124316 q -0.08628,0.02041 -0.165136,0.02041 -0.140088,0 -0.231006,-0.07979 -0.08999,-0.07886 -0.14751,-0.264404 -0.183691,-0.0093 -0.317285,-0.09277 -0.132666,-0.08442 -0.203174,-0.233789 -0.06958,-0.150293 -0.06958,-0.3479 0,-0.313574 0.171631,-0.489844 0.171631,-0.177197 0.477783,-0.177197 0.199463,0 0.346045,0.07979 0.146582,0.07886 0.223584,0.230078 0.07793,0.151221 0.07793,0.357178 z m -0.180908,0 q 0,-0.243994 -0.122461,-0.383154 -0.121534,-0.139161 -0.34419,-0.139161 -0.224512,0 -0.346973,0.137305 -0.12246,0.137305 -0.12246,0.38501 0,0.245849 0.123388,0.390576 0.124317,0.143799 0.34419,0.143799 0.226367,0 0.346972,-0.13916 0.121534,-0.140088 0.121534,-0.395215 z"
       id="path574" />
    <path
       d="m 48.238061,87 -0.33955,-0.542725 H 47.491235 V 87 h -0.177197 v -1.307178 h 0.615088 q 0.220801,0 0.340478,0.09927 0.120606,0.09834 0.120606,0.274609 0,0.145655 -0.08535,0.244922 -0.08442,0.09927 -0.233789,0.125244 L 48.442163,87 Z m -0.02598,-0.931445 q 0,-0.114112 -0.07793,-0.173487 -0.077,-0.0603 -0.222656,-0.0603 h -0.420264 v 0.482422 h 0.427686 q 0.140088,0 0.216162,-0.06494 0.077,-0.06587 0.077,-0.183691 z"
       id="path576" />
    <path
       d="m 48.625854,87 v -0.117822 q 0.04732,-0.108545 0.115039,-0.191114 0.06865,-0.0835 0.143799,-0.150293 0.07515,-0.06772 0.148438,-0.125244 0.07422,-0.05752 0.133593,-0.115039 0.05938,-0.05752 0.09556,-0.120605 0.03711,-0.06309 0.03711,-0.142871 0,-0.107617 -0.06309,-0.166992 -0.06309,-0.05938 -0.175341,-0.05938 -0.10669,0 -0.17627,0.05845 -0.06865,0.05752 -0.08071,0.162353 l -0.170703,-0.01577 q 0.01855,-0.156787 0.132666,-0.249561 0.115039,-0.09277 0.29502,-0.09277 0.197607,0 0.303369,0.0937 0.106689,0.09277 0.106689,0.264404 0,0.07607 -0.03525,0.151221 -0.03433,0.07515 -0.102978,0.150293 -0.06865,0.07515 -0.262549,0.232861 -0.10669,0.08721 -0.169775,0.157715 -0.06309,0.06958 -0.09092,0.134522 H 49.49143 V 87 Z"
       id="path578" />
  </g>
  <line
     class="divider"
     x1="3"
     y1="97"
     x2="57.96"
     y2="97"
     id="line227" />
  <!-- Bottom controls section -->
  <rect
     x="0.87266469"
     y="97.5"
     width="58.989204"
     height="6.5"
     fill="#202228"
     stroke="#3a3d46"
     stroke-width="0.4"
     rx="1.2427502"
     id="rect229" />
  <g
     aria-label="RANGE"
     id="text231"
     class="label"
     style="font-size:2.8px;font-family:Roboto, 'Liberation Sans', sans-serif;text-anchor:middle;fill:#cfd3dc"
     transform="translate(-23.24157,-1.1273353)">
    <path
       d="m 27.112793,103 -0.500391,-0.7998 H 26.012207 V 103 h -0.261133 v -1.92637 h 0.906446 q 0.32539,0 0.501757,0.14629 0.177735,0.14492 0.177735,0.40469 0,0.21465 -0.125781,0.36094 -0.124415,0.14629 -0.344532,0.18457 L 27.413574,103 Z m -0.03828,-1.37266 q 0,-0.16816 -0.114844,-0.25566 -0.113477,-0.0889 -0.328125,-0.0889 h -0.619336 v 0.71094 h 0.630274 q 0.206445,0 0.318554,-0.0957 0.113477,-0.0971 0.113477,-0.27071 z"
       id="path561" />
    <path
       d="m 29.138965,103 -0.220117,-0.56328 H 28.041113 L 27.819629,103 h -0.270703 l 0.786133,-1.92637 h 0.296679 L 29.405566,103 Z m -0.658985,-1.72949 -0.0123,0.0383 q -0.03418,0.11348 -0.101172,0.29121 l -0.246094,0.63301 h 0.720508 l -0.247461,-0.63574 q -0.03828,-0.0943 -0.07656,-0.21329 z"
       id="path563" />
    <path
       d="m 30.890332,103 -1.030859,-1.64062 0.0068,0.13261 0.0068,0.22832 V 103 h -0.232422 v -1.92637 h 0.303515 l 1.041797,1.65157 q -0.01641,-0.26797 -0.01641,-0.38829 v -1.26328 h 0.235156 V 103 Z"
       id="path565" />
    <path
       d="m 31.573925,102.02793 q 0,-0.46895 0.251563,-0.72598 0.251562,-0.25703 0.706836,-0.25703 0.319922,0 0.519531,0.10801 0.19961,0.10801 0.307617,0.3459 l -0.248828,0.0738 q -0.08203,-0.16407 -0.226953,-0.23926 -0.143555,-0.0752 -0.358203,-0.0752 -0.333594,0 -0.509961,0.20235 -0.176367,0.20097 -0.176367,0.56738 0,0.36504 0.187305,0.57695 0.187304,0.21055 0.518164,0.21055 0.188671,0 0.351367,-0.0574 0.164062,-0.0574 0.265234,-0.15586 v -0.34727 h -0.575586 v -0.21875 h 0.816211 v 0.66446 q -0.153125,0.15586 -0.375976,0.24199 -0.221485,0.0848 -0.48125,0.0848 -0.302149,0 -0.520899,-0.12031 -0.21875,-0.12031 -0.334961,-0.3459 -0.114844,-0.22695 -0.114844,-0.5332 z"
       id="path567" />
    <path
       d="m 33.840723,103 v -1.92637 h 1.461523 v 0.21328 h -1.200391 v 0.61797 h 1.11836 v 0.21055 h -1.11836 v 0.67129 h 1.256446 V 103 Z"
       id="path569" />
  </g>
  <g
     aria-label="HOLD"
     id="text233"
     class="label"
     style="font-size:2.8px;font-family:Roboto, 'Liberation Sans', sans-serif;text-anchor:middle;fill:#cfd3dc"
     transform="translate(-5.8461038,-1.1273352)">
    <path
       d="m 44.642969,103 v -0.89277 H 43.601172 V 103 h -0.261133 v -1.92637 h 0.261133 v 0.81485 h 1.041797 v -0.81485 h 0.261133 V 103 Z"
       id="path552" />
    <path
       d="m 47.176367,102.02793 q 0,0.30215 -0.116211,0.5291 -0.114844,0.22695 -0.330859,0.34863 -0.216016,0.12168 -0.509961,0.12168 -0.29668,0 -0.512695,-0.12031 -0.214649,-0.12031 -0.328125,-0.34726 -0.113477,-0.22832 -0.113477,-0.53184 0,-0.46211 0.25293,-0.72188 0.252929,-0.26113 0.704101,-0.26113 0.293946,0 0.509961,0.11758 0.216016,0.11621 0.329492,0.33906 0.114844,0.22285 0.114844,0.52637 z m -0.266601,0 q 0,-0.35957 -0.180469,-0.56465 -0.179102,-0.20508 -0.507227,-0.20508 -0.330859,0 -0.511328,0.20235 -0.180469,0.20234 -0.180469,0.56738 0,0.3623 0.181836,0.57559 0.183203,0.21191 0.507227,0.21191 0.333594,0 0.511328,-0.20508 0.179102,-0.20644 0.179102,-0.58242 z"
       id="path554" />
    <path
       d="m 47.540039,103 v -1.92637 h 0.261133 v 1.71309 h 0.973437 V 103 Z"
       id="path556" />
    <path
       d="m 50.755664,102.01699 q 0,0.29805 -0.116211,0.52227 -0.116211,0.22285 -0.329492,0.34179 Q 50.09668,103 49.817773,103 h -0.720507 v -1.92637 h 0.637109 q 0.489453,0 0.754687,0.2461 0.266602,0.24472 0.266602,0.69726 z m -0.2625,0 q 0,-0.3582 -0.196875,-0.54551 -0.195508,-0.18867 -0.567383,-0.18867 h -0.370508 v 1.50801 h 0.429297 q 0.211914,0 0.371875,-0.093 0.161328,-0.093 0.247461,-0.26797 0.08613,-0.175 0.08613,-0.41289 z"
       id="path558" />
  </g>
  <line
     class="divider"
     x1="3"
     y1="104.5"
     x2="57.96"
     y2="104.5"
     id="line235" />
  <!-- CV Input Row 1 -->
  <!-- CV Input Row 2 -->
  <!-- Output Row -->
  <!-- Footer -->
  <g
     aria-label="AMBUSHED CAT DSP"
     id="text261"
     class="subtitle"
     style="font-size:2.4px;font-family:Roboto, 'Liberation Sans', sans-serif;text-anchor:middle;fill:#a7acb7">
    <path
       d="m 19.623163,127 -0.188672,-0.48281 H 18.682148 L 18.492304,127 h -0.232032 l 0.673829,-1.65117 h 0.254297 L 19.851679,127 Z m -0.564844,-1.48242 -0.01055,0.0328 q -0.0293,0.0973 -0.08672,0.24961 l -0.210938,0.54258 h 0.617578 l -0.212109,-0.54492 q -0.03281,-0.0809 -0.06562,-0.18282 z"
       id="path438" />
    <path
       d="m 21.457148,127 v -1.10156 q 0,-0.18282 0.01055,-0.35157 -0.05742,0.20977 -0.103125,0.32813 L 20.938007,127 h -0.157031 l -0.432422,-1.125 -0.06563,-0.19922 -0.03867,-0.12891 0.0035,0.13008 0.0047,0.22149 V 127 h -0.199219 v -1.65117 h 0.294141 l 0.439453,1.14492 q 0.02344,0.0691 0.04453,0.14883 0.02227,0.0785 0.0293,0.11367 0.0094,-0.0469 0.03867,-0.1418 0.03047,-0.0961 0.04102,-0.1207 l 0.43125,-1.14492 H 21.65871 V 127 Z"
       id="path440" />
    <path
       d="m 23.329804,126.53477 q 0,0.22031 -0.160547,0.34335 Q 23.00871,127 22.722773,127 H 22.05246 v -1.65117 h 0.6 q 0.58125,0 0.58125,0.40078 0,0.14648 -0.08203,0.24609 -0.08203,0.0996 -0.232031,0.1336 0.196875,0.0234 0.303515,0.13242 0.106641,0.10781 0.106641,0.27305 z m -0.321094,-0.75821 q 0,-0.13359 -0.09141,-0.19101 -0.09141,-0.0574 -0.264844,-0.0574 h -0.376172 v 0.52266 h 0.376172 q 0.179297,0 0.267188,-0.0668 0.08906,-0.068 0.08906,-0.20742 z m 0.09492,0.74063 q 0,-0.2918 -0.410156,-0.2918 h -0.417188 v 0.59531 h 0.434766 q 0.205078,0 0.298828,-0.0762 0.09375,-0.0762 0.09375,-0.22734 z"
       id="path442" />
    <path
       d="m 24.313007,127.02344 q -0.202734,0 -0.353906,-0.0738 -0.151172,-0.0738 -0.234375,-0.21445 -0.0832,-0.14063 -0.0832,-0.33516 v -1.05117 h 0.223828 v 1.03242 q 0,0.22617 0.114843,0.34336 0.114844,0.11719 0.331641,0.11719 0.222656,0 0.345703,-0.12071 0.124219,-0.12187 0.124219,-0.35507 v -1.01719 h 0.222656 v 1.03008 q 0,0.20039 -0.08555,0.3457 -0.08438,0.14531 -0.240234,0.22266 -0.154687,0.0762 -0.365625,0.0762 z"
       id="path444" />
    <path
       d="m 26.680195,126.54414 q 0,0.22852 -0.179297,0.35391 -0.178125,0.12539 -0.502734,0.12539 -0.603516,0 -0.69961,-0.41953 l 0.216797,-0.0434 q 0.0375,0.14882 0.159375,0.21914 0.121875,0.0691 0.331641,0.0691 0.216797,0 0.333984,-0.0738 0.118359,-0.075 0.118359,-0.21914 0,-0.0809 -0.0375,-0.13125 -0.03633,-0.0504 -0.103125,-0.0832 -0.0668,-0.0328 -0.159375,-0.0551 -0.09258,-0.0223 -0.205078,-0.0481 -0.195703,-0.0434 -0.297656,-0.0867 -0.100781,-0.0434 -0.159375,-0.0961 -0.05859,-0.0539 -0.09023,-0.12539 -0.03047,-0.0715 -0.03047,-0.16406 0,-0.21211 0.161719,-0.32696 0.16289,-0.11484 0.465234,-0.11484 0.28125,0 0.430078,0.0867 0.148828,0.0855 0.208594,0.29297 l -0.220313,0.0387 q -0.03633,-0.13125 -0.138281,-0.18985 -0.101953,-0.0598 -0.282422,-0.0598 -0.198047,0 -0.302343,0.0656 -0.104297,0.0656 -0.104297,0.19571 0,0.0762 0.03984,0.12656 0.04102,0.0492 0.117188,0.0844 0.07617,0.034 0.303516,0.0844 0.07617,0.0176 0.151171,0.0363 0.07617,0.0176 0.145313,0.0434 0.06914,0.0246 0.128906,0.0586 0.06094,0.034 0.105469,0.0832 0.04453,0.0492 0.06914,0.11602 0.02578,0.0668 0.02578,0.15703 z"
       id="path446" />
    <path
       d="m 28.104023,127 v -0.76523 H 27.211054 V 127 h -0.223828 v -1.65117 h 0.223828 v 0.69844 h 0.892969 v -0.69844 h 0.223828 V 127 Z"
       id="path448" />
    <path
       d="m 28.720429,127 v -1.65117 h 1.252735 v 0.18281 h -1.028907 v 0.52969 h 0.958594 v 0.18047 h -0.958594 v 0.57539 H 30.02121 V 127 Z"
       id="path450" />
    <path
       d="m 31.742695,126.15742 q 0,0.25547 -0.09961,0.44766 -0.09961,0.19101 -0.282422,0.29297 Q 31.177851,127 30.938789,127 h -0.617578 v -1.65117 h 0.546093 q 0.419532,0 0.646875,0.21094 0.228516,0.20976 0.228516,0.59765 z m -0.225,0 q 0,-0.30703 -0.16875,-0.46758 -0.167578,-0.16172 -0.486328,-0.16172 h -0.317578 v 1.29258 h 0.367968 q 0.181641,0 0.31875,-0.0797 0.138282,-0.0797 0.21211,-0.22969 0.07383,-0.15 0.07383,-0.35391 z"
       id="path452" />
    <path
       d="m 33.45246,125.50703 q -0.274219,0 -0.426562,0.17695 -0.152344,0.17579 -0.152344,0.48282 0,0.30351 0.158203,0.48867 0.159375,0.18398 0.430078,0.18398 0.346875,0 0.521485,-0.34336 l 0.182812,0.0914 q -0.101953,0.21328 -0.287109,0.32461 -0.183985,0.11133 -0.427735,0.11133 -0.249609,0 -0.432422,-0.10313 -0.18164,-0.10429 -0.277734,-0.29648 -0.09492,-0.19336 -0.09492,-0.45703 0,-0.39493 0.213281,-0.61875 0.213282,-0.22383 0.590625,-0.22383 0.263672,0 0.440625,0.10312 0.176954,0.10313 0.260157,0.30586 l -0.21211,0.0703 q -0.05742,-0.14415 -0.185156,-0.22032 -0.126562,-0.0762 -0.301172,-0.0762 z"
       id="path454" />
    <path
       d="m 35.625116,127 -0.188672,-0.48281 H 34.684101 L 34.494257,127 h -0.232031 l 0.673828,-1.65117 h 0.254297 L 35.853632,127 Z m -0.564843,-1.48242 -0.01055,0.0328 q -0.0293,0.0973 -0.08672,0.24961 l -0.210938,0.54258 h 0.617579 l -0.21211,-0.54492 q -0.03281,-0.0809 -0.06563,-0.18282 z"
       id="path456" />
    <path
       d="M 36.523945,125.53164 V 127 h -0.222656 v -1.46836 h -0.567188 v -0.18281 h 1.357032 v 0.18281 z"
       id="path458" />
    <path
       d="m 39.388007,126.15742 q 0,0.25547 -0.09961,0.44766 -0.09961,0.19101 -0.282422,0.29297 Q 38.823164,127 38.584101,127 h -0.617578 v -1.65117 h 0.546094 q 0.419531,0 0.646875,0.21094 0.228515,0.20976 0.228515,0.59765 z m -0.225,0 q 0,-0.30703 -0.16875,-0.46758 -0.167578,-0.16172 -0.486328,-0.16172 h -0.317578 v 1.29258 h 0.367969 q 0.18164,0 0.31875,-0.0797 0.138281,-0.0797 0.212109,-0.22969 0.07383,-0.15 0.07383,-0.35391 z"
       id="path460" />
    <path
       d="m 40.993477,126.54414 q 0,0.22852 -0.179297,0.35391 -0.178125,0.12539 -0.502734,0.12539 -0.603516,0 -0.69961,-0.41953 l 0.216797,-0.0434 q 0.0375,0.14882 0.159375,0.21914 0.121875,0.0691 0.331641,0.0691 0.216797,0 0.333984,-0.0738 0.118359,-0.075 0.118359,-0.21914 0,-0.0809 -0.0375,-0.13125 -0.03633,-0.0504 -0.103125,-0.0832 -0.0668,-0.0328 -0.159375,-0.0551 -0.09258,-0.0223 -0.205078,-0.0481 -0.195703,-0.0434 -0.297656,-0.0867 -0.100781,-0.0434 -0.159375,-0.0961 -0.05859,-0.0539 -0.09023,-0.12539 -0.03047,-0.0715 -0.03047,-0.16406 0,-0.21211 0.161719,-0.32696 0.16289,-0.11484 0.465234,-0.11484 0.28125,0 0.430078,0.0867 0.148828,0.0855 0.208594,0.29297 l -0.220313,0.0387 q -0.03633,-0.13125 -0.138281,-0.18985 -0.101953,-0.0598 -0.282422,-0.0598 -0.198047,0 -0.302343,0.0656 -0.104297,0.0656 -0.104297,0.19571 0,0.0762 0.03984,0.12656 0.04102,0.0492 0.117188,0.0844 0.07617,0.034 0.303516,0.0844 0.07617,0.0176 0.151171,0.0363 0.07617,0.0176 0.145313,0.0434 0.06914,0.0246 0.128906,0.0586 0.06094,0.034 0.105469,0.0832 0.04453,0.0492 0.06914,0.11602 0.02578,0.0668 0.02578,0.15703 z"
       id="path462" />
    <path
       d="m 42.577851,125.8457 q 0,0.23438 -0.153516,0.37266 -0.152343,0.13828 -0.414843,0.13828 H 41.524335 V 127 h -0.223828 v -1.65117 h 0.694922 q 0.277735,0 0.430078,0.13008 0.152344,0.13007 0.152344,0.36679 z m -0.225,0.002 q 0,-0.31993 -0.384375,-0.31993 h -0.444141 v 0.65157 h 0.453516 q 0.375,0 0.375,-0.33164 z"
       id="path464" />
  </g>
</svg>
