<svg xmlns="http://www.w3.org/2000/svg" width="60.96mm" height="128.5mm" viewBox="0 0 60.96 128.5">
  <defs>
    <linearGradient id="panelGradient" x1="0" x2="0" y1="0" y2="1">
      <stop offset="0" stop-color="#0c0c0f" />
      <stop offset="1" stop-color="#020203" />
    </linearGradient>
    <style>
      .header { font-family: 'Rajdhani', 'Eurostile', 'Bank Gothic', sans-serif; font-weight: 600; fill: #f4f7ff; }
      .label { font-family: 'Rajdhani', 'Eurostile', 'Bank Gothic', sans-serif; fill: #aab1ff; font-size: 2.6px; text-anchor: middle; }
      .small { font-size: 2.2px; fill: #d9ddff; }
    </style>
  </defs>
  <rect width="60.96" height="128.5" rx="2" ry="2" fill="url(#panelGradient)" />
  <g class="header" font-size="5.2px" text-anchor="middle">
    <text x="30.48" y="9">Ataraxic</text>
    <text x="30.48" y="14.2">Iteritas Alia</text>
  </g>
  <g class="label">
    <text x="14" y="22">Pitch</text>
    <text x="47" y="22">Wave</text>
    <text x="30.5" y="42">Shape</text>
    <text x="30.5" y="70">Soft Fold</text>
    <text x="14" y="56">Noise</text>
    <text x="47" y="56">Time</text>
    <text x="14" y="84">Comb</text>
    <text x="47" y="84">Grit</text>
    <text x="30.5" y="100">Tone</text>
    <text x="30.5" y="90">Hold</text>
  </g>
  <g class="label small">
    <text x="12" y="95">Pitch</text>
    <text x="24" y="95">Wave</text>
    <text x="36" y="95">Grit</text>
    <text x="48" y="95">Tone</text>
    <text x="12" y="107">Noise</text>
    <text x="24" y="107">Shape</text>
    <text x="36" y="107">Time</text>
    <text x="48" y="107">Comb</text>
    <text x="12" y="119">Fold</text>
    <text x="24" y="119">Sync</text>
    <text x="36" y="119">Sub</text>
    <text x="48" y="119">Main</text>
  </g>
  <g class="label" font-size="2.2px">
    <text x="20" y="74">Analog</text>
    <text x="41" y="74">Digital</text>
  </g>
</svg>
