<?xml version="1.0" encoding="UTF-8" standalone="no"?>
<!-- Created with Inkscape (http://www.inkscape.org/) -->

<svg
   width="30.48mm"
   height="128.5mm"
   viewBox="0 0 30.480002 128.50002"
   version="1.1"
   id="svg8"
   inkscape:version="1.2.2 (732a01da63, 2022-12-09)"
   sodipodi:docname="TuringMaschine.svg"
   xmlns:inkscape="http://www.inkscape.org/namespaces/inkscape"
   xmlns:sodipodi="http://sodipodi.sourceforge.net/DTD/sodipodi-0.dtd"
   xmlns="http://www.w3.org/2000/svg"
   xmlns:svg="http://www.w3.org/2000/svg"
   xmlns:rdf="http://www.w3.org/1999/02/22-rdf-syntax-ns#"
   xmlns:cc="http://creativecommons.org/ns#"
   xmlns:dc="http://purl.org/dc/elements/1.1/">
  <defs
     id="defs2" />
  <sodipodi:namedview
     id="base"
     pagecolor="#ffffff"
     bordercolor="#666666"
     borderopacity="1.0"
     inkscape:pageopacity="0.0"
     inkscape:pageshadow="2"
     inkscape:zoom="1.979899"
     inkscape:cx="62.629457"
     inkscape:cy="280.31733"
     inkscape:document-units="mm"
     inkscape:current-layer="layer2"
     showgrid="false"
     units="mm"
     inkscape:snap-bbox="true"
     inkscape:snap-page="true"
     inkscape:bbox-nodes="false"
     inkscape:snap-bbox-edge-midpoints="false"
     inkscape:window-width="2560"
     inkscape:window-height="1369"
     inkscape:window-x="2552"
     inkscape:window-y="212"
     inkscape:window-maximized="1"
     inkscape:snap-bbox-midpoints="true"
     inkscape:snap-nodes="false"
     inkscape:showpageshadow="0"
     inkscape:pagecheckerboard="0"
     inkscape:deskcolor="#d1d1d1" />
  <metadata
     id="metadata5">
    <rdf:RDF>
      <cc:Work
         rdf:about="">
        <dc:format>image/svg+xml</dc:format>
        <dc:type
           rdf:resource="http://purl.org/dc/dcmitype/StillImage" />
      </cc:Work>
    </rdf:RDF>
  </metadata>
  <g
     inkscape:label="Layer 1"
     inkscape:groupmode="layer"
     id="layer1"
     transform="translate(0,-168.49998)">
    <rect
       style="display:inline;opacity:1;vector-effect:none;fill:#e6e6e6;fill-opacity:1;fill-rule:evenodd;stroke:none;stroke-width:0.64935839;stroke-linecap:butt;stroke-linejoin:miter;stroke-miterlimit:4;stroke-dasharray:none;stroke-dashoffset:0;stroke-opacity:1;paint-order:normal"
       id="rect420"
       width="30.48"
       height="128.5"
       x="5.9211732e-17"
       y="168.49997" />
    <g
       aria-label="Turing Machine"
       id="text295"
       style="font-size:3.175px;display:inline;fill:#000000;fill-opacity:1;stroke-width:0.264583"
       transform="translate(-36.960842,213.73972)">
      <path
         d="m 41.801568,-37.594936 h -0.28575 v -2.016125 h -0.708025 v -0.250825 h 1.698625 v 0.250825 h -0.70485 z"
         id="path460"
         style="fill:#000000;fill-opacity:1" />
      <path
         d="m 44.07487,-39.296736 v 1.7018 h -0.2286 L 43.805,-37.820361 h -0.0127 q -0.08255,0.13335 -0.2286,0.19685 -0.14605,0.06032 -0.31115,0.06032 -0.307975,0 -0.46355,-0.14605 -0.155575,-0.149225 -0.155575,-0.473075 v -1.114425 H 42.916 v 1.095375 q 0,0.4064 0.377825,0.4064 0.282575,0 0.390525,-0.15875 0.111125,-0.15875 0.111125,-0.4572 v -0.885825 z"
         id="path462"
         style="fill:#000000;fill-opacity:1" />
      <path
         d="m 45.40837,-39.328486 q 0.04763,0 0.1016,0.0063 0.05397,0.0032 0.09842,0.0127 l -0.03493,0.257175 q -0.04127,-0.0095 -0.09208,-0.01588 -0.0508,-0.0063 -0.09208,-0.0063 -0.130175,0 -0.244475,0.07303 -0.1143,0.06985 -0.18415,0.200025 -0.06668,0.127 -0.06668,0.29845 v 0.90805 h -0.2794 v -1.7018 h 0.2286 l 0.03175,0.31115 h 0.0127 q 0.07937,-0.1397 0.20955,-0.2413 0.13335,-0.1016 0.31115,-0.1016 z"
         id="path464"
         style="fill:#000000;fill-opacity:1" />
      <path
         d="m 46.06877,-39.934911 q 0.0635,0 0.111125,0.04445 0.0508,0.04127 0.0508,0.13335 0,0.09208 -0.0508,0.136525 -0.04763,0.04128 -0.111125,0.04128 -0.06985,0 -0.117475,-0.04128 -0.04763,-0.04445 -0.04763,-0.136525 0,-0.09208 0.04763,-0.13335 0.04762,-0.04445 0.117475,-0.04445 z m 0.136525,0.638175 v 1.7018 h -0.2794 v -1.7018 z"
         id="path466"
         style="fill:#000000;fill-opacity:1" />
      <path
         d="m 47.564193,-39.328486 q 0.3048,0 0.460375,0.149225 0.155575,0.149225 0.155575,0.47625 v 1.108075 h -0.276225 v -1.089025 q 0,-0.409575 -0.381,-0.409575 -0.282575,0 -0.390525,0.15875 -0.10795,0.15875 -0.10795,0.4572 v 0.88265 h -0.2794 v -1.7018 h 0.225425 l 0.04128,0.231775 h 0.01587 q 0.08255,-0.13335 0.2286,-0.19685 0.14605,-0.06667 0.307975,-0.06667 z"
         id="path468"
         style="fill:#000000;fill-opacity:1" />
      <path
         d="m 49.310443,-39.328486 q 0.168275,0 0.301625,0.0635 0.136525,0.0635 0.231775,0.193675 h 0.01588 l 0.0381,-0.225425 h 0.22225 v 1.730375 q 0,0.365125 -0.187325,0.549275 -0.18415,0.18415 -0.574675,0.18415 -0.37465,0 -0.612775,-0.10795 v -0.257175 q 0.250825,0.13335 0.62865,0.13335 0.219075,0 0.3429,-0.130175 0.127,-0.127 0.127,-0.34925 v -0.06667 q 0,-0.0381 0.0032,-0.10795 0.0032,-0.07303 0.0064,-0.1016 h -0.0127 q -0.17145,0.257175 -0.52705,0.257175 -0.3302,0 -0.517525,-0.231775 -0.18415,-0.231775 -0.18415,-0.6477 0,-0.4064 0.18415,-0.644525 0.187325,-0.2413 0.51435,-0.2413 z m 0.0381,0.23495 q -0.212725,0 -0.3302,0.17145 -0.117475,0.168275 -0.117475,0.4826 0,0.314325 0.1143,0.4826 0.1143,0.1651 0.339725,0.1651 0.257175,0 0.37465,-0.136525 0.117475,-0.1397 0.117475,-0.447675 v -0.06668 q 0,-0.346075 -0.12065,-0.498475 -0.12065,-0.1524 -0.377825,-0.1524 z"
         id="path470"
         style="fill:#000000;fill-opacity:1" />
      <path
         d="m 52.523544,-37.594936 -0.746125,-1.98755 h -0.0127 q 0.0095,0.09843 0.01588,0.2667 0.0063,0.1651 0.0063,0.346075 v 1.374775 h -0.263525 v -2.26695 h 0.422275 l 0.6985,1.857375 h 0.0127 l 0.7112,-1.857375 h 0.4191 v 2.26695 h -0.282575 v -1.393825 q 0,-0.1651 0.0064,-0.327025 0.0095,-0.161925 0.01587,-0.263525 h -0.0127 l -0.75565,1.984375 z"
         id="path472"
         style="fill:#000000;fill-opacity:1" />
      <path
         d="m 55.009567,-39.325311 q 0.31115,0 0.460375,0.136525 0.149225,0.136525 0.149225,0.434975 v 1.158875 h -0.2032 l -0.05398,-0.2413 h -0.0127 q -0.111125,0.1397 -0.23495,0.206375 -0.123825,0.06667 -0.33655,0.06667 -0.231775,0 -0.384175,-0.12065 -0.1524,-0.123825 -0.1524,-0.384175 0,-0.254 0.200025,-0.390525 0.200025,-0.1397 0.61595,-0.1524 l 0.288925,-0.0095 v -0.1016 q 0,-0.212725 -0.09208,-0.295275 -0.09208,-0.08255 -0.26035,-0.08255 -0.13335,0 -0.254,0.04127 -0.12065,0.0381 -0.225425,0.0889 l -0.08572,-0.20955 q 0.111125,-0.06033 0.263525,-0.1016 0.1524,-0.04445 0.3175,-0.04445 z m 0.333375,0.898525 -0.250825,0.0095 q -0.3175,0.0127 -0.441325,0.1016 -0.12065,0.0889 -0.12065,0.250825 0,0.142875 0.08573,0.20955 0.0889,0.06667 0.225425,0.06667 0.212725,0 0.3556,-0.117475 0.14605,-0.12065 0.14605,-0.3683 z"
         id="path474"
         style="fill:#000000;fill-opacity:1" />
      <path
         d="m 56.828845,-37.563186 q -0.2286,0 -0.403225,-0.09208 -0.174625,-0.09207 -0.276225,-0.28575 -0.09842,-0.193675 -0.09842,-0.4953 0,-0.314325 0.1016,-0.511175 0.104775,-0.19685 0.28575,-0.288925 0.180975,-0.09208 0.409575,-0.09208 0.127,0 0.24765,0.02857 0.123825,0.0254 0.200025,0.0635 l -0.08572,0.231775 q -0.0762,-0.02858 -0.1778,-0.05398 -0.1016,-0.0254 -0.1905,-0.0254 -0.50165,0 -0.50165,0.644525 0,0.307975 0.12065,0.473075 0.123825,0.161925 0.365125,0.161925 0.136525,0 0.244475,-0.02858 0.10795,-0.02857 0.19685,-0.06985 v 0.24765 q -0.08573,0.04445 -0.1905,0.06668 -0.1016,0.0254 -0.24765,0.0254 z"
         id="path476"
         style="fill:#000000;fill-opacity:1" />
      <path
         d="m 57.949618,-40.007936 v 0.708025 q 0,0.127 -0.01588,0.238125 h 0.01905 q 0.08255,-0.130175 0.22225,-0.19685 0.142875,-0.06667 0.307975,-0.06667 0.307975,0 0.46355,0.149225 0.15875,0.14605 0.15875,0.473075 v 1.108075 h -0.276225 v -1.089025 q 0,-0.409575 -0.381,-0.409575 -0.28575,0 -0.3937,0.161925 -0.104775,0.15875 -0.104775,0.4572 v 0.879475 h -0.2794 v -2.413 z"
         id="path478"
         style="fill:#000000;fill-opacity:1" />
      <path
         d="m 59.775244,-39.934911 q 0.0635,0 0.111125,0.04445 0.0508,0.04127 0.0508,0.13335 0,0.09208 -0.0508,0.136525 -0.04763,0.04128 -0.111125,0.04128 -0.06985,0 -0.117475,-0.04128 -0.04763,-0.04445 -0.04763,-0.136525 0,-0.09208 0.04763,-0.13335 0.04762,-0.04445 0.117475,-0.04445 z m 0.136525,0.638175 v 1.7018 h -0.2794 v -1.7018 z"
         id="path480"
         style="fill:#000000;fill-opacity:1" />
      <path
         d="m 61.270666,-39.328486 q 0.3048,0 0.460375,0.149225 0.155575,0.149225 0.155575,0.47625 v 1.108075 h -0.276225 v -1.089025 q 0,-0.409575 -0.381,-0.409575 -0.282575,0 -0.390525,0.15875 -0.10795,0.15875 -0.10795,0.4572 v 0.88265 h -0.2794 v -1.7018 h 0.225425 l 0.04127,0.231775 h 0.01588 q 0.08255,-0.13335 0.2286,-0.19685 0.14605,-0.06667 0.307975,-0.06667 z"
         id="path482"
         style="fill:#000000;fill-opacity:1" />
      <path
         d="m 63.070891,-39.328486 q 0.2159,0 0.37465,0.09525 0.15875,0.09525 0.2413,0.269875 0.08572,0.17145 0.08572,0.403225 v 0.168275 h -1.165225 q 0.0064,0.288925 0.14605,0.441325 0.142875,0.149225 0.396875,0.149225 0.161925,0 0.28575,-0.02858 0.127,-0.03175 0.26035,-0.0889 v 0.244475 q -0.130175,0.05715 -0.257175,0.08255 -0.127,0.02857 -0.301625,0.02857 -0.244475,0 -0.428625,-0.09842 -0.18415,-0.09842 -0.288925,-0.2921 -0.1016,-0.193675 -0.1016,-0.479425 0,-0.2794 0.09208,-0.479425 0.09525,-0.200025 0.263525,-0.307975 0.17145,-0.10795 0.396875,-0.10795 z m -0.0032,0.2286 q -0.200025,0 -0.3175,0.130175 -0.1143,0.127 -0.136525,0.3556 h 0.866775 q -0.0032,-0.2159 -0.1016,-0.34925 -0.09842,-0.136525 -0.31115,-0.136525 z"
         id="path484"
         style="fill:#000000;fill-opacity:1" />
    </g>
  </g>
  <g
     inkscape:groupmode="layer"
     id="layer2"
     inkscape:label="components" />
</svg>
