<svg xmlns="http://www.w3.org/2000/svg" width="81.28mm" height="128.5mm" viewBox="0 0 81.28 128.5">
  <defs>
    <linearGradient id="panelGradient" x1="0" x2="0" y1="0" y2="1">
      <stop offset="0" stop-color="#262830" />
      <stop offset="1" stop-color="#1b1d22" />
    </linearGradient>
    <style>
      .title { font-family: 'Roboto', 'Liberation Sans', sans-serif; font-size: 4.4px; fill: #f5f6fa; font-weight: 600; letter-spacing: 0.6px; }
      .section { font-family: 'Roboto', 'Liberation Sans', sans-serif; font-size: 3.0px; fill: #cfd3dc; text-anchor: middle; letter-spacing: 0.4px; }
      .step { font-family: 'Roboto Mono', 'Liberation Mono', monospace; font-size: 2.4px; fill: #aeb3be; text-anchor: middle; }
      .divider { stroke: #3b3e46; stroke-width: 0.3; stroke-linecap: round; }
    </style>
  </defs>

  <rect width="81.28" height="128.5" fill="url(#panelGradient)" rx="2" ry="2" />

  <text class="title" x="40.64" y="8">BUER</text>
  <text class="section" x="40.64" y="16">CV MOD MATRIX</text>
  <line class="divider" x1="5" y1="19" x2="76.28" y2="19" />

  <text class="section" x="40.64" y="74">GATE MODE MOD MATRIX</text>
  <line class="divider" x1="5" y1="77" x2="76.28" y2="77" />

  <g id="stepLabels">
    <text class="step" x="12" y="24">1</text>
    <text class="step" x="30" y="24">2</text>
    <text class="step" x="48" y="24">3</text>
    <text class="step" x="66" y="24">4</text>

    <text class="step" x="12" y="38">5</text>
    <text class="step" x="30" y="38">6</text>
    <text class="step" x="48" y="38">7</text>
    <text class="step" x="66" y="38">8</text>

    <text class="step" x="12" y="52">9</text>
    <text class="step" x="30" y="52">10</text>
    <text class="step" x="48" y="52">11</text>
    <text class="step" x="66" y="52">12</text>

    <text class="step" x="12" y="66">13</text>
    <text class="step" x="30" y="66">14</text>
    <text class="step" x="48" y="66">15</text>
    <text class="step" x="66" y="66">16</text>

    <text class="step" x="12" y="82">1</text>
    <text class="step" x="30" y="82">2</text>
    <text class="step" x="48" y="82">3</text>
    <text class="step" x="66" y="82">4</text>

    <text class="step" x="12" y="94">5</text>
    <text class="step" x="30" y="94">6</text>
    <text class="step" x="48" y="94">7</text>
    <text class="step" x="66" y="94">8</text>

    <text class="step" x="12" y="106">9</text>
    <text class="step" x="30" y="106">10</text>
    <text class="step" x="48" y="106">11</text>
    <text class="step" x="66" y="106">12</text>

    <text class="step" x="12" y="118">13</text>
    <text class="step" x="30" y="118">14</text>
    <text class="step" x="48" y="118">15</text>
    <text class="step" x="66" y="118">16</text>
  </g>
</svg>
