<?xml version="1.0" encoding="UTF-8" standalone="no"?>
<svg
   width="81.28mm"
   height="128.5mm"
   viewBox="0 0 81.28 128.5"
   version="1.1"
   id="svg7763"
   sodipodi:docname="Buer.svg"
   inkscape:version="1.2.2 (732a01da63, 2022-12-09)"
   xmlns:inkscape="http://www.inkscape.org/namespaces/inkscape"
   xmlns:sodipodi="http://sodipodi.sourceforge.net/DTD/sodipodi-0.dtd"
   xmlns="http://www.w3.org/2000/svg"
   xmlns:svg="http://www.w3.org/2000/svg">
  <sodipodi:namedview
     id="namedview7765"
     pagecolor="#505050"
     bordercolor="#eeeeee"
     borderopacity="1"
     inkscape:showpageshadow="0"
     inkscape:pageopacity="0"
     inkscape:pagecheckerboard="0"
     inkscape:deskcolor="#505050"
     inkscape:document-units="mm"
     showgrid="false"
     inkscape:zoom="1.17349"
     inkscape:cx="286.75148"
     inkscape:cy="220.70916"
     inkscape:window-width="1920"
     inkscape:window-height="1009"
     inkscape:window-x="5112"
     inkscape:window-y="229"
     inkscape:window-maximized="1"
     inkscape:current-layer="svg7763" />
  <defs
     id="defs7684">
    <linearGradient
       id="panelGradient"
       x1="0"
       x2="0"
       y1="0"
       y2="1">
      <stop
         offset="0"
         stop-color="#262830"
         id="stop7677" />
      <stop
         offset="1"
         stop-color="#1b1d22"
         id="stop7679" />
    </linearGradient>
    <style
       id="style7682">
      .title { font-family: 'Roboto', 'Liberation Sans', sans-serif; font-size: 4.4px; fill: #f5f6fa; font-weight: 600; letter-spacing: 0.6px; }
      .section { font-family: 'Roboto', 'Liberation Sans', sans-serif; font-size: 3.0px; fill: #cfd3dc; text-anchor: middle; letter-spacing: 0.4px; }
      .step { font-family: 'Roboto Mono', 'Liberation Mono', monospace; font-size: 2.4px; fill: #aeb3be; text-anchor: middle; }
      .divider { stroke: #3b3e46; stroke-width: 0.3; stroke-linecap: round; }
    </style>
  </defs>
  <rect
     width="81.28"
     height="128.5"
     fill="url(#panelGradient)"
     rx="2"
     ry="2"
     id="rect7686"
     style="fill:none;stroke:#000000;stroke-opacity:1" />
  <g
     aria-label="BUER"
     id="text7688"
     class="title"
     style="font-weight:600;font-size:4.4px;font-family:Roboto, 'Liberation Sans', sans-serif;letter-spacing:0.6px;fill:#f5f6fa">
    <path
       d="m 37.617398,7.1363281 q 0,0.4125 -0.309375,0.638086 Q 36.998648,8 36.448648,8 H 34.934 V 4.9728515 h 1.385742 q 0.554297,0 0.837891,0.1933594 0.285742,0.1912109 0.285742,0.5671875 0,0.2578125 -0.143946,0.4361328 -0.141796,0.1761719 -0.433984,0.2384766 0.367383,0.042969 0.558594,0.2320312 0.193359,0.1869141 0.193359,0.4962891 z M 36.805289,5.8193359 q 0,-0.2041016 -0.131055,-0.2900391 -0.128906,-0.085937 -0.38457,-0.085937 H 35.567789 V 6.193164 h 0.726172 q 0.268554,0 0.388867,-0.092383 0.122461,-0.094531 0.122461,-0.2814453 z m 0.176172,1.2675781 q 0,-0.4253906 -0.610157,-0.4253906 h -0.803515 v 0.8679688 h 0.827148 q 0.305078,0 0.444727,-0.1095703 0.141797,-0.1117188 0.141797,-0.3330079 z"
       id="path7796" />
    <path
       d="m 39.970523,8.0429688 q -0.625195,0 -0.958203,-0.3050782 Q 38.681461,7.4328125 38.681461,6.865625 V 4.9728515 h 0.633789 v 1.8433594 q 0,0.3587891 0.169726,0.5457031 0.171875,0.1847657 0.502735,0.1847657 0.339453,0 0.52207,-0.1933594 0.182617,-0.1955078 0.182617,-0.5585938 v -1.821875 h 0.633789 v 1.8605469 q 0,0.5757813 -0.35664,0.89375 -0.354492,0.3158204 -0.999024,0.3158204 z"
       id="path7798" />
    <path
       d="M 42.489078,8 V 4.9728515 h 2.380469 v 0.4898438 h -1.74668 v 0.7605468 h 1.615625 v 0.4898438 h -1.615625 v 0.7970703 h 1.834766 V 8 Z"
       id="path7800" />
    <path
       d="M 48.103531,8 47.400992,6.8505859 h -0.74336 V 8 H 46.023843 V 4.9728515 h 1.5125 q 0.541407,0 0.835743,0.2341797 0.294336,0.2320312 0.294336,0.6681641 0,0.3179687 -0.180469,0.55 -0.180469,0.2298828 -0.487696,0.3029297 L 48.816812,8 Z m -0.07519,-2.0990235 q 0,-0.4361328 -0.558594,-0.4361328 h -0.81211 v 0.89375 h 0.829297 q 0.266407,0 0.403907,-0.1203125 0.1375,-0.1203125 0.1375,-0.3373047 z"
       id="path7802" />
  </g>
  <g
     aria-label="CV MOD MATRIX"
     id="text7690"
     class="section"
     style="font-size:3px;font-family:Roboto, 'Liberation Sans', sans-serif;letter-spacing:0.4px;text-anchor:middle;fill:#cfd3dc">
    <path
       d="m 27.427988,14.133789 q -0.342774,0 -0.533203,0.221191 -0.19043,0.219727 -0.19043,0.603516 0,0.379395 0.197754,0.61084 0.199218,0.22998 0.537597,0.22998 0.433594,0 0.651856,-0.429199 l 0.228515,0.114258 q -0.127441,0.266602 -0.358886,0.405762 -0.229981,0.13916 -0.534668,0.13916 -0.312012,0 -0.540528,-0.128906 -0.22705,-0.130371 -0.347168,-0.370606 -0.118652,-0.241699 -0.118652,-0.571289 0,-0.493652 0.266602,-0.773437 0.266601,-0.279786 0.738281,-0.279786 0.32959,0 0.550781,0.128907 0.221192,0.128906 0.325196,0.382324 l -0.265137,0.08789 q -0.07178,-0.180176 -0.231446,-0.275391 -0.158203,-0.09521 -0.376464,-0.09521 z"
       id="path7805" />
    <path
       d="m 29.979843,16 h -0.290039 l -0.842285,-2.063965 h 0.294434 l 0.571289,1.453125 0.123047,0.364746 0.123046,-0.364746 0.56836,-1.453125 h 0.294433 z"
       id="path7807" />
    <path
       d="m 34.469784,16 v -1.376953 q 0,-0.228516 0.01318,-0.439453 -0.07178,0.262207 -0.128906,0.410156 L 33.820859,16 h -0.19629 l -0.540527,-1.40625 -0.08203,-0.249023 -0.04834,-0.161133 0.0044,0.162597 0.0059,0.276856 V 16 h -0.249023 v -2.063965 h 0.367675 l 0.549317,1.431153 q 0.0293,0.08643 0.05566,0.186035 0.02783,0.09814 0.03662,0.14209 0.01172,-0.05859 0.04834,-0.177247 0.03809,-0.120117 0.05127,-0.150878 l 0.539063,-1.431153 h 0.358886 V 16 Z"
       id="path7809" />
    <path
       d="m 37.557773,14.958496 q 0,0.323731 -0.124512,0.566895 -0.123046,0.243164 -0.354492,0.373535 -0.231445,0.130371 -0.546386,0.130371 -0.317872,0 -0.549317,-0.128906 -0.22998,-0.128907 -0.351562,-0.372071 -0.121582,-0.244629 -0.121582,-0.569824 0,-0.495117 0.270996,-0.773437 0.270996,-0.279786 0.754394,-0.279786 0.314942,0 0.546387,0.125977 0.231445,0.124512 0.353027,0.363281 0.123047,0.23877 0.123047,0.563965 z m -0.285644,0 q 0,-0.385254 -0.19336,-0.60498 -0.191894,-0.219727 -0.543457,-0.219727 -0.354492,0 -0.547851,0.216797 -0.19336,0.216797 -0.19336,0.60791 0,0.388184 0.194825,0.616699 0.196289,0.227051 0.543457,0.227051 0.357421,0 0.547851,-0.219726 0.191895,-0.221192 0.191895,-0.624024 z"
       id="path7811" />
    <path
       d="m 40.124277,14.946777 q 0,0.319336 -0.124512,0.559571 -0.124512,0.238769 -0.353027,0.366211 Q 39.418222,16 39.119394,16 h -0.771973 v -2.063965 h 0.682617 q 0.524414,0 0.808594,0.263672 0.285645,0.262207 0.285645,0.74707 z m -0.28125,0 q 0,-0.383789 -0.210938,-0.584472 -0.209472,-0.202149 -0.60791,-0.202149 h -0.396973 v 1.615723 h 0.459961 q 0.227051,0 0.398438,-0.09961 0.172851,-0.09961 0.265137,-0.28711 0.09228,-0.1875 0.09228,-0.442383 z"
       id="path7813" />
    <path
       d="m 43.902304,16 v -1.376953 q 0,-0.228516 0.01318,-0.439453 -0.07178,0.262207 -0.128906,0.410156 L 43.253378,16 h -0.196289 l -0.540527,-1.40625 -0.08203,-0.249023 -0.04834,-0.161133 0.0044,0.162597 0.0059,0.276856 V 16 h -0.249024 v -2.063965 h 0.367676 l 0.549317,1.431153 q 0.0293,0.08643 0.05566,0.186035 0.02783,0.09814 0.03662,0.14209 0.01172,-0.05859 0.04834,-0.177247 0.03809,-0.120117 0.05127,-0.150878 l 0.539063,-1.431153 h 0.358886 V 16 Z"
       id="path7815" />
    <path
       d="m 46.509824,16 -0.23584,-0.603516 H 45.333555 L 45.09625,16 h -0.290039 l 0.842285,-2.063965 h 0.317871 L 46.795469,16 Z m -0.706054,-1.853027 -0.01318,0.04102 Q 45.753965,14.30957 45.682188,14.5 l -0.263672,0.678223 h 0.771972 L 45.925352,14.49707 q -0.04102,-0.101074 -0.08203,-0.228515 z"
       id="path7817" />
    <path
       d="M 48.033359,14.164551 V 16 h -0.27832 v -1.835449 h -0.708985 v -0.228516 h 1.696289 v 0.228516 z"
       id="path7819" />
    <path
       d="M 50.916269,16 50.380136,15.143066 H 49.73707 V 16 h -0.279785 v -2.063965 h 0.971191 q 0.348633,0 0.537598,0.156738 0.190429,0.155274 0.190429,0.433594 0,0.229981 -0.134765,0.386719 -0.133301,0.156738 -0.369141,0.197754 L 51.238535,16 Z m -0.04102,-1.470703 q 0,-0.180176 -0.123047,-0.273926 -0.121582,-0.09521 -0.351562,-0.09521 H 49.73707 v 0.761719 h 0.675293 q 0.221191,0 0.341308,-0.102539 0.121582,-0.104004 0.121582,-0.290039 z"
       id="path7821" />
    <path
       d="m 52.05455,16 v -2.063965 h 0.279785 V 16 Z"
       id="path7823" />
    <path
       d="M 54.640096,16 54.020467,15.097656 53.387655,16 h -0.309082 l 0.785156,-1.072266 -0.725098,-0.991699 h 0.309082 l 0.574219,0.810059 0.558106,-0.810059 H 54.88912 L 54.183065,14.91748 54.949178,16 Z"
       id="path7825" />
  </g>
  <line
     class="divider"
     x1="5"
     y1="18.470833"
     x2="76.279999"
     y2="18.470833"
     id="line7692" />
  <g
     aria-label="GATE MODE MOD MATRIX"
     id="text7694"
     class="section"
     style="font-size:3px;font-family:Roboto, 'Liberation Sans', sans-serif;letter-spacing:0.4px;text-anchor:middle;fill:#cfd3dc">
    <path
       d="m 18.213046,72.958496 q 0,-0.502441 0.269531,-0.777832 0.269532,-0.275391 0.757325,-0.275391 0.342773,0 0.55664,0.115723 0.213867,0.115723 0.32959,0.370606 l -0.266601,0.0791 q -0.08789,-0.175781 -0.243164,-0.256348 -0.153809,-0.08057 -0.38379,-0.08057 -0.357421,0 -0.546386,0.216797 -0.188965,0.215332 -0.188965,0.60791 0,0.391113 0.200683,0.618164 0.200684,0.225586 0.555176,0.225586 0.202149,0 0.376465,-0.06152 0.175781,-0.06152 0.28418,-0.166993 v -0.37207 h -0.616699 v -0.234375 h 0.874511 v 0.711914 q -0.164062,0.166992 -0.402832,0.259278 -0.237304,0.09082 -0.515625,0.09082 -0.32373,0 -0.558105,-0.128906 -0.234375,-0.128907 -0.358887,-0.370606 -0.123047,-0.243164 -0.123047,-0.571289 z"
       id="path7828" />
    <path
       d="m 22.505136,74 -0.23584,-0.603516 H 21.328867 L 21.091562,74 h -0.290039 l 0.842285,-2.063965 h 0.317871 L 22.790781,74 Z m -0.706055,-1.853027 -0.01318,0.04102 Q 21.749277,72.30957 21.677499,72.5 l -0.263671,0.678223 H 22.1858 L 21.920663,72.49707 q -0.04102,-0.101074 -0.08203,-0.228515 z"
       id="path7830" />
    <path
       d="M 24.028671,72.164551 V 74 h -0.27832 v -1.835449 h -0.708984 v -0.228516 h 1.696289 v 0.228516 z"
       id="path7832" />
    <path
       d="m 25.452597,74 v -2.063965 h 1.565918 v 0.228516 h -1.286133 v 0.662109 h 1.198242 v 0.225586 h -1.198242 v 0.719238 h 1.346191 V 74 Z"
       id="path7834" />
    <path
       d="m 30.841952,74 v -1.376953 q 0,-0.228516 0.01318,-0.439453 -0.07178,0.262207 -0.128906,0.410156 L 30.193027,74 h -0.196289 l -0.540528,-1.40625 -0.08203,-0.249023 -0.04834,-0.161133 0.0044,0.162597 0.0059,0.276856 V 74 H 29.08707 v -2.063965 h 0.367675 l 0.549317,1.431152 q 0.0293,0.08643 0.05566,0.186036 0.02783,0.09814 0.03662,0.142089 0.01172,-0.05859 0.04834,-0.177246 0.03809,-0.120117 0.05127,-0.150879 l 0.539063,-1.431152 h 0.358887 V 74 Z"
       id="path7836" />
    <path
       d="m 33.92994,72.958496 q 0,0.323731 -0.124511,0.566895 -0.123047,0.243164 -0.354493,0.373535 -0.231445,0.130371 -0.546386,0.130371 -0.317871,0 -0.549317,-0.128906 -0.22998,-0.128907 -0.351562,-0.372071 -0.121582,-0.244629 -0.121582,-0.569824 0,-0.495117 0.270996,-0.773437 0.270996,-0.279786 0.754394,-0.279786 0.314942,0 0.546387,0.125977 0.231445,0.124512 0.353027,0.363281 0.123047,0.23877 0.123047,0.563965 z m -0.285644,0 q 0,-0.385254 -0.19336,-0.60498 -0.191894,-0.219727 -0.543457,-0.219727 -0.354492,0 -0.547851,0.216797 -0.19336,0.216797 -0.19336,0.60791 0,0.388184 0.194825,0.616699 0.196289,0.227051 0.543457,0.227051 0.357422,0 0.547851,-0.219726 0.191895,-0.221192 0.191895,-0.624024 z"
       id="path7838" />
    <path
       d="m 36.496444,72.946777 q 0,0.319336 -0.124512,0.559571 -0.124512,0.238769 -0.353027,0.366211 Q 35.790389,74 35.491561,74 h -0.771973 v -2.063965 h 0.682618 q 0.524414,0 0.808593,0.263672 0.285645,0.262207 0.285645,0.74707 z m -0.28125,0 q 0,-0.383789 -0.210938,-0.584472 -0.209472,-0.202149 -0.60791,-0.202149 h -0.396972 v 1.615723 h 0.459961 q 0.22705,0 0.398437,-0.09961 0.172852,-0.09961 0.265137,-0.28711 0.09228,-0.1875 0.09228,-0.442383 z"
       id="path7840" />
    <path
       d="m 37.286094,74 v -2.063965 h 1.565918 v 0.228516 h -1.286133 v 0.662109 h 1.198242 v 0.225586 h -1.198242 v 0.719238 H 38.91207 V 74 Z"
       id="path7842" />
    <path
       d="m 42.675449,74 v -1.376953 q 0,-0.228516 0.01318,-0.439453 -0.07178,0.262207 -0.128906,0.410156 L 42.026523,74 h -0.196289 l -0.540528,-1.40625 -0.08203,-0.249023 -0.04834,-0.161133 0.0044,0.162597 0.0059,0.276856 V 74 h -0.249023 v -2.063965 h 0.367676 l 0.549316,1.431152 q 0.0293,0.08643 0.05566,0.186036 0.02783,0.09814 0.03662,0.142089 0.01172,-0.05859 0.04834,-0.177246 0.03809,-0.120117 0.05127,-0.150879 l 0.539063,-1.431152 h 0.358887 V 74 Z"
       id="path7844" />
    <path
       d="m 45.763436,72.958496 q 0,0.323731 -0.124511,0.566895 -0.123047,0.243164 -0.354492,0.373535 -0.231446,0.130371 -0.546387,0.130371 -0.317871,0 -0.549317,-0.128906 -0.22998,-0.128907 -0.351562,-0.372071 -0.121582,-0.244629 -0.121582,-0.569824 0,-0.495117 0.270996,-0.773437 0.270996,-0.279786 0.754395,-0.279786 0.314941,0 0.546386,0.125977 0.231446,0.124512 0.353028,0.363281 0.123046,0.23877 0.123046,0.563965 z m -0.285644,0 q 0,-0.385254 -0.193359,-0.60498 -0.191895,-0.219727 -0.543457,-0.219727 -0.354493,0 -0.547852,0.216797 -0.193359,0.216797 -0.193359,0.60791 0,0.388184 0.194824,0.616699 0.196289,0.227051 0.543457,0.227051 0.357422,0 0.547851,-0.219726 0.191895,-0.221192 0.191895,-0.624024 z"
       id="path7846" />
    <path
       d="m 48.32994,72.946777 q 0,0.319336 -0.124512,0.559571 -0.124511,0.238769 -0.353027,0.366211 Q 47.623885,74 47.325057,74 h -0.771972 v -2.063965 h 0.682617 q 0.524414,0 0.808593,0.263672 0.285645,0.262207 0.285645,0.74707 z m -0.28125,0 q 0,-0.383789 -0.210938,-0.584472 -0.209472,-0.202149 -0.60791,-0.202149 H 46.83287 v 1.615723 h 0.459961 q 0.22705,0 0.398437,-0.09961 0.172852,-0.09961 0.265137,-0.28711 0.09229,-0.1875 0.09229,-0.442383 z"
       id="path7848" />
    <path
       d="m 52.107967,74 v -1.376953 q 0,-0.228516 0.01318,-0.439453 -0.07178,0.262207 -0.128906,0.410156 L 51.459041,74 h -0.196289 l -0.540528,-1.40625 -0.08203,-0.249023 -0.04834,-0.161133 0.0044,0.162597 0.0059,0.276856 V 74 h -0.249023 v -2.063965 h 0.367676 l 0.549316,1.431152 q 0.0293,0.08643 0.05566,0.186036 0.02783,0.09814 0.03662,0.142089 0.01172,-0.05859 0.04834,-0.177246 0.03809,-0.120117 0.05127,-0.150879 l 0.539063,-1.431152 H 52.35992 V 74 Z"
       id="path7850" />
    <path
       d="m 54.715488,74 -0.23584,-0.603516 h -0.94043 L 53.301913,74 h -0.290039 l 0.842285,-2.063965 h 0.317872 L 55.001132,74 Z m -0.706055,-1.853027 -0.01318,0.04102 Q 53.959628,72.30957 53.887851,72.5 l -0.263672,0.678223 h 0.771973 L 54.131015,72.49707 q -0.04102,-0.101074 -0.08203,-0.228515 z"
       id="path7852" />
    <path
       d="M 56.239024,72.164551 V 74 h -0.27832 V 72.164551 H 55.25172 v -0.228516 h 1.696289 v 0.228516 z"
       id="path7854" />
    <path
       d="M 59.121932,74 58.585799,73.143066 H 57.942733 V 74 h -0.279785 v -2.063965 h 0.971191 q 0.348633,0 0.537598,0.156738 0.19043,0.155274 0.19043,0.433594 0,0.229981 -0.134766,0.386719 Q 59.0941,73.069824 58.85826,73.11084 L 59.444198,74 Z m -0.04102,-1.470703 q 0,-0.180176 -0.123047,-0.273926 -0.121582,-0.09521 -0.351563,-0.09521 h -0.663574 v 0.761719 h 0.675293 q 0.221191,0 0.341309,-0.102539 0.121582,-0.104004 0.121582,-0.290039 z"
       id="path7856" />
    <path
       d="M 60.260215,74 V 71.936035 H 60.54 V 74 Z"
       id="path7858" />
    <path
       d="M 62.84576,74 62.226131,73.097656 61.593318,74 h -0.309082 l 0.785156,-1.072266 -0.725097,-0.991699 h 0.309082 l 0.574218,0.810059 0.558106,-0.810059 h 0.309082 L 62.388728,72.91748 63.154842,74 Z"
       id="path7860" />
  </g>
  <line
     class="divider"
     x1="5"
     y1="77"
     x2="76.28"
     y2="77"
     id="line7696" />
  <g
     id="stepLabels">
    <g
       aria-label="1"
       id="text7698"
       class="step"
       style="font-size:2.4px;font-family:'Roboto Mono', 'Liberation Mono', monospace;text-anchor:middle;fill:#aeb3be">
      <path
         d="m 12.186914,24 v -1.70625 h -0.01758 l -0.645703,0.248437 v 0.198047 l 0.446484,-0.169922 V 24 Z"
         id="path7863" />
    </g>
    <g
       aria-label="2"
       id="text7700"
       class="step"
       style="font-size:2.4px;font-family:'Roboto Mono', 'Liberation Mono', monospace;text-anchor:middle;fill:#aeb3be">
      <path
         d="m 30.530273,24 v -0.176953 h -0.85664 l 0.458203,-0.496875 q 0.06445,-0.07031 0.121875,-0.140625 0.05859,-0.07148 0.103125,-0.144141 0.04336,-0.07266 0.06914,-0.146484 0.02578,-0.075 0.02578,-0.151172 0,-0.101953 -0.03633,-0.188672 -0.03516,-0.08672 -0.101953,-0.15 -0.0668,-0.06328 -0.164063,-0.09844 -0.09609,-0.03633 -0.216797,-0.03633 -0.13125,0 -0.234375,0.04219 -0.101953,0.04219 -0.172265,0.113672 -0.07149,0.07148 -0.108985,0.167578 -0.0375,0.09492 -0.0375,0.202734 h 0.217969 q 0,-0.07969 0.01992,-0.14414 0.02109,-0.06445 0.06328,-0.110157 0.04102,-0.04453 0.103125,-0.06914 0.06328,-0.02461 0.148828,-0.02461 0.07031,0 0.125391,0.02461 0.05625,0.02344 0.09609,0.06445 0.03867,0.04102 0.05859,0.09727 0.02109,0.05508 0.02109,0.118359 0,0.05156 -0.01289,0.100781 -0.01289,0.04805 -0.04336,0.101953 -0.03047,0.05508 -0.08086,0.119532 -0.05039,0.06445 -0.125391,0.147656 l -0.558984,0.621094 V 24 Z"
         id="path7866" />
    </g>
    <g
       aria-label="3"
       id="text7702"
       class="step"
       style="font-size:2.4px;font-family:'Roboto Mono', 'Liberation Mono', monospace;text-anchor:middle;fill:#aeb3be">
      <path
         d="m 47.736914,23.042578 v 0.175781 h 0.154688 q 0.08086,0 0.147656,0.01875 0.06797,0.01875 0.116015,0.05742 0.04687,0.03867 0.07266,0.09727 0.02695,0.05742 0.02695,0.137109 0,0.08086 -0.02344,0.140625 -0.02226,0.05859 -0.06445,0.09844 -0.04219,0.03984 -0.101953,0.05976 -0.05977,0.01875 -0.133594,0.01875 -0.07383,0 -0.134765,-0.02109 -0.05977,-0.02109 -0.101953,-0.05977 -0.04219,-0.03867 -0.06562,-0.09375 -0.02227,-0.05508 -0.02227,-0.121875 h -0.216797 q 0,0.1125 0.04219,0.200391 0.04336,0.08789 0.116015,0.148828 0.07266,0.06094 0.171094,0.09258 0.09961,0.03164 0.212109,0.03164 0.114844,0 0.213282,-0.03281 0.09961,-0.03398 0.172265,-0.09844 0.07266,-0.06328 0.113672,-0.155859 0.04102,-0.09258 0.04102,-0.212109 0,-0.05859 -0.01406,-0.11836 -0.01289,-0.05976 -0.0457,-0.113672 -0.03398,-0.05391 -0.09023,-0.09727 -0.05508,-0.04336 -0.138282,-0.07031 0.06914,-0.0293 0.11836,-0.07266 0.05039,-0.04453 0.08203,-0.09492 0.03164,-0.04922 0.04687,-0.101953 0.01523,-0.05273 0.01523,-0.101953 0,-0.118359 -0.0375,-0.208594 -0.0375,-0.09023 -0.105468,-0.151172 -0.06797,-0.06094 -0.162891,-0.09141 -0.09492,-0.03164 -0.209766,-0.03164 -0.118359,0 -0.215625,0.0375 -0.09609,0.03633 -0.165234,0.09961 -0.06914,0.06445 -0.107812,0.151172 -0.0375,0.08555 -0.0375,0.182812 h 0.217968 q 0,-0.0668 0.02227,-0.120703 0.02227,-0.05391 0.06328,-0.09258 0.03984,-0.03867 0.09609,-0.05859 0.05742,-0.02109 0.126562,-0.02109 0.07149,0 0.126563,0.01875 0.05625,0.01758 0.09375,0.05391 0.03867,0.0375 0.05859,0.09492 0.01992,0.05625 0.01992,0.132421 0,0.06445 -0.02227,0.11836 -0.02227,0.05391 -0.06445,0.09258 -0.04336,0.03867 -0.106641,0.06094 -0.06211,0.02227 -0.14414,0.02227 z"
         id="path7869" />
    </g>
    <g
       aria-label="4"
       id="text7704"
       class="step"
       style="font-size:2.4px;font-family:'Roboto Mono', 'Liberation Mono', monospace;text-anchor:middle;fill:#aeb3be">
      <path
         d="M 66.362695,23.426953 V 22.29375 h -0.230859 l -0.764063,1.182422 v 0.127734 h 0.778125 V 24 h 0.216797 v -0.396094 h 0.237891 v -0.176953 z m -0.754687,0 0.502734,-0.779297 0.03516,-0.06563 v 0.844922 z"
         id="path7872" />
    </g>
    <g
       aria-label="5"
       id="text7706"
       class="step"
       style="font-size:2.4px;font-family:'Roboto Mono', 'Liberation Mono', monospace;text-anchor:middle;fill:#aeb3be">
      <path
         d="m 11.561133,37.144531 0.173437,0.04453 q 0.0293,-0.02578 0.05625,-0.0457 0.02812,-0.01992 0.05977,-0.03398 0.03164,-0.01406 0.07031,-0.02109 0.03984,-0.0082 0.09375,-0.0082 0.08203,0 0.145313,0.0293 0.06328,0.0293 0.106641,0.07969 0.04336,0.05156 0.06562,0.120704 0.02344,0.06914 0.02344,0.148828 0,0.08789 -0.02109,0.159375 -0.01992,0.07148 -0.05976,0.121875 -0.04102,0.05156 -0.100782,0.07969 -0.05977,0.02695 -0.137109,0.02695 -0.137109,0 -0.225,-0.075 -0.08672,-0.075 -0.106641,-0.220312 h -0.20625 q 0.01172,0.118359 0.05742,0.207422 0.04687,0.08906 0.119532,0.147656 0.07148,0.05859 0.164062,0.08789 0.09258,0.0293 0.196875,0.0293 0.135938,0 0.236719,-0.04219 0.100781,-0.04336 0.167578,-0.119531 0.06563,-0.075 0.09844,-0.179297 0.03281,-0.104297 0.03281,-0.226172 0,-0.128906 -0.03516,-0.234375 -0.03516,-0.105469 -0.100782,-0.180469 -0.06562,-0.07383 -0.159375,-0.114844 -0.09375,-0.04101 -0.212109,-0.04101 -0.09258,0 -0.162891,0.02226 -0.07031,0.02227 -0.120703,0.05156 l 0.04805,-0.454688 H 12.52207 V 36.29375 h -0.87539 z"
         id="path7875" />
    </g>
    <g
       aria-label="6"
       id="text7708"
       class="step"
       style="font-size:2.4px;font-family:'Roboto Mono', 'Liberation Mono', monospace;text-anchor:middle;fill:#aeb3be">
      <path
         d="m 30.283008,36.292578 h -0.01875 q -0.182813,0 -0.326953,0.05156 -0.144141,0.05039 -0.244922,0.151171 -0.146485,0.146485 -0.196875,0.352735 -0.05039,0.20625 -0.05039,0.419531 v 0.101953 q 0,0.124219 0.0375,0.248438 0.0375,0.123047 0.113672,0.215625 0.06797,0.08438 0.167578,0.137109 0.09961,0.05273 0.23086,0.05273 0.130078,0 0.228515,-0.0457 0.09961,-0.0457 0.166406,-0.12539 0.0668,-0.07852 0.09961,-0.183985 0.03398,-0.105468 0.03398,-0.225 0,-0.104297 -0.02812,-0.205078 -0.02812,-0.100781 -0.08789,-0.180469 -0.05977,-0.07969 -0.152344,-0.127734 -0.09258,-0.04922 -0.220313,-0.04922 -0.05859,0 -0.1125,0.01406 -0.05273,0.01289 -0.09844,0.03516 -0.04687,0.02344 -0.08672,0.05508 -0.03984,0.03047 -0.07031,0.0668 0.007,-0.1125 0.04453,-0.219141 0.03867,-0.10664 0.1125,-0.183984 0.07031,-0.07383 0.178125,-0.117187 0.107812,-0.04453 0.2625,-0.04453 h 0.01875 z m -0.283594,0.76875 q 0.07852,0 0.137109,0.03281 0.05859,0.03281 0.09727,0.08789 0.03867,0.05508 0.05742,0.126563 0.01875,0.07031 0.01875,0.145312 0,0.08437 -0.02109,0.157031 -0.01992,0.07149 -0.05976,0.123047 -0.04102,0.05156 -0.09961,0.08086 -0.05859,0.0293 -0.134765,0.0293 -0.06563,0 -0.125391,-0.03047 -0.05977,-0.03164 -0.105469,-0.09141 -0.0457,-0.05977 -0.07266,-0.146485 -0.02695,-0.08789 -0.02695,-0.20039 v -0.07266 q 0.01992,-0.05391 0.05391,-0.09844 0.03398,-0.04453 0.07852,-0.07617 0.04453,-0.03164 0.09609,-0.04922 0.05156,-0.01758 0.106641,-0.01758 z"
         id="path7878" />
    </g>
    <g
       aria-label="7"
       id="text7710"
       class="step"
       style="font-size:2.4px;font-family:'Roboto Mono', 'Liberation Mono', monospace;text-anchor:middle;fill:#aeb3be">
      <path
         d="M 48.564258,36.415625 V 36.29375 h -1.153125 v 0.189844 H 48.33457 L 47.630273,38 h 0.227344 z"
         id="path7881" />
    </g>
    <g
       aria-label="8"
       id="text7712"
       class="step"
       style="font-size:2.4px;font-family:'Roboto Mono', 'Liberation Mono', monospace;text-anchor:middle;fill:#aeb3be">
      <path
         d="m 66.533789,36.739062 q 0,-0.111328 -0.03867,-0.198046 -0.03867,-0.08789 -0.10664,-0.147657 -0.06797,-0.05976 -0.160547,-0.09141 -0.09258,-0.03164 -0.200391,-0.03164 -0.108984,0 -0.201562,0.03164 -0.09141,0.03164 -0.157032,0.09141 -0.0668,0.05977 -0.104297,0.147657 -0.0375,0.08672 -0.0375,0.198046 0,0.06328 0.01758,0.120704 0.01758,0.05742 0.04922,0.105468 0.03164,0.04922 0.07734,0.08906 0.0457,0.03867 0.101953,0.0668 -0.06562,0.02813 -0.118359,0.07031 -0.05273,0.04219 -0.09023,0.09492 -0.0375,0.05391 -0.05742,0.118359 -0.01992,0.06328 -0.01992,0.134766 0,0.117188 0.04219,0.207422 0.04219,0.09023 0.116016,0.151172 0.07266,0.06211 0.171094,0.09375 0.09961,0.03164 0.214453,0.03164 0.1125,0 0.210937,-0.03164 0.09844,-0.03281 0.172266,-0.09492 0.07266,-0.06094 0.114844,-0.151172 0.04336,-0.09023 0.04336,-0.20625 0,-0.07148 -0.02109,-0.134766 -0.01992,-0.06328 -0.05742,-0.117187 -0.03867,-0.05391 -0.09258,-0.09492 -0.05273,-0.04219 -0.118359,-0.07031 0.0375,-0.01875 0.07031,-0.04219 0.03281,-0.02344 0.05977,-0.05039 0.05625,-0.05625 0.08789,-0.130078 0.03164,-0.075 0.03281,-0.160547 z m -0.178125,0.795704 q 0,0.07383 -0.02461,0.132421 -0.02344,0.05742 -0.06563,0.09727 -0.04336,0.03984 -0.103125,0.06094 -0.05977,0.02109 -0.13125,0.02109 -0.075,0 -0.135938,-0.02109 -0.05976,-0.02109 -0.101953,-0.06094 -0.04219,-0.03984 -0.06563,-0.09727 -0.02227,-0.05859 -0.02227,-0.132421 0,-0.07148 0.02227,-0.13125 0.02344,-0.05977 0.06563,-0.103125 0.04219,-0.04219 0.101953,-0.06562 0.05977,-0.02344 0.133594,-0.02344 0.07148,0 0.13125,0.02344 0.06094,0.02344 0.104297,0.06562 0.04336,0.04336 0.0668,0.103125 0.02461,0.05976 0.02461,0.13125 z m -0.03984,-0.792188 q 0,0.06562 -0.02109,0.119531 -0.02109,0.05391 -0.05859,0.09141 -0.03867,0.03867 -0.09141,0.05976 -0.05273,0.01992 -0.114844,0.01992 -0.06328,0 -0.116016,-0.01992 -0.05156,-0.02109 -0.08906,-0.05976 -0.03867,-0.0375 -0.05977,-0.09023 -0.01992,-0.05391 -0.01992,-0.120703 0,-0.0668 0.01992,-0.120703 0.02109,-0.05508 0.05859,-0.09375 0.0375,-0.03867 0.08906,-0.05859 0.05156,-0.02109 0.114844,-0.02109 0.06328,0 0.116016,0.02227 0.05273,0.02109 0.09141,0.05977 0.0375,0.03984 0.05859,0.09375 0.02227,0.05391 0.02227,0.118359 z"
         id="path7884" />
    </g>
    <g
       aria-label="9"
       id="text7714"
       class="step"
       style="font-size:2.4px;font-family:'Roboto Mono', 'Liberation Mono', monospace;text-anchor:middle;fill:#aeb3be">
      <path
         d="m 11.716992,51.807812 h -0.02226 v 0.19336 h 0.02226 q 0.210938,0 0.357422,-0.05742 0.147656,-0.05859 0.230859,-0.152344 0.138282,-0.154687 0.180469,-0.353906 0.04219,-0.200391 0.04219,-0.398438 v -0.07852 q 0,-0.139453 -0.03867,-0.278906 -0.03867,-0.140625 -0.116016,-0.234375 -0.06562,-0.07969 -0.16289,-0.127735 -0.09609,-0.04922 -0.227344,-0.04922 -0.13125,0 -0.23086,0.04805 -0.09844,0.04687 -0.164062,0.126563 -0.0668,0.08086 -0.100781,0.188672 -0.03281,0.10664 -0.03281,0.227343 0,0.103125 0.02812,0.205079 0.02813,0.101953 0.08789,0.182812 0.05977,0.08086 0.151172,0.13125 0.09258,0.04922 0.21914,0.04922 0.06562,0 0.120703,-0.01289 0.05625,-0.01406 0.101954,-0.0375 0.0457,-0.02344 0.08203,-0.05391 0.03633,-0.03164 0.06445,-0.0668 v 0.0023 q -0.0059,0.107812 -0.03398,0.208594 -0.02812,0.100781 -0.108985,0.188671 -0.0668,0.07149 -0.176953,0.111329 -0.108984,0.03867 -0.273047,0.03867 z M 11.975977,51.25 q -0.07852,0 -0.13711,-0.03398 -0.05742,-0.03516 -0.09492,-0.09141 -0.03867,-0.05625 -0.05742,-0.127734 -0.01875,-0.07266 -0.01875,-0.147656 0,-0.08438 0.02109,-0.157032 0.02109,-0.07383 0.06211,-0.127734 0.03984,-0.05273 0.09844,-0.0832 0.05859,-0.03047 0.134766,-0.03047 0.0668,0 0.12539,0.03281 0.05977,0.03281 0.105469,0.09375 0.04453,0.06211 0.07031,0.151172 0.02695,0.08906 0.02695,0.202734 v 0.07031 q -0.01992,0.05508 -0.05508,0.100782 -0.03398,0.04453 -0.07734,0.07734 -0.04453,0.03399 -0.09727,0.05273 -0.05156,0.01758 -0.10664,0.01758 z"
         id="path7887" />
    </g>
    <g
       aria-label="10"
       id="text7716"
       class="step"
       style="font-size:2.4px;font-family:'Roboto Mono', 'Liberation Mono', monospace;text-anchor:middle;fill:#aeb3be">
      <path
         d="m 29.466797,52 v -1.70625 h -0.01758 l -0.645703,0.248437 v 0.198047 L 29.25,50.570312 V 52 Z"
         id="path7890" />
      <path
         d="m 31.275,51.347266 v -0.39961 q 0,-0.16289 -0.0375,-0.288281 -0.0375,-0.126563 -0.107812,-0.213281 -0.07149,-0.08672 -0.17461,-0.13125 -0.101953,-0.0457 -0.233203,-0.0457 -0.130078,0 -0.233203,0.0457 -0.101953,0.04453 -0.172266,0.13125 -0.07148,0.08672 -0.108984,0.213281 -0.0375,0.125391 -0.0375,0.288281 v 0.39961 q 0,0.16289 0.0375,0.289453 0.0375,0.12539 0.108984,0.210937 0.07148,0.08789 0.17461,0.132422 0.103125,0.04336 0.233203,0.04336 0.13125,0 0.233203,-0.04453 0.101953,-0.04453 0.172266,-0.13125 Q 31.2,51.762109 31.2375,51.636719 31.275,51.510156 31.275,51.347266 Z m -0.887109,-0.04336 q 0,-0.03047 0,-0.05976 0,-0.0293 0,-0.05859 v -0.285938 q 0,-0.119531 0.02344,-0.209765 0.02461,-0.09141 0.07383,-0.148828 0.04102,-0.0457 0.09961,-0.06914 0.05977,-0.02461 0.137109,-0.02461 0.07617,0 0.133594,0.02227 0.05859,0.02227 0.09844,0.0668 0.04102,0.04336 0.06445,0.108984 0.02461,0.06445 0.03399,0.148829 z m 0.66914,0.08906 q 0,0.12539 -0.02578,0.217968 -0.02461,0.09258 -0.07852,0.15 -0.03984,0.04219 -0.09727,0.06445 -0.05742,0.02226 -0.13125,0.02226 -0.07031,0 -0.126563,-0.01992 -0.05625,-0.02109 -0.09609,-0.06094 -0.04336,-0.04219 -0.07031,-0.106641 -0.02695,-0.06562 -0.0375,-0.151172 l 0.663281,-0.507422 q 0,0.03281 0,0.0832 0,0.04922 0,0.0668 z"
         id="path7892" />
    </g>
    <g
       aria-label="11"
       id="text7718"
       class="step"
       style="font-size:2.4px;font-family:'Roboto Mono', 'Liberation Mono', monospace;text-anchor:middle;fill:#aeb3be">
      <path
         d="m 47.466797,52 v -1.70625 h -0.01758 l -0.645703,0.248437 v 0.198047 L 47.25,50.570312 V 52 Z"
         id="path7895" />
      <path
         d="m 48.907031,52 v -1.70625 h -0.01758 l -0.645703,0.248437 v 0.198047 l 0.446484,-0.169922 V 52 Z"
         id="path7897" />
    </g>
    <g
       aria-label="12"
       id="text7720"
       class="step"
       style="font-size:2.4px;font-family:'Roboto Mono', 'Liberation Mono', monospace;text-anchor:middle;fill:#aeb3be">
      <path
         d="m 65.466797,52 v -1.70625 h -0.01758 l -0.645703,0.248437 v 0.198047 L 65.25,50.570312 V 52 Z"
         id="path7900" />
      <path
         d="M 67.250391,52 V 51.823047 H 66.39375 l 0.458203,-0.496875 q 0.06445,-0.07031 0.121875,-0.140625 0.05859,-0.07149 0.103125,-0.144141 0.04336,-0.07266 0.06914,-0.146484 0.02578,-0.075 0.02578,-0.151172 0,-0.101953 -0.03633,-0.188672 -0.03516,-0.08672 -0.101953,-0.15 -0.0668,-0.06328 -0.164063,-0.09844 -0.09609,-0.03633 -0.216797,-0.03633 -0.13125,0 -0.234375,0.04219 -0.101953,0.04219 -0.172265,0.113672 -0.07148,0.07148 -0.108985,0.167578 -0.0375,0.09492 -0.0375,0.202734 h 0.217969 q 0,-0.07969 0.01992,-0.14414 0.02109,-0.06445 0.06328,-0.110157 0.04102,-0.04453 0.103125,-0.06914 0.06328,-0.02461 0.148828,-0.02461 0.07031,0 0.125391,0.02461 0.05625,0.02344 0.09609,0.06445 0.03867,0.04102 0.05859,0.09727 0.02109,0.05508 0.02109,0.118359 0,0.05156 -0.01289,0.100781 -0.01289,0.04805 -0.04336,0.101953 -0.03047,0.05508 -0.08086,0.119532 -0.05039,0.06445 -0.125391,0.147656 l -0.558984,0.621094 V 52 Z"
         id="path7902" />
    </g>
    <g
       aria-label="13"
       id="text7722"
       class="step"
       style="font-size:2.4px;font-family:'Roboto Mono', 'Liberation Mono', monospace;text-anchor:middle;fill:#aeb3be">
      <path
         d="m 11.466797,66 v -1.70625 h -0.01758 l -0.645703,0.248437 v 0.198047 L 11.25,64.570312 V 66 Z"
         id="path7905" />
      <path
         d="m 12.457031,65.042578 v 0.175781 h 0.154688 q 0.08086,0 0.147656,0.01875 0.06797,0.01875 0.116016,0.05742 0.04687,0.03867 0.07266,0.09727 0.02695,0.05742 0.02695,0.137109 0,0.08086 -0.02344,0.140625 -0.02227,0.05859 -0.06445,0.09844 -0.04219,0.03984 -0.101953,0.05977 -0.05977,0.01875 -0.133593,0.01875 -0.07383,0 -0.134766,-0.02109 -0.05977,-0.02109 -0.101953,-0.05977 -0.04219,-0.03867 -0.06563,-0.09375 -0.02227,-0.05508 -0.02227,-0.121875 h -0.216797 q 0,0.1125 0.04219,0.200391 0.04336,0.08789 0.116015,0.148828 0.07266,0.06094 0.171094,0.09258 0.09961,0.03164 0.21211,0.03164 0.114843,0 0.213281,-0.03281 0.09961,-0.03398 0.172265,-0.09844 0.07266,-0.06328 0.113672,-0.155859 0.04102,-0.09258 0.04102,-0.212109 0,-0.05859 -0.01406,-0.11836 -0.01289,-0.05977 -0.0457,-0.113672 -0.03398,-0.05391 -0.09023,-0.09726 -0.05508,-0.04336 -0.138281,-0.07031 0.06914,-0.0293 0.118359,-0.07266 0.05039,-0.04453 0.08203,-0.09492 0.03164,-0.04922 0.04687,-0.101953 0.01524,-0.05273 0.01524,-0.101953 0,-0.118359 -0.0375,-0.208594 -0.0375,-0.09023 -0.105469,-0.151172 -0.06797,-0.06094 -0.162891,-0.09141 -0.09492,-0.03164 -0.209765,-0.03164 -0.11836,0 -0.215625,0.0375 -0.09609,0.03633 -0.165235,0.09961 -0.06914,0.06445 -0.107812,0.151172 -0.0375,0.08555 -0.0375,0.182812 h 0.217969 q 0,-0.0668 0.02226,-0.120703 0.02227,-0.05391 0.06328,-0.09258 0.03984,-0.03867 0.09609,-0.05859 0.05742,-0.02109 0.126563,-0.02109 0.07148,0 0.126562,0.01875 0.05625,0.01758 0.09375,0.05391 0.03867,0.0375 0.05859,0.09492 0.01992,0.05625 0.01992,0.132421 0,0.06445 -0.02227,0.11836 -0.02226,0.05391 -0.06445,0.09258 -0.04336,0.03867 -0.106641,0.06094 -0.06211,0.02227 -0.14414,0.02227 z"
         id="path7907" />
    </g>
    <g
       aria-label="14"
       id="text7724"
       class="step"
       style="font-size:2.4px;font-family:'Roboto Mono', 'Liberation Mono', monospace;text-anchor:middle;fill:#aeb3be">
      <path
         d="m 29.466797,66 v -1.70625 h -0.01758 l -0.645703,0.248437 v 0.198047 L 29.25,64.570312 V 66 Z"
         id="path7910" />
      <path
         d="M 31.082813,65.426953 V 64.29375 h -0.23086 l -0.764062,1.182422 v 0.127734 h 0.778125 V 66 h 0.216797 v -0.396094 h 0.23789 v -0.176953 z m -0.754688,0 0.502734,-0.779297 0.03516,-0.06562 v 0.844922 z"
         id="path7912" />
    </g>
    <g
       aria-label="15"
       id="text7726"
       class="step"
       style="font-size:2.4px;font-family:'Roboto Mono', 'Liberation Mono', monospace;text-anchor:middle;fill:#aeb3be">
      <path
         d="m 47.466797,66 v -1.70625 h -0.01758 l -0.645703,0.248437 v 0.198047 L 47.25,64.570312 V 66 Z"
         id="path7915" />
      <path
         d="m 48.28125,65.144531 0.173438,0.04453 q 0.0293,-0.02578 0.05625,-0.0457 0.02812,-0.01992 0.05976,-0.03398 0.03164,-0.01406 0.07031,-0.02109 0.03984,-0.0082 0.09375,-0.0082 0.08203,0 0.145312,0.0293 0.06328,0.0293 0.106641,0.07969 0.04336,0.05156 0.06562,0.120704 0.02344,0.06914 0.02344,0.148828 0,0.08789 -0.02109,0.159375 -0.01992,0.07148 -0.05977,0.121875 -0.04102,0.05156 -0.100781,0.07969 -0.05977,0.02695 -0.13711,0.02695 -0.137109,0 -0.225,-0.075 -0.08672,-0.075 -0.10664,-0.220312 h -0.20625 q 0.01172,0.118359 0.05742,0.207422 0.04687,0.08906 0.119531,0.147656 0.07148,0.05859 0.164062,0.08789 0.09258,0.0293 0.196875,0.0293 0.135938,0 0.236719,-0.04219 0.100781,-0.04336 0.167578,-0.119531 0.06563,-0.075 0.09844,-0.179297 0.03281,-0.104297 0.03281,-0.226172 0,-0.128906 -0.03516,-0.234375 -0.03516,-0.105469 -0.100781,-0.180469 -0.06562,-0.07383 -0.159375,-0.114844 -0.09375,-0.04102 -0.21211,-0.04102 -0.09258,0 -0.16289,0.02227 -0.07031,0.02227 -0.120703,0.05156 l 0.04805,-0.454688 h 0.692579 V 64.29375 h -0.875391 z"
         id="path7917" />
    </g>
    <g
       aria-label="16"
       id="text7728"
       class="step"
       style="font-size:2.4px;font-family:'Roboto Mono', 'Liberation Mono', monospace;text-anchor:middle;fill:#aeb3be">
      <path
         d="m 65.466797,66 v -1.70625 h -0.01758 l -0.645703,0.248437 v 0.198047 L 65.25,64.570312 V 66 Z"
         id="path7920" />
      <path
         d="m 67.003125,64.292578 h -0.01875 q -0.182812,0 -0.326953,0.05156 -0.144141,0.05039 -0.244922,0.151171 -0.146484,0.146485 -0.196875,0.352735 -0.05039,0.20625 -0.05039,0.419531 v 0.101953 q 0,0.124219 0.0375,0.248438 0.0375,0.123047 0.113672,0.215625 0.06797,0.08437 0.167578,0.137109 0.09961,0.05273 0.23086,0.05273 0.130078,0 0.228515,-0.0457 0.09961,-0.0457 0.166407,-0.12539 0.0668,-0.07852 0.09961,-0.183985 0.03398,-0.105468 0.03398,-0.225 0,-0.104297 -0.02813,-0.205078 -0.02812,-0.100781 -0.08789,-0.180469 -0.05977,-0.07969 -0.152344,-0.127734 -0.09258,-0.04922 -0.220312,-0.04922 -0.05859,0 -0.1125,0.01406 -0.05273,0.01289 -0.09844,0.03516 -0.04687,0.02344 -0.08672,0.05508 -0.03984,0.03047 -0.07031,0.0668 0.007,-0.1125 0.04453,-0.219141 0.03867,-0.10664 0.1125,-0.183984 0.07031,-0.07383 0.178125,-0.117187 0.107813,-0.04453 0.2625,-0.04453 h 0.01875 z m -0.283594,0.76875 q 0.07852,0 0.13711,0.03281 0.05859,0.03281 0.09727,0.08789 0.03867,0.05508 0.05742,0.126563 0.01875,0.07031 0.01875,0.145312 0,0.08437 -0.02109,0.157031 -0.01992,0.07148 -0.05976,0.123047 -0.04102,0.05156 -0.09961,0.08086 -0.05859,0.0293 -0.134765,0.0293 -0.06562,0 -0.125391,-0.03047 -0.05977,-0.03164 -0.105469,-0.09141 -0.0457,-0.05977 -0.07266,-0.146485 -0.02695,-0.08789 -0.02695,-0.20039 v -0.07266 q 0.01992,-0.05391 0.05391,-0.09844 0.03399,-0.04453 0.07852,-0.07617 0.04453,-0.03164 0.09609,-0.04922 0.05156,-0.01758 0.10664,-0.01758 z"
         id="path7922" />
    </g>
    <g
       aria-label="1"
       id="text7730"
       class="step"
       style="font-size:2.4px;font-family:'Roboto Mono', 'Liberation Mono', monospace;text-anchor:middle;fill:#aeb3be">
      <path
         d="m 12.186914,82 v -1.70625 h -0.01758 l -0.645703,0.248437 v 0.198047 l 0.446484,-0.169922 V 82 Z"
         id="path7925" />
    </g>
    <g
       aria-label="2"
       id="text7732"
       class="step"
       style="font-size:2.4px;font-family:'Roboto Mono', 'Liberation Mono', monospace;text-anchor:middle;fill:#aeb3be">
      <path
         d="m 30.530273,82 v -0.176953 h -0.85664 l 0.458203,-0.496875 q 0.06445,-0.07031 0.121875,-0.140625 0.05859,-0.07148 0.103125,-0.144141 0.04336,-0.07266 0.06914,-0.146484 0.02578,-0.075 0.02578,-0.151172 0,-0.101953 -0.03633,-0.188672 -0.03516,-0.08672 -0.101953,-0.15 -0.0668,-0.06328 -0.164063,-0.09844 -0.09609,-0.03633 -0.216797,-0.03633 -0.13125,0 -0.234375,0.04219 -0.101953,0.04219 -0.172265,0.113672 -0.07149,0.07148 -0.108985,0.167578 -0.0375,0.09492 -0.0375,0.202734 h 0.217969 q 0,-0.07969 0.01992,-0.14414 0.02109,-0.06445 0.06328,-0.110157 0.04102,-0.04453 0.103125,-0.06914 0.06328,-0.02461 0.148828,-0.02461 0.07031,0 0.125391,0.02461 0.05625,0.02344 0.09609,0.06445 0.03867,0.04102 0.05859,0.09727 0.02109,0.05508 0.02109,0.118359 0,0.05156 -0.01289,0.100781 -0.01289,0.04805 -0.04336,0.101953 -0.03047,0.05508 -0.08086,0.119532 -0.05039,0.06445 -0.125391,0.147656 l -0.558984,0.621094 V 82 Z"
         id="path7928" />
    </g>
    <g
       aria-label="3"
       id="text7734"
       class="step"
       style="font-size:2.4px;font-family:'Roboto Mono', 'Liberation Mono', monospace;text-anchor:middle;fill:#aeb3be">
      <path
         d="m 47.736914,81.042578 v 0.175781 h 0.154688 q 0.08086,0 0.147656,0.01875 0.06797,0.01875 0.116015,0.05742 0.04687,0.03867 0.07266,0.09727 0.02695,0.05742 0.02695,0.137109 0,0.08086 -0.02344,0.140625 -0.02226,0.05859 -0.06445,0.09844 -0.04219,0.03984 -0.101953,0.05977 -0.05977,0.01875 -0.133594,0.01875 -0.07383,0 -0.134765,-0.02109 -0.05977,-0.02109 -0.101953,-0.05977 -0.04219,-0.03867 -0.06562,-0.09375 -0.02227,-0.05508 -0.02227,-0.121875 h -0.216797 q 0,0.1125 0.04219,0.200391 0.04336,0.08789 0.116015,0.148828 0.07266,0.06094 0.171094,0.09258 0.09961,0.03164 0.212109,0.03164 0.114844,0 0.213282,-0.03281 0.09961,-0.03398 0.172265,-0.09844 0.07266,-0.06328 0.113672,-0.155859 0.04102,-0.09258 0.04102,-0.212109 0,-0.05859 -0.01406,-0.11836 -0.01289,-0.05977 -0.0457,-0.113672 -0.03398,-0.05391 -0.09023,-0.09726 -0.05508,-0.04336 -0.138282,-0.07031 0.06914,-0.0293 0.11836,-0.07266 0.05039,-0.04453 0.08203,-0.09492 0.03164,-0.04922 0.04687,-0.101953 0.01523,-0.05273 0.01523,-0.101953 0,-0.118359 -0.0375,-0.208594 -0.0375,-0.09023 -0.105468,-0.151172 -0.06797,-0.06094 -0.162891,-0.09141 -0.09492,-0.03164 -0.209766,-0.03164 -0.118359,0 -0.215625,0.0375 -0.09609,0.03633 -0.165234,0.09961 -0.06914,0.06445 -0.107812,0.151172 -0.0375,0.08555 -0.0375,0.182812 h 0.217968 q 0,-0.0668 0.02227,-0.120703 0.02227,-0.05391 0.06328,-0.09258 0.03984,-0.03867 0.09609,-0.05859 0.05742,-0.02109 0.126562,-0.02109 0.07149,0 0.126563,0.01875 0.05625,0.01758 0.09375,0.05391 0.03867,0.0375 0.05859,0.09492 0.01992,0.05625 0.01992,0.132421 0,0.06445 -0.02227,0.11836 -0.02227,0.05391 -0.06445,0.09258 -0.04336,0.03867 -0.106641,0.06094 -0.06211,0.02227 -0.14414,0.02227 z"
         id="path7931" />
    </g>
    <g
       aria-label="4"
       id="text7736"
       class="step"
       style="font-size:2.4px;font-family:'Roboto Mono', 'Liberation Mono', monospace;text-anchor:middle;fill:#aeb3be">
      <path
         d="M 66.362695,81.426953 V 80.29375 h -0.230859 l -0.764063,1.182422 v 0.127734 h 0.778125 V 82 h 0.216797 v -0.396094 h 0.237891 v -0.176953 z m -0.754687,0 0.502734,-0.779297 0.03516,-0.06562 v 0.844922 z"
         id="path7934" />
    </g>
    <g
       aria-label="5"
       id="text7738"
       class="step"
       style="font-size:2.4px;font-family:'Roboto Mono', 'Liberation Mono', monospace;text-anchor:middle;fill:#aeb3be">
      <path
         d="m 11.561133,93.144531 0.173437,0.04453 q 0.0293,-0.02578 0.05625,-0.0457 0.02812,-0.01992 0.05977,-0.03398 0.03164,-0.01406 0.07031,-0.02109 0.03984,-0.0082 0.09375,-0.0082 0.08203,0 0.145313,0.0293 0.06328,0.0293 0.106641,0.07969 0.04336,0.05156 0.06562,0.120704 0.02344,0.06914 0.02344,0.148828 0,0.08789 -0.02109,0.159375 -0.01992,0.07148 -0.05976,0.121875 -0.04102,0.05156 -0.100782,0.07969 -0.05977,0.02695 -0.137109,0.02695 -0.137109,0 -0.225,-0.075 -0.08672,-0.075 -0.106641,-0.220312 h -0.20625 q 0.01172,0.118359 0.05742,0.207422 0.04687,0.08906 0.119532,0.147656 0.07148,0.05859 0.164062,0.08789 0.09258,0.0293 0.196875,0.0293 0.135938,0 0.236719,-0.04219 0.100781,-0.04336 0.167578,-0.119531 0.06563,-0.075 0.09844,-0.179297 0.03281,-0.104297 0.03281,-0.226172 0,-0.128906 -0.03516,-0.234375 -0.03516,-0.105469 -0.100782,-0.180469 -0.06562,-0.07383 -0.159375,-0.114844 -0.09375,-0.04102 -0.212109,-0.04102 -0.09258,0 -0.162891,0.02227 -0.07031,0.02227 -0.120703,0.05156 l 0.04805,-0.454688 H 12.52207 V 92.29375 h -0.87539 z"
         id="path7937" />
    </g>
    <g
       aria-label="6"
       id="text7740"
       class="step"
       style="font-size:2.4px;font-family:'Roboto Mono', 'Liberation Mono', monospace;text-anchor:middle;fill:#aeb3be">
      <path
         d="m 30.283008,92.292578 h -0.01875 q -0.182813,0 -0.326953,0.05156 -0.144141,0.05039 -0.244922,0.151171 -0.146485,0.146485 -0.196875,0.352735 -0.05039,0.20625 -0.05039,0.419531 v 0.101953 q 0,0.124219 0.0375,0.248438 0.0375,0.123047 0.113672,0.215625 0.06797,0.08437 0.167578,0.137109 0.09961,0.05273 0.23086,0.05273 0.130078,0 0.228515,-0.0457 0.09961,-0.0457 0.166406,-0.12539 0.0668,-0.07852 0.09961,-0.183985 0.03398,-0.105468 0.03398,-0.225 0,-0.104297 -0.02812,-0.205078 -0.02812,-0.100781 -0.08789,-0.180469 -0.05977,-0.07969 -0.152344,-0.127734 -0.09258,-0.04922 -0.220313,-0.04922 -0.05859,0 -0.1125,0.01406 -0.05273,0.01289 -0.09844,0.03516 -0.04687,0.02344 -0.08672,0.05508 -0.03984,0.03047 -0.07031,0.0668 0.007,-0.1125 0.04453,-0.219141 0.03867,-0.10664 0.1125,-0.183984 0.07031,-0.07383 0.178125,-0.117187 0.107812,-0.04453 0.2625,-0.04453 h 0.01875 z m -0.283594,0.76875 q 0.07852,0 0.137109,0.03281 0.05859,0.03281 0.09727,0.08789 0.03867,0.05508 0.05742,0.126563 0.01875,0.07031 0.01875,0.145312 0,0.08437 -0.02109,0.157031 -0.01992,0.07148 -0.05976,0.123047 -0.04102,0.05156 -0.09961,0.08086 -0.05859,0.0293 -0.134765,0.0293 -0.06563,0 -0.125391,-0.03047 -0.05977,-0.03164 -0.105469,-0.09141 -0.0457,-0.05977 -0.07266,-0.146485 -0.02695,-0.08789 -0.02695,-0.20039 v -0.07266 q 0.01992,-0.05391 0.05391,-0.09844 0.03398,-0.04453 0.07852,-0.07617 0.04453,-0.03164 0.09609,-0.04922 0.05156,-0.01758 0.106641,-0.01758 z"
         id="path7940" />
    </g>
    <g
       aria-label="7"
       id="text7742"
       class="step"
       style="font-size:2.4px;font-family:'Roboto Mono', 'Liberation Mono', monospace;text-anchor:middle;fill:#aeb3be">
      <path
         d="M 48.564258,92.415625 V 92.29375 h -1.153125 v 0.189844 H 48.33457 L 47.630273,94 h 0.227344 z"
         id="path7943" />
    </g>
    <g
       aria-label="8"
       id="text7744"
       class="step"
       style="font-size:2.4px;font-family:'Roboto Mono', 'Liberation Mono', monospace;text-anchor:middle;fill:#aeb3be">
      <path
         d="m 66.533789,92.739062 q 0,-0.111328 -0.03867,-0.198046 -0.03867,-0.08789 -0.10664,-0.147657 -0.06797,-0.05976 -0.160547,-0.09141 -0.09258,-0.03164 -0.200391,-0.03164 -0.108984,0 -0.201562,0.03164 -0.09141,0.03164 -0.157032,0.09141 -0.0668,0.05977 -0.104297,0.147657 -0.0375,0.08672 -0.0375,0.198046 0,0.06328 0.01758,0.120704 0.01758,0.05742 0.04922,0.105468 0.03164,0.04922 0.07734,0.08906 0.0457,0.03867 0.101953,0.0668 -0.06562,0.02813 -0.118359,0.07031 -0.05273,0.04219 -0.09023,0.09492 -0.0375,0.05391 -0.05742,0.118359 -0.01992,0.06328 -0.01992,0.134766 0,0.117188 0.04219,0.207422 0.04219,0.09023 0.116016,0.151172 0.07266,0.06211 0.171094,0.09375 0.09961,0.03164 0.214453,0.03164 0.1125,0 0.210937,-0.03164 0.09844,-0.03281 0.172266,-0.09492 0.07266,-0.06094 0.114844,-0.151172 0.04336,-0.09023 0.04336,-0.20625 0,-0.07148 -0.02109,-0.134766 -0.01992,-0.06328 -0.05742,-0.117187 -0.03867,-0.05391 -0.09258,-0.09492 -0.05273,-0.04219 -0.118359,-0.07031 0.0375,-0.01875 0.07031,-0.04219 0.03281,-0.02344 0.05977,-0.05039 0.05625,-0.05625 0.08789,-0.130078 0.03164,-0.075 0.03281,-0.160547 z m -0.178125,0.795704 q 0,0.07383 -0.02461,0.132421 -0.02344,0.05742 -0.06563,0.09727 -0.04336,0.03984 -0.103125,0.06094 -0.05977,0.02109 -0.13125,0.02109 -0.075,0 -0.135938,-0.02109 -0.05976,-0.02109 -0.101953,-0.06094 -0.04219,-0.03984 -0.06563,-0.09727 -0.02227,-0.05859 -0.02227,-0.132421 0,-0.07149 0.02227,-0.13125 0.02344,-0.05977 0.06563,-0.103125 0.04219,-0.04219 0.101953,-0.06563 0.05977,-0.02344 0.133594,-0.02344 0.07148,0 0.13125,0.02344 0.06094,0.02344 0.104297,0.06563 0.04336,0.04336 0.0668,0.103125 0.02461,0.05976 0.02461,0.13125 z m -0.03984,-0.792188 q 0,0.06563 -0.02109,0.119531 -0.02109,0.05391 -0.05859,0.09141 -0.03867,0.03867 -0.09141,0.05977 -0.05273,0.01992 -0.114844,0.01992 -0.06328,0 -0.116016,-0.01992 -0.05156,-0.02109 -0.08906,-0.05977 -0.03867,-0.0375 -0.05977,-0.09023 -0.01992,-0.05391 -0.01992,-0.120703 0,-0.0668 0.01992,-0.120703 0.02109,-0.05508 0.05859,-0.09375 0.0375,-0.03867 0.08906,-0.05859 0.05156,-0.02109 0.114844,-0.02109 0.06328,0 0.116016,0.02227 0.05273,0.02109 0.09141,0.05977 0.0375,0.03984 0.05859,0.09375 0.02227,0.05391 0.02227,0.118359 z"
         id="path7946" />
    </g>
    <g
       aria-label="9"
       id="text7746"
       class="step"
       style="font-size:2.4px;font-family:'Roboto Mono', 'Liberation Mono', monospace;text-anchor:middle;fill:#aeb3be">
      <path
         d="m 11.716992,105.80781 h -0.02226 v 0.19336 h 0.02226 q 0.210938,0 0.357422,-0.0574 0.147656,-0.0586 0.230859,-0.15234 0.138282,-0.15469 0.180469,-0.35391 0.04219,-0.20039 0.04219,-0.39844 v -0.0785 q 0,-0.13946 -0.03867,-0.27891 -0.03867,-0.14062 -0.116016,-0.23437 -0.06562,-0.0797 -0.16289,-0.12774 -0.09609,-0.0492 -0.227344,-0.0492 -0.13125,0 -0.23086,0.0481 -0.09844,0.0469 -0.164062,0.12656 -0.0668,0.0809 -0.100781,0.18867 -0.03281,0.10664 -0.03281,0.22735 0,0.10312 0.02812,0.20508 0.02813,0.10195 0.08789,0.18281 0.05977,0.0809 0.151172,0.13125 0.09258,0.0492 0.21914,0.0492 0.06562,0 0.120703,-0.0129 0.05625,-0.0141 0.101954,-0.0375 0.0457,-0.0234 0.08203,-0.0539 0.03633,-0.0316 0.06445,-0.0668 v 0.002 q -0.0059,0.10781 -0.03398,0.20859 -0.02812,0.10078 -0.108985,0.18867 -0.0668,0.0715 -0.176953,0.11133 -0.108984,0.0387 -0.273047,0.0387 z M 11.975977,105.25 q -0.07852,0 -0.13711,-0.034 -0.05742,-0.0352 -0.09492,-0.0914 -0.03867,-0.0563 -0.05742,-0.12774 -0.01875,-0.0726 -0.01875,-0.14765 0,-0.0844 0.02109,-0.15703 0.02109,-0.0738 0.06211,-0.12774 0.03984,-0.0527 0.09844,-0.0832 0.05859,-0.0305 0.134766,-0.0305 0.0668,0 0.12539,0.0328 0.05977,0.0328 0.105469,0.0937 0.04453,0.0621 0.07031,0.15118 0.02695,0.0891 0.02695,0.20273 v 0.0703 q -0.01992,0.0551 -0.05508,0.10078 -0.03398,0.0445 -0.07734,0.0773 -0.04453,0.034 -0.09727,0.0527 -0.05156,0.0176 -0.10664,0.0176 z"
         id="path7949" />
    </g>
    <g
       aria-label="10"
       id="text7748"
       class="step"
       style="font-size:2.4px;font-family:'Roboto Mono', 'Liberation Mono', monospace;text-anchor:middle;fill:#aeb3be">
      <path
         d="m 29.466797,106 v -1.70625 h -0.01758 l -0.645703,0.24844 v 0.19804 L 29.25,104.57031 V 106 Z"
         id="path7952" />
      <path
         d="m 31.275,105.34727 v -0.39961 q 0,-0.16289 -0.0375,-0.28829 -0.0375,-0.12656 -0.107812,-0.21328 -0.07149,-0.0867 -0.17461,-0.13125 -0.101953,-0.0457 -0.233203,-0.0457 -0.130078,0 -0.233203,0.0457 -0.101953,0.0445 -0.172266,0.13125 -0.07148,0.0867 -0.108984,0.21328 -0.0375,0.1254 -0.0375,0.28829 v 0.39961 q 0,0.16289 0.0375,0.28945 0.0375,0.12539 0.108984,0.21094 0.07148,0.0879 0.17461,0.13242 0.103125,0.0434 0.233203,0.0434 0.13125,0 0.233203,-0.0445 0.101953,-0.0445 0.172266,-0.13125 0.07031,-0.0855 0.107812,-0.21094 0.0375,-0.12656 0.0375,-0.28945 z m -0.887109,-0.0434 q 0,-0.0305 0,-0.0598 0,-0.0293 0,-0.0586 v -0.28594 q 0,-0.11953 0.02344,-0.20977 0.02461,-0.0914 0.07383,-0.14882 0.04102,-0.0457 0.09961,-0.0692 0.05977,-0.0246 0.137109,-0.0246 0.07617,0 0.133594,0.0223 0.05859,0.0223 0.09844,0.0668 0.04102,0.0434 0.06445,0.10898 0.02461,0.0645 0.03399,0.14883 z m 0.66914,0.0891 q 0,0.12539 -0.02578,0.21797 -0.02461,0.0926 -0.07852,0.15 -0.03984,0.0422 -0.09727,0.0644 -0.05742,0.0223 -0.13125,0.0223 -0.07031,0 -0.126563,-0.0199 -0.05625,-0.0211 -0.09609,-0.0609 -0.04336,-0.0422 -0.07031,-0.10664 -0.02695,-0.0656 -0.0375,-0.15118 l 0.663281,-0.50742 q 0,0.0328 0,0.0832 0,0.0492 0,0.0668 z"
         id="path7954" />
    </g>
    <g
       aria-label="11"
       id="text7750"
       class="step"
       style="font-size:2.4px;font-family:'Roboto Mono', 'Liberation Mono', monospace;text-anchor:middle;fill:#aeb3be">
      <path
         d="m 47.466797,106 v -1.70625 h -0.01758 l -0.645703,0.24844 v 0.19804 L 47.25,104.57031 V 106 Z"
         id="path7957" />
      <path
         d="m 48.907031,106 v -1.70625 h -0.01758 l -0.645703,0.24844 v 0.19804 l 0.446484,-0.16992 V 106 Z"
         id="path7959" />
    </g>
    <g
       aria-label="12"
       id="text7752"
       class="step"
       style="font-size:2.4px;font-family:'Roboto Mono', 'Liberation Mono', monospace;text-anchor:middle;fill:#aeb3be">
      <path
         d="m 65.466797,106 v -1.70625 h -0.01758 l -0.645703,0.24844 v 0.19804 L 65.25,104.57031 V 106 Z"
         id="path7962" />
      <path
         d="m 67.250391,106 v -0.17695 H 66.39375 l 0.458203,-0.49688 q 0.06445,-0.0703 0.121875,-0.14062 0.05859,-0.0715 0.103125,-0.14414 0.04336,-0.0727 0.06914,-0.14649 0.02578,-0.075 0.02578,-0.15117 0,-0.10195 -0.03633,-0.18867 -0.03516,-0.0867 -0.101953,-0.15 -0.0668,-0.0633 -0.164063,-0.0984 -0.09609,-0.0363 -0.216797,-0.0363 -0.13125,0 -0.234375,0.0422 -0.101953,0.0422 -0.172265,0.11367 -0.07148,0.0715 -0.108985,0.16758 -0.0375,0.0949 -0.0375,0.20273 h 0.217969 q 0,-0.0797 0.01992,-0.14414 0.02109,-0.0644 0.06328,-0.11015 0.04102,-0.0445 0.103125,-0.0691 0.06328,-0.0246 0.148828,-0.0246 0.07031,0 0.125391,0.0246 0.05625,0.0234 0.09609,0.0644 0.03867,0.041 0.05859,0.0973 0.02109,0.0551 0.02109,0.11835 0,0.0516 -0.01289,0.10079 -0.01289,0.048 -0.04336,0.10195 -0.03047,0.0551 -0.08086,0.11953 -0.05039,0.0645 -0.125391,0.14766 l -0.558984,0.62109 V 106 Z"
         id="path7964" />
    </g>
    <g
       aria-label="13"
       id="text7754"
       class="step"
       style="font-size:2.4px;font-family:'Roboto Mono', 'Liberation Mono', monospace;text-anchor:middle;fill:#aeb3be">
      <path
         d="m 11.466797,118 v -1.70625 h -0.01758 l -0.645703,0.24844 v 0.19804 L 11.25,116.57031 V 118 Z"
         id="path7967" />
      <path
         d="m 12.457031,117.04258 v 0.17578 h 0.154688 q 0.08086,0 0.147656,0.0187 0.06797,0.0187 0.116016,0.0574 0.04687,0.0387 0.07266,0.0973 0.02695,0.0574 0.02695,0.13711 0,0.0809 -0.02344,0.14062 -0.02227,0.0586 -0.06445,0.0984 -0.04219,0.0398 -0.101953,0.0598 -0.05977,0.0187 -0.133593,0.0187 -0.07383,0 -0.134766,-0.0211 -0.05977,-0.0211 -0.101953,-0.0598 -0.04219,-0.0387 -0.06563,-0.0937 -0.02227,-0.0551 -0.02227,-0.12187 h -0.216797 q 0,0.1125 0.04219,0.20039 0.04336,0.0879 0.116015,0.14883 0.07266,0.0609 0.171094,0.0926 0.09961,0.0316 0.21211,0.0316 0.114843,0 0.213281,-0.0328 0.09961,-0.034 0.172265,-0.0984 0.07266,-0.0633 0.113672,-0.15586 0.04102,-0.0926 0.04102,-0.21211 0,-0.0586 -0.01406,-0.11836 -0.01289,-0.0598 -0.0457,-0.11367 -0.03398,-0.0539 -0.09023,-0.0973 -0.05508,-0.0434 -0.138281,-0.0703 0.06914,-0.0293 0.118359,-0.0727 0.05039,-0.0445 0.08203,-0.0949 0.03164,-0.0492 0.04687,-0.10195 0.01524,-0.0527 0.01524,-0.10196 0,-0.11835 -0.0375,-0.20859 -0.0375,-0.0902 -0.105469,-0.15117 -0.06797,-0.0609 -0.162891,-0.0914 -0.09492,-0.0316 -0.209765,-0.0316 -0.11836,0 -0.215625,0.0375 -0.09609,0.0363 -0.165235,0.0996 -0.06914,0.0644 -0.107812,0.15117 -0.0375,0.0855 -0.0375,0.18282 h 0.217969 q 0,-0.0668 0.02226,-0.12071 0.02227,-0.0539 0.06328,-0.0926 0.03984,-0.0387 0.09609,-0.0586 0.05742,-0.0211 0.126563,-0.0211 0.07148,0 0.126562,0.0187 0.05625,0.0176 0.09375,0.0539 0.03867,0.0375 0.05859,0.0949 0.01992,0.0562 0.01992,0.13242 0,0.0644 -0.02227,0.11836 -0.02226,0.0539 -0.06445,0.0926 -0.04336,0.0387 -0.106641,0.0609 -0.06211,0.0223 -0.14414,0.0223 z"
         id="path7969" />
    </g>
    <g
       aria-label="14"
       id="text7756"
       class="step"
       style="font-size:2.4px;font-family:'Roboto Mono', 'Liberation Mono', monospace;text-anchor:middle;fill:#aeb3be">
      <path
         d="m 29.466797,118 v -1.70625 h -0.01758 l -0.645703,0.24844 v 0.19804 L 29.25,116.57031 V 118 Z"
         id="path7972" />
      <path
         d="m 31.082813,117.42695 v -1.1332 h -0.23086 l -0.764062,1.18242 v 0.12774 h 0.778125 V 118 h 0.216797 v -0.39609 h 0.23789 v -0.17696 z m -0.754688,0 0.502734,-0.77929 0.03516,-0.0656 v 0.84492 z"
         id="path7974" />
    </g>
    <g
       aria-label="15"
       id="text7758"
       class="step"
       style="font-size:2.4px;font-family:'Roboto Mono', 'Liberation Mono', monospace;text-anchor:middle;fill:#aeb3be">
      <path
         d="m 47.466797,118 v -1.70625 h -0.01758 l -0.645703,0.24844 v 0.19804 L 47.25,116.57031 V 118 Z"
         id="path7977" />
      <path
         d="m 48.28125,117.14453 0.173438,0.0445 q 0.0293,-0.0258 0.05625,-0.0457 0.02812,-0.0199 0.05976,-0.034 0.03164,-0.0141 0.07031,-0.0211 0.03984,-0.008 0.09375,-0.008 0.08203,0 0.145312,0.0293 0.06328,0.0293 0.106641,0.0797 0.04336,0.0516 0.06562,0.12071 0.02344,0.0691 0.02344,0.14882 0,0.0879 -0.02109,0.15938 -0.01992,0.0715 -0.05977,0.12187 -0.04102,0.0516 -0.100781,0.0797 -0.05977,0.0269 -0.13711,0.0269 -0.137109,0 -0.225,-0.075 -0.08672,-0.075 -0.10664,-0.22031 h -0.20625 q 0.01172,0.11836 0.05742,0.20742 0.04687,0.0891 0.119531,0.14766 0.07148,0.0586 0.164062,0.0879 0.09258,0.0293 0.196875,0.0293 0.135938,0 0.236719,-0.0422 0.100781,-0.0434 0.167578,-0.11953 0.06563,-0.075 0.09844,-0.1793 0.03281,-0.1043 0.03281,-0.22617 0,-0.12891 -0.03516,-0.23438 -0.03516,-0.10546 -0.100781,-0.18046 -0.06562,-0.0738 -0.159375,-0.11485 -0.09375,-0.041 -0.21211,-0.041 -0.09258,0 -0.16289,0.0223 -0.07031,0.0223 -0.120703,0.0516 l 0.04805,-0.45468 h 0.692579 v -0.21094 h -0.875391 z"
         id="path7979" />
    </g>
    <g
       aria-label="16"
       id="text7760"
       class="step"
       style="font-size:2.4px;font-family:'Roboto Mono', 'Liberation Mono', monospace;text-anchor:middle;fill:#aeb3be">
      <path
         d="m 65.466797,118 v -1.70625 h -0.01758 l -0.645703,0.24844 v 0.19804 L 65.25,116.57031 V 118 Z"
         id="path7982" />
      <path
         d="m 67.003125,116.29258 h -0.01875 q -0.182812,0 -0.326953,0.0516 -0.144141,0.0504 -0.244922,0.15117 -0.146484,0.14649 -0.196875,0.35274 -0.05039,0.20625 -0.05039,0.41953 v 0.10195 q 0,0.12422 0.0375,0.24844 0.0375,0.12305 0.113672,0.21562 0.06797,0.0844 0.167578,0.13711 0.09961,0.0527 0.23086,0.0527 0.130078,0 0.228515,-0.0457 0.09961,-0.0457 0.166407,-0.12539 0.0668,-0.0785 0.09961,-0.18398 0.03398,-0.10547 0.03398,-0.225 0,-0.1043 -0.02813,-0.20508 -0.02812,-0.10078 -0.08789,-0.18047 -0.05977,-0.0797 -0.152344,-0.12773 -0.09258,-0.0492 -0.220312,-0.0492 -0.05859,0 -0.1125,0.0141 -0.05273,0.0129 -0.09844,0.0352 -0.04687,0.0234 -0.08672,0.0551 -0.03984,0.0305 -0.07031,0.0668 0.007,-0.1125 0.04453,-0.21914 0.03867,-0.10664 0.1125,-0.18398 0.07031,-0.0738 0.178125,-0.11719 0.107813,-0.0445 0.2625,-0.0445 h 0.01875 z m -0.283594,0.76875 q 0.07852,0 0.13711,0.0328 0.05859,0.0328 0.09727,0.0879 0.03867,0.0551 0.05742,0.12656 0.01875,0.0703 0.01875,0.14532 0,0.0844 -0.02109,0.15703 -0.01992,0.0715 -0.05976,0.12304 -0.04102,0.0516 -0.09961,0.0809 -0.05859,0.0293 -0.134765,0.0293 -0.06562,0 -0.125391,-0.0305 -0.05977,-0.0316 -0.105469,-0.0914 -0.0457,-0.0598 -0.07266,-0.14649 -0.02695,-0.0879 -0.02695,-0.20039 v -0.0727 q 0.01992,-0.0539 0.05391,-0.0984 0.03399,-0.0445 0.07852,-0.0762 0.04453,-0.0316 0.09609,-0.0492 0.05156,-0.0176 0.10664,-0.0176 z"
         id="path7984" />
    </g>
  </g>
</svg>
