<?xml version="1.0" encoding="UTF-8" standalone="no"?>
<svg
   width="60.96mm"
   height="128.5mm"
   viewBox="0 0 60.96 128.5"
   version="1.1"
   id="svg14203"
   sodipodi:docname="Kabaddon.svg"
   inkscape:version="1.2.2 (732a01da63, 2022-12-09)"
   xmlns:inkscape="http://www.inkscape.org/namespaces/inkscape"
   xmlns:sodipodi="http://sodipodi.sourceforge.net/DTD/sodipodi-0.dtd"
   xmlns="http://www.w3.org/2000/svg"
   xmlns:svg="http://www.w3.org/2000/svg">
  <sodipodi:namedview
     id="namedview14205"
     pagecolor="#505050"
     bordercolor="#eeeeee"
     borderopacity="1"
     inkscape:showpageshadow="0"
     inkscape:pageopacity="0"
     inkscape:pagecheckerboard="0"
     inkscape:deskcolor="#505050"
     inkscape:document-units="mm"
     showgrid="false"
     inkscape:zoom="1.4952534"
     inkscape:cx="-2.3407404"
     inkscape:cy="178.23066"
     inkscape:window-width="1346"
     inkscape:window-height="1230"
     inkscape:window-x="1113"
     inkscape:window-y="96"
     inkscape:window-maximized="0"
     inkscape:current-layer="svg14203" />
  <defs
     id="defs14123">
    <linearGradient
       id="panelGradient"
       x1="0"
       x2="0"
       y1="0"
       y2="1">
      <stop
         offset="0"
         stop-color="#2b2d33"
         id="stop14116" />
      <stop
         offset="1"
         stop-color="#1b1d22"
         id="stop14118" />
    </linearGradient>
    <style
       id="style14121">
      .title { font-family: 'Roboto', 'Liberation Sans', sans-serif; font-size: 4.2px; fill: #f5f6fa; font-weight: 600; letter-spacing: 1.2px; }
      .subtitle { font-family: 'Roboto', 'Liberation Sans', sans-serif; font-size: 2.4px; fill: #a7acb7; text-anchor: middle; }
      .label { font-family: 'Roboto', 'Liberation Sans', sans-serif; font-size: 2.8px; fill: #cfd3dc; text-anchor: middle; }
      .jack { font-family: 'Roboto', 'Liberation Sans', sans-serif; font-size: 2.4px; fill: #d9dde5; text-anchor: middle; }
      .divider { stroke: #434750; stroke-width: 0.25; stroke-linecap: round; }
    </style>
  </defs>
  <!-- Background -->
  <rect
     width="60.96"
     height="128.5"
     fill="url(#panelGradient)"
     rx="2"
     ry="2"
     id="rect14125"
     style="stroke:#000000;stroke-opacity:1;fill:none" />
  <!-- Header -->
  <g
     aria-label="KABADDON"
     id="text14127"
     class="title"
     style="font-weight:600;font-size:4.2px;font-family:Roboto, 'Liberation Sans', sans-serif;letter-spacing:1.2px;text-anchor:middle;fill:#f5f6fa">
    <path
       d="M 16.311152,6.3833332 15.273457,5.0564778 14.916621,5.3292317 v 1.0541015 h -0.60498 V 3.4937826 h 0.60498 v 1.3104491 l 1.302246,-1.3104491 h 0.705469 l -1.234571,1.2222655 1.335059,1.6672851 z"
       id="path632" />
    <path
       d="M 20.587324,6.3833332 20.330977,5.645052 h -1.10127 l -0.256348,0.7382812 h -0.60498 l 1.054102,-2.8895506 h 0.713671 l 1.05,2.8895506 z m -0.808008,-2.4445311 -0.0123,0.045117 q -0.02051,0.073828 -0.04922,0.168164 -0.02871,0.094336 -0.352734,1.0376953 h 0.830566 L 19.910566,4.3592122 19.822383,4.080306 Z"
       id="path634" />
    <path
       d="m 25.339278,5.5589192 q 0,0.39375 -0.295313,0.609082 -0.295312,0.215332 -0.820312,0.215332 H 22.777852 V 3.4937826 h 1.322754 q 0.529101,0 0.799804,0.1845703 0.272754,0.1825195 0.272754,0.5414062 0,0.2460937 -0.137402,0.4163086 -0.135352,0.168164 -0.414258,0.2276367 0.350684,0.041016 0.533203,0.2214843 0.184571,0.178418 0.184571,0.4737305 z M 24.564082,4.3017903 q 0,-0.1948242 -0.125097,-0.2768554 -0.123047,-0.082031 -0.36709,-0.082031 h -0.689063 v 0.7157227 h 0.693164 q 0.256348,0 0.371192,-0.088184 0.116894,-0.090234 0.116894,-0.2686524 z m 0.168164,1.2099609 q 0,-0.4060547 -0.582422,-0.4060547 h -0.766992 v 0.8285156 h 0.789551 q 0.291211,0 0.424512,-0.1045898 0.135351,-0.1066406 0.135351,-0.3178711 z"
       id="path636" />
    <path
       d="M 29.053535,6.3833332 28.797187,5.645052 h -1.10127 L 27.43957,6.3833332 h -0.604981 l 1.054102,-2.8895506 h 0.713672 l 1.05,2.8895506 z m -0.808008,-2.4445311 -0.0123,0.045117 q -0.02051,0.073828 -0.04922,0.168164 -0.02871,0.094336 -0.352734,1.0376953 h 0.830566 L 28.376777,4.3592122 28.288593,4.080306 Z"
       id="path638" />
    <path
       d="m 33.819844,4.9170247 q 0,0.4470703 -0.176367,0.7813476 -0.174316,0.3322265 -0.496289,0.5085937 -0.319922,0.1763672 -0.73418,0.1763672 H 31.244063 V 3.4937826 h 1.045899 q 0.730078,0 1.12998,0.3691406 0.399902,0.3670898 0.399902,1.0541015 z m -0.609082,0 q 0,-0.4655273 -0.241992,-0.7095703 -0.241992,-0.2460937 -0.691113,-0.2460937 h -0.428613 v 1.9543944 h 0.512695 q 0.389648,0 0.619336,-0.2686523 0.229687,-0.2686524 0.229687,-0.7300781 z"
       id="path640" />
    <path
       d="m 38.052949,4.9170247 q 0,0.4470703 -0.176367,0.7813476 -0.174317,0.3322265 -0.496289,0.5085937 -0.319922,0.1763672 -0.73418,0.1763672 H 35.477168 V 3.4937826 h 1.045898 q 0.730078,0 1.129981,0.3691406 0.399902,0.3670898 0.399902,1.0541015 z m -0.609082,0 q 0,-0.4655273 -0.241992,-0.7095703 -0.241992,-0.2460937 -0.691113,-0.2460937 h -0.428614 v 1.9543944 h 0.512696 q 0.389648,0 0.619336,-0.2686523 0.229687,-0.2686524 0.229687,-0.7300781 z"
       id="path642" />
    <path
       d="m 42.519843,4.9252278 q 0,0.4511719 -0.178418,0.7936523 -0.178418,0.3424805 -0.510645,0.525 -0.332226,0.1804687 -0.775195,0.1804687 -0.680859,0 -1.068457,-0.3999023 -0.385547,-0.4019531 -0.385547,-1.0992187 0,-0.6952148 0.385547,-1.0848632 0.385547,-0.3896484 1.072559,-0.3896484 0.687011,0 1.072558,0.3937499 0.387598,0.39375 0.387598,1.0807617 z m -0.617285,0 q 0,-0.4675781 -0.221485,-0.7321289 -0.221484,-0.2666015 -0.621386,-0.2666015 -0.406055,0 -0.627539,0.2645507 -0.221485,0.2625 -0.221485,0.7341797 0,0.4757812 0.225586,0.7505859 0.227637,0.2727539 0.619336,0.2727539 0.406055,0 0.625488,-0.2666015 0.221485,-0.2666016 0.221485,-0.7567383 z"
       id="path644" />
    <path
       d="m 45.936737,6.3833332 -1.25918,-2.2250975 q 0.03691,0.3240234 0.03691,0.5208984 V 6.3833332 H 44.177167 V 3.4937826 h 0.691113 l 1.277637,2.2435545 Q 46.109003,5.4276692 46.109003,5.1733723 V 3.4937826 h 0.537304 v 2.8895506 z"
       id="path646" />
  </g>
  <g
     aria-label="PERCUSSIVE SYNTHESIS"
     id="text14129"
     class="subtitle"
     style="font-size:2.4px;font-family:Roboto, 'Liberation Sans', sans-serif;text-anchor:middle;fill:#ffffff">
    <path
       d="m 17.08371,8.7290382 q 0,0.234375 -0.153516,0.3726563 -0.152343,0.1382812 -0.414843,0.1382812 H 16.030194 V 9.8833351 H 15.806366 V 8.2321632 h 0.694922 q 0.277734,0 0.430078,0.1300781 0.152344,0.1300781 0.152344,0.3667969 z m -0.225,0.00234 q 0,-0.3199218 -0.384375,-0.3199218 h -0.444141 v 0.6515625 h 0.453516 q 0.375,0 0.375,-0.3316407 z"
       id="path593"
       style="fill:#ffffff" />
    <path
       d="M 17.407147,9.8833351 V 8.2321632 h 1.252735 v 0.1828125 h -1.028906 v 0.5296875 h 0.958593 V 9.125132 h -0.958593 v 0.5753906 h 1.076953 v 0.1828125 z"
       id="path595"
       style="fill:#ffffff" />
    <path
       d="M 20.175116,9.8833351 19.74621,9.1977882 H 19.231757 V 9.8833351 H 19.007929 V 8.2321632 h 0.776953 q 0.278906,0 0.430078,0.1253906 0.152344,0.1242188 0.152344,0.346875 0,0.1839844 -0.107813,0.309375 -0.10664,0.1253907 -0.295312,0.1582032 l 0.46875,0.7113281 z m -0.03281,-1.1765625 q 0,-0.1441407 -0.09844,-0.2191407 -0.09727,-0.076172 -0.28125,-0.076172 h -0.530859 v 0.609375 h 0.540234 q 0.176953,0 0.273047,-0.082031 0.09727,-0.083203 0.09727,-0.2320312 z"
       id="path597"
       style="fill:#ffffff" />
    <path
       d="m 21.472382,8.3903663 q -0.274219,0 -0.426563,0.1769531 -0.152343,0.1757813 -0.152343,0.4828126 0,0.3035156 0.158203,0.4886718 0.159375,0.1839844 0.430078,0.1839844 0.346875,0 0.521484,-0.3433594 l 0.182813,0.091406 q -0.101953,0.2132813 -0.287109,0.3246094 -0.183985,0.1113281 -0.427735,0.1113281 -0.249609,0 -0.432422,-0.103125 -0.18164,-0.1042969 -0.277734,-0.2964844 -0.09492,-0.1933594 -0.09492,-0.4570312 0,-0.3949219 0.213281,-0.6187501 0.213281,-0.2238281 0.590625,-0.2238281 0.263672,0 0.440625,0.103125 0.176953,0.103125 0.260157,0.3058594 l -0.21211,0.070312 Q 21.901288,8.5427101 21.773554,8.4665382 21.646991,8.3903663 21.472382,8.3903663 Z"
       id="path599"
       style="fill:#ffffff" />
    <path
       d="m 23.134101,9.9067726 q -0.202735,0 -0.353907,-0.073828 -0.151172,-0.073828 -0.234375,-0.2144531 -0.0832,-0.1406251 -0.0832,-0.3351563 V 8.2321632 h 0.223828 v 1.0324219 q 0,0.2261719 0.114844,0.3433594 0.114844,0.1171875 0.331641,0.1171875 0.222656,0 0.345703,-0.1207031 0.124219,-0.1218751 0.124219,-0.3550782 V 8.2321632 h 0.222656 v 1.0300781 q 0,0.2003907 -0.08555,0.3457032 -0.08438,0.1453125 -0.240234,0.2226562 -0.154688,0.076172 -0.365625,0.076172 z"
       id="path601"
       style="fill:#ffffff" />
    <path
       d="m 25.501289,9.4274757 q 0,0.2285157 -0.179297,0.3539063 -0.178125,0.1253906 -0.502734,0.1253906 -0.603516,0 -0.69961,-0.4195313 l 0.216797,-0.043359 q 0.0375,0.1488281 0.159375,0.2191406 0.121875,0.069141 0.331641,0.069141 0.216797,0 0.333984,-0.073828 0.118359,-0.075 0.118359,-0.2191406 0,-0.080859 -0.0375,-0.13125 -0.03633,-0.050391 -0.103125,-0.083203 -0.0668,-0.032813 -0.159375,-0.055078 -0.09258,-0.022266 -0.205078,-0.048047 -0.195703,-0.043359 -0.297656,-0.086719 -0.100781,-0.043359 -0.159375,-0.096094 -0.05859,-0.053906 -0.09023,-0.1253906 -0.03047,-0.071484 -0.03047,-0.1640625 0,-0.2121094 0.161719,-0.3269531 0.16289,-0.1148438 0.465234,-0.1148438 0.28125,0 0.430078,0.086719 0.148828,0.085547 0.208594,0.2929687 l -0.220313,0.038672 q -0.03633,-0.13125 -0.138281,-0.1898438 -0.101953,-0.059766 -0.282422,-0.059766 -0.198047,0 -0.302343,0.065625 -0.104297,0.065625 -0.104297,0.1957031 0,0.076172 0.03984,0.1265625 0.04102,0.049219 0.117188,0.084375 0.07617,0.033984 0.303516,0.084375 0.07617,0.017578 0.151171,0.036328 0.07617,0.017578 0.145313,0.043359 0.06914,0.024609 0.128906,0.058594 0.06094,0.033984 0.105469,0.083203 0.04453,0.049219 0.06914,0.1160157 0.02578,0.066797 0.02578,0.1570312 z"
       id="path603"
       style="fill:#ffffff" />
    <path
       d="m 27.102069,9.4274757 q 0,0.2285157 -0.179297,0.3539063 -0.178125,0.1253906 -0.502734,0.1253906 -0.603516,0 -0.699609,-0.4195313 l 0.216797,-0.043359 q 0.0375,0.1488281 0.159375,0.2191406 0.121875,0.069141 0.33164,0.069141 0.216797,0 0.333985,-0.073828 0.118359,-0.075 0.118359,-0.2191406 0,-0.080859 -0.0375,-0.13125 -0.03633,-0.050391 -0.103125,-0.083203 -0.0668,-0.032813 -0.159375,-0.055078 -0.09258,-0.022266 -0.205078,-0.048047 -0.195703,-0.043359 -0.297656,-0.086719 -0.100782,-0.043359 -0.159375,-0.096094 -0.05859,-0.053906 -0.09023,-0.1253906 -0.03047,-0.071484 -0.03047,-0.1640625 0,-0.2121094 0.161719,-0.3269531 0.162891,-0.1148438 0.465235,-0.1148438 0.28125,0 0.430078,0.086719 0.148828,0.085547 0.208593,0.2929687 l -0.220312,0.038672 q -0.03633,-0.13125 -0.138281,-0.1898438 -0.101953,-0.059766 -0.282422,-0.059766 -0.198047,0 -0.302344,0.065625 -0.104297,0.065625 -0.104297,0.1957031 0,0.076172 0.03984,0.1265625 0.04102,0.049219 0.117187,0.084375 0.07617,0.033984 0.303516,0.084375 0.07617,0.017578 0.151172,0.036328 0.07617,0.017578 0.145312,0.043359 0.06914,0.024609 0.128907,0.058594 0.06094,0.033984 0.105468,0.083203 0.04453,0.049219 0.06914,0.1160157 0.02578,0.066797 0.02578,0.1570312 z"
       id="path605"
       style="fill:#ffffff" />
    <path
       d="M 27.43371,9.8833351 V 8.2321632 h 0.223828 v 1.6511719 z"
       id="path607"
       style="fill:#ffffff" />
    <path
       d="M 28.795429,9.8833351 H 28.563397 L 27.889569,8.2321632 h 0.235547 l 0.457031,1.1625 0.09844,0.2917969 0.09844,-0.2917969 0.454688,-1.1625 h 0.235547 z"
       id="path609"
       style="fill:#ffffff" />
    <path
       d="M 29.676679,9.8833351 V 8.2321632 h 1.252734 v 0.1828125 h -1.028906 v 0.5296875 h 0.958594 V 9.125132 h -0.958594 v 0.5753906 h 1.076953 v 0.1828125 z"
       id="path611"
       style="fill:#ffffff" />
    <path
       d="m 33.238008,9.4274757 q 0,0.2285157 -0.179297,0.3539063 -0.178125,0.1253906 -0.502734,0.1253906 -0.603516,0 -0.69961,-0.4195313 l 0.216797,-0.043359 q 0.0375,0.1488281 0.159375,0.2191406 0.121875,0.069141 0.331641,0.069141 0.216797,0 0.333984,-0.073828 0.11836,-0.075 0.11836,-0.2191406 0,-0.080859 -0.0375,-0.13125 -0.03633,-0.050391 -0.103125,-0.083203 -0.0668,-0.032813 -0.159375,-0.055078 -0.09258,-0.022266 -0.205079,-0.048047 -0.195703,-0.043359 -0.297656,-0.086719 -0.100781,-0.043359 -0.159375,-0.096094 -0.05859,-0.053906 -0.09023,-0.1253906 -0.03047,-0.071484 -0.03047,-0.1640625 0,-0.2121094 0.161719,-0.3269531 0.16289,-0.1148438 0.465234,-0.1148438 0.28125,0 0.430078,0.086719 0.148828,0.085547 0.208594,0.2929687 l -0.220312,0.038672 q -0.03633,-0.13125 -0.138282,-0.1898438 -0.101953,-0.059766 -0.282422,-0.059766 -0.198046,0 -0.302343,0.065625 -0.104297,0.065625 -0.104297,0.1957031 0,0.076172 0.03984,0.1265625 0.04102,0.049219 0.117187,0.084375 0.07617,0.033984 0.303516,0.084375 0.07617,0.017578 0.151172,0.036328 0.07617,0.017578 0.145312,0.043359 0.06914,0.024609 0.128906,0.058594 0.06094,0.033984 0.105469,0.083203 0.04453,0.049219 0.06914,0.1160157 0.02578,0.066797 0.02578,0.1570312 z"
       id="path613"
       style="fill:#ffffff" />
    <path
       d="m 34.25871,9.1989601 v 0.684375 H 34.036054 V 9.1989601 L 33.400898,8.2321632 h 0.246094 l 0.502734,0.7863281 0.500391,-0.7863281 h 0.246093 z"
       id="path615"
       style="fill:#ffffff" />
    <path
       d="m 36.216915,9.8833351 -0.883594,-1.40625 0.0059,0.1136718 0.0059,0.1957032 v 1.096875 H 35.145821 V 8.2321632 h 0.260156 l 0.892969,1.415625 Q 36.284883,9.4181007 36.284883,9.3149757 V 8.2321632 h 0.201563 v 1.6511719 z"
       id="path617"
       style="fill:#ffffff" />
    <path
       d="M 37.525898,8.4149757 V 9.8833351 H 37.303242 V 8.4149757 H 36.736054 V 8.2321632 h 1.357031 v 0.1828125 z"
       id="path619"
       style="fill:#ffffff" />
    <path
       d="M 39.461836,9.8833351 V 9.1181007 H 38.568868 V 9.8833351 H 38.34504 V 8.2321632 h 0.223828 v 0.6984375 h 0.892968 V 8.2321632 h 0.223829 v 1.6511719 z"
       id="path621"
       style="fill:#ffffff" />
    <path
       d="M 40.078242,9.8833351 V 8.2321632 h 1.252734 V 8.4149757 H 40.30207 v 0.5296875 h 0.958593 V 9.125132 H 40.30207 v 0.5753906 h 1.076953 v 0.1828125 z"
       id="path623"
       style="fill:#ffffff" />
    <path
       d="m 42.972774,9.4274757 q 0,0.2285157 -0.179297,0.3539063 -0.178125,0.1253906 -0.502734,0.1253906 -0.603516,0 -0.69961,-0.4195313 L 41.80793,9.443882 q 0.0375,0.1488281 0.159375,0.2191406 0.121875,0.069141 0.331641,0.069141 0.216797,0 0.333984,-0.073828 0.11836,-0.075 0.11836,-0.2191406 0,-0.080859 -0.0375,-0.13125 -0.03633,-0.050391 -0.103125,-0.083203 -0.0668,-0.032813 -0.159375,-0.055078 -0.09258,-0.022266 -0.205079,-0.048047 -0.195703,-0.043359 -0.297656,-0.086719 -0.100781,-0.043359 -0.159375,-0.096094 -0.05859,-0.053906 -0.09023,-0.1253906 -0.03047,-0.071484 -0.03047,-0.1640625 0,-0.2121094 0.161719,-0.3269531 0.16289,-0.1148438 0.465234,-0.1148438 0.28125,0 0.430078,0.086719 0.148828,0.085547 0.208594,0.2929687 l -0.220312,0.038672 q -0.03633,-0.13125 -0.138282,-0.1898438 -0.101953,-0.059766 -0.282422,-0.059766 -0.198046,0 -0.302343,0.065625 -0.104297,0.065625 -0.104297,0.1957031 0,0.076172 0.03984,0.1265625 0.04102,0.049219 0.117187,0.084375 0.07617,0.033984 0.303516,0.084375 0.07617,0.017578 0.151172,0.036328 0.07617,0.017578 0.145312,0.043359 0.06914,0.024609 0.128906,0.058594 0.06094,0.033984 0.105469,0.083203 0.04453,0.049219 0.06914,0.1160157 0.02578,0.066797 0.02578,0.1570312 z"
       id="path625"
       style="fill:#ffffff" />
    <path
       d="M 43.304414,9.8833351 V 8.2321632 h 0.223828 v 1.6511719 z"
       id="path627"
       style="fill:#ffffff" />
    <path
       d="m 45.240352,9.4274757 q 0,0.2285157 -0.179297,0.3539063 -0.178125,0.1253906 -0.502734,0.1253906 -0.603516,0 -0.69961,-0.4195313 l 0.216797,-0.043359 q 0.0375,0.1488281 0.159375,0.2191406 0.121875,0.069141 0.331641,0.069141 0.216797,0 0.333984,-0.073828 0.11836,-0.075 0.11836,-0.2191406 0,-0.080859 -0.0375,-0.13125 -0.03633,-0.050391 -0.103125,-0.083203 -0.0668,-0.032813 -0.159375,-0.055078 -0.09258,-0.022266 -0.205078,-0.048047 -0.195704,-0.043359 -0.297657,-0.086719 -0.100781,-0.043359 -0.159375,-0.096094 -0.05859,-0.053906 -0.09023,-0.1253906 -0.03047,-0.071484 -0.03047,-0.1640625 0,-0.2121094 0.161719,-0.3269531 0.162891,-0.1148438 0.465234,-0.1148438 0.28125,0 0.430078,0.086719 0.148829,0.085547 0.208594,0.2929687 l -0.220312,0.038672 q -0.03633,-0.13125 -0.138282,-0.1898438 -0.101953,-0.059766 -0.282421,-0.059766 -0.198047,0 -0.302344,0.065625 -0.104297,0.065625 -0.104297,0.1957031 0,0.076172 0.03984,0.1265625 0.04102,0.049219 0.117187,0.084375 0.07617,0.033984 0.303516,0.084375 0.07617,0.017578 0.151172,0.036328 0.07617,0.017578 0.145312,0.043359 0.06914,0.024609 0.128906,0.058594 0.06094,0.033984 0.105469,0.083203 0.04453,0.049219 0.06914,0.1160157 0.02578,0.066797 0.02578,0.1570312 z"
       id="path629"
       style="fill:#ffffff" />
  </g>
  <!-- Top row section -->
  <rect
     x="2"
     y="10.883335"
     width="56.959999"
     height="6.5"
     fill="#202228"
     stroke="#3a3d46"
     stroke-width="0.4"
     rx="1.2"
     id="rect14131" />
  <g
     aria-label="PITCH"
     id="text14133"
     class="label"
     style="font-size:2.8px;font-family:Roboto, 'Liberation Sans', sans-serif;text-anchor:middle;fill:#cfd3dc">
    <path
       d="m 12.019922,13.978319 q 0,0.273438 -0.179102,0.434766 -0.177734,0.161328 -0.483984,0.161328 H 10.79082 v 0.750586 h -0.261132 v -1.926367 h 0.810742 q 0.324023,0 0.501758,0.151758 0.177734,0.151757 0.177734,0.427929 z m -0.2625,0.0027 q 0,-0.373243 -0.448438,-0.373243 H 10.79082 v 0.760157 h 0.529102 q 0.4375,0 0.4375,-0.386914 z"
       id="path275" />
    <path
       d="m 12.425977,15.324999 v -1.926367 h 0.261132 v 1.926367 z"
       id="path277" />
    <path
       d="m 13.929883,13.611913 v 1.713086 h -0.259766 v -1.713086 h -0.661718 v -0.213281 h 1.583203 v 0.213281 z"
       id="path279" />
    <path
       d="m 15.738672,13.583202 q -0.319922,0 -0.497656,0.206445 -0.177735,0.205078 -0.177735,0.563282 0,0.354101 0.184571,0.570117 0.185937,0.214648 0.501757,0.214648 0.404688,0 0.608399,-0.400586 l 0.213281,0.106641 q -0.118945,0.248828 -0.334961,0.378711 -0.214648,0.129883 -0.499023,0.129883 -0.291211,0 -0.504493,-0.120313 -0.211914,-0.12168 -0.324023,-0.345898 -0.110742,-0.225586 -0.110742,-0.533203 0,-0.460743 0.248828,-0.721875 0.248828,-0.261133 0.689062,-0.261133 0.307618,0 0.514063,0.120312 0.206445,0.120313 0.303516,0.356836 l -0.247461,0.08203 q -0.06699,-0.168164 -0.216016,-0.257031 -0.147656,-0.08887 -0.351367,-0.08887 z"
       id="path281" />
    <path
       d="M 18.210547,15.324999 V 14.432225 H 17.16875 v 0.892774 h -0.261133 v -1.926367 h 0.261133 v 0.814843 h 1.041797 v -0.814843 h 0.261133 v 1.926367 z"
       id="path283" />
  </g>
  <g
     aria-label="MORPH"
     id="text14135"
     class="label"
     style="font-size:2.8px;font-family:Roboto, 'Liberation Sans', sans-serif;text-anchor:middle;fill:#cfd3dc">
    <path
       d="m 27.156543,15.324999 v -1.285156 q 0,-0.213282 0.01231,-0.410157 -0.06699,0.244727 -0.120313,0.382813 l -0.497656,1.3125 h -0.183203 l -0.504492,-1.3125 -0.07656,-0.232422 -0.04512,-0.150391 0.0041,0.151758 0.0055,0.258399 v 1.285156 h -0.232422 v -1.926367 h 0.343164 l 0.512696,1.335742 q 0.02734,0.08066 0.05195,0.173633 0.02598,0.0916 0.03418,0.132617 0.01094,-0.05469 0.04512,-0.16543 0.03555,-0.112109 0.04785,-0.14082 l 0.503125,-1.335742 h 0.334961 v 1.926367 z"
       id="path286" />
    <path
       d="m 29.665332,14.352929 q 0,0.302148 -0.116211,0.529101 -0.114844,0.226953 -0.330859,0.348633 -0.216016,0.12168 -0.509961,0.12168 -0.29668,0 -0.512696,-0.120313 -0.214648,-0.120312 -0.328125,-0.347266 -0.113476,-0.22832 -0.113476,-0.531835 0,-0.46211 0.25293,-0.721875 0.252929,-0.261133 0.704101,-0.261133 0.293945,0 0.509961,0.117578 0.216016,0.116211 0.329492,0.339062 0.114844,0.222852 0.114844,0.526368 z m -0.266602,0 q 0,-0.359571 -0.180468,-0.564649 -0.179102,-0.205078 -0.507227,-0.205078 -0.330859,0 -0.511328,0.202344 -0.180469,0.202344 -0.180469,0.567383 0,0.362304 0.181836,0.575585 0.183203,0.211915 0.507227,0.211915 0.333594,0 0.511328,-0.205079 0.179101,-0.206445 0.179101,-0.582421 z"
       id="path288" />
    <path
       d="m 31.390722,15.324999 -0.50039,-0.799805 h -0.600196 v 0.799805 h -0.261132 v -1.926367 h 0.906445 q 0.325391,0 0.501758,0.146289 0.177734,0.144922 0.177734,0.404687 0,0.214649 -0.125781,0.360938 -0.124414,0.146289 -0.344531,0.18457 l 0.546875,0.829883 z m -0.03828,-1.372656 q 0,-0.168164 -0.114844,-0.255664 -0.113476,-0.08887 -0.328125,-0.08887 h -0.619336 v 0.710938 h 0.630274 q 0.206445,0 0.318555,-0.0957 0.113476,-0.09707 0.113476,-0.270703 z"
       id="path290" />
    <path
       d="m 33.541308,13.978319 q 0,0.273438 -0.179101,0.434766 -0.177735,0.161328 -0.483985,0.161328 h -0.566015 v 0.750586 h -0.261133 v -1.926367 h 0.810742 q 0.324024,0 0.501758,0.151758 0.177734,0.151757 0.177734,0.427929 z m -0.2625,0.0027 q 0,-0.373243 -0.448437,-0.373243 h -0.518164 v 0.760157 h 0.529101 q 0.4375,0 0.4375,-0.386914 z"
       id="path292" />
    <path
       d="m 35.221582,15.324999 v -0.892774 h -1.041797 v 0.892774 h -0.261133 v -1.926367 h 0.261133 v 0.814843 h 1.041797 v -0.814843 h 0.261133 v 1.926367 z"
       id="path294" />
  </g>
  <g
     aria-label="ATTACK"
     id="text14137"
     class="label"
     style="font-size:2.8px;font-family:Roboto, 'Liberation Sans', sans-serif;text-anchor:middle;fill:#cfd3dc">
    <path
       d="m 42.780566,15.324999 -0.220117,-0.563281 h -0.877734 l -0.221484,0.563281 h -0.270704 l 0.786133,-1.926367 h 0.29668 l 0.773828,1.926367 z m -0.658984,-1.729492 -0.0123,0.03828 q -0.03418,0.113477 -0.101171,0.291211 l -0.246094,0.633008 h 0.720508 l -0.247461,-0.635742 q -0.03828,-0.09434 -0.07656,-0.213282 z"
       id="path297" />
    <path
       d="m 43.829199,13.611913 v 1.713086 h -0.259765 v -1.713086 h -0.661719 v -0.213281 h 1.583203 v 0.213281 z"
       id="path299" />
    <path
       d="m 45.539551,13.611913 v 1.713086 h -0.259766 v -1.713086 h -0.661719 v -0.213281 h 1.583204 v 0.213281 z"
       id="path301" />
    <path
       d="m 47.653223,15.324999 -0.220117,-0.563281 h -0.877735 l -0.221484,0.563281 h -0.270703 l 0.786133,-1.926367 h 0.296679 l 0.773828,1.926367 z m -0.658985,-1.729492 -0.0123,0.03828 q -0.03418,0.113477 -0.101172,0.291211 l -0.246094,0.633008 h 0.720508 l -0.247461,-0.635742 q -0.03828,-0.09434 -0.07656,-0.213282 z"
       id="path303" />
    <path
       d="m 49.008106,13.583202 q -0.319922,0 -0.497657,0.206445 -0.177734,0.205078 -0.177734,0.563282 0,0.354101 0.18457,0.570117 0.185938,0.214648 0.501758,0.214648 0.404688,0 0.608398,-0.400586 l 0.213282,0.106641 q -0.118946,0.248828 -0.334961,0.378711 -0.214649,0.129883 -0.499024,0.129883 -0.291211,0 -0.504492,-0.120313 -0.211914,-0.12168 -0.324023,-0.345898 -0.110742,-0.225586 -0.110742,-0.533203 0,-0.460743 0.248828,-0.721875 0.248828,-0.261133 0.689062,-0.261133 0.307617,0 0.514063,0.120312 0.206445,0.120313 0.303515,0.356836 l -0.247461,0.08203 q -0.06699,-0.168164 -0.216015,-0.257031 -0.147657,-0.08887 -0.351367,-0.08887 z"
       id="path305" />
    <path
       d="m 51.459472,15.324999 -0.769726,-0.929688 -0.251563,0.191407 v 0.738281 H 50.17705 v -1.926367 h 0.261133 v 0.965234 l 0.928321,-0.965234 h 0.307617 l -0.820313,0.836718 0.929688,1.089649 z"
       id="path307" />
  </g>
  <!-- Mid controls labels -->
  <g
     aria-label="SPREAD"
     id="text14141"
     class="label"
     style="font-size:2.8px;font-family:Roboto, 'Liberation Sans', sans-serif;text-anchor:middle;fill:#cfd3dc">
    <path
       d="m 10.481836,40.468164 q 0,0.266602 -0.20918,0.412891 -0.207812,0.146289 -0.5865231,0.146289 -0.7041016,0 -0.8162109,-0.489453 l 0.2529297,-0.05059 q 0.04375,0.173633 0.1859375,0.255664 0.1421874,0.08066 0.386914,0.08066 0.2529297,0 0.3896488,-0.08613 0.138086,-0.0875 0.138086,-0.255664 0,-0.09434 -0.04375,-0.153125 -0.04238,-0.05879 -0.120313,-0.09707 -0.07793,-0.03828 -0.1859374,-0.06426 -0.1080078,-0.02598 -0.2392578,-0.05606 -0.2283203,-0.05059 -0.3472656,-0.101172 -0.1175782,-0.05059 -0.1859375,-0.112109 -0.068359,-0.06289 -0.1052735,-0.146289 -0.035547,-0.0834 -0.035547,-0.191406 0,-0.247461 0.1886719,-0.381446 0.1900391,-0.133984 0.5427734,-0.133984 0.3281254,0 0.5017574,0.101172 0.173633,0.0998 0.24336,0.341797 l -0.257031,0.04512 q -0.04238,-0.153125 -0.161329,-0.221485 -0.1189449,-0.06973 -0.3294917,-0.06973 -0.2310547,0 -0.3527344,0.07656 -0.1216797,0.07656 -0.1216797,0.228321 0,0.08887 0.046484,0.147656 0.047852,0.05742 0.1367187,0.09844 0.088867,0.03965 0.3541016,0.09844 0.088867,0.02051 0.1763672,0.04238 0.088867,0.02051 0.1695309,0.05059 0.08066,0.02871 0.150391,0.06836 0.07109,0.03965 0.123047,0.09707 0.05195,0.05742 0.08066,0.135352 0.03008,0.07793 0.03008,0.183203 z"
       id="path311" />
    <path
       d="m 12.330274,39.65332 q 0,0.273438 -0.179102,0.434766 -0.177734,0.161328 -0.483984,0.161328 H 11.101172 V 41 h -0.261133 v -1.926367 h 0.810742 q 0.324024,0 0.501758,0.151758 0.177735,0.151757 0.177735,0.427929 z m -0.2625,0.0027 q 0,-0.373242 -0.448438,-0.373242 h -0.518164 v 0.760156 h 0.529102 q 0.4375,0 0.4375,-0.386914 z"
       id="path313" />
    <path
       d="M 14.069336,41 13.568945,40.200195 H 12.96875 V 41 h -0.261133 v -1.926367 h 0.906446 q 0.32539,0 0.501757,0.146289 0.177735,0.144922 0.177735,0.404687 0,0.214649 -0.125781,0.360938 -0.124415,0.146289 -0.344532,0.18457 L 14.370117,41 Z m -0.03828,-1.372656 q 0,-0.168164 -0.114844,-0.255664 -0.113477,-0.08887 -0.328125,-0.08887 H 12.96875 v 0.710937 h 0.630274 q 0.206445,0 0.318554,-0.0957 0.113477,-0.09707 0.113477,-0.270703 z"
       id="path315" />
    <path
       d="m 14.729687,41 v -1.926367 h 1.461524 v 0.213281 H 14.99082 v 0.617969 h 1.11836 v 0.210547 h -1.11836 v 0.671289 h 1.256446 V 41 Z"
       id="path317" />
    <path
       d="M 17.963086,41 17.742969,40.436719 H 16.865234 L 16.64375,41 h -0.270703 l 0.786133,-1.926367 h 0.296679 L 18.229687,41 Z m -0.658985,-1.729492 -0.0123,0.03828 Q 17.257617,39.422266 17.190625,39.6 l -0.246094,0.633008 h 0.720508 l -0.247461,-0.635742 q -0.03828,-0.09434 -0.07656,-0.213282 z"
       id="path319" />
    <path
       d="m 20.123242,40.016992 q 0,0.298047 -0.11621,0.522266 -0.116211,0.222851 -0.329493,0.341797 Q 19.464258,41 19.185352,41 h -0.720508 v -1.926367 h 0.637109 q 0.489454,0 0.754688,0.246094 0.266601,0.244726 0.266601,0.697265 z m -0.2625,0 q 0,-0.358203 -0.196875,-0.545508 -0.195507,-0.188671 -0.567382,-0.188671 h -0.370508 v 1.508007 h 0.429297 q 0.211914,0 0.371875,-0.09297 0.161328,-0.09297 0.247461,-0.267969 0.08613,-0.175 0.08613,-0.412891 z"
       id="path321" />
  </g>
  <g
     aria-label="FOLD"
     id="text14143"
     class="label"
     style="font-size:2.8px;font-family:Roboto, 'Liberation Sans', sans-serif;text-anchor:middle;fill:#cfd3dc">
    <path
       d="m 27.257031,39.286914 v 0.716406 h 1.07461 v 0.216016 h -1.07461 V 41 h -0.261133 v -1.926367 h 1.368555 v 0.213281 z"
       id="path324" />
    <path
       d="m 30.520508,40.02793 q 0,0.302148 -0.116211,0.529101 -0.114844,0.226953 -0.330859,0.348633 -0.216016,0.12168 -0.509961,0.12168 -0.29668,0 -0.512696,-0.120313 -0.214648,-0.120312 -0.328125,-0.347265 -0.113476,-0.228321 -0.113476,-0.531836 0,-0.46211 0.252929,-0.721875 0.25293,-0.261133 0.704102,-0.261133 0.293945,0 0.509961,0.117578 0.216016,0.116211 0.329492,0.339063 0.114844,0.222851 0.114844,0.526367 z m -0.266602,0 q 0,-0.359571 -0.180468,-0.564649 -0.179102,-0.205078 -0.507227,-0.205078 -0.330859,0 -0.511328,0.202344 -0.180469,0.202344 -0.180469,0.567383 0,0.362304 0.181836,0.575586 0.183203,0.211914 0.507227,0.211914 0.333593,0 0.511328,-0.205078 0.179101,-0.206446 0.179101,-0.582422 z"
       id="path326" />
    <path
       d="m 30.88418,41 v -1.926367 h 0.261133 v 1.713086 H 32.11875 V 41 Z"
       id="path328" />
    <path
       d="m 34.099805,40.016992 q 0,0.298047 -0.116211,0.522266 -0.116211,0.222851 -0.329492,0.341797 Q 33.440821,41 33.161914,41 h -0.720507 v -1.926367 h 0.637109 q 0.489453,0 0.754687,0.246094 0.266602,0.244726 0.266602,0.697265 z m -0.2625,0 q 0,-0.358203 -0.196875,-0.545508 -0.195508,-0.188671 -0.567383,-0.188671 h -0.370508 v 1.508007 h 0.429297 q 0.211914,0 0.371875,-0.09297 0.161328,-0.09297 0.247461,-0.267969 0.08613,-0.175 0.08613,-0.412891 z"
       id="path330" />
  </g>
  <g
     aria-label="DECAY"
     id="text14145"
     class="label"
     style="font-size:2.8px;font-family:Roboto, 'Liberation Sans', sans-serif;text-anchor:middle;fill:#cfd3dc">
    <path
       d="m 43.668555,40.016992 q 0,0.298047 -0.116211,0.522266 -0.116211,0.222851 -0.329492,0.341797 Q 43.00957,41 42.730664,41 h -0.720508 v -1.926367 h 0.63711 q 0.489453,0 0.754687,0.246094 0.266602,0.244726 0.266602,0.697265 z m -0.2625,0 q 0,-0.358203 -0.196875,-0.545508 -0.195508,-0.188671 -0.567383,-0.188671 h -0.370508 v 1.508007 h 0.429297 q 0.211914,0 0.371875,-0.09297 0.161328,-0.09297 0.247461,-0.267969 0.08613,-0.175 0.08613,-0.412891 z"
       id="path333" />
    <path
       d="m 44.032226,41 v -1.926367 h 1.461524 v 0.213281 h -1.200391 v 0.617969 h 1.11836 v 0.210547 h -1.11836 v 0.671289 h 1.256446 V 41 Z"
       id="path335" />
    <path
       d="m 46.75293,39.258203 q -0.319922,0 -0.497656,0.206445 -0.177735,0.205079 -0.177735,0.563282 0,0.354101 0.18457,0.570117 0.185938,0.214648 0.501758,0.214648 0.404688,0 0.608399,-0.400586 l 0.213281,0.106641 q -0.118945,0.248828 -0.334961,0.378711 -0.214648,0.129883 -0.499023,0.129883 -0.291211,0 -0.504493,-0.120313 -0.211914,-0.121679 -0.324023,-0.345898 -0.110742,-0.225586 -0.110742,-0.533203 0,-0.460742 0.248828,-0.721875 0.248828,-0.261133 0.689062,-0.261133 0.307618,0 0.514063,0.120312 0.206445,0.120313 0.303515,0.356836 l -0.24746,0.08203 q -0.06699,-0.168164 -0.216016,-0.257032 -0.147656,-0.08887 -0.351367,-0.08887 z"
       id="path337" />
    <path
       d="M 49.287695,41 49.067578,40.436719 H 48.189843 L 47.968359,41 h -0.270703 l 0.786133,-1.926367 h 0.296679 L 49.554297,41 Z m -0.658984,-1.729492 -0.01231,0.03828 Q 48.582226,39.422266 48.515234,39.6 l -0.246094,0.633008 h 0.720508 l -0.247461,-0.635742 q -0.03828,-0.09434 -0.07656,-0.213282 z"
       id="path339" />
    <path
       d="M 50.414258,40.201563 V 41 h -0.259766 v -0.798437 l -0.741016,-1.12793 h 0.28711 l 0.586523,0.917383 0.583789,-0.917383 h 0.28711 z"
       id="path341" />
  </g>
  <!-- Bottom controls labels -->
  <g
     aria-label="HARM"
     id="text14149"
     class="label"
     style="font-size:2.8px;font-family:Roboto, 'Liberation Sans', sans-serif;text-anchor:middle;fill:#cfd3dc">
    <path
       d="M 11.910547,67 V 66.107227 H 10.86875 V 67 h -0.261133 v -1.926367 h 0.261133 v 0.814844 h 1.041797 V 65.073633 H 12.17168 V 67 Z"
       id="path344" />
    <path
       d="M 13.995508,67 13.775391,66.436719 H 12.897656 L 12.676172,67 h -0.270703 l 0.786132,-1.926367 h 0.29668 L 14.262109,67 Z m -0.658985,-1.729492 -0.0123,0.03828 Q 13.290039,65.422266 13.223047,65.6 l -0.246094,0.633008 h 0.720508 L 13.45,65.597266 q -0.03828,-0.09434 -0.07656,-0.213282 z"
       id="path346" />
    <path
       d="m 15.858984,67 -0.50039,-0.799805 H 14.758398 V 67 h -0.261132 v -1.926367 h 0.906445 q 0.325391,0 0.501758,0.146289 0.177734,0.144922 0.177734,0.404687 0,0.214649 -0.125781,0.360938 -0.124414,0.146289 -0.344531,0.18457 L 16.159766,67 Z m -0.03828,-1.372656 q 0,-0.168164 -0.114844,-0.255664 -0.113476,-0.08887 -0.328125,-0.08887 h -0.619336 v 0.710937 h 0.630274 q 0.206445,0 0.318555,-0.0957 0.113476,-0.09707 0.113476,-0.270703 z"
       id="path348" />
    <path
       d="m 18.157226,67 v -1.285156 q 0,-0.213281 0.0123,-0.410156 -0.06699,0.244726 -0.120313,0.382812 L 17.551562,67 h -0.183203 l -0.504492,-1.3125 -0.07656,-0.232422 -0.04512,-0.15039 0.0041,0.151757 0.0055,0.258399 V 67 H 16.519336 V 65.073633 H 16.8625 l 0.512695,1.335742 q 0.02734,0.08066 0.05195,0.173633 0.02598,0.0916 0.03418,0.132617 0.01094,-0.05469 0.04512,-0.16543 0.03555,-0.112109 0.04785,-0.14082 l 0.503125,-1.335742 h 0.33496 V 67 Z"
       id="path350" />
  </g>
  <g
     aria-label="HIT"
     id="text14151"
     class="label"
     style="font-size:2.8px;font-family:Roboto, 'Liberation Sans', sans-serif;text-anchor:middle;fill:#cfd3dc">
    <path
       d="M 29.777441,67 V 66.107227 H 28.735645 V 67 h -0.261133 v -1.926367 h 0.261133 v 0.814844 h 1.041796 v -0.814844 h 0.261133 V 67 Z"
       id="path353" />
    <path
       d="m 30.525293,67 v -1.926367 h 0.261133 V 67 Z"
       id="path355" />
    <path
       d="M 32.029199,65.286914 V 67 h -0.259766 v -1.713086 h -0.661718 v -0.213281 h 1.583203 v 0.213281 z"
       id="path357" />
  </g>
  <!-- Mode section -->
  <g
     aria-label="MODE"
     id="text14155"
     class="subtitle"
     style="font-size:2.4px;font-family:Roboto, 'Liberation Sans', sans-serif;text-anchor:middle;fill:#ffffff"
     transform="translate(-6.5471064,-2.1166667)">
    <path
       d="m 51.000781,69 v -1.101563 q 0,-0.182812 0.01055,-0.351562 -0.05742,0.209766 -0.103125,0.328125 L 50.481641,69 h -0.157032 l -0.432422,-1.125 -0.06562,-0.199219 -0.03867,-0.128906 0.0035,0.130078 0.0047,0.221484 V 69 h -0.199219 v -1.651172 h 0.294141 l 0.439453,1.144922 q 0.02344,0.06914 0.04453,0.148828 0.02227,0.07852 0.0293,0.113672 0.0094,-0.04687 0.03867,-0.141797 0.03047,-0.09609 0.04102,-0.120703 l 0.43125,-1.144922 h 0.28711 V 69 Z"
       id="path360"
       style="fill:#ffffff" />
    <path
       d="m 53.151172,68.166797 q 0,0.258984 -0.09961,0.453515 -0.09844,0.194532 -0.283593,0.298829 -0.185157,0.104297 -0.43711,0.104297 -0.254297,0 -0.439453,-0.103126 -0.183984,-0.103125 -0.28125,-0.297656 -0.09727,-0.195703 -0.09727,-0.455859 0,-0.396094 0.216796,-0.61875 0.216797,-0.223828 0.603516,-0.223828 0.251953,0 0.437109,0.100781 0.185157,0.09961 0.282422,0.290625 0.09844,0.191016 0.09844,0.451172 z m -0.228516,0 q 0,-0.308203 -0.154687,-0.483985 -0.153516,-0.175781 -0.434766,-0.175781 -0.283594,0 -0.438281,0.173438 -0.154688,0.173437 -0.154688,0.486328 0,0.310547 0.15586,0.493359 0.157031,0.181641 0.434765,0.181641 0.285938,0 0.438282,-0.175781 0.153515,-0.176954 0.153515,-0.499219 z"
       id="path362"
       style="fill:#ffffff" />
    <path
       d="m 54.884375,68.157422 q 0,0.255469 -0.09961,0.447656 -0.09961,0.191016 -0.282422,0.292969 Q 54.319531,69 54.080469,69 h -0.617578 v -1.651172 h 0.546094 q 0.419531,0 0.646875,0.210938 0.228515,0.209765 0.228515,0.597656 z m -0.225,0 q 0,-0.307031 -0.16875,-0.467578 -0.167578,-0.161719 -0.486328,-0.161719 h -0.317578 v 1.292578 h 0.367969 q 0.18164,0 0.31875,-0.07969 0.138281,-0.07969 0.212109,-0.229688 0.07383,-0.15 0.07383,-0.353906 z"
       id="path364"
       style="fill:#ffffff" />
    <path
       d="m 55.196094,69 v -1.651172 h 1.252734 v 0.182813 h -1.028906 v 0.529687 h 0.958594 v 0.180469 h -0.958594 v 0.57539 h 1.076953 V 69 Z"
       id="path366"
       style="fill:#ffffff" />
  </g>
  <!-- CV Input Row 1 -->
  <!-- CV Input Row 2 -->
  <!-- Output Row -->
  <!-- Footer -->
  <g
     aria-label="AMBUSHED CAT DSP"
     id="text14201"
     class="subtitle"
     style="font-size:2.4px;font-family:Roboto, 'Liberation Sans', sans-serif;text-anchor:middle;fill:#a7acb7">
    <path
       d="m 19.623163,127 -0.188672,-0.48281 H 18.682148 L 18.492304,127 h -0.232032 l 0.673829,-1.65117 h 0.254297 L 19.851679,127 Z m -0.564844,-1.48242 -0.01055,0.0328 q -0.0293,0.0973 -0.08672,0.24961 l -0.210938,0.54258 h 0.617578 l -0.212109,-0.54492 q -0.03281,-0.0809 -0.06562,-0.18282 z"
       id="path551" />
    <path
       d="m 21.457148,127 v -1.10156 q 0,-0.18282 0.01055,-0.35157 -0.05742,0.20977 -0.103125,0.32813 L 20.938007,127 h -0.157031 l -0.432422,-1.125 -0.06563,-0.19922 -0.03867,-0.12891 0.0035,0.13008 0.0047,0.22149 V 127 h -0.199219 v -1.65117 h 0.294141 l 0.439453,1.14492 q 0.02344,0.0691 0.04453,0.14883 0.02227,0.0785 0.0293,0.11367 0.0094,-0.0469 0.03867,-0.1418 0.03047,-0.0961 0.04102,-0.1207 l 0.43125,-1.14492 H 21.65871 V 127 Z"
       id="path553" />
    <path
       d="m 23.329804,126.53477 q 0,0.22031 -0.160547,0.34335 Q 23.00871,127 22.722773,127 H 22.05246 v -1.65117 h 0.6 q 0.58125,0 0.58125,0.40078 0,0.14648 -0.08203,0.24609 -0.08203,0.0996 -0.232031,0.1336 0.196875,0.0234 0.303515,0.13242 0.106641,0.10781 0.106641,0.27305 z m -0.321094,-0.75821 q 0,-0.13359 -0.09141,-0.19101 -0.09141,-0.0574 -0.264844,-0.0574 h -0.376172 v 0.52266 h 0.376172 q 0.179297,0 0.267188,-0.0668 0.08906,-0.068 0.08906,-0.20742 z m 0.09492,0.74063 q 0,-0.2918 -0.410156,-0.2918 h -0.417188 v 0.59531 h 0.434766 q 0.205078,0 0.298828,-0.0762 0.09375,-0.0762 0.09375,-0.22734 z"
       id="path555" />
    <path
       d="m 24.313007,127.02344 q -0.202734,0 -0.353906,-0.0738 -0.151172,-0.0738 -0.234375,-0.21445 -0.0832,-0.14063 -0.0832,-0.33516 v -1.05117 h 0.223828 v 1.03242 q 0,0.22617 0.114843,0.34336 0.114844,0.11719 0.331641,0.11719 0.222656,0 0.345703,-0.12071 0.124219,-0.12187 0.124219,-0.35507 v -1.01719 h 0.222656 v 1.03008 q 0,0.20039 -0.08555,0.3457 -0.08438,0.14531 -0.240234,0.22266 -0.154687,0.0762 -0.365625,0.0762 z"
       id="path557" />
    <path
       d="m 26.680195,126.54414 q 0,0.22852 -0.179297,0.35391 -0.178125,0.12539 -0.502734,0.12539 -0.603516,0 -0.69961,-0.41953 l 0.216797,-0.0434 q 0.0375,0.14882 0.159375,0.21914 0.121875,0.0691 0.331641,0.0691 0.216797,0 0.333984,-0.0738 0.118359,-0.075 0.118359,-0.21914 0,-0.0809 -0.0375,-0.13125 -0.03633,-0.0504 -0.103125,-0.0832 -0.0668,-0.0328 -0.159375,-0.0551 -0.09258,-0.0223 -0.205078,-0.0481 -0.195703,-0.0434 -0.297656,-0.0867 -0.100781,-0.0434 -0.159375,-0.0961 -0.05859,-0.0539 -0.09023,-0.12539 -0.03047,-0.0715 -0.03047,-0.16406 0,-0.21211 0.161719,-0.32696 0.16289,-0.11484 0.465234,-0.11484 0.28125,0 0.430078,0.0867 0.148828,0.0855 0.208594,0.29297 l -0.220313,0.0387 q -0.03633,-0.13125 -0.138281,-0.18985 -0.101953,-0.0598 -0.282422,-0.0598 -0.198047,0 -0.302343,0.0656 -0.104297,0.0656 -0.104297,0.19571 0,0.0762 0.03984,0.12656 0.04102,0.0492 0.117188,0.0844 0.07617,0.034 0.303516,0.0844 0.07617,0.0176 0.151171,0.0363 0.07617,0.0176 0.145313,0.0434 0.06914,0.0246 0.128906,0.0586 0.06094,0.034 0.105469,0.0832 0.04453,0.0492 0.06914,0.11602 0.02578,0.0668 0.02578,0.15703 z"
       id="path559" />
    <path
       d="m 28.104023,127 v -0.76523 H 27.211054 V 127 h -0.223828 v -1.65117 h 0.223828 v 0.69844 h 0.892969 v -0.69844 h 0.223828 V 127 Z"
       id="path561" />
    <path
       d="m 28.720429,127 v -1.65117 h 1.252735 v 0.18281 h -1.028907 v 0.52969 h 0.958594 v 0.18047 h -0.958594 v 0.57539 H 30.02121 V 127 Z"
       id="path563" />
    <path
       d="m 31.742695,126.15742 q 0,0.25547 -0.09961,0.44766 -0.09961,0.19101 -0.282422,0.29297 Q 31.177851,127 30.938789,127 h -0.617578 v -1.65117 h 0.546093 q 0.419532,0 0.646875,0.21094 0.228516,0.20976 0.228516,0.59765 z m -0.225,0 q 0,-0.30703 -0.16875,-0.46758 -0.167578,-0.16172 -0.486328,-0.16172 h -0.317578 v 1.29258 h 0.367968 q 0.181641,0 0.31875,-0.0797 0.138282,-0.0797 0.21211,-0.22969 0.07383,-0.15 0.07383,-0.35391 z"
       id="path565" />
    <path
       d="m 33.45246,125.50703 q -0.274219,0 -0.426562,0.17695 -0.152344,0.17579 -0.152344,0.48282 0,0.30351 0.158203,0.48867 0.159375,0.18398 0.430078,0.18398 0.346875,0 0.521485,-0.34336 l 0.182812,0.0914 q -0.101953,0.21328 -0.287109,0.32461 -0.183985,0.11133 -0.427735,0.11133 -0.249609,0 -0.432422,-0.10313 -0.18164,-0.10429 -0.277734,-0.29648 -0.09492,-0.19336 -0.09492,-0.45703 0,-0.39493 0.213281,-0.61875 0.213282,-0.22383 0.590625,-0.22383 0.263672,0 0.440625,0.10312 0.176954,0.10313 0.260157,0.30586 l -0.21211,0.0703 q -0.05742,-0.14415 -0.185156,-0.22032 -0.126562,-0.0762 -0.301172,-0.0762 z"
       id="path567" />
    <path
       d="m 35.625116,127 -0.188672,-0.48281 H 34.684101 L 34.494257,127 h -0.232031 l 0.673828,-1.65117 h 0.254297 L 35.853632,127 Z m -0.564843,-1.48242 -0.01055,0.0328 q -0.0293,0.0973 -0.08672,0.24961 l -0.210938,0.54258 h 0.617579 l -0.21211,-0.54492 q -0.03281,-0.0809 -0.06563,-0.18282 z"
       id="path569" />
    <path
       d="M 36.523945,125.53164 V 127 h -0.222656 v -1.46836 h -0.567188 v -0.18281 h 1.357032 v 0.18281 z"
       id="path571" />
    <path
       d="m 39.388007,126.15742 q 0,0.25547 -0.09961,0.44766 -0.09961,0.19101 -0.282422,0.29297 Q 38.823164,127 38.584101,127 h -0.617578 v -1.65117 h 0.546094 q 0.419531,0 0.646875,0.21094 0.228515,0.20976 0.228515,0.59765 z m -0.225,0 q 0,-0.30703 -0.16875,-0.46758 -0.167578,-0.16172 -0.486328,-0.16172 h -0.317578 v 1.29258 h 0.367969 q 0.18164,0 0.31875,-0.0797 0.138281,-0.0797 0.212109,-0.22969 0.07383,-0.15 0.07383,-0.35391 z"
       id="path573" />
    <path
       d="m 40.993477,126.54414 q 0,0.22852 -0.179297,0.35391 -0.178125,0.12539 -0.502734,0.12539 -0.603516,0 -0.69961,-0.41953 l 0.216797,-0.0434 q 0.0375,0.14882 0.159375,0.21914 0.121875,0.0691 0.331641,0.0691 0.216797,0 0.333984,-0.0738 0.118359,-0.075 0.118359,-0.21914 0,-0.0809 -0.0375,-0.13125 -0.03633,-0.0504 -0.103125,-0.0832 -0.0668,-0.0328 -0.159375,-0.0551 -0.09258,-0.0223 -0.205078,-0.0481 -0.195703,-0.0434 -0.297656,-0.0867 -0.100781,-0.0434 -0.159375,-0.0961 -0.05859,-0.0539 -0.09023,-0.12539 -0.03047,-0.0715 -0.03047,-0.16406 0,-0.21211 0.161719,-0.32696 0.16289,-0.11484 0.465234,-0.11484 0.28125,0 0.430078,0.0867 0.148828,0.0855 0.208594,0.29297 l -0.220313,0.0387 q -0.03633,-0.13125 -0.138281,-0.18985 -0.101953,-0.0598 -0.282422,-0.0598 -0.198047,0 -0.302343,0.0656 -0.104297,0.0656 -0.104297,0.19571 0,0.0762 0.03984,0.12656 0.04102,0.0492 0.117188,0.0844 0.07617,0.034 0.303516,0.0844 0.07617,0.0176 0.151171,0.0363 0.07617,0.0176 0.145313,0.0434 0.06914,0.0246 0.128906,0.0586 0.06094,0.034 0.105469,0.0832 0.04453,0.0492 0.06914,0.11602 0.02578,0.0668 0.02578,0.15703 z"
       id="path575" />
    <path
       d="m 42.577851,125.8457 q 0,0.23438 -0.153516,0.37266 -0.152343,0.13828 -0.414843,0.13828 H 41.524335 V 127 h -0.223828 v -1.65117 h 0.694922 q 0.277735,0 0.430078,0.13008 0.152344,0.13007 0.152344,0.36679 z m -0.225,0.002 q 0,-0.31993 -0.384375,-0.31993 h -0.444141 v 0.65157 h 0.453516 q 0.375,0 0.375,-0.33164 z"
       id="path577" />
  </g>
</svg>
