<?xml version="1.0" encoding="UTF-8" standalone="no"?>
<svg
   width="50.8mm"
   height="128.5mm"
   viewBox="0 0 50.8 128.5"
   version="1.1"
   id="svg101"
   sodipodi:docname="Leviathan.svg"
   inkscape:version="1.2.2 (732a01da63, 2022-12-09)"
   xmlns:inkscape="http://www.inkscape.org/namespaces/inkscape"
   xmlns:sodipodi="http://sodipodi.sourceforge.net/DTD/sodipodi-0.dtd"
   xmlns="http://www.w3.org/2000/svg"
   xmlns:svg="http://www.w3.org/2000/svg">
  <sodipodi:namedview
     id="namedview103"
     pagecolor="#505050"
     bordercolor="#eeeeee"
     borderopacity="1"
     inkscape:showpageshadow="0"
     inkscape:pageopacity="0"
     inkscape:pagecheckerboard="0"
     inkscape:deskcolor="#505050"
     inkscape:document-units="mm"
     showgrid="false"
     inkscape:zoom="4.2292153"
     inkscape:cx="53.083133"
     inkscape:cy="432.70438"
     inkscape:window-width="2560"
     inkscape:window-height="1369"
     inkscape:window-x="-8"
     inkscape:window-y="-8"
     inkscape:window-maximized="1"
     inkscape:current-layer="svg101" />
  <defs
     id="defs9">
    <linearGradient
       id="panelGradient"
       x1="0"
       x2="0"
       y1="0"
       y2="1">
      <stop
         offset="0"
         stop-color="#2b2d33"
         id="stop2" />
      <stop
         offset="1"
         stop-color="#1b1d22"
         id="stop4" />
    </linearGradient>
    <style
       id="style7">
      .title { font-family: 'Roboto', 'Liberation Sans', sans-serif; font-size: 4.2px; fill: #f5f6fa; font-weight: 600; letter-spacing: 1.2px; }
      .subtitle { font-family: 'Roboto', 'Liberation Sans', sans-serif; font-size: 2.4px; fill: #a7acb7; text-anchor: middle; }
      .label { font-family: 'Roboto', 'Liberation Sans', sans-serif; font-size: 2.8px; fill: #cfd3dc; text-anchor: middle; }
      .jack { font-family: 'Roboto', 'Liberation Sans', sans-serif; font-size: 2.4px; fill: #d9dde5; text-anchor: middle; }
      .divider { stroke: #434750; stroke-width: 0.25; stroke-linecap: round; }
    </style>
  </defs>
  <!-- Background -->
  <text
     xml:space="preserve"
     style="font-style:normal;font-variant:normal;font-weight:normal;font-stretch:normal;font-size:1.7px;font-family:Roboto, Arial, sans-serif;-inkscape-font-specification:'Roboto, Arial, sans-serif, Normal';font-variant-ligatures:normal;font-variant-caps:normal;font-variant-numeric:normal;font-variant-east-asian:normal;white-space:pre;inline-size:16.2707;fill:#ffffff;fill-rule:evenodd;stroke:#3a4055;stroke-width:0.00223598"
     x="15.04065"
     y="14.24438"
     id="text2741"
     transform="matrix(1.2999147,0,0,1.3005324,-0.95696925,-8.4664767)"><tspan
       x="15.04065"
       y="14.24438"
       id="tspan356">WAVEFOLDER</tspan></text>
  <rect
     width="50.8"
     height="128.5"
     fill="url(#panelGradient)"
     rx="2"
     ry="2"
     id="rect11"
     style="fill:none;fill-opacity:1;stroke:#3a3d46;stroke-opacity:1" />
  <!-- Header -->
  <g
     aria-label="LEVIATHAN"
     id="text13"
     class="title"
     style="font-weight:600;font-size:4.2px;font-family:Roboto, 'Liberation Sans', sans-serif;letter-spacing:1.2px;text-anchor:middle;fill:#f5f6fa">
    <path
       d="M 9.0202636,6.4000001 V 3.5104494 H 9.6252441 V 5.932422 h 1.5503909 v 0.4675781 z"
       id="path415" />
    <path
       d="M 12.785791,6.4000001 V 3.5104494 h 2.272265 v 0.4675781 h -1.667285 v 0.7259766 h 1.542188 V 5.1715822 H 13.390771 V 5.932422 h 1.751367 v 0.4675781 z"
       id="path417" />
    <path
       d="M 18.216552,6.4000001 H 17.603369 L 16.534912,3.5104494 h 0.63164 l 0.594727,1.855957 q 0.05537,0.1804687 0.151758,0.5455078 l 0.04307,-0.1763672 0.10459,-0.3691406 0.592676,-1.855957 h 0.625488 z"
       id="path419" />
    <path
       d="M 20.788525,6.4000001 V 3.5104494 h 0.60498 v 2.8895507 z"
       id="path421" />
    <path
       d="M 25.197997,6.4000001 24.94165,5.6617189 h -1.10127 l -0.256347,0.7382812 h -0.604981 l 1.054102,-2.8895507 h 0.713671 l 1.05,2.8895507 z M 24.38999,3.955469 l -0.01231,0.045117 q -0.02051,0.073828 -0.04922,0.1681641 -0.02871,0.094336 -0.352734,1.0376953 h 0.830566 L 24.52124,4.3758791 24.433056,4.0969729 Z"
       id="path423" />
    <path
       d="M 28.381104,3.9780275 V 6.4000001 H 27.776123 V 3.9780275 H 26.843018 V 3.5104494 h 2.473242 v 0.4675781 z"
       id="path425" />
    <path
       d="M 32.706493,6.4000001 V 5.1613283 h -1.25918 v 1.2386718 h -0.60498 V 3.5104494 h 0.60498 v 1.1504883 h 1.25918 V 3.5104494 h 0.60498 v 2.8895507 z"
       id="path427" />
    <path
       d="M 37.118017,6.4000001 36.86167,5.6617189 H 35.7604 l -0.256347,0.7382812 h -0.604981 l 1.054102,-2.8895507 h 0.713672 l 1.05,2.8895507 z M 36.31001,3.955469 l -0.0123,0.045117 q -0.02051,0.073828 -0.04922,0.1681641 -0.02871,0.094336 -0.352734,1.0376953 h 0.830566 L 36.44126,4.3758791 36.353076,4.0969729 Z"
       id="path429" />
    <path
       d="M 41.068114,6.4000001 39.808935,4.1749025 q 0.03691,0.3240235 0.03691,0.5208985 V 6.4000001 H 39.308544 V 3.5104494 h 0.691113 L 41.277294,5.754004 Q 41.24038,5.4443361 41.24038,5.1900392 V 3.5104494 h 0.537305 v 2.8895507 z"
       id="path431" />
  </g>
  <g
     aria-label="WAVEFOLDER • VERSIO"
     id="text15"
     class="subtitle"
     style="font-size:2.4px;font-family:Roboto, 'Liberation Sans', sans-serif;text-anchor:middle;fill:#ffffff" />
  <!-- Controls Row 1: BLEND / FOLD -->
  <!-- Controls Row 2: CENTER / DOOM -->
  <!-- Controls Row 3: PHASE / DRIVE -->
  <!-- Controls Row 4: 8VIZE -->
  <!-- Switch Section -->
  <!-- SMOOSH Button -->
  <!-- CV Input Section -->
  <!-- Audio Output Section -->
  <!-- Footer -->
  <g
     aria-label="AMBUSHED CAT DSP"
     id="text99"
     class="subtitle"
     style="font-size:2.4px;font-family:Roboto, 'Liberation Sans', sans-serif;text-anchor:middle;fill:#a7acb7">
    <path
       d="m 14.543163,127 -0.188672,-0.48281 H 13.602148 L 13.412304,127 h -0.232031 l 0.673828,-1.65117 h 0.254297 L 14.771679,127 Z m -0.564844,-1.48242 -0.01055,0.0328 q -0.0293,0.0973 -0.08672,0.24961 l -0.210938,0.54258 h 0.617578 l -0.212109,-0.54492 q -0.03281,-0.0809 -0.06563,-0.18282 z"
       id="path386" />
    <path
       d="m 16.377148,127 v -1.10156 q 0,-0.18282 0.01055,-0.35157 -0.05742,0.20977 -0.103125,0.32813 L 15.858007,127 h -0.157031 l -0.432422,-1.125 -0.06563,-0.19922 -0.03867,-0.12891 0.0035,0.13008 0.0047,0.22149 V 127 h -0.199219 v -1.65117 h 0.294141 l 0.439453,1.14492 q 0.02344,0.0691 0.04453,0.14883 0.02227,0.0785 0.0293,0.11367 0.0094,-0.0469 0.03867,-0.1418 0.03047,-0.0961 0.04102,-0.1207 l 0.43125,-1.14492 H 16.57871 V 127 Z"
       id="path388" />
    <path
       d="m 18.249804,126.53477 q 0,0.22031 -0.160547,0.34335 Q 17.92871,127 17.642773,127 H 16.97246 v -1.65117 h 0.6 q 0.58125,0 0.58125,0.40078 0,0.14648 -0.08203,0.24609 -0.08203,0.0996 -0.232031,0.1336 0.196875,0.0234 0.303515,0.13242 0.106641,0.10781 0.106641,0.27305 z m -0.321094,-0.75821 q 0,-0.13359 -0.09141,-0.19101 -0.09141,-0.0574 -0.264844,-0.0574 h -0.376172 v 0.52266 h 0.376172 q 0.179297,0 0.267188,-0.0668 0.08906,-0.068 0.08906,-0.20742 z m 0.09492,0.74063 q 0,-0.2918 -0.410156,-0.2918 h -0.417188 v 0.59531 h 0.434766 q 0.205078,0 0.298828,-0.0762 0.09375,-0.0762 0.09375,-0.22734 z"
       id="path390" />
    <path
       d="m 19.233007,127.02344 q -0.202734,0 -0.353906,-0.0738 -0.151172,-0.0738 -0.234375,-0.21445 -0.0832,-0.14063 -0.0832,-0.33516 v -1.05117 h 0.223828 v 1.03242 q 0,0.22617 0.114844,0.34336 0.114843,0.11719 0.33164,0.11719 0.222656,0 0.345703,-0.12071 0.124219,-0.12187 0.124219,-0.35507 v -1.01719 h 0.222656 v 1.03008 q 0,0.20039 -0.08555,0.3457 -0.08437,0.14531 -0.240234,0.22266 -0.154687,0.0762 -0.365625,0.0762 z"
       id="path392" />
    <path
       d="m 21.600195,126.54414 q 0,0.22852 -0.179297,0.35391 -0.178125,0.12539 -0.502734,0.12539 -0.603516,0 -0.69961,-0.41953 l 0.216797,-0.0434 q 0.0375,0.14882 0.159375,0.21914 0.121875,0.0691 0.331641,0.0691 0.216797,0 0.333984,-0.0738 0.11836,-0.075 0.11836,-0.21914 0,-0.0809 -0.0375,-0.13125 -0.03633,-0.0504 -0.103126,-0.0832 -0.0668,-0.0328 -0.159375,-0.0551 -0.09258,-0.0223 -0.205078,-0.0481 -0.195703,-0.0434 -0.297656,-0.0867 -0.100781,-0.0434 -0.159375,-0.0961 -0.05859,-0.0539 -0.09023,-0.12539 -0.03047,-0.0715 -0.03047,-0.16406 0,-0.21211 0.161719,-0.32696 0.16289,-0.11484 0.465234,-0.11484 0.28125,0 0.430078,0.0867 0.148828,0.0855 0.208594,0.29297 l -0.220312,0.0387 q -0.03633,-0.13125 -0.138282,-0.18985 -0.101953,-0.0598 -0.282422,-0.0598 -0.198047,0 -0.302343,0.0656 -0.104297,0.0656 -0.104297,0.19571 0,0.0762 0.03984,0.12656 0.04102,0.0492 0.117188,0.0844 0.07617,0.034 0.303516,0.0844 0.07617,0.0176 0.151171,0.0363 0.07617,0.0176 0.145313,0.0434 0.06914,0.0246 0.128906,0.0586 0.06094,0.034 0.105469,0.0832 0.04453,0.0492 0.06914,0.11602 0.02578,0.0668 0.02578,0.15703 z"
       id="path394" />
    <path
       d="m 23.024023,127 v -0.76523 H 22.131054 V 127 h -0.223828 v -1.65117 h 0.223828 v 0.69844 h 0.892969 v -0.69844 h 0.223828 V 127 Z"
       id="path396" />
    <path
       d="m 23.640429,127 v -1.65117 h 1.252735 v 0.18281 h -1.028907 v 0.52969 h 0.958594 v 0.18047 h -0.958594 v 0.57539 h 1.076954 V 127 Z"
       id="path398" />
    <path
       d="m 26.662695,126.15742 q 0,0.25547 -0.09961,0.44766 -0.09961,0.19101 -0.282422,0.29297 Q 26.097851,127 25.858789,127 h -0.617578 v -1.65117 h 0.546093 q 0.419532,0 0.646875,0.21094 0.228516,0.20976 0.228516,0.59765 z m -0.225,0 q 0,-0.30703 -0.16875,-0.46758 -0.167578,-0.16172 -0.486328,-0.16172 h -0.317578 v 1.29258 h 0.367969 q 0.18164,0 0.31875,-0.0797 0.138281,-0.0797 0.212109,-0.22969 0.07383,-0.15 0.07383,-0.35391 z"
       id="path400" />
    <path
       d="m 28.37246,125.50703 q -0.274218,0 -0.426562,0.17695 -0.152344,0.17579 -0.152344,0.48282 0,0.30351 0.158203,0.48867 0.159375,0.18398 0.430078,0.18398 0.346875,0 0.521485,-0.34336 l 0.182812,0.0914 q -0.101953,0.21328 -0.287109,0.32461 -0.183985,0.11133 -0.427735,0.11133 -0.249609,0 -0.432421,-0.10313 -0.181641,-0.10429 -0.277735,-0.29648 -0.09492,-0.19336 -0.09492,-0.45703 0,-0.39493 0.213282,-0.61875 0.213281,-0.22383 0.590625,-0.22383 0.263671,0 0.440625,0.10312 0.176953,0.10313 0.260156,0.30586 l -0.21211,0.0703 q -0.05742,-0.14415 -0.185156,-0.22032 -0.126562,-0.0762 -0.301172,-0.0762 z"
       id="path402" />
    <path
       d="m 30.545116,127 -0.188672,-0.48281 H 29.604101 L 29.414257,127 h -0.232031 l 0.673828,-1.65117 h 0.254297 L 30.773632,127 Z m -0.564843,-1.48242 -0.01055,0.0328 q -0.0293,0.0973 -0.08672,0.24961 l -0.210938,0.54258 h 0.617579 l -0.21211,-0.54492 q -0.03281,-0.0809 -0.06563,-0.18282 z"
       id="path404" />
    <path
       d="M 31.443945,125.53164 V 127 h -0.222656 v -1.46836 h -0.567188 v -0.18281 h 1.357032 v 0.18281 z"
       id="path406" />
    <path
       d="m 34.308007,126.15742 q 0,0.25547 -0.09961,0.44766 -0.09961,0.19101 -0.282422,0.29297 Q 33.743164,127 33.504101,127 h -0.617578 v -1.65117 h 0.546094 q 0.419531,0 0.646875,0.21094 0.228515,0.20976 0.228515,0.59765 z m -0.225,0 q 0,-0.30703 -0.16875,-0.46758 -0.167578,-0.16172 -0.486328,-0.16172 h -0.317578 v 1.29258 h 0.367969 q 0.18164,0 0.31875,-0.0797 0.138281,-0.0797 0.212109,-0.22969 0.07383,-0.15 0.07383,-0.35391 z"
       id="path408" />
    <path
       d="m 35.913477,126.54414 q 0,0.22852 -0.179297,0.35391 -0.178125,0.12539 -0.502734,0.12539 -0.603516,0 -0.69961,-0.41953 l 0.216797,-0.0434 q 0.0375,0.14882 0.159375,0.21914 0.121875,0.0691 0.331641,0.0691 0.216797,0 0.333984,-0.0738 0.11836,-0.075 0.11836,-0.21914 0,-0.0809 -0.0375,-0.13125 -0.03633,-0.0504 -0.103125,-0.0832 -0.0668,-0.0328 -0.159375,-0.0551 -0.09258,-0.0223 -0.205079,-0.0481 -0.195703,-0.0434 -0.297656,-0.0867 -0.100781,-0.0434 -0.159375,-0.0961 -0.05859,-0.0539 -0.09023,-0.12539 -0.03047,-0.0715 -0.03047,-0.16406 0,-0.21211 0.161719,-0.32696 0.16289,-0.11484 0.465234,-0.11484 0.28125,0 0.430078,0.0867 0.148828,0.0855 0.208594,0.29297 l -0.220312,0.0387 q -0.03633,-0.13125 -0.138282,-0.18985 -0.101953,-0.0598 -0.282422,-0.0598 -0.198047,0 -0.302343,0.0656 -0.104297,0.0656 -0.104297,0.19571 0,0.0762 0.03984,0.12656 0.04102,0.0492 0.117188,0.0844 0.07617,0.034 0.303516,0.0844 0.07617,0.0176 0.151172,0.0363 0.07617,0.0176 0.145312,0.0434 0.06914,0.0246 0.128906,0.0586 0.06094,0.034 0.105469,0.0832 0.04453,0.0492 0.06914,0.11602 0.02578,0.0668 0.02578,0.15703 z"
       id="path410" />
    <path
       d="m 37.497851,125.8457 q 0,0.23438 -0.153515,0.37266 -0.152344,0.13828 -0.414844,0.13828 H 36.444335 V 127 h -0.223828 v -1.65117 h 0.694922 q 0.277735,0 0.430078,0.13008 0.152344,0.13007 0.152344,0.36679 z m -0.225,0.002 q 0,-0.31993 -0.384375,-0.31993 h -0.444141 v 0.65157 h 0.453516 q 0.375,0 0.375,-0.33164 z"
       id="path412" />
  </g>
</svg>
