<?xml version="1.0" encoding="UTF-8" standalone="no"?>
<svg
   width="50.8mm"
   height="128.5mm"
   viewBox="0 0 50.8 128.5"
   version="1.1"
   id="svg101"
   sodipodi:docname="Leviathan.svg"
   inkscape:version="1.2.2 (732a01da63, 2022-12-09)"
   xmlns:inkscape="http://www.inkscape.org/namespaces/inkscape"
   xmlns:sodipodi="http://sodipodi.sourceforge.net/DTD/sodipodi-0.dtd"
   xmlns="http://www.w3.org/2000/svg"
   xmlns:svg="http://www.w3.org/2000/svg">
  <sodipodi:namedview
     id="namedview103"
     pagecolor="#505050"
     bordercolor="#eeeeee"
     borderopacity="1"
     inkscape:showpageshadow="0"
     inkscape:pageopacity="0"
     inkscape:pagecheckerboard="0"
     inkscape:deskcolor="#505050"
     inkscape:document-units="mm"
     showgrid="false"
     inkscape:zoom="2.9905068"
     inkscape:cx="115.86665"
     inkscape:cy="345.09201"
     inkscape:window-width="1920"
     inkscape:window-height="1009"
     inkscape:window-x="5112"
     inkscape:window-y="229"
     inkscape:window-maximized="1"
     inkscape:current-layer="svg101" />
  <defs
     id="defs9">
    <linearGradient
       id="panelGradient"
       x1="0"
       x2="0"
       y1="0"
       y2="1">
      <stop
         offset="0"
         stop-color="#2b2d33"
         id="stop2" />
      <stop
         offset="1"
         stop-color="#1b1d22"
         id="stop4" />
    </linearGradient>
    <style
       id="style7">
      .title { font-family: 'Roboto', 'Liberation Sans', sans-serif; font-size: 4.2px; fill: #f5f6fa; font-weight: 600; letter-spacing: 1.2px; }
      .subtitle { font-family: 'Roboto', 'Liberation Sans', sans-serif; font-size: 2.4px; fill: #a7acb7; text-anchor: middle; }
      .label { font-family: 'Roboto', 'Liberation Sans', sans-serif; font-size: 2.8px; fill: #cfd3dc; text-anchor: middle; }
      .jack { font-family: 'Roboto', 'Liberation Sans', sans-serif; font-size: 2.4px; fill: #d9dde5; text-anchor: middle; }
      .divider { stroke: #434750; stroke-width: 0.25; stroke-linecap: round; }
    </style>
  </defs>
  <!-- Background -->
  <rect
     width="50.8"
     height="128.5"
     fill="url(#panelGradient)"
     rx="2"
     ry="2"
     id="rect11"
     style="fill:none;fill-opacity:1;stroke:#3a3d46;stroke-opacity:1" />
  <!-- Header -->
  <g
     aria-label="LEVIATHAN"
     id="text13"
     class="title"
     style="font-weight:600;font-size:4.2px;font-family:Roboto, 'Liberation Sans', sans-serif;letter-spacing:1.2px;text-anchor:middle;fill:#f5f6fa">
    <path
       d="M 9.0202636,6.4000001 V 3.5104494 H 9.6252441 V 5.932422 h 1.5503909 v 0.4675781 z"
       id="path415" />
    <path
       d="M 12.785791,6.4000001 V 3.5104494 h 2.272265 v 0.4675781 h -1.667285 v 0.7259766 h 1.542188 V 5.1715822 H 13.390771 V 5.932422 h 1.751367 v 0.4675781 z"
       id="path417" />
    <path
       d="M 18.216552,6.4000001 H 17.603369 L 16.534912,3.5104494 h 0.63164 l 0.594727,1.855957 q 0.05537,0.1804687 0.151758,0.5455078 l 0.04307,-0.1763672 0.10459,-0.3691406 0.592676,-1.855957 h 0.625488 z"
       id="path419" />
    <path
       d="M 20.788525,6.4000001 V 3.5104494 h 0.60498 v 2.8895507 z"
       id="path421" />
    <path
       d="M 25.197997,6.4000001 24.94165,5.6617189 h -1.10127 l -0.256347,0.7382812 h -0.604981 l 1.054102,-2.8895507 h 0.713671 l 1.05,2.8895507 z M 24.38999,3.955469 l -0.01231,0.045117 q -0.02051,0.073828 -0.04922,0.1681641 -0.02871,0.094336 -0.352734,1.0376953 h 0.830566 L 24.52124,4.3758791 24.433056,4.0969729 Z"
       id="path423" />
    <path
       d="M 28.381104,3.9780275 V 6.4000001 H 27.776123 V 3.9780275 H 26.843018 V 3.5104494 h 2.473242 v 0.4675781 z"
       id="path425" />
    <path
       d="M 32.706493,6.4000001 V 5.1613283 h -1.25918 v 1.2386718 h -0.60498 V 3.5104494 h 0.60498 v 1.1504883 h 1.25918 V 3.5104494 h 0.60498 v 2.8895507 z"
       id="path427" />
    <path
       d="M 37.118017,6.4000001 36.86167,5.6617189 H 35.7604 l -0.256347,0.7382812 h -0.604981 l 1.054102,-2.8895507 h 0.713672 l 1.05,2.8895507 z M 36.31001,3.955469 l -0.0123,0.045117 q -0.02051,0.073828 -0.04922,0.1681641 -0.02871,0.094336 -0.352734,1.0376953 h 0.830566 L 36.44126,4.3758791 36.353076,4.0969729 Z"
       id="path429" />
    <path
       d="M 41.068114,6.4000001 39.808935,4.1749025 q 0.03691,0.3240235 0.03691,0.5208985 V 6.4000001 H 39.308544 V 3.5104494 h 0.691113 L 41.277294,5.754004 Q 41.24038,5.4443361 41.24038,5.1900392 V 3.5104494 h 0.537305 v 2.8895507 z"
       id="path431" />
  </g>
  <g
     aria-label="WAVEFOLDER • VERSIO"
     id="text15"
     class="subtitle"
     style="font-size:2.4px;font-family:Roboto, 'Liberation Sans', sans-serif;text-anchor:middle;fill:#ffffff">
    <path
       d="M 13.28164,9.8999996 H 13.014452 L 12.728515,8.8511715 q -0.02812,-0.098438 -0.08203,-0.3527344 -0.03047,0.1359375 -0.05156,0.2273437 -0.02109,0.091406 -0.319922,1.1742188 H 12.007812 L 11.521483,8.2488277 h 0.233204 l 0.296484,1.0488281 q 0.05273,0.1968751 0.09727,0.4054688 0.02813,-0.1289062 0.06445,-0.28125 0.0375,-0.1523438 0.325781,-1.1730469 h 0.214453 l 0.28711,1.0277344 q 0.06563,0.2519531 0.103125,0.4265625 l 0.01055,-0.041016 q 0.03164,-0.1347656 0.05156,-0.2191406 0.01992,-0.085547 0.329297,-1.1941407 h 0.233203 z"
       id="path434"
       style="fill:#ffffff" />
    <path
       d="M 15.054687,9.8999996 14.866015,9.4171871 h -0.752344 l -0.189844,0.4828125 h -0.232031 l 0.673828,-1.6511719 h 0.254297 l 0.663281,1.6511719 z m -0.564844,-1.4824219 -0.01055,0.032812 q -0.0293,0.097266 -0.08672,0.2496094 L 14.18164,9.2425777 h 0.617578 L 14.587109,8.6976558 q -0.03281,-0.080859 -0.06563,-0.1828125 z"
       id="path436"
       style="fill:#ffffff" />
    <path
       d="M 16.026171,9.8999996 H 15.79414 L 15.120312,8.2488277 h 0.235547 l 0.457031,1.1625 0.09844,0.2917969 0.09844,-0.2917969 0.454687,-1.1625 h 0.235547 z"
       id="path438"
       style="fill:#ffffff" />
    <path
       d="M 16.907421,9.8999996 V 8.2488277 h 1.252735 v 0.1828125 h -1.028907 v 0.5296875 h 0.958594 v 0.1804688 h -0.958594 v 0.5753906 h 1.076954 v 0.1828125 z"
       id="path440"
       style="fill:#ffffff" />
    <path
       d="m 18.732031,8.4316402 v 0.6140625 h 0.921094 V 9.230859 H 18.732031 V 9.8999996 H 18.508203 V 8.2488277 h 1.173047 v 0.1828125 z"
       id="path442"
       style="fill:#ffffff" />
    <path
       d="m 21.529297,9.0667965 q 0,0.2589843 -0.09961,0.4535156 -0.09844,0.1945313 -0.283593,0.2988281 -0.185157,0.1042969 -0.43711,0.1042969 -0.254297,0 -0.439453,-0.103125 -0.183984,-0.103125 -0.28125,-0.2976562 -0.09727,-0.1957032 -0.09727,-0.4558594 0,-0.3960938 0.216797,-0.6187501 0.216797,-0.2238281 0.603516,-0.2238281 0.251953,0 0.437109,0.1007813 0.185157,0.099609 0.282422,0.290625 0.09844,0.1910156 0.09844,0.4511719 z m -0.228516,0 q 0,-0.3082032 -0.154687,-0.4839844 -0.153516,-0.1757813 -0.434766,-0.1757813 -0.283594,0 -0.438281,0.1734375 -0.154688,0.1734375 -0.154688,0.4863282 0,0.3105468 0.15586,0.4933594 0.157031,0.1816406 0.434765,0.1816406 0.285938,0 0.438282,-0.1757813 0.153515,-0.1769531 0.153515,-0.4992187 z"
       id="path444"
       style="fill:#ffffff" />
    <path
       d="M 21.841015,9.8999996 V 8.2488277 h 0.223828 v 1.4683594 h 0.834375 v 0.1828125 z"
       id="path446"
       style="fill:#ffffff" />
    <path
       d="m 24.597265,9.0574215 q 0,0.2554687 -0.09961,0.4476562 -0.09961,0.1910157 -0.282422,0.2929688 -0.182813,0.1019531 -0.421875,0.1019531 H 23.175781 V 8.2488277 h 0.546093 q 0.419532,0 0.646875,0.2109375 0.228516,0.2097656 0.228516,0.5976563 z m -0.225,0 q 0,-0.3070313 -0.16875,-0.4675782 -0.167578,-0.1617187 -0.486328,-0.1617187 h -0.317578 v 1.2925781 h 0.367968 q 0.181641,0 0.31875,-0.079688 0.138282,-0.079688 0.21211,-0.2296875 0.07383,-0.15 0.07383,-0.3539062 z"
       id="path448"
       style="fill:#ffffff" />
    <path
       d="M 24.908984,9.8999996 V 8.2488277 h 1.252735 v 0.1828125 h -1.028906 v 0.5296875 h 0.958593 v 0.1804688 h -0.958593 v 0.5753906 h 1.076953 v 0.1828125 z"
       id="path450"
       style="fill:#ffffff" />
    <path
       d="M 27.676953,9.8999996 27.248047,9.2144527 H 26.733594 V 9.8999996 H 26.509766 V 8.2488277 h 0.776953 q 0.278906,0 0.430078,0.1253906 0.152344,0.1242188 0.152344,0.346875 0,0.1839844 -0.107813,0.309375 -0.10664,0.1253907 -0.295312,0.1582032 l 0.46875,0.7113281 z m -0.03281,-1.1765625 q 0,-0.1441407 -0.09844,-0.2191407 -0.09727,-0.076172 -0.28125,-0.076172 h -0.530859 v 0.609375 h 0.540234 q 0.176954,0 0.273047,-0.082031 0.09727,-0.083203 0.09727,-0.2320312 z"
       id="path452"
       style="fill:#ffffff" />
    <path
       d="m 29.458203,9.1007808 q 0,0.1324219 -0.09609,0.2308594 -0.09492,0.098437 -0.233203,0.098437 -0.132422,0 -0.227344,-0.097266 -0.09375,-0.097266 -0.09375,-0.2320313 0,-0.1347656 0.09492,-0.2273437 0.09492,-0.09375 0.226172,-0.09375 0.135938,0 0.232031,0.094922 0.09727,0.09375 0.09727,0.2261718 z"
       id="path454"
       style="fill:#ffffff" />
    <path
       d="M 31.136327,9.8999996 H 30.904296 L 30.230468,8.2488277 h 0.235547 l 0.457031,1.1625 0.09844,0.2917969 0.09844,-0.2917969 0.454687,-1.1625 h 0.235547 z"
       id="path456"
       style="fill:#ffffff" />
    <path
       d="M 32.017578,9.8999996 V 8.2488277 h 1.252735 V 8.4316402 H 32.241406 V 8.9613277 H 33.2 v 0.1804688 h -0.958594 v 0.5753906 h 1.076954 v 0.1828125 z"
       id="path458"
       style="fill:#ffffff" />
    <path
       d="M 34.785546,9.8999996 34.35664,9.2144527 H 33.842187 V 9.8999996 H 33.618359 V 8.2488277 h 0.776953 q 0.278906,0 0.430078,0.1253906 0.152344,0.1242188 0.152344,0.346875 0,0.1839844 -0.107813,0.309375 -0.10664,0.1253907 -0.295312,0.1582032 l 0.46875,0.7113281 z m -0.03281,-1.1765625 q 0,-0.1441407 -0.09844,-0.2191407 -0.09727,-0.076172 -0.28125,-0.076172 h -0.530859 v 0.609375 h 0.540234 q 0.176953,0 0.273047,-0.082031 0.09727,-0.083203 0.09727,-0.2320312 z"
       id="path460"
       style="fill:#ffffff" />
    <path
       d="m 36.645313,9.4441402 q 0,0.2285157 -0.179297,0.3539063 -0.178125,0.1253906 -0.502735,0.1253906 -0.603515,0 -0.699609,-0.4195312 l 0.216797,-0.043359 q 0.0375,0.1488281 0.159375,0.2191406 0.121875,0.069141 0.331641,0.069141 0.216797,0 0.333984,-0.073828 0.118359,-0.075 0.118359,-0.2191406 0,-0.080859 -0.0375,-0.13125 -0.03633,-0.050391 -0.103125,-0.083203 -0.0668,-0.032813 -0.159375,-0.055078 -0.09258,-0.022266 -0.205078,-0.048047 -0.195703,-0.043359 -0.297656,-0.086719 -0.100781,-0.043359 -0.159375,-0.096094 -0.05859,-0.053906 -0.09023,-0.1253906 -0.03047,-0.071484 -0.03047,-0.1640625 0,-0.2121094 0.161719,-0.3269531 0.16289,-0.1148438 0.465234,-0.1148438 0.28125,0 0.430078,0.086719 0.148828,0.085547 0.208594,0.2929687 l -0.220313,0.038672 Q 36.35,8.5113277 36.248047,8.4527339 q -0.101953,-0.059766 -0.282422,-0.059766 -0.198047,0 -0.302344,0.065625 -0.104296,0.065625 -0.104296,0.1957031 0,0.076172 0.03984,0.1265625 0.04102,0.049219 0.117188,0.084375 0.07617,0.033984 0.303515,0.084375 0.07617,0.017578 0.151172,0.036328 0.07617,0.017578 0.145313,0.043359 0.06914,0.024609 0.128906,0.058594 0.06094,0.033984 0.105469,0.083203 0.04453,0.049219 0.06914,0.1160157 0.02578,0.066797 0.02578,0.1570312 z"
       id="path462"
       style="fill:#ffffff" />
    <path
       d="M 36.976953,9.8999996 V 8.2488277 h 0.223828 v 1.6511719 z"
       id="path464"
       style="fill:#ffffff" />
    <path
       d="m 39.174219,9.0667965 q 0,0.2589843 -0.09961,0.4535156 -0.09844,0.1945313 -0.283594,0.2988281 -0.185156,0.1042969 -0.43711,0.1042969 -0.254296,0 -0.439453,-0.103125 -0.183984,-0.103125 -0.28125,-0.2976562 -0.09727,-0.1957032 -0.09727,-0.4558594 0,-0.3960938 0.216797,-0.6187501 0.216796,-0.2238281 0.603515,-0.2238281 0.251953,0 0.43711,0.1007813 0.185156,0.099609 0.282422,0.290625 0.09844,0.1910156 0.09844,0.4511719 z m -0.228516,0 q 0,-0.3082032 -0.154687,-0.4839844 Q 38.6375,8.4070308 38.35625,8.4070308 q -0.283594,0 -0.438281,0.1734375 -0.154688,0.1734375 -0.154688,0.4863282 0,0.3105468 0.15586,0.4933594 0.157031,0.1816406 0.434765,0.1816406 0.285938,0 0.438282,-0.1757813 0.153515,-0.1769531 0.153515,-0.4992187 z"
       id="path466"
       style="fill:#ffffff" />
  </g>
  <!-- Controls Row 1: BLEND / FOLD -->
  <!-- Controls Row 2: CENTER / DOOM -->
  <!-- Controls Row 3: PHASE / DRIVE -->
  <!-- Controls Row 4: 8VIZE -->
  <!-- Switch Section -->
  <!-- SMOOSH Button -->
  <!-- CV Input Section -->
  <rect
     x="1.996105"
     y="86.79583"
     width="46.807789"
     height="28"
     fill="#1a1c20"
     stroke="#3a3d46"
     stroke-width="0.300001"
     rx="1.2063863"
     id="rect61"
     style="stroke:#434750;stroke-opacity:1;fill:none" />
  <!-- Audio Output Section -->
  <!-- Footer -->
  <g
     aria-label="AMBUSHED CAT DSP"
     id="text99"
     class="subtitle"
     style="font-size:2.4px;font-family:Roboto, 'Liberation Sans', sans-serif;text-anchor:middle;fill:#a7acb7">
    <path
       d="m 14.543163,127 -0.188672,-0.48281 H 13.602148 L 13.412304,127 h -0.232031 l 0.673828,-1.65117 h 0.254297 L 14.771679,127 Z m -0.564844,-1.48242 -0.01055,0.0328 q -0.0293,0.0973 -0.08672,0.24961 l -0.210938,0.54258 h 0.617578 l -0.212109,-0.54492 q -0.03281,-0.0809 -0.06563,-0.18282 z"
       id="path386" />
    <path
       d="m 16.377148,127 v -1.10156 q 0,-0.18282 0.01055,-0.35157 -0.05742,0.20977 -0.103125,0.32813 L 15.858007,127 h -0.157031 l -0.432422,-1.125 -0.06563,-0.19922 -0.03867,-0.12891 0.0035,0.13008 0.0047,0.22149 V 127 h -0.199219 v -1.65117 h 0.294141 l 0.439453,1.14492 q 0.02344,0.0691 0.04453,0.14883 0.02227,0.0785 0.0293,0.11367 0.0094,-0.0469 0.03867,-0.1418 0.03047,-0.0961 0.04102,-0.1207 l 0.43125,-1.14492 H 16.57871 V 127 Z"
       id="path388" />
    <path
       d="m 18.249804,126.53477 q 0,0.22031 -0.160547,0.34335 Q 17.92871,127 17.642773,127 H 16.97246 v -1.65117 h 0.6 q 0.58125,0 0.58125,0.40078 0,0.14648 -0.08203,0.24609 -0.08203,0.0996 -0.232031,0.1336 0.196875,0.0234 0.303515,0.13242 0.106641,0.10781 0.106641,0.27305 z m -0.321094,-0.75821 q 0,-0.13359 -0.09141,-0.19101 -0.09141,-0.0574 -0.264844,-0.0574 h -0.376172 v 0.52266 h 0.376172 q 0.179297,0 0.267188,-0.0668 0.08906,-0.068 0.08906,-0.20742 z m 0.09492,0.74063 q 0,-0.2918 -0.410156,-0.2918 h -0.417188 v 0.59531 h 0.434766 q 0.205078,0 0.298828,-0.0762 0.09375,-0.0762 0.09375,-0.22734 z"
       id="path390" />
    <path
       d="m 19.233007,127.02344 q -0.202734,0 -0.353906,-0.0738 -0.151172,-0.0738 -0.234375,-0.21445 -0.0832,-0.14063 -0.0832,-0.33516 v -1.05117 h 0.223828 v 1.03242 q 0,0.22617 0.114844,0.34336 0.114843,0.11719 0.33164,0.11719 0.222656,0 0.345703,-0.12071 0.124219,-0.12187 0.124219,-0.35507 v -1.01719 h 0.222656 v 1.03008 q 0,0.20039 -0.08555,0.3457 -0.08437,0.14531 -0.240234,0.22266 -0.154687,0.0762 -0.365625,0.0762 z"
       id="path392" />
    <path
       d="m 21.600195,126.54414 q 0,0.22852 -0.179297,0.35391 -0.178125,0.12539 -0.502734,0.12539 -0.603516,0 -0.69961,-0.41953 l 0.216797,-0.0434 q 0.0375,0.14882 0.159375,0.21914 0.121875,0.0691 0.331641,0.0691 0.216797,0 0.333984,-0.0738 0.11836,-0.075 0.11836,-0.21914 0,-0.0809 -0.0375,-0.13125 -0.03633,-0.0504 -0.103126,-0.0832 -0.0668,-0.0328 -0.159375,-0.0551 -0.09258,-0.0223 -0.205078,-0.0481 -0.195703,-0.0434 -0.297656,-0.0867 -0.100781,-0.0434 -0.159375,-0.0961 -0.05859,-0.0539 -0.09023,-0.12539 -0.03047,-0.0715 -0.03047,-0.16406 0,-0.21211 0.161719,-0.32696 0.16289,-0.11484 0.465234,-0.11484 0.28125,0 0.430078,0.0867 0.148828,0.0855 0.208594,0.29297 l -0.220312,0.0387 q -0.03633,-0.13125 -0.138282,-0.18985 -0.101953,-0.0598 -0.282422,-0.0598 -0.198047,0 -0.302343,0.0656 -0.104297,0.0656 -0.104297,0.19571 0,0.0762 0.03984,0.12656 0.04102,0.0492 0.117188,0.0844 0.07617,0.034 0.303516,0.0844 0.07617,0.0176 0.151171,0.0363 0.07617,0.0176 0.145313,0.0434 0.06914,0.0246 0.128906,0.0586 0.06094,0.034 0.105469,0.0832 0.04453,0.0492 0.06914,0.11602 0.02578,0.0668 0.02578,0.15703 z"
       id="path394" />
    <path
       d="m 23.024023,127 v -0.76523 H 22.131054 V 127 h -0.223828 v -1.65117 h 0.223828 v 0.69844 h 0.892969 v -0.69844 h 0.223828 V 127 Z"
       id="path396" />
    <path
       d="m 23.640429,127 v -1.65117 h 1.252735 v 0.18281 h -1.028907 v 0.52969 h 0.958594 v 0.18047 h -0.958594 v 0.57539 h 1.076954 V 127 Z"
       id="path398" />
    <path
       d="m 26.662695,126.15742 q 0,0.25547 -0.09961,0.44766 -0.09961,0.19101 -0.282422,0.29297 Q 26.097851,127 25.858789,127 h -0.617578 v -1.65117 h 0.546093 q 0.419532,0 0.646875,0.21094 0.228516,0.20976 0.228516,0.59765 z m -0.225,0 q 0,-0.30703 -0.16875,-0.46758 -0.167578,-0.16172 -0.486328,-0.16172 h -0.317578 v 1.29258 h 0.367969 q 0.18164,0 0.31875,-0.0797 0.138281,-0.0797 0.212109,-0.22969 0.07383,-0.15 0.07383,-0.35391 z"
       id="path400" />
    <path
       d="m 28.37246,125.50703 q -0.274218,0 -0.426562,0.17695 -0.152344,0.17579 -0.152344,0.48282 0,0.30351 0.158203,0.48867 0.159375,0.18398 0.430078,0.18398 0.346875,0 0.521485,-0.34336 l 0.182812,0.0914 q -0.101953,0.21328 -0.287109,0.32461 -0.183985,0.11133 -0.427735,0.11133 -0.249609,0 -0.432421,-0.10313 -0.181641,-0.10429 -0.277735,-0.29648 -0.09492,-0.19336 -0.09492,-0.45703 0,-0.39493 0.213282,-0.61875 0.213281,-0.22383 0.590625,-0.22383 0.263671,0 0.440625,0.10312 0.176953,0.10313 0.260156,0.30586 l -0.21211,0.0703 q -0.05742,-0.14415 -0.185156,-0.22032 -0.126562,-0.0762 -0.301172,-0.0762 z"
       id="path402" />
    <path
       d="m 30.545116,127 -0.188672,-0.48281 H 29.604101 L 29.414257,127 h -0.232031 l 0.673828,-1.65117 h 0.254297 L 30.773632,127 Z m -0.564843,-1.48242 -0.01055,0.0328 q -0.0293,0.0973 -0.08672,0.24961 l -0.210938,0.54258 h 0.617579 l -0.21211,-0.54492 q -0.03281,-0.0809 -0.06563,-0.18282 z"
       id="path404" />
    <path
       d="M 31.443945,125.53164 V 127 h -0.222656 v -1.46836 h -0.567188 v -0.18281 h 1.357032 v 0.18281 z"
       id="path406" />
    <path
       d="m 34.308007,126.15742 q 0,0.25547 -0.09961,0.44766 -0.09961,0.19101 -0.282422,0.29297 Q 33.743164,127 33.504101,127 h -0.617578 v -1.65117 h 0.546094 q 0.419531,0 0.646875,0.21094 0.228515,0.20976 0.228515,0.59765 z m -0.225,0 q 0,-0.30703 -0.16875,-0.46758 -0.167578,-0.16172 -0.486328,-0.16172 h -0.317578 v 1.29258 h 0.367969 q 0.18164,0 0.31875,-0.0797 0.138281,-0.0797 0.212109,-0.22969 0.07383,-0.15 0.07383,-0.35391 z"
       id="path408" />
    <path
       d="m 35.913477,126.54414 q 0,0.22852 -0.179297,0.35391 -0.178125,0.12539 -0.502734,0.12539 -0.603516,0 -0.69961,-0.41953 l 0.216797,-0.0434 q 0.0375,0.14882 0.159375,0.21914 0.121875,0.0691 0.331641,0.0691 0.216797,0 0.333984,-0.0738 0.11836,-0.075 0.11836,-0.21914 0,-0.0809 -0.0375,-0.13125 -0.03633,-0.0504 -0.103125,-0.0832 -0.0668,-0.0328 -0.159375,-0.0551 -0.09258,-0.0223 -0.205079,-0.0481 -0.195703,-0.0434 -0.297656,-0.0867 -0.100781,-0.0434 -0.159375,-0.0961 -0.05859,-0.0539 -0.09023,-0.12539 -0.03047,-0.0715 -0.03047,-0.16406 0,-0.21211 0.161719,-0.32696 0.16289,-0.11484 0.465234,-0.11484 0.28125,0 0.430078,0.0867 0.148828,0.0855 0.208594,0.29297 l -0.220312,0.0387 q -0.03633,-0.13125 -0.138282,-0.18985 -0.101953,-0.0598 -0.282422,-0.0598 -0.198047,0 -0.302343,0.0656 -0.104297,0.0656 -0.104297,0.19571 0,0.0762 0.03984,0.12656 0.04102,0.0492 0.117188,0.0844 0.07617,0.034 0.303516,0.0844 0.07617,0.0176 0.151172,0.0363 0.07617,0.0176 0.145312,0.0434 0.06914,0.0246 0.128906,0.0586 0.06094,0.034 0.105469,0.0832 0.04453,0.0492 0.06914,0.11602 0.02578,0.0668 0.02578,0.15703 z"
       id="path410" />
    <path
       d="m 37.497851,125.8457 q 0,0.23438 -0.153515,0.37266 -0.152344,0.13828 -0.414844,0.13828 H 36.444335 V 127 h -0.223828 v -1.65117 h 0.694922 q 0.277735,0 0.430078,0.13008 0.152344,0.13007 0.152344,0.36679 z m -0.225,0.002 q 0,-0.31993 -0.384375,-0.31993 h -0.444141 v 0.65157 h 0.453516 q 0.375,0 0.375,-0.33164 z"
       id="path412" />
  </g>
</svg>
