<?xml version="1.0" encoding="UTF-8" standalone="no"?>
<svg xmlns="http://www.w3.org/2000/svg" width="50.8mm" height="128.5mm" viewBox="0 0 50.8 128.5">
  <defs>
    <linearGradient id="panelGradient" x1="0" x2="0" y1="0" y2="1">
      <stop offset="0" stop-color="#2b2d33" />
      <stop offset="1" stop-color="#1b1d22" />
    </linearGradient>
    <style>
      .title { font-family: 'Roboto', 'Liberation Sans', sans-serif; font-size: 4.2px; fill: #f5f6fa; font-weight: 600; letter-spacing: 1.2px; }
      .subtitle { font-family: 'Roboto', 'Liberation Sans', sans-serif; font-size: 2.4px; fill: #a7acb7; text-anchor: middle; }
      .label { font-family: 'Roboto', 'Liberation Sans', sans-serif; font-size: 2.8px; fill: #cfd3dc; text-anchor: middle; }
      .jack { font-family: 'Roboto', 'Liberation Sans', sans-serif; font-size: 2.4px; fill: #d9dde5; text-anchor: middle; }
      .divider { stroke: #434750; stroke-width: 0.25; stroke-linecap: round; }
    </style>
  </defs>

  <!-- Background -->
  <rect width="50.8" height="128.5" fill="url(#panelGradient)" rx="2" ry="2" />

  <!-- Header -->
  <text class="title" x="25.4" y="6.4" text-anchor="middle">LEVIATHAN</text>
  <text class="subtitle" x="25.4" y="9.9">WAVEFOLDER • VERSIO</text>
  <line class="divider" x1="3" y1="14" x2="47.8" y2="14" />

  <!-- Controls Row 1: BLEND / FOLD -->
  <text class="label" x="12" y="19">BLEND</text>
  <text class="label" x="38.8" y="19">FOLD</text>
  <text class="jack" x="24.5" y="25" style="font-size: 2px;">CV</text>
  <text class="jack" x="47" y="25" style="font-size: 2px;">CV</text>
  <line class="divider" x1="3" y1="27" x2="47.8" y2="27" />

  <!-- Controls Row 2: CENTER / DOOM -->
  <text class="label" x="12" y="32">CENTER</text>
  <text class="label" x="38.8" y="32">DOOM</text>
  <text class="jack" x="24.5" y="41" style="font-size: 2px;">CV</text>
  <text class="jack" x="47" y="41" style="font-size: 2px;">CV</text>
  <line class="divider" x1="3" y1="43" x2="47.8" y2="43" />

  <!-- Controls Row 3: PHASE / DRIVE -->
  <text class="label" x="12" y="48">PHASE</text>
  <text class="label" x="38.8" y="48">DRIVE</text>
  <text class="jack" x="24.5" y="57" style="font-size: 2px;">CV</text>
  <text class="jack" x="47" y="57" style="font-size: 2px;">CV</text>
  <line class="divider" x1="3" y1="59" x2="47.8" y2="59" />

  <!-- Controls Row 4: 8VIZE -->
  <text class="label" x="12" y="64">8VIZE</text>
  <text class="jack" x="24.5" y="73" style="font-size: 2px;">CV</text>
  <line class="divider" x1="3" y1="75" x2="47.8" y2="75" />

  <!-- I/O Section Left -->
  <text class="jack" x="8" y="80">L In</text>
  <text class="jack" x="16" y="80">R In</text>
  <line class="divider" x1="3" y1="82.5" x2="21" y2="82.5" />
  <text class="jack" x="8" y="87">L Out</text>
  <text class="jack" x="16" y="87">R Out</text>
  <line class="divider" x1="3" y1="90" x2="21" y2="90" />

  <!-- Switch Section -->
  <rect x="24" y="75.5" width="23.8" height="38.5" fill="#202228" stroke="#3a3d46" stroke-width="0.3" rx="1" />
  <text class="subtitle" x="35.9" y="79.5">FLOW</text>
  <text class="jack" x="44.5" y="80" style="font-size: 1.9px;">CV</text>
  <text class="jack" x="35.9" y="84" style="font-size: 1.9px;">UND</text>
  <text class="jack" x="35.9" y="88.5" style="font-size: 1.9px;">X</text>
  <text class="jack" x="35.9" y="93" style="font-size: 1.9px;">OVR</text>
  <line class="divider" x1="25" y1="95" x2="46.8" y2="95" />
  <text class="subtitle" x="35.9" y="99">NOTCH</text>
  <text class="jack" x="44.5" y="99.5" style="font-size: 1.9px;">CV</text>
  <text class="jack" x="35.9" y="103.5" style="font-size: 1.9px;">OFF</text>
  <text class="jack" x="35.9" y="108" style="font-size: 1.9px;">1k</text>
  <line class="divider" x1="25" y1="109.5" x2="46.8" y2="109.5" />
  <text class="subtitle" x="35.9" y="112.5">SMOOSH</text>
  <text class="jack" x="44.5" y="113" style="font-size: 1.9px;">GATE</text>

  <!-- Footer -->
  <line class="divider" x1="3" y1="115" x2="47.8" y2="115" />
  <text class="subtitle" x="25.4" y="127">AMBUSHED CAT DSP</text>
</svg>
