<?xml version="1.0" encoding="UTF-8" standalone="no"?>
<svg
   width="40.64mm"
   height="128.5mm"
   viewBox="0 0 40.64 128.5"
   version="1.1"
   id="svg243"
   sodipodi:docname="Lilith.svg"
   inkscape:version="1.2.2 (732a01da63, 2022-12-09)"
   xmlns:inkscape="http://www.inkscape.org/namespaces/inkscape"
   xmlns:sodipodi="http://sodipodi.sourceforge.net/DTD/sodipodi-0.dtd"
   xmlns="http://www.w3.org/2000/svg"
   xmlns:svg="http://www.w3.org/2000/svg">
  <sodipodi:namedview
     id="namedview245"
     pagecolor="#505050"
     bordercolor="#eeeeee"
     borderopacity="1"
     inkscape:showpageshadow="0"
     inkscape:pageopacity="0"
     inkscape:pagecheckerboard="0"
     inkscape:deskcolor="#505050"
     inkscape:document-units="mm"
     showgrid="false"
     inkscape:zoom="3.319131"
     inkscape:cx="157.42072"
     inkscape:cy="70.500381"
     inkscape:window-width="1920"
     inkscape:window-height="1009"
     inkscape:window-x="5112"
     inkscape:window-y="229"
     inkscape:window-maximized="1"
     inkscape:current-layer="svg243" />
  <defs
     id="defs189">
    <linearGradient
       id="panelGradient"
       x1="0"
       x2="0"
       y1="0"
       y2="1">
      <stop
         offset="0"
         stop-color="#2b2d33"
         id="stop182" />
      <stop
         offset="1"
         stop-color="#1b1d22"
         id="stop184" />
    </linearGradient>
    <style
       id="style187">
      .title { font-family: 'Roboto', 'Liberation Sans', sans-serif; font-size: 3.8px; fill: #f5f6fa; font-weight: 600; letter-spacing: 0.6px; }
      .label { font-family: 'Roboto', 'Liberation Sans', sans-serif; font-size: 2.8px; fill: #cfd3dc; text-anchor: middle; }
      .sub { font-family: 'Roboto', 'Liberation Sans', sans-serif; font-size: 2.2px; fill: #a7acb7; text-anchor: middle; }
      .jack { font-family: 'Roboto', 'Liberation Sans', sans-serif; font-size: 2.5px; fill: #d9dde5; text-anchor: middle; }
      .divider { stroke: #434750; stroke-width: 0.25; stroke-linecap: round; }
      .step { font-family: 'Roboto Mono', 'Liberation Mono', monospace; font-size: 2.4px; fill: #cfd3dc; font-weight: 500; }
    </style>
  </defs>
  <!-- Background -->
  <rect
     width="40.64"
     height="128.5"
     fill="url(#panelGradient)"
     rx="2"
     ry="2"
     id="rect191"
     style="fill:none;fill-opacity:1;stroke:#000000;stroke-opacity:1" />
  <!-- Header -->
  <g
     aria-label="LILITH"
     id="text193"
     class="title"
     style="font-weight:600;font-size:3.8px;font-family:Roboto, 'Liberation Sans', sans-serif;letter-spacing:0.6px;fill:#f5f6fa">
    <path
       d="M 13.574,7 V 4.3856446 h 0.547363 v 2.1913085 h 1.402734 V 7 Z"
       id="path1472" />
    <path
       d="M 16.495191,7 V 4.3856446 h 0.547363 V 7 Z"
       id="path1474" />
    <path
       d="M 18.150953,7 V 4.3856446 h 0.547363 V 6.5769531 H 20.10105 V 7 Z"
       id="path1476" />
    <path
       d="M 21.072144,7 V 4.3856446 h 0.547363 V 7 Z"
       id="path1478" />
    <path
       d="M 23.907984,4.8086914 V 7 H 23.36062 V 4.8086914 H 22.516382 V 4.3856446 h 2.237695 v 0.4230468 z"
       id="path1480" />
    <path
       d="M 27.335718,7 V 5.8792969 H 26.19646 V 7 H 25.649097 V 4.3856446 h 0.547363 v 1.0409179 h 1.139258 V 4.3856446 h 0.547363 V 7 Z"
       id="path1482" />
  </g>
  <g
     aria-label="8-STEP EXPANDER"
     id="text195"
     class="sub"
     style="font-size:2.2px;font-family:Roboto, 'Liberation Sans', sans-serif;text-anchor:middle;fill:#ffffff">
    <path
       d="m 11.341142,10.077832 q 0,0.209473 -0.133203,0.326563 -0.133203,0.117089 -0.382422,0.117089 -0.242773,0 -0.380273,-0.114941 -0.136426,-0.114941 -0.136426,-0.326563 0,-0.1482417 0.08486,-0.2492183 0.08486,-0.1009766 0.216992,-0.1224609 v -0.0043 Q 10.487138,9.675 10.415165,9.5783203 q -0.0709,-0.09668 -0.0709,-0.2266602 0,-0.1729492 0.128906,-0.2803711 0.129981,-0.1074218 0.348047,-0.1074218 0.223438,0 0.352344,0.1052734 0.12998,0.1052734 0.12998,0.284668 0,0.1299804 -0.07197,0.2266601 -0.07197,0.09668 -0.196582,0.1213868 v 0.0043 q 0.145019,0.023633 0.225586,0.1235352 0.08057,0.098828 0.08057,0.2481445 z M 11.102666,9.3645508 q 0,-0.2567383 -0.281446,-0.2567383 -0.136426,0 -0.208398,0.064453 -0.0709,0.064453 -0.0709,0.1922852 0,0.1299804 0.07305,0.1987304 0.07412,0.067676 0.208399,0.067676 0.136425,0 0.207324,-0.062305 0.07197,-0.063379 0.07197,-0.2041015 z m 0.0376,0.6950192 q 0,-0.1407224 -0.08379,-0.2116208 -0.08379,-0.071973 -0.235254,-0.071973 -0.147168,0 -0.229883,0.077344 -0.08271,0.07627 -0.08271,0.2105467 0,0.312598 0.319043,0.312598 0.15791,0 0.235253,-0.07519 0.07734,-0.07627 0.07734,-0.2417 z"
       id="path1485"
       style="fill:#ffffff" />
    <path
       d="M 11.534501,10.001562 V 9.8296875 h 0.53711 v 0.1718745 z"
       id="path1487"
       style="fill:#ffffff" />
    <path
       d="m 13.535771,10.082129 q 0,0.209473 -0.164355,0.324414 -0.163282,0.114941 -0.46084,0.114941 -0.553223,0 -0.641309,-0.38457 l 0.198731,-0.03975 q 0.03438,0.136426 0.146093,0.200879 0.111719,0.06338 0.304004,0.06338 0.198731,0 0.306153,-0.06768 0.108496,-0.06875 0.108496,-0.200879 0,-0.07412 -0.03438,-0.1203124 -0.0333,-0.046191 -0.09453,-0.07627 -0.06123,-0.030078 -0.146093,-0.050488 -0.08486,-0.02041 -0.187989,-0.044043 -0.179394,-0.039746 -0.272851,-0.079492 -0.09238,-0.039746 -0.146094,-0.088086 -0.05371,-0.049414 -0.08272,-0.1149414 -0.02793,-0.065527 -0.02793,-0.1503907 0,-0.1944336 0.148242,-0.299707 0.149316,-0.1052734 0.426465,-0.1052734 0.257812,0 0.394238,0.079492 0.136426,0.078418 0.191211,0.2685547 l -0.201953,0.035449 q -0.0333,-0.1203125 -0.126758,-0.1740235 -0.09346,-0.054785 -0.258887,-0.054785 -0.181543,0 -0.277148,0.060156 -0.09561,0.060156 -0.09561,0.1793945 0,0.069824 0.03652,0.1160157 0.0376,0.045117 0.107422,0.077344 0.06982,0.031152 0.278222,0.077344 0.06982,0.016113 0.138574,0.033301 0.06982,0.016113 0.133204,0.039746 0.06338,0.022558 0.118164,0.053711 0.05586,0.031152 0.09668,0.07627 0.04082,0.045117 0.06338,0.1063477 0.02363,0.06123 0.02363,0.1439454 z"
       id="path1489"
       style="fill:#ffffff" />
    <path
       d="M 14.410185,9.1540039 V 10.5 H 14.206083 V 9.1540039 H 13.686162 V 8.9864257 h 1.243945 v 0.1675782 z"
       id="path1491"
       style="fill:#ffffff" />
    <path
       d="M 15.161064,10.5 V 8.9864257 h 1.14834 V 9.1540039 H 15.36624 v 0.4855469 h 0.87871 v 0.1654297 h -0.87871 v 0.5274415 h 0.987207 V 10.5 Z"
       id="path1493"
       style="fill:#ffffff" />
    <path
       d="m 17.799345,9.4418945 q 0,0.2148438 -0.140723,0.3416016 -0.139648,0.1267578 -0.380273,0.1267578 H 16.833622 V 10.5 H 16.628447 V 8.9864257 h 0.637011 q 0.25459,0 0.394239,0.1192383 0.139648,0.1192383 0.139648,0.3362305 z m -0.20625,0.00215 q 0,-0.2932617 -0.352344,-0.2932617 h -0.407129 v 0.5972657 h 0.415723 q 0.34375,0 0.34375,-0.304004 z"
       id="path1495"
       style="fill:#ffffff" />
    <path
       d="M 18.667314,10.5 V 8.9864257 h 1.14834 V 9.1540039 H 18.87249 v 0.4855469 h 0.878711 V 9.8049805 H 18.87249 v 0.5274415 h 0.987207 V 10.5 Z"
       id="path1497"
       style="fill:#ffffff" />
    <path
       d="M 21.148759,10.5 20.694365,9.8382812 20.230302,10.5 h -0.22666 L 20.579423,9.7136719 20.047685,8.9864257 h 0.22666 l 0.421094,0.594043 0.409277,-0.594043 h 0.22666 L 20.813603,9.7061523 21.375419,10.5 Z"
       id="path1499"
       style="fill:#ffffff" />
    <path
       d="m 22.772978,9.4418945 q 0,0.2148438 -0.140722,0.3416016 -0.139649,0.1267578 -0.380274,0.1267578 H 21.807256 V 10.5 H 21.60208 V 8.9864257 h 0.637012 q 0.25459,0 0.394238,0.1192383 0.139648,0.1192383 0.139648,0.3362305 z m -0.20625,0.00215 q 0,-0.2932617 -0.352343,-0.2932617 h -0.407129 v 0.5972657 h 0.415722 q 0.34375,0 0.34375,-0.304004 z"
       id="path1501"
       style="fill:#ffffff" />
    <path
       d="M 23.979325,10.5 23.806376,10.057422 H 23.116728 L 22.942704,10.5 H 22.730009 L 23.347685,8.9864257 H 23.58079 L 24.188798,10.5 Z m -0.517773,-1.3588867 -0.0097,0.030078 Q 23.425029,9.2603515 23.372392,9.4 l -0.19336,0.4973633 h 0.566114 L 23.550712,9.3978515 q -0.03008,-0.074121 -0.06016,-0.1675781 z"
       id="path1503"
       style="fill:#ffffff" />
    <path
       d="m 25.3554,10.5 -0.809961,-1.2890625 0.0054,0.1041992 0.0054,0.1793945 V 10.5 H 24.373564 V 8.9864257 h 0.238477 l 0.818555,1.2976563 q -0.01289,-0.210547 -0.01289,-0.3050781 V 8.9864257 h 0.184766 V 10.5 Z"
       id="path1505"
       style="fill:#ffffff" />
    <path
       d="m 27.265361,9.7276367 q 0,0.2341797 -0.09131,0.4103513 -0.09131,0.175098 -0.258887,0.268555 Q 26.747587,10.5 26.528447,10.5 H 25.962333 V 8.9864257 h 0.500586 q 0.384571,0 0.592969,0.1933594 0.209473,0.1922852 0.209473,0.5478516 z m -0.20625,0 q 0,-0.2814453 -0.154688,-0.4286133 Q 26.75081,9.1507812 26.458622,9.1507812 h -0.291113 v 1.1848638 h 0.337305 q 0.166504,0 0.292187,-0.07305 0.126758,-0.07305 0.194434,-0.210547 0.06768,-0.1375002 0.06768,-0.3244143 z"
       id="path1507"
       style="fill:#ffffff" />
    <path
       d="M 27.551102,10.5 V 8.9864257 h 1.14834 v 0.1675782 h -0.943164 v 0.4855469 h 0.878711 v 0.1654297 h -0.878711 v 0.5274415 h 0.987207 V 10.5 Z"
       id="path1509"
       style="fill:#ffffff" />
    <path
       d="M 30.088408,10.5 29.695244,9.871582 H 29.223662 V 10.5 H 29.018487 V 8.9864257 h 0.712207 q 0.255664,0 0.394238,0.1149415 0.139648,0.1138671 0.139648,0.3179687 0,0.1686524 -0.09883,0.2835938 -0.09775,0.1149414 -0.270703,0.1450195 L 30.324737,10.5 Z M 30.05833,9.4214844 q 0,-0.132129 -0.09023,-0.200879 -0.08916,-0.069824 -0.257813,-0.069824 H 29.223662 V 9.709375 h 0.495215 q 0.162207,0 0.250293,-0.075195 0.08916,-0.07627 0.08916,-0.2126953 z"
       id="path1511"
       style="fill:#ffffff" />
  </g>
  <!-- Top controls section -->
  <rect
     x="1.3528751"
     y="11.5"
     width="37.787128"
     height="7"
     fill="#202228"
     stroke="#3a3d46"
     stroke-width="0.4"
     rx="1.5058631"
     id="rect197" />
  <!-- Step labels -->
  <g
     aria-label="STEP"
     id="text203"
     class="step"
     style="font-weight:500;font-size:2.4px;font-family:'Roboto Mono', 'Liberation Mono', monospace;fill:#cfd3dc"
     transform="translate(0,-2.1166667)">
    <path
       d="m 3.0640625,24.060547 q 0,0.05625 -0.024609,0.09961 -0.023437,0.04336 -0.063281,0.07266 -0.041016,0.03047 -0.097266,0.0457 -0.055078,0.01523 -0.1195313,0.01523 -0.076172,0 -0.140625,-0.01875 -0.063281,-0.01875 -0.1101562,-0.05742 -0.048047,-0.0375 -0.076172,-0.09492 Q 2.405469,24.064067 2.39961,23.985548 H 2.11836 q 0.00117,0.123047 0.049219,0.217969 0.049219,0.09492 0.1324219,0.165234 0.090234,0.075 0.2121094,0.114844 0.121875,0.03867 0.2472656,0.03867 0.1183594,0 0.225,-0.0293 0.1066407,-0.03047 0.1875,-0.09023 0.079687,-0.05742 0.1265626,-0.14414 0.048047,-0.08672 0.048047,-0.200391 0,-0.123047 -0.055078,-0.216797 -0.053906,-0.09492 -0.1441406,-0.16289 -0.072656,-0.05391 -0.159375,-0.09141 -0.085547,-0.03867 -0.1757813,-0.06445 -0.071484,-0.02109 -0.1371094,-0.0457 -0.064453,-0.02461 -0.1148437,-0.05742 -0.049219,-0.03281 -0.078516,-0.07617 -0.029297,-0.04453 -0.030469,-0.103125 0,-0.05508 0.022266,-0.09961 0.022266,-0.04453 0.062109,-0.07617 0.039844,-0.03047 0.09375,-0.04687 Q 2.684375,23 2.7488282,23 q 0.073828,0 0.1300781,0.02227 0.057422,0.02109 0.097266,0.05859 0.038672,0.03867 0.059766,0.09258 0.022266,0.05273 0.028125,0.117188 h 0.2789063 q 0,-0.116016 -0.046875,-0.210938 -0.045703,-0.09609 -0.1253906,-0.165234 -0.079688,-0.06797 -0.1875,-0.105469 -0.1066407,-0.03867 -0.2308594,-0.03867 -0.1171875,0 -0.2238282,0.03281 -0.1054687,0.03164 -0.1851562,0.09258 -0.079688,0.06211 -0.1265625,0.15 -0.046875,0.08672 -0.046875,0.195703 0,0.100781 0.039844,0.181641 0.041016,0.07969 0.1125,0.142969 0.071484,0.06211 0.1722657,0.1125 0.1019531,0.04922 0.2226562,0.0832 0.078516,0.02227 0.1417969,0.05039 0.064453,0.02695 0.1113281,0.06094 0.044531,0.03633 0.069141,0.08203 0.024609,0.0457 0.024609,0.105469 z"
       id="path1514" />
    <path
       d="M 4.8253907,23.026953 V 22.79375 H 3.4964844 v 0.233203 H 4.0191407 V 24.5 h 0.2800781 v -1.473047 z"
       id="path1516" />
    <path
       d="M 6.0582033,23.734766 V 23.507422 H 5.3527345 V 23.026953 H 6.1707033 V 22.79375 H 5.0703126 V 24.5 h 1.10625 V 24.267969 H 5.3527345 v -0.533203 z"
       id="path1518" />
    <path
       d="m 6.7976567,23.849609 h 0.2894531 q 0.1289062,0 0.2367187,-0.0375 0.1089844,-0.0375 0.1875001,-0.10664 0.078516,-0.06797 0.121875,-0.162891 0.043359,-0.09609 0.043359,-0.214453 0,-0.123047 -0.043359,-0.221484 -0.043359,-0.09844 -0.121875,-0.167579 -0.078516,-0.06914 -0.1875001,-0.10664 -0.1078125,-0.0375 -0.2367187,-0.03867 H 6.5164066 V 24.5 h 0.2812501 z m 0,-0.229687 v -0.596485 h 0.2894531 q 0.071484,0.0012 0.1277344,0.02344 0.057422,0.02227 0.097266,0.06328 0.039844,0.04102 0.059766,0.09727 0.021094,0.05508 0.021094,0.123047 0,0.06211 -0.021094,0.114843 -0.019922,0.05273 -0.059766,0.09141 -0.039844,0.03867 -0.097266,0.06094 -0.05625,0.02109 -0.1277344,0.02227 z"
       id="path1520" />
  </g>
  <line
     class="divider"
     x1="1.8822048"
     y1="23.721533"
     x2="9.0525112"
     y2="23.721533"
     id="line211" />
  <!-- Step rows (8x) -->
  <!-- Row 1 -->
  <!-- Row 2 -->
  <!-- Row 3 -->
  <!-- Row 4 -->
  <!-- Row 5 -->
  <!-- Row 6 -->
  <!-- Row 7 -->
  <!-- Row 8 -->
  <!-- Mode labels (small, vertical aligned with switches) -->
  <g
     aria-label="E M T"
     id="text229"
     style="font-size:1.8px;font-family:Roboto, 'Liberation Sans', sans-serif;text-anchor:middle;fill:#a7acb7"
     class="sub"
     transform="translate(-6.879167,2.1166667)">
    <path
       d="m 8.7640626,105.5 v -1.23838 h 0.9395507 v 0.13711 H 8.9319336 v 0.39727 h 0.7189453 v 0.13535 H 8.9319336 v 0.43154 H 9.7396485 V 105.5 Z"
       id="path1566" />
    <path
       d="m 11.517676,105.5 v -0.82617 q 0,-0.13711 0.0079,-0.26367 -0.04307,0.15732 -0.07734,0.24609 L 11.12832,105.5 h -0.117773 l -0.324316,-0.84375 -0.04922,-0.14941 -0.029,-0.0967 0.0026,0.0975 0.0035,0.16612 V 105.5 h -0.149414 v -1.23838 h 0.220606 l 0.329589,0.85869 q 0.01758,0.0519 0.0334,0.11162 0.0167,0.0589 0.02197,0.0853 0.007,-0.0352 0.029,-0.10635 0.02285,-0.0721 0.03076,-0.0905 l 0.323438,-0.85869 h 0.215332 V 105.5 Z"
       id="path1568" />
    <path
       d="M 12.916895,104.39873 V 105.5 h -0.166993 v -1.10127 h -0.42539 v -0.13711 h 1.017773 v 0.13711 z"
       id="path1570" />
  </g>
  <!-- Bottom divider -->
  <line
     class="divider"
     x1="2"
     y1="112.17499"
     x2="38.639999"
     y2="112.17499"
     id="line231" />
  <!-- I/O labels -->
  <g
     aria-label="CLK"
     id="text233"
     class="jack"
     style="font-size:2.5px;font-family:Roboto, 'Liberation Sans', sans-serif;text-anchor:middle;fill:#d9dde5"
     transform="translate(0,-2.1166667)">
    <path
       d="m 4.5351562,111.44482 q -0.2856445,0 -0.4443359,0.18433 -0.1586914,0.18311 -0.1586914,0.50293 0,0.31616 0.1647949,0.50903 0.1660157,0.19165 0.4479981,0.19165 0.3613281,0 0.5432129,-0.35766 l 0.1904297,0.0952 q -0.1062012,0.22217 -0.2990723,0.33814 -0.1916504,0.11596 -0.4455567,0.11596 -0.2600097,0 -0.4504394,-0.10742 -0.189209,-0.10864 -0.2893066,-0.30884 -0.098877,-0.20141 -0.098877,-0.47607 0,-0.41138 0.222168,-0.64453 0.2221679,-0.23316 0.6152343,-0.23316 0.2746582,0 0.4589844,0.10743 0.1843262,0.10742 0.2709961,0.3186 l -0.2209473,0.0732 q -0.059814,-0.15014 -0.192871,-0.22949 -0.131836,-0.0793 -0.3137208,-0.0793 z"
       id="path1573" />
    <path
       d="m 5.5788574,113 v -1.71997 h 0.2331543 v 1.52954 H 6.6811523 V 113 Z"
       id="path1575" />
    <path
       d="m 8.1142578,113 -0.6872558,-0.83008 -0.2246094,0.1709 V 113 H 6.9692383 v -1.71997 h 0.2331543 v 0.86182 L 8.03125,111.28003 H 8.3059082 L 7.5734863,112.0271 8.4035645,113 Z"
       id="path1577" />
  </g>
  <g
     aria-label="RST"
     id="text235"
     class="jack"
     style="font-size:2.5px;font-family:Roboto, 'Liberation Sans', sans-serif;text-anchor:middle;fill:#d9dde5"
     transform="translate(0,-2.1166667)">
    <path
       d="m 12.920898,113 -0.446777,-0.71411 H 11.938232 V 113 h -0.233154 v -1.71997 h 0.809326 q 0.290528,0 0.447998,0.13061 0.158692,0.1294 0.158692,0.36133 0,0.19165 -0.112305,0.32227 -0.111084,0.13061 -0.307617,0.16479 L 13.189453,113 Z m -0.03418,-1.22559 q 0,-0.15014 -0.102539,-0.22827 -0.101319,-0.0793 -0.292969,-0.0793 h -0.552979 v 0.63476 h 0.562745 q 0.184326,0 0.284423,-0.0855 0.101319,-0.0867 0.101319,-0.2417 z"
       id="path1580" />
    <path
       d="m 14.858154,112.52515 q 0,0.23803 -0.186767,0.36865 -0.185547,0.13061 -0.523682,0.13061 -0.628662,0 -0.72876,-0.43701 l 0.22583,-0.0452 q 0.03906,0.15503 0.166016,0.22827 0.126953,0.072 0.345459,0.072 0.22583,0 0.3479,-0.0769 0.123291,-0.0781 0.123291,-0.22828 0,-0.0842 -0.03906,-0.13672 -0.03784,-0.0525 -0.107422,-0.0867 -0.06958,-0.0342 -0.166016,-0.0574 -0.09643,-0.0232 -0.213623,-0.05 -0.203857,-0.0452 -0.310058,-0.0903 -0.104981,-0.0452 -0.166016,-0.1001 -0.06104,-0.0562 -0.09399,-0.13061 -0.03174,-0.0745 -0.03174,-0.1709 0,-0.22095 0.168457,-0.34058 0.169677,-0.11963 0.484619,-0.11963 0.292969,0 0.447998,0.0903 0.155029,0.0891 0.217285,0.30517 l -0.229492,0.0403 q -0.03784,-0.13672 -0.144043,-0.19776 -0.106201,-0.0623 -0.29419,-0.0623 -0.206298,0 -0.314941,0.0684 -0.108642,0.0683 -0.108642,0.20385 0,0.0794 0.0415,0.13184 0.04273,0.0513 0.122071,0.0879 0.07935,0.0354 0.316162,0.0879 0.07935,0.0183 0.157471,0.0378 0.07935,0.0183 0.151367,0.0452 0.07202,0.0256 0.134277,0.061 0.06348,0.0354 0.109863,0.0867 0.04639,0.0513 0.07202,0.12085 0.02686,0.0696 0.02686,0.16358 z"
       id="path1582" />
    <path
       d="M 15.851807,111.47046 V 113 h -0.231934 v -1.52954 h -0.59082 v -0.19043 h 1.413574 v 0.19043 z"
       id="path1584" />
  </g>
  <g
     aria-label="CV"
     id="text237"
     class="jack"
     style="font-size:2.5px;font-family:Roboto, 'Liberation Sans', sans-serif;text-anchor:middle;fill:#d9dde5"
     transform="translate(0,-2.1166667)">
    <path
       d="m 21.230347,111.44482 q -0.285645,0 -0.444336,0.18433 -0.158692,0.18311 -0.158692,0.50293 0,0.31616 0.164795,0.50903 0.166016,0.19165 0.447998,0.19165 0.361328,0 0.543213,-0.35766 l 0.19043,0.0952 q -0.106201,0.22217 -0.299072,0.33814 -0.191651,0.11596 -0.445557,0.11596 -0.26001,0 -0.450439,-0.10742 -0.189209,-0.10864 -0.289307,-0.30884 -0.09888,-0.20141 -0.09888,-0.47607 0,-0.41138 0.222168,-0.64453 0.222168,-0.23316 0.615234,-0.23316 0.274658,0 0.458985,0.10743 0.184326,0.10742 0.270996,0.3186 l -0.220948,0.0732 q -0.05981,-0.15014 -0.192871,-0.22949 -0.131836,-0.0793 -0.31372,-0.0793 z"
       id="path1587" />
    <path
       d="m 23.02356,113 h -0.2417 l -0.701904,-1.71997 h 0.245361 l 0.476075,1.21094 0.102539,0.30395 0.102539,-0.30395 0.473633,-1.21094 h 0.245361 z"
       id="path1589" />
  </g>
  <g
     aria-label="GATE"
     id="text239"
     class="jack"
     style="font-size:2.5px;font-family:Roboto, 'Liberation Sans', sans-serif;text-anchor:middle;fill:#d9dde5"
     transform="translate(0,-2.1166667)">
    <path
       d="m 26.815186,112.13208 q 0,-0.4187 0.224609,-0.64819 0.224609,-0.2295 0.631103,-0.2295 0.285645,0 0.463868,0.0964 0.178222,0.0964 0.274658,0.30884 l -0.222168,0.0659 q -0.07324,-0.14649 -0.202637,-0.21363 -0.128174,-0.0671 -0.319824,-0.0671 -0.297852,0 -0.455322,0.18067 -0.157471,0.17944 -0.157471,0.50659 0,0.32593 0.167236,0.51514 0.167237,0.18799 0.462647,0.18799 0.168457,0 0.31372,-0.0513 0.146485,-0.0513 0.236817,-0.13916 v -0.31006 h -0.513916 v -0.19532 h 0.72876 v 0.59327 q -0.136719,0.13916 -0.335694,0.21606 -0.197754,0.0757 -0.429687,0.0757 -0.269776,0 -0.465088,-0.10742 -0.195313,-0.10742 -0.299072,-0.30884 -0.102539,-0.20263 -0.102539,-0.47607 z"
       id="path1592" />
    <path
       d="m 30.058594,113 -0.196533,-0.50293 H 29.078369 L 28.880615,113 h -0.241699 l 0.701904,-1.71997 h 0.264893 L 30.296631,113 Z m -0.588379,-1.54419 -0.01099,0.0342 q -0.03052,0.10132 -0.09033,0.26001 l -0.219726,0.56519 h 0.64331 l -0.220947,-0.56763 q -0.03418,-0.0842 -0.06836,-0.19043 z"
       id="path1594" />
    <path
       d="M 30.994873,111.47046 V 113 h -0.231934 v -1.52954 h -0.59082 v -0.19043 h 1.413574 v 0.19043 z"
       id="path1596" />
    <path
       d="m 31.848145,113 v -1.71997 h 1.304931 v 0.19043 h -1.071777 v 0.55176 h 0.998535 v 0.18799 h -0.998535 v 0.59936 h 1.121826 V 113 Z"
       id="path1598" />
  </g>
  <!-- Footer -->
  <g
     aria-label="SITRI EXPANDER"
     id="text241"
     class="sub"
     style="font-size:2.2px;font-family:Roboto, 'Liberation Sans', sans-serif;text-anchor:middle;fill:#a7acb7">
    <path
       d="m 12.599589,125.58213 q 0,0.20947 -0.164355,0.32441 -0.163281,0.11494 -0.46084,0.11494 -0.553223,0 -0.641309,-0.38457 l 0.198731,-0.0397 q 0.03438,0.13642 0.146094,0.20088 0.111718,0.0634 0.304004,0.0634 0.19873,0 0.306152,-0.0677 0.108496,-0.0688 0.108496,-0.20088 0,-0.0741 -0.03437,-0.12031 -0.0333,-0.0462 -0.09453,-0.0763 -0.06123,-0.0301 -0.146094,-0.0505 -0.08486,-0.0204 -0.187988,-0.044 -0.179395,-0.0397 -0.272852,-0.0795 -0.09238,-0.0397 -0.146094,-0.0881 -0.05371,-0.0494 -0.08271,-0.11494 -0.02793,-0.0655 -0.02793,-0.15039 0,-0.19444 0.148242,-0.29971 0.149316,-0.10527 0.426465,-0.10527 0.257812,0 0.394238,0.0795 0.136426,0.0784 0.191211,0.26855 l -0.201953,0.0354 q -0.0333,-0.12031 -0.126758,-0.17402 -0.09346,-0.0548 -0.258887,-0.0548 -0.181542,0 -0.277148,0.0602 -0.0956,0.0602 -0.0956,0.1794 0,0.0698 0.03652,0.11601 0.0376,0.0451 0.107422,0.0773 0.06982,0.0312 0.278223,0.0773 0.06982,0.0161 0.138574,0.0333 0.06982,0.0161 0.133203,0.0397 0.06338,0.0226 0.118164,0.0537 0.05586,0.0311 0.09668,0.0763 0.04082,0.0451 0.06338,0.10634 0.02363,0.0612 0.02363,0.14395 z"
       id="path1601" />
    <path
       d="m 12.903593,126 v -1.51357 h 0.205176 V 126 Z"
       id="path1603" />
    <path
       d="M 14.085234,124.654 V 126 h -0.204102 v -1.346 H 13.36121 v -0.16757 h 1.243946 v 0.16757 z"
       id="path1605" />
    <path
       d="m 15.906035,126 -0.393164,-0.62842 H 15.041289 V 126 h -0.205176 v -1.51357 h 0.712207 q 0.255664,0 0.394238,0.11494 0.139649,0.11386 0.139649,0.31797 0,0.16865 -0.09883,0.28359 -0.09775,0.11494 -0.270704,0.14502 L 16.142363,126 Z m -0.03008,-1.07852 q 0,-0.13212 -0.09023,-0.20087 -0.08916,-0.0698 -0.257812,-0.0698 h -0.486621 v 0.55859 h 0.495215 q 0.162207,0 0.250292,-0.0752 0.08916,-0.0763 0.08916,-0.2127 z"
       id="path1607" />
    <path
       d="m 16.447441,126 v -1.51357 h 0.205176 V 126 Z"
       id="path1609" />
    <path
       d="m 17.647343,126 v -1.51357 h 1.14834 v 0.16757 h -0.943164 v 0.48555 h 0.878711 v 0.16543 h -0.878711 v 0.52744 h 0.987207 V 126 Z"
       id="path1611" />
    <path
       d="M 20.128788,126 19.674394,125.33828 19.210331,126 h -0.22666 l 0.575782,-0.78633 -0.531739,-0.72724 h 0.22666 l 0.421094,0.59404 0.409278,-0.59404 h 0.22666 L 19.793632,125.20615 20.355449,126 Z"
       id="path1613" />
    <path
       d="m 21.753007,124.94189 q 0,0.21485 -0.140722,0.34161 -0.139649,0.12675 -0.380274,0.12675 H 20.787285 V 126 h -0.205176 v -1.51357 h 0.637012 q 0.254589,0 0.394238,0.11923 0.139648,0.11924 0.139648,0.33623 z m -0.20625,0.002 q 0,-0.29326 -0.352343,-0.29326 h -0.407129 v 0.59727 h 0.415722 q 0.34375,0 0.34375,-0.30401 z"
       id="path1615" />
    <path
       d="m 22.959355,126 -0.172949,-0.44258 H 22.096758 L 21.922734,126 h -0.212695 l 0.617676,-1.51357 H 22.56082 L 23.168828,126 Z m -0.517773,-1.35889 -0.0097,0.0301 q -0.02686,0.0892 -0.07949,0.22881 l -0.19336,0.49736 h 0.566114 l -0.194434,-0.49951 q -0.03008,-0.0741 -0.06016,-0.16758 z"
       id="path1617" />
    <path
       d="m 24.335429,126 -0.809961,-1.28906 0.0054,0.1042 0.0054,0.17939 V 126 h -0.182617 v -1.51357 h 0.238477 l 0.818555,1.29765 q -0.01289,-0.21054 -0.01289,-0.30508 v -0.99257 H 24.5825 V 126 Z"
       id="path1619" />
    <path
       d="m 26.245391,125.22764 q 0,0.23418 -0.09131,0.41035 -0.09131,0.1751 -0.258887,0.26855 Q 25.727617,126 25.508476,126 h -0.566113 v -1.51357 h 0.500586 q 0.38457,0 0.592969,0.19336 0.209473,0.19228 0.209473,0.54785 z m -0.20625,0 q 0,-0.28145 -0.154688,-0.42862 -0.153613,-0.14824 -0.445801,-0.14824 h -0.291113 v 1.18486 h 0.337305 q 0.166504,0 0.292187,-0.073 0.126758,-0.0731 0.194434,-0.21055 0.06768,-0.1375 0.06768,-0.32441 z"
       id="path1621" />
    <path
       d="m 26.531132,126 v -1.51357 h 1.14834 v 0.16757 h -0.943164 v 0.48555 h 0.878711 v 0.16543 h -0.878711 v 0.52744 h 0.987207 V 126 Z"
       id="path1623" />
    <path
       d="m 29.068437,126 -0.393164,-0.62842 H 28.203691 V 126 h -0.205175 v -1.51357 h 0.712207 q 0.255664,0 0.394238,0.11494 0.139648,0.11386 0.139648,0.31797 0,0.16865 -0.09883,0.28359 -0.09775,0.11494 -0.270703,0.14502 L 29.304766,126 Z m -0.03008,-1.07852 q 0,-0.13212 -0.09023,-0.20087 -0.08916,-0.0698 -0.257813,-0.0698 h -0.486621 v 0.55859 h 0.495215 q 0.162207,0 0.250293,-0.0752 0.08916,-0.0763 0.08916,-0.2127 z"
       id="path1625" />
  </g>
</svg>
