<?xml version="1.0" encoding="UTF-8" standalone="no"?>
<svg
   width="81.28mm"
   height="128.5mm"
   viewBox="0 0 81.28 128.5"
   version="1.1"
   id="svg2683"
   sodipodi:docname="LilithAdvance.svg"
   inkscape:version="1.2.2 (732a01da63, 2022-12-09)"
   xmlns:inkscape="http://www.inkscape.org/namespaces/inkscape"
   xmlns:sodipodi="http://sodipodi.sourceforge.net/DTD/sodipodi-0.dtd"
   xmlns="http://www.w3.org/2000/svg"
   xmlns:svg="http://www.w3.org/2000/svg">
  <sodipodi:namedview
     id="namedview2685"
     pagecolor="#505050"
     bordercolor="#eeeeee"
     borderopacity="1"
     inkscape:showpageshadow="0"
     inkscape:pageopacity="0"
     inkscape:pagecheckerboard="0"
     inkscape:deskcolor="#505050"
     inkscape:document-units="mm"
     showgrid="false"
     inkscape:zoom="1.6595655"
     inkscape:cx="181.67406"
     inkscape:cy="462.77173"
     inkscape:window-width="2560"
     inkscape:window-height="1369"
     inkscape:window-x="2552"
     inkscape:window-y="212"
     inkscape:window-maximized="1"
     inkscape:current-layer="svg2683" />
  <defs
     id="defs2599">
    <linearGradient
       id="panelGradient"
       x1="0"
       x2="0"
       y1="0"
       y2="1">
      <stop
         offset="0"
         stop-color="#2b2d33"
         id="stop2592" />
      <stop
         offset="1"
         stop-color="#1b1d22"
         id="stop2594" />
    </linearGradient>
    <style
       id="style2597">
      .title { font-family: 'Roboto', 'Liberation Sans', sans-serif; font-size: 3.8px; fill: #f5f6fa; font-weight: 600; letter-spacing: 0.6px; }
      .label { font-family: 'Roboto', 'Liberation Sans', sans-serif; font-size: 2.8px; fill: #cfd3dc; text-anchor: middle; }
      .sub { font-family: 'Roboto', 'Liberation Sans', sans-serif; font-size: 2.2px; fill: #a7acb7; text-anchor: middle; }
      .jack { font-family: 'Roboto', 'Liberation Sans', sans-serif; font-size: 2.5px; fill: #d9dde5; text-anchor: middle; }
      .divider { stroke: #434750; stroke-width: 0.25; stroke-linecap: round; }
      .step { font-family: 'Roboto Mono', 'Liberation Mono', monospace; font-size: 2.2px; fill: #cfd3dc; font-weight: 500; }
    </style>
  </defs>
  <rect
     width="81.28"
     height="128.5"
     fill="url(#panelGradient)"
     rx="2"
     ry="2"
     id="rect2601"
     style="fill:none;stroke:#3a3d46;stroke-opacity:1" />
  <g
     aria-label="LILITH ADV"
     id="text2603"
     class="title"
     style="font-weight:600;font-size:3.8px;font-family:Roboto, 'Liberation Sans', sans-serif;letter-spacing:0.6px;fill:#f5f6fa">
    <path
       d="M 25.894,7 V 4.3856446 h 0.547364 v 2.1913085 h 1.402734 V 7 Z"
       id="path5951" />
    <path
       d="M 28.815191,7 V 4.3856446 h 0.547364 V 7 Z"
       id="path5953" />
    <path
       d="M 30.470953,7 V 4.3856446 h 0.547363 v 2.1913085 h 1.402735 V 7 Z"
       id="path5955" />
    <path
       d="M 33.392144,7 V 4.3856446 h 0.547364 V 7 Z"
       id="path5957" />
    <path
       d="M 36.227984,4.8086914 V 7 H 35.680621 V 4.8086914 H 34.836383 V 4.3856446 h 2.237695 v 0.4230468 z"
       id="path5959" />
    <path
       d="M 39.655718,7 V 5.8792969 H 38.516461 V 7 H 37.969097 V 4.3856446 h 0.547364 v 1.0409179 h 1.139257 V 4.3856446 h 0.547364 V 7 Z"
       id="path5961" />
    <path
       d="M 44.676129,7 44.444196,6.3320313 H 43.447809 L 43.215875,7 h -0.547363 l 0.953711,-2.6143554 h 0.645703 L 45.217926,7 Z m -0.731055,-2.2117187 -0.01113,0.04082 q -0.01855,0.066797 -0.04453,0.1521484 -0.02598,0.085352 -0.31914,0.9388672 h 0.751465 L 44.063824,5.1686524 43.984039,4.9163086 Z"
       id="path5963" />
    <path
       d="m 48.502789,5.6733399 q 0,0.4044921 -0.15957,0.7069335 -0.157715,0.300586 -0.449023,0.4601563 Q 47.604742,7 47.229938,7 H 46.172321 V 4.3856446 h 0.946289 q 0.660546,0 1.022363,0.3339843 0.361816,0.3321289 0.361816,0.953711 z m -0.551074,0 q 0,-0.4211914 -0.218945,-0.6419922 -0.218946,-0.2226563 -0.625293,-0.2226563 h -0.387793 v 1.7682617 h 0.463867 q 0.352539,0 0.560352,-0.2430664 0.207812,-0.2430664 0.207812,-0.6605468 z"
       id="path5965" />
    <path
       d="M 50.809821,7 H 50.255035 L 49.288336,4.3856446 h 0.571485 l 0.538085,1.6791992 q 0.0501,0.1632812 0.137305,0.4935546 l 0.03897,-0.1595703 0.09463,-0.3339843 0.53623,-1.6791992 h 0.565918 z"
       id="path5967" />
  </g>
  <g
     aria-label="16-STEP EXPANDER"
     id="text2605"
     class="sub"
     style="font-size:2.2px;font-family:Roboto, 'Liberation Sans', sans-serif;text-anchor:middle;fill:#ffffff">
    <path
       d="m 27.089,10.5 v -0.164355 h 0.385644 V 9.1711914 L 27.133043,9.415039 V 9.2324218 l 0.357715,-0.2459961 h 0.17832 v 1.3492193 h 0.368457 V 10.5 Z"
       id="path5970"
       style="fill:#ffffff" />
    <path
       d="m 29.271812,10.004785 q 0,0.239551 -0.12998,0.378125 -0.129981,0.138574 -0.358789,0.138574 -0.255664,0 -0.391016,-0.190136 -0.135351,-0.190137 -0.135351,-0.553223 0,-0.3931641 0.140722,-0.603711 0.140723,-0.2105468 0.400684,-0.2105468 0.342676,0 0.431836,0.3083007 l -0.184766,0.033301 q -0.05693,-0.1847656 -0.249219,-0.1847656 -0.165429,0 -0.256738,0.1546875 -0.09023,0.1536133 -0.09023,0.4458008 0.05264,-0.097754 0.148242,-0.1482422 0.0956,-0.051562 0.21914,-0.051562 0.209473,0 0.331934,0.1310547 0.123535,0.1310547 0.123535,0.3523436 z m -0.196582,0.0086 q 0,-0.1643556 -0.08057,-0.2535157 -0.08057,-0.08916 -0.224512,-0.08916 -0.135351,0 -0.219141,0.079492 -0.08271,0.078418 -0.08271,0.2169922 0,0.1750975 0.08594,0.2868165 0.08701,0.111719 0.222363,0.111719 0.139649,0 0.219141,-0.09346 0.07949,-0.09453 0.07949,-0.258887 z"
       id="path5972"
       style="fill:#ffffff" />
    <path
       d="M 29.466246,10.001562 V 9.8296875 h 0.537109 v 0.1718745 z"
       id="path5974"
       style="fill:#ffffff" />
    <path
       d="m 31.467515,10.082129 q 0,0.209473 -0.164355,0.324414 -0.163281,0.114941 -0.46084,0.114941 -0.553223,0 -0.641309,-0.38457 l 0.198731,-0.03975 q 0.03438,0.136426 0.146094,0.200879 0.111718,0.06338 0.304004,0.06338 0.19873,0 0.306152,-0.06768 0.108496,-0.06875 0.108496,-0.200879 0,-0.07412 -0.03438,-0.1203124 -0.0333,-0.046191 -0.09453,-0.07627 -0.06123,-0.030078 -0.146094,-0.050488 -0.08486,-0.02041 -0.187988,-0.044043 -0.179395,-0.039746 -0.272852,-0.079492 -0.09238,-0.039746 -0.146094,-0.088086 -0.05371,-0.049414 -0.08271,-0.1149414 -0.02793,-0.065527 -0.02793,-0.1503907 0,-0.1944336 0.148242,-0.299707 0.149316,-0.1052734 0.426465,-0.1052734 0.257812,0 0.394238,0.079492 0.136426,0.078418 0.191211,0.2685547 l -0.201953,0.035449 q -0.0333,-0.1203125 -0.126758,-0.1740235 -0.09346,-0.054785 -0.258887,-0.054785 -0.181542,0 -0.277148,0.060156 -0.0956,0.060156 -0.0956,0.1793945 0,0.069824 0.03652,0.1160157 0.0376,0.045117 0.107422,0.077344 0.06982,0.031152 0.278223,0.077344 0.06982,0.016113 0.138574,0.033301 0.06982,0.016113 0.133203,0.039746 0.06338,0.022558 0.118164,0.053711 0.05586,0.031152 0.09668,0.07627 0.04082,0.045117 0.06338,0.1063477 0.02363,0.06123 0.02363,0.1439454 z"
       id="path5976"
       style="fill:#ffffff" />
    <path
       d="M 32.34193,9.1540039 V 10.5 H 32.137828 V 9.1540039 H 31.617906 V 8.9864257 h 1.243945 v 0.1675782 z"
       id="path5978"
       style="fill:#ffffff" />
    <path
       d="M 33.092808,10.5 V 8.9864257 h 1.14834 v 0.1675782 h -0.943164 v 0.4855469 h 0.878711 v 0.1654297 h -0.878711 v 0.5274415 h 0.987207 V 10.5 Z"
       id="path5980"
       style="fill:#ffffff" />
    <path
       d="m 35.731089,9.4418945 q 0,0.2148438 -0.140722,0.3416016 -0.139649,0.1267578 -0.380274,0.1267578 H 34.765367 V 10.5 H 34.560191 V 8.9864257 h 0.637012 q 0.25459,0 0.394238,0.1192383 0.139648,0.1192383 0.139648,0.3362305 z m -0.20625,0.00215 q 0,-0.2932617 -0.352343,-0.2932617 h -0.407129 v 0.5972657 h 0.415722 q 0.34375,0 0.34375,-0.304004 z"
       id="path5982"
       style="fill:#ffffff" />
    <path
       d="M 36.599058,10.5 V 8.9864257 h 1.14834 v 0.1675782 h -0.943164 v 0.4855469 h 0.878711 v 0.1654297 h -0.878711 v 0.5274415 h 0.987207 V 10.5 Z"
       id="path5984"
       style="fill:#ffffff" />
    <path
       d="M 39.080504,10.5 38.626109,9.8382812 38.162047,10.5 h -0.22666 L 38.511168,9.7136719 37.97943,8.9864257 h 0.22666 l 0.421094,0.594043 0.409277,-0.594043 h 0.22666 L 38.745348,9.7061523 39.307164,10.5 Z"
       id="path5986"
       style="fill:#ffffff" />
    <path
       d="m 40.704722,9.4418945 q 0,0.2148438 -0.140722,0.3416016 -0.139649,0.1267578 -0.380274,0.1267578 H 39.739 V 10.5 H 39.533824 V 8.9864257 h 0.637011 q 0.25459,0 0.394239,0.1192383 0.139648,0.1192383 0.139648,0.3362305 z m -0.20625,0.00215 q 0,-0.2932617 -0.352344,-0.2932617 H 39.739 v 0.5972657 h 0.415722 q 0.34375,0 0.34375,-0.304004 z"
       id="path5988"
       style="fill:#ffffff" />
    <path
       d="M 41.91107,10.5 41.738121,10.057422 H 41.048473 L 40.874449,10.5 H 40.661754 L 41.27943,8.9864257 h 0.233105 L 42.120543,10.5 Z m -0.517773,-1.3588867 -0.0097,0.030078 Q 41.356773,9.2603515 41.304137,9.4 l -0.19336,0.4973633 h 0.566114 L 41.482457,9.3978515 q -0.03008,-0.074121 -0.06016,-0.1675781 z"
       id="path5990"
       style="fill:#ffffff" />
    <path
       d="m 43.287144,10.5 -0.809961,-1.2890625 0.0054,0.1041992 0.0054,0.1793945 V 10.5 H 42.305308 V 8.9864257 h 0.238477 l 0.818554,1.2976563 q -0.01289,-0.210547 -0.01289,-0.3050781 V 8.9864257 h 0.184765 V 10.5 Z"
       id="path5992"
       style="fill:#ffffff" />
    <path
       d="m 45.197104,9.7276367 q 0,0.2341797 -0.09131,0.4103513 -0.09131,0.175098 -0.258887,0.268555 Q 44.679331,10.5 44.46019,10.5 H 43.894077 V 8.9864257 h 0.500586 q 0.38457,0 0.592969,0.1933594 0.209472,0.1922852 0.209472,0.5478516 z m -0.20625,0 q 0,-0.2814453 -0.154687,-0.4286133 -0.153613,-0.1482422 -0.445801,-0.1482422 h -0.291113 v 1.1848638 h 0.337305 q 0.166503,0 0.292187,-0.07305 0.126758,-0.07305 0.194434,-0.210547 0.06768,-0.1375002 0.06768,-0.3244143 z"
       id="path5994"
       style="fill:#ffffff" />
    <path
       d="M 45.482847,10.5 V 8.9864257 h 1.14834 v 0.1675782 h -0.943164 v 0.4855469 h 0.878711 V 9.8049805 H 45.688023 V 10.332422 H 46.67523 V 10.5 Z"
       id="path5996"
       style="fill:#ffffff" />
    <path
       d="M 48.020151,10.5 47.626987,9.871582 H 47.155405 V 10.5 H 46.950229 V 8.9864257 h 0.712207 q 0.255665,0 0.394239,0.1149415 0.139648,0.1138671 0.139648,0.3179687 0,0.1686524 -0.09883,0.2835938 -0.09775,0.1149414 -0.270703,0.1450195 L 48.256479,10.5 Z m -0.03008,-1.0785156 q 0,-0.132129 -0.09023,-0.200879 -0.08916,-0.069824 -0.257813,-0.069824 H 47.155405 V 9.709375 h 0.495215 q 0.162207,0 0.250293,-0.075195 0.08916,-0.07627 0.08916,-0.2126953 z"
       id="path5998"
       style="fill:#ffffff" />
  </g>
  <!-- Top controls section -->
  <rect
     x="1.5"
     y="11.5"
     width="78.28"
     height="7"
     fill="#202228"
     stroke="#3a3d46"
     stroke-width="0.4"
     rx="1.5"
     id="rect2607" />
  <!-- Column 1 Headers (Steps 1-8) -->
  <g
     aria-label="STEP"
     id="text2615"
     class="step"
     style="font-weight:500;font-size:2.2px;font-family:'Roboto Mono', 'Liberation Mono', monospace;fill:#cfd3dc"
     transform="translate(-2.1166667)">
    <path
       d="m 4.9753906,24.097168 q 0,0.05156 -0.022558,0.09131 -0.021484,0.03975 -0.058008,0.0666 -0.037598,0.02793 -0.08916,0.0419 -0.050488,0.01396 -0.1095703,0.01396 -0.069824,0 -0.1289063,-0.01719 -0.058008,-0.01719 -0.1009766,-0.05264 -0.044043,-0.03437 -0.069824,-0.08701 -0.024707,-0.05371 -0.030078,-0.125684 H 4.1084961 q 0.00107,0.112793 0.045117,0.199805 0.045117,0.08701 0.1213867,0.151464 0.082715,0.06875 0.1944336,0.105274 0.1117188,0.03545 0.2266602,0.03545 0.1084961,0 0.20625,-0.02685 0.097754,-0.02793 0.171875,-0.08272 0.073047,-0.05264 0.1160156,-0.132129 0.044043,-0.07949 0.044043,-0.183691 0,-0.112793 -0.050488,-0.198731 Q 5.1343752,23.809276 5.0516603,23.74697 4.9850583,23.69756 4.9055665,23.66318 4.8271485,23.62773 4.7444337,23.6041 4.6789067,23.58476 4.6187501,23.5622 4.5596681,23.53964 4.5134767,23.50956 q -0.045117,-0.03008 -0.071973,-0.06982 -0.026855,-0.04082 -0.02793,-0.09453 0,-0.05049 0.02041,-0.09131 0.02041,-0.04082 0.056934,-0.06982 0.036523,-0.02793 0.085937,-0.04297 0.050488,-0.01611 0.1095703,-0.01611 0.067676,0 0.1192383,0.02041 0.052637,0.01934 0.08916,0.05371 0.035449,0.03545 0.054785,0.08486 0.02041,0.04834 0.025781,0.107422 h 0.2556641 q 0,-0.106347 -0.042969,-0.193359 -0.041895,-0.08809 -0.1149414,-0.151465 -0.073047,-0.06231 -0.171875,-0.09668 -0.097754,-0.03545 -0.2116211,-0.03545 -0.1074219,0 -0.2051758,0.03008 -0.09668,0.029 -0.1697266,0.08486 -0.073047,0.05693 -0.1160156,0.137501 -0.042969,0.07949 -0.042969,0.179394 0,0.09238 0.036523,0.166504 0.037598,0.07305 0.103125,0.131055 0.065527,0.05693 0.1579101,0.103125 0.093457,0.04512 0.2041016,0.07627 0.071973,0.02041 0.1299805,0.04619 0.059082,0.02471 0.1020507,0.05586 0.04082,0.0333 0.063379,0.0752 0.022558,0.0419 0.022558,0.09668 z"
       id="path5496" />
    <path
       d="m 6.5899415,23.149707 v -0.21377 H 5.3717774 v 0.21377 H 5.8508789 V 24.5 h 0.2567383 v -1.350293 z"
       id="path5498" />
    <path
       d="M 7.7200196,23.798535 V 23.590137 H 7.0733399 v -0.44043 h 0.7498047 v -0.21377 H 6.8144532 V 24.5 H 7.8285157 V 24.287305 H 7.0733399 v -0.48877 z"
       id="path5500" />
    <path
       d="m 8.3978518,23.903809 h 0.265332 q 0.1181641,0 0.2169922,-0.03438 0.099902,-0.03437 0.171875,-0.09775 0.071973,-0.0623 0.1117187,-0.149317 0.039746,-0.08809 0.039746,-0.196582 0,-0.112793 -0.039746,-0.203027 Q 9.1240237,23.132523 9.052051,23.06914 8.980078,23.00576 8.880176,22.97139 8.781348,22.93701 8.6631838,22.93594 H 8.1400393 V 24.5 h 0.2578125 z m 0,-0.210547 v -0.546778 h 0.265332 q 0.065527,0.0011 0.1170898,0.02148 0.052637,0.02041 0.08916,0.05801 0.036523,0.0376 0.054785,0.08916 0.019336,0.05049 0.019336,0.112793 0,0.05693 -0.019336,0.105273 -0.018262,0.04834 -0.054785,0.08379 -0.036523,0.03545 -0.08916,0.05586 -0.051562,0.01934 -0.1170898,0.02041 z"
       id="path5502" />
  </g>
  <g
     aria-label="MODE"
     id="text2617"
     class="step"
     style="font-weight:500;font-size:2.2px;font-family:'Roboto Mono', 'Liberation Mono', monospace;fill:#cfd3dc"
     transform="translate(-2.1166667)">
    <path
       d="M 11.466211,22.935937 H 11.146094 V 24.5 h 0.241699 v -0.530664 l -0.01397,-0.672461 0.218067,0.720801 h 0.134277 l 0.240625,-0.746582 -0.01504,0.698242 V 24.5 h 0.242773 V 22.935937 H 11.87334 l -0.21377,0.669239 z"
       id="path5505" />
    <path
       d="m 13.540527,23.822168 v -0.20625 q 0,-0.09775 -0.01719,-0.187988 -0.01719,-0.09131 -0.05156,-0.170801 -0.03115,-0.07412 -0.07734,-0.136426 -0.04619,-0.0623 -0.108496,-0.108496 -0.06231,-0.04619 -0.140723,-0.07197 -0.07842,-0.02578 -0.171875,-0.02578 -0.09238,0 -0.169727,0.02578 -0.07627,0.02471 -0.136425,0.0709 -0.06231,0.04726 -0.108497,0.111719 -0.04512,0.06338 -0.07627,0.139648 -0.03223,0.07949 -0.04834,0.168652 -0.01611,0.08916 -0.01611,0.184766 v 0.20625 q 0,0.09131 0.01504,0.17832 0.01504,0.08594 0.04512,0.162207 0.03115,0.07949 0.07734,0.146094 0.04726,0.0666 0.10957,0.113867 0.06123,0.04619 0.138574,0.07305 0.07842,0.02578 0.171875,0.02578 0.09023,0 0.16543,-0.02471 0.07627,-0.02471 0.138574,-0.06768 0.06445,-0.04727 0.113867,-0.112793 0.04941,-0.0666 0.08272,-0.14502 0.03115,-0.07842 0.04727,-0.166504 0.01719,-0.08809 0.01719,-0.182617 z M 13.280566,23.61377 v 0.208398 q -0.0011,0.05801 -0.0075,0.114941 -0.0054,0.05586 -0.01826,0.107422 -0.01504,0.05908 -0.04082,0.108496 -0.02471,0.04834 -0.06231,0.08379 -0.03223,0.03115 -0.07734,0.04941 -0.04404,0.01826 -0.09883,0.01826 -0.05693,0 -0.100976,-0.01826 -0.04297,-0.01933 -0.07627,-0.05156 -0.03438,-0.03438 -0.05908,-0.08379 -0.02363,-0.05049 -0.0376,-0.108496 -0.01289,-0.05156 -0.01826,-0.107422 -0.0054,-0.05586 -0.0054,-0.112793 V 23.61377 q 0,-0.05801 0.0054,-0.114942 0.0064,-0.05801 0.01934,-0.10957 0.01397,-0.06016 0.03975,-0.108496 0.02578,-0.04941 0.06338,-0.08486 0.03115,-0.029 0.07305,-0.04512 0.04189,-0.01719 0.09453,-0.01719 0.05478,0 0.09775,0.01719 0.04297,0.01719 0.07627,0.04727 0.0376,0.03438 0.06338,0.08379 0.02686,0.04834 0.04297,0.107422 0.01397,0.05156 0.01934,0.108496 0.0064,0.05693 0.0075,0.116016 z"
       id="path5507" />
    <path
       d="m 13.788672,24.5 h 0.395312 q 0.107422,0 0.200879,-0.02578 0.09453,-0.02578 0.171875,-0.07412 0.06875,-0.04404 0.12461,-0.106348 0.05693,-0.0623 0.09668,-0.138574 0.04082,-0.07842 0.06231,-0.172949 0.02256,-0.09561 0.02256,-0.201954 v -0.122461 q 0,-0.110644 -0.02363,-0.208398 -0.02363,-0.09775 -0.0666,-0.179394 -0.04189,-0.07842 -0.104199,-0.141797 -0.06123,-0.06338 -0.140723,-0.105274 -0.07305,-0.04082 -0.162207,-0.06338 -0.08916,-0.02363 -0.190136,-0.02363 h -0.386719 z m 0.261035,-1.353516 h 0.125684 q 0.0623,0.0011 0.116015,0.01504 0.05371,0.01289 0.09668,0.0376 0.05908,0.0333 0.102051,0.08701 0.04297,0.05264 0.06875,0.118164 0.02041,0.05371 0.03115,0.11709 0.01074,0.06338 0.01074,0.134277 v 0.124609 q 0,0.07197 -0.01074,0.135352 -0.01074,0.06338 -0.03115,0.11709 -0.02363,0.06338 -0.06123,0.112793 -0.03652,0.04834 -0.08379,0.08057 -0.04619,0.03115 -0.104199,0.04834 -0.05693,0.01611 -0.125684,0.01611 h -0.134277 z"
       id="path5509" />
    <path
       d="m 16.040235,23.798535 v -0.208398 h -0.64668 v -0.44043 h 0.749805 v -0.21377 H 15.134668 V 24.5 h 1.014063 v -0.212695 h -0.755176 v -0.48877 z"
       id="path5511" />
  </g>
  <g
     aria-label="CV"
     id="text2619"
     class="step"
     style="font-weight:500;font-size:2.2px;font-family:'Roboto Mono', 'Liberation Mono', monospace;fill:#cfd3dc"
     transform="translate(-2.1166667)">
    <path
       d="m 21.216016,24.01875 h -0.258887 q -0.0064,0.0709 -0.02793,0.125684 -0.02148,0.05478 -0.05693,0.09131 -0.03652,0.0376 -0.08809,0.05693 -0.05156,0.01934 -0.118164,0.01934 -0.05586,0 -0.0999,-0.01504 -0.04297,-0.01611 -0.07627,-0.04619 -0.03223,-0.02793 -0.05586,-0.0666 -0.02256,-0.03867 -0.0376,-0.08594 -0.01934,-0.05693 -0.029,-0.125683 -0.0086,-0.06875 -0.0086,-0.147168 v -0.215918 q 0,-0.06338 0.0064,-0.123536 0.0075,-0.06123 0.02148,-0.114941 0.01826,-0.06123 0.04619,-0.110644 0.029,-0.05049 0.07197,-0.08164 0.03115,-0.02578 0.0709,-0.03975 0.04082,-0.01396 0.09131,-0.01396 0.07197,0 0.123535,0.02148 0.05156,0.02041 0.08701,0.06016 0.03438,0.03975 0.05371,0.09668 0.02041,0.05586 0.02686,0.125684 h 0.257813 q -0.01182,-0.11709 -0.05264,-0.212695 -0.03975,-0.09561 -0.10957,-0.163282 -0.06875,-0.0666 -0.166504,-0.103125 -0.09668,-0.03652 -0.220215,-0.03652 -0.09131,0 -0.168652,0.02471 -0.07627,0.02471 -0.139649,0.06875 -0.0666,0.04834 -0.118164,0.11709 -0.05049,0.06768 -0.08272,0.151465 -0.03008,0.0752 -0.04512,0.160058 -0.01504,0.08486 -0.01504,0.176172 v 0.21377 q 0,0.0956 0.01504,0.183691 0.01611,0.08809 0.04727,0.163281 0.03115,0.07627 0.07627,0.140723 0.04619,0.06338 0.107422,0.108496 0.06338,0.04834 0.143945,0.0752 0.08164,0.02578 0.178321,0.02578 0.118164,0 0.214843,-0.03545 0.09775,-0.03652 0.168653,-0.103125 0.06982,-0.06553 0.112793,-0.15791 0.04297,-0.09346 0.05371,-0.207324 z"
       id="path5514" />
    <path
       d="m 21.853027,24.5 h 0.251368 l 0.48125,-1.564063 h -0.281446 l -0.299707,1.081739 -0.02685,0.09453 -0.02578,-0.09346 -0.297559,-1.082813 h -0.28252 z"
       id="path5516" />
  </g>
  <g
     aria-label="GT"
     id="text2621"
     class="step"
     style="font-weight:500;font-size:2.2px;font-family:'Roboto Mono', 'Liberation Mono', monospace;fill:#cfd3dc"
     transform="translate(-2.1166667)">
    <path
       d="m 31.208496,24.307715 -0.0021,-0.59834 h -0.53711 v 0.200879 h 0.283594 l -0.0011,0.312598 q -0.01719,0.02256 -0.04619,0.03975 -0.029,0.01611 -0.06338,0.02686 -0.03545,0.01074 -0.07412,0.01611 -0.03867,0.0043 -0.07627,0.0043 -0.06338,-0.0011 -0.113867,-0.02148 -0.04941,-0.02041 -0.08701,-0.05801 -0.03008,-0.029 -0.05264,-0.0666 -0.02148,-0.0376 -0.0376,-0.08057 -0.02041,-0.05693 -0.03115,-0.123535 -0.0097,-0.0666 -0.0097,-0.140723 v -0.201953 q 0,-0.06338 0.0075,-0.123535 0.0075,-0.06016 0.02363,-0.112793 0.01826,-0.06016 0.04619,-0.108496 0.029,-0.04941 0.06768,-0.08272 0.0333,-0.029 0.0752,-0.04512 0.0419,-0.01719 0.09131,-0.01719 0.06768,0 0.11709,0.01934 0.05049,0.01934 0.08486,0.05586 0.03223,0.03438 0.05156,0.08486 0.01934,0.04941 0.029,0.110645 h 0.253516 q -0.01074,-0.111719 -0.05049,-0.200879 -0.03975,-0.09023 -0.108496,-0.153614 -0.06768,-0.0623 -0.163282,-0.0956 -0.0956,-0.0333 -0.21914,-0.0333 -0.09131,0 -0.169727,0.02578 -0.07734,0.02578 -0.141797,0.07305 -0.05908,0.04512 -0.105273,0.106348 -0.04619,0.06123 -0.07949,0.135351 -0.03438,0.07842 -0.05264,0.170801 -0.01719,0.09238 -0.01826,0.19336 v 0.199804 q 0.0011,0.1042 0.02041,0.198731 0.01934,0.09453 0.05693,0.172949 0.0333,0.0752 0.08272,0.136426 0.05049,0.06123 0.113867,0.104199 0.06338,0.04297 0.141797,0.0666 0.07842,0.02363 0.168652,0.02363 0.09775,0 0.183692,-0.02041 0.08594,-0.01934 0.158984,-0.05478 0.05801,-0.02793 0.104199,-0.06338 0.04619,-0.03652 0.07842,-0.07519 z"
       id="path5519" />
    <path
       d="m 32.589941,23.149707 v -0.21377 h -1.218164 v 0.21377 h 0.479102 V 24.5 h 0.256738 v -1.350293 z"
       id="path5521" />
  </g>
  <!-- Column 2 Headers (Steps 9-16) -->
  <g
     aria-label="STEP"
     id="text2623"
     class="step"
     style="font-weight:500;font-size:2.2px;font-family:'Roboto Mono', 'Liberation Mono', monospace;fill:#cfd3dc"
     transform="translate(-2.1166667)">
    <path
       d="m 44.975391,24.097168 q 0,0.05156 -0.02256,0.09131 -0.02148,0.03975 -0.05801,0.0666 -0.0376,0.02793 -0.08916,0.0419 -0.05049,0.01396 -0.10957,0.01396 -0.06982,0 -0.128906,-0.01719 -0.05801,-0.01719 -0.100977,-0.05264 -0.04404,-0.03437 -0.06982,-0.08701 -0.02471,-0.05371 -0.03008,-0.125684 h -0.257813 q 0.0011,0.112793 0.04512,0.199805 0.04512,0.08701 0.121387,0.151464 0.08272,0.06875 0.194434,0.105274 0.111718,0.03545 0.22666,0.03545 0.108496,0 0.20625,-0.02685 0.09775,-0.02793 0.171875,-0.08272 0.07305,-0.05264 0.116015,-0.132129 0.04404,-0.07949 0.04404,-0.183691 0,-0.112793 -0.05049,-0.198731 -0.04941,-0.08701 -0.132129,-0.149316 -0.0666,-0.04941 -0.146094,-0.08379 -0.07842,-0.03545 -0.161132,-0.05908 -0.06553,-0.01934 -0.125684,-0.0419 -0.05908,-0.02256 -0.105273,-0.05264 -0.04512,-0.03008 -0.07197,-0.06982 -0.02686,-0.04082 -0.02793,-0.09453 0,-0.05049 0.02041,-0.09131 0.02041,-0.04082 0.05693,-0.06982 0.03652,-0.02793 0.08594,-0.04297 0.05049,-0.01611 0.109571,-0.01611 0.06768,0 0.119238,0.02041 0.05264,0.01934 0.08916,0.05371 0.03545,0.03545 0.05479,0.08486 0.02041,0.04834 0.02578,0.107422 h 0.255664 q 0,-0.106347 -0.04297,-0.193359 -0.04189,-0.08809 -0.114941,-0.151465 -0.07305,-0.06231 -0.171875,-0.09668 -0.09775,-0.03545 -0.211622,-0.03545 -0.107421,0 -0.205175,0.03008 -0.09668,0.029 -0.169727,0.08486 -0.07305,0.05693 -0.116016,0.137501 -0.04297,0.07949 -0.04297,0.179394 0,0.09238 0.03652,0.166504 0.0376,0.07305 0.103125,0.131055 0.06553,0.05693 0.15791,0.103125 0.09346,0.04512 0.204102,0.07627 0.07197,0.02041 0.12998,0.04619 0.05908,0.02471 0.102051,0.05586 0.04082,0.0333 0.06338,0.0752 0.02256,0.0419 0.02256,0.09668 z"
       id="path5524" />
    <path
       d="m 46.589941,23.149707 v -0.21377 h -1.218164 v 0.21377 h 0.479102 V 24.5 h 0.256738 v -1.350293 z"
       id="path5526" />
    <path
       d="m 47.72002,23.798535 v -0.208398 h -0.64668 v -0.44043 h 0.749805 v -0.21377 H 46.814453 V 24.5 h 1.014063 V 24.287305 H 47.07334 v -0.48877 z"
       id="path5528" />
    <path
       d="m 48.397852,23.903809 h 0.265332 q 0.118164,0 0.216992,-0.03438 0.0999,-0.03437 0.171875,-0.09775 0.07197,-0.0623 0.111719,-0.149317 0.03975,-0.08809 0.03975,-0.196582 0,-0.112793 -0.03975,-0.203027 -0.03975,-0.09023 -0.111719,-0.153613 -0.07197,-0.06338 -0.171875,-0.09775 -0.09883,-0.03438 -0.216992,-0.03545 H 48.140039 V 24.5 h 0.257813 z m 0,-0.210547 v -0.546778 h 0.265332 q 0.06553,0.0011 0.11709,0.02148 0.05264,0.02041 0.08916,0.05801 0.03652,0.0376 0.05479,0.08916 0.01934,0.05049 0.01934,0.112793 0,0.05693 -0.01934,0.105273 -0.01826,0.04834 -0.05479,0.08379 -0.03652,0.03545 -0.08916,0.05586 -0.05156,0.01934 -0.11709,0.02041 z"
       id="path5530" />
  </g>
  <g
     aria-label="MODE"
     id="text2625"
     class="step"
     style="font-weight:500;font-size:2.2px;font-family:'Roboto Mono', 'Liberation Mono', monospace;fill:#cfd3dc"
     transform="translate(-2.1166667)">
    <path
       d="M 51.466211,22.935937 H 51.146094 V 24.5 h 0.241699 v -0.530664 l -0.01396,-0.672461 0.218067,0.720801 h 0.134277 l 0.240625,-0.746582 -0.01504,0.698242 V 24.5 h 0.242773 V 22.935937 H 51.87334 l -0.21377,0.669239 z"
       id="path5533" />
    <path
       d="m 53.540527,23.822168 v -0.20625 q 0,-0.09775 -0.01719,-0.187988 -0.01719,-0.09131 -0.05156,-0.170801 -0.03115,-0.07412 -0.07734,-0.136426 -0.04619,-0.0623 -0.108496,-0.108496 -0.06231,-0.04619 -0.140723,-0.07197 -0.07842,-0.02578 -0.171875,-0.02578 -0.09238,0 -0.169727,0.02578 -0.07627,0.02471 -0.136425,0.0709 -0.06231,0.04726 -0.108497,0.111719 -0.04512,0.06338 -0.07627,0.139648 -0.03223,0.07949 -0.04834,0.168652 -0.01611,0.08916 -0.01611,0.184766 v 0.20625 q 0,0.09131 0.01504,0.17832 0.01504,0.08594 0.04512,0.162207 0.03115,0.07949 0.07734,0.146094 0.04726,0.0666 0.10957,0.113867 0.06123,0.04619 0.138574,0.07305 0.07842,0.02578 0.171875,0.02578 0.09023,0 0.16543,-0.02471 0.07627,-0.02471 0.138574,-0.06768 0.06445,-0.04727 0.113867,-0.112793 0.04941,-0.0666 0.08272,-0.14502 0.03115,-0.07842 0.04727,-0.166504 0.01719,-0.08809 0.01719,-0.182617 z M 53.280566,23.61377 v 0.208398 q -0.0011,0.05801 -0.0075,0.114941 -0.0054,0.05586 -0.01826,0.107422 -0.01504,0.05908 -0.04082,0.108496 -0.02471,0.04834 -0.06231,0.08379 -0.03223,0.03115 -0.07734,0.04941 -0.04404,0.01826 -0.09883,0.01826 -0.05693,0 -0.100976,-0.01826 -0.04297,-0.01933 -0.07627,-0.05156 -0.03438,-0.03438 -0.05908,-0.08379 -0.02363,-0.05049 -0.0376,-0.108496 -0.01289,-0.05156 -0.01826,-0.107422 -0.0054,-0.05586 -0.0054,-0.112793 V 23.61377 q 0,-0.05801 0.0054,-0.114942 0.0064,-0.05801 0.01934,-0.10957 0.01396,-0.06016 0.03975,-0.108496 0.02578,-0.04941 0.06338,-0.08486 0.03115,-0.029 0.07305,-0.04512 0.04189,-0.01719 0.09453,-0.01719 0.05479,0 0.09775,0.01719 0.04297,0.01719 0.07627,0.04727 0.0376,0.03438 0.06338,0.08379 0.02686,0.04834 0.04297,0.107422 0.01396,0.05156 0.01934,0.108496 0.0064,0.05693 0.0075,0.116016 z"
       id="path5535" />
    <path
       d="m 53.788672,24.5 h 0.395312 q 0.107422,0 0.200879,-0.02578 0.09453,-0.02578 0.171875,-0.07412 0.06875,-0.04404 0.12461,-0.106348 0.05693,-0.0623 0.09668,-0.138574 0.04082,-0.07842 0.0623,-0.172949 0.02256,-0.09561 0.02256,-0.201954 v -0.122461 q 0,-0.110644 -0.02363,-0.208398 -0.02363,-0.09775 -0.0666,-0.179394 -0.04189,-0.07842 -0.104199,-0.141797 -0.06123,-0.06338 -0.140723,-0.105274 -0.07305,-0.04082 -0.162207,-0.06338 -0.08916,-0.02363 -0.190136,-0.02363 h -0.386719 z m 0.261035,-1.353516 h 0.125684 q 0.0623,0.0011 0.116015,0.01504 0.05371,0.01289 0.09668,0.0376 0.05908,0.0333 0.102051,0.08701 0.04297,0.05264 0.06875,0.118164 0.02041,0.05371 0.03115,0.11709 0.01074,0.06338 0.01074,0.134277 v 0.124609 q 0,0.07197 -0.01074,0.135352 -0.01074,0.06338 -0.03115,0.11709 -0.02363,0.06338 -0.06123,0.112793 -0.03652,0.04834 -0.08379,0.08057 -0.04619,0.03115 -0.104199,0.04834 -0.05693,0.01611 -0.125684,0.01611 h -0.134277 z"
       id="path5537" />
    <path
       d="m 56.040235,23.798535 v -0.208398 h -0.64668 v -0.44043 h 0.749805 v -0.21377 H 55.134668 V 24.5 h 1.014063 v -0.212695 h -0.755176 v -0.48877 z"
       id="path5539" />
  </g>
  <g
     aria-label="CV"
     id="text2627"
     class="step"
     style="font-weight:500;font-size:2.2px;font-family:'Roboto Mono', 'Liberation Mono', monospace;fill:#cfd3dc"
     transform="translate(-2.1166667)">
    <path
       d="m 61.216016,24.01875 h -0.258887 q -0.0064,0.0709 -0.02793,0.125684 -0.02148,0.05478 -0.05693,0.09131 -0.03652,0.0376 -0.08809,0.05693 -0.05156,0.01934 -0.118164,0.01934 -0.05586,0 -0.0999,-0.01504 -0.04297,-0.01611 -0.07627,-0.04619 -0.03223,-0.02793 -0.05586,-0.0666 -0.02256,-0.03867 -0.0376,-0.08594 -0.01934,-0.05693 -0.029,-0.125683 -0.0086,-0.06875 -0.0086,-0.147168 v -0.215918 q 0,-0.06338 0.0064,-0.123536 0.0075,-0.06123 0.02148,-0.114941 0.01826,-0.06123 0.04619,-0.110644 0.029,-0.05049 0.07197,-0.08164 0.03115,-0.02578 0.0709,-0.03975 0.04082,-0.01396 0.09131,-0.01396 0.07197,0 0.123535,0.02148 0.05156,0.02041 0.08701,0.06016 0.03437,0.03975 0.05371,0.09668 0.02041,0.05586 0.02685,0.125684 h 0.257813 q -0.01182,-0.11709 -0.05264,-0.212695 -0.03975,-0.09561 -0.10957,-0.163282 -0.06875,-0.0666 -0.166504,-0.103125 -0.09668,-0.03652 -0.220215,-0.03652 -0.09131,0 -0.168652,0.02471 -0.07627,0.02471 -0.139649,0.06875 -0.0666,0.04834 -0.118164,0.11709 -0.05049,0.06768 -0.08272,0.151465 -0.03008,0.0752 -0.04512,0.160058 -0.01504,0.08486 -0.01504,0.176172 v 0.21377 q 0,0.0956 0.01504,0.183691 0.01611,0.08809 0.04727,0.163281 0.03115,0.07627 0.07627,0.140723 0.04619,0.06338 0.107422,0.108496 0.06338,0.04834 0.143945,0.0752 0.08164,0.02578 0.178321,0.02578 0.118164,0 0.214843,-0.03545 0.09775,-0.03652 0.168653,-0.103125 0.06982,-0.06553 0.112793,-0.15791 0.04297,-0.09346 0.05371,-0.207324 z"
       id="path5542" />
    <path
       d="m 61.853027,24.5 h 0.251368 l 0.48125,-1.564063 h -0.281446 l -0.299707,1.081739 -0.02685,0.09453 -0.02578,-0.09346 -0.297559,-1.082813 h -0.28252 z"
       id="path5544" />
  </g>
  <g
     aria-label="GT"
     id="text2629"
     class="step"
     style="font-weight:500;font-size:2.2px;font-family:'Roboto Mono', 'Liberation Mono', monospace;fill:#cfd3dc"
     transform="translate(-2.1166667)">
    <path
       d="m 71.208496,24.307715 -0.0021,-0.59834 h -0.53711 v 0.200879 h 0.283594 l -0.0011,0.312598 q -0.01719,0.02256 -0.04619,0.03975 -0.029,0.01611 -0.06338,0.02686 -0.03545,0.01074 -0.07412,0.01611 -0.03867,0.0043 -0.07627,0.0043 -0.06338,-0.0011 -0.113867,-0.02148 -0.04941,-0.02041 -0.08701,-0.05801 -0.03008,-0.029 -0.05264,-0.0666 -0.02148,-0.0376 -0.0376,-0.08057 -0.02041,-0.05693 -0.03115,-0.123535 -0.0097,-0.0666 -0.0097,-0.140723 v -0.201953 q 0,-0.06338 0.0075,-0.123535 0.0075,-0.06016 0.02363,-0.112793 0.01826,-0.06016 0.04619,-0.108496 0.029,-0.04941 0.06768,-0.08272 0.0333,-0.029 0.07519,-0.04512 0.04189,-0.01719 0.09131,-0.01719 0.06768,0 0.11709,0.01934 0.05049,0.01934 0.08486,0.05586 0.03223,0.03438 0.05156,0.08486 0.01934,0.04941 0.029,0.110645 h 0.253516 q -0.01074,-0.111719 -0.05049,-0.200879 -0.03975,-0.09023 -0.108496,-0.153614 -0.06768,-0.0623 -0.163282,-0.0956 -0.0956,-0.0333 -0.21914,-0.0333 -0.09131,0 -0.169727,0.02578 -0.07734,0.02578 -0.141797,0.07305 -0.05908,0.04512 -0.105273,0.106348 -0.04619,0.06123 -0.07949,0.135351 -0.03437,0.07842 -0.05264,0.170801 -0.01719,0.09238 -0.01826,0.19336 v 0.199804 q 0.0011,0.1042 0.02041,0.198731 0.01934,0.09453 0.05693,0.172949 0.0333,0.0752 0.08272,0.136426 0.05049,0.06123 0.113867,0.104199 0.06338,0.04297 0.141797,0.0666 0.07842,0.02363 0.168652,0.02363 0.09775,0 0.183692,-0.02041 0.08594,-0.01934 0.158984,-0.05478 0.05801,-0.02793 0.104199,-0.06338 0.04619,-0.03652 0.07842,-0.07519 z"
       id="path5547" />
    <path
       d="m 72.589941,23.149707 v -0.21377 h -1.218164 v 0.21377 h 0.479102 V 24.5 h 0.256738 v -1.350293 z"
       id="path5549" />
  </g>
  <path
     id="line2631"
     class="divider"
     style="stroke:#434750;stroke-width:0.25;stroke-linecap:round"
     d="M 2,25.5 H 79.279999" />
  <!-- Left Column: Steps 1-8 -->
  <!-- Right Column: Steps 9-16 -->
  <!-- Vertical divider between columns -->
  <path
     id="line2669"
     class="divider"
     style="stroke:#434750;stroke-width:0.25;stroke-linecap:round"
     d="M 40,25.5 V 109" />
  <path
     id="line2671"
     class="divider"
     style="stroke:#434750;stroke-width:0.25;stroke-linecap:round"
     d="M 2,109 H 79.279999" />
  <!-- I/O labels -->
  <g
     aria-label="CLK"
     id="text2673"
     class="jack"
     style="font-size:2.5px;font-family:Roboto, 'Liberation Sans', sans-serif;text-anchor:middle;fill:#ffffff"
     transform="translate(0,-2.6458334)">
    <path
       d="m 10.535156,112.44482 q -0.285644,0 -0.444336,0.18433 -0.1586911,0.18311 -0.1586911,0.50293 0,0.31616 0.1647951,0.50903 0.166015,0.19165 0.447998,0.19165 0.361328,0 0.543213,-0.35766 l 0.190429,0.0952 q -0.106201,0.22217 -0.299072,0.33814 -0.19165,0.11596 -0.445556,0.11596 -0.26001,0 -0.45044,-0.10742 -0.1892089,-0.10864 -0.2893065,-0.30884 -0.098877,-0.20141 -0.098877,-0.47607 0,-0.41138 0.222168,-0.64453 0.2221675,-0.23316 0.6152345,-0.23316 0.274658,0 0.458984,0.10743 0.184326,0.10742 0.270996,0.3186 l -0.220947,0.0732 q -0.05981,-0.15014 -0.192871,-0.22949 -0.131836,-0.0793 -0.313721,-0.0793 z"
       id="path5425"
       style="fill:#ffffff" />
    <path
       d="m 11.578857,114 v -1.71997 h 0.233155 v 1.52954 h 0.86914 V 114 Z"
       id="path5427"
       style="fill:#ffffff" />
    <path
       d="m 14.114258,114 -0.687256,-0.83008 -0.224609,0.1709 V 114 h -0.233155 v -1.71997 h 0.233155 v 0.86182 l 0.828857,-0.86182 h 0.274658 L 13.573486,113.0271 14.403564,114 Z"
       id="path5429"
       style="fill:#ffffff" />
  </g>
  <g
     aria-label="RST"
     id="text2675"
     class="jack"
     style="font-size:2.5px;font-family:Roboto, 'Liberation Sans', sans-serif;text-anchor:middle;fill:#ffffff"
     transform="translate(0,-2.6458334)">
    <path
       d="m 24.920898,114 -0.446777,-0.71411 H 23.938232 V 114 h -0.233154 v -1.71997 h 0.809326 q 0.290528,0 0.447998,0.13061 0.158692,0.1294 0.158692,0.36133 0,0.19165 -0.112305,0.32227 -0.111084,0.13061 -0.307617,0.16479 L 25.189453,114 Z m -0.03418,-1.22559 q 0,-0.15014 -0.102539,-0.22827 -0.101319,-0.0793 -0.292969,-0.0793 h -0.552979 v 0.63476 h 0.562745 q 0.184326,0 0.284423,-0.0855 0.101319,-0.0867 0.101319,-0.2417 z"
       id="path5432"
       style="fill:#ffffff" />
    <path
       d="m 26.858154,113.52515 q 0,0.23803 -0.186767,0.36865 -0.185547,0.13061 -0.523682,0.13061 -0.628662,0 -0.72876,-0.43701 l 0.22583,-0.0452 q 0.03906,0.15503 0.166016,0.22827 0.126953,0.072 0.345459,0.072 0.22583,0 0.3479,-0.0769 0.123291,-0.0781 0.123291,-0.22828 0,-0.0842 -0.03906,-0.13672 -0.03784,-0.0525 -0.107422,-0.0867 -0.06958,-0.0342 -0.166016,-0.0574 -0.09643,-0.0232 -0.213623,-0.05 -0.203857,-0.0452 -0.310058,-0.0903 -0.104981,-0.0452 -0.166016,-0.1001 -0.06103,-0.0562 -0.09399,-0.13061 -0.03174,-0.0745 -0.03174,-0.1709 0,-0.22095 0.168457,-0.34058 0.169677,-0.11963 0.484619,-0.11963 0.292969,0 0.447998,0.0903 0.155029,0.0891 0.217285,0.30517 l -0.229492,0.0403 q -0.03784,-0.13672 -0.144043,-0.19776 -0.106201,-0.0623 -0.29419,-0.0623 -0.206298,0 -0.314941,0.0684 -0.108643,0.0683 -0.108643,0.20385 0,0.0794 0.0415,0.13184 0.04272,0.0513 0.122071,0.0879 0.07935,0.0354 0.316162,0.0879 0.07935,0.0183 0.157471,0.0378 0.07935,0.0183 0.151367,0.0452 0.07202,0.0256 0.134277,0.061 0.06348,0.0354 0.109863,0.0867 0.04639,0.0513 0.07202,0.12085 0.02685,0.0696 0.02685,0.16358 z"
       id="path5434"
       style="fill:#ffffff" />
    <path
       d="M 27.851807,112.47046 V 114 h -0.231934 v -1.52954 h -0.59082 v -0.19043 h 1.413574 v 0.19043 z"
       id="path5436"
       style="fill:#ffffff" />
  </g>
  <g
     aria-label="CV"
     id="text2677"
     class="jack"
     style="font-size:2.5px;font-family:Roboto, 'Liberation Sans', sans-serif;text-anchor:middle;fill:#ffffff"
     transform="translate(0,-2.6458334)">
    <path
       d="m 54.230347,112.44482 q -0.285645,0 -0.444336,0.18433 -0.158692,0.18311 -0.158692,0.50293 0,0.31616 0.164795,0.50903 0.166016,0.19165 0.447998,0.19165 0.361328,0 0.543213,-0.35766 l 0.19043,0.0952 q -0.106201,0.22217 -0.299072,0.33814 -0.191651,0.11596 -0.445557,0.11596 -0.26001,0 -0.450439,-0.10742 -0.189209,-0.10864 -0.289307,-0.30884 -0.09888,-0.20141 -0.09888,-0.47607 0,-0.41138 0.222168,-0.64453 0.222168,-0.23316 0.615234,-0.23316 0.274658,0 0.458985,0.10743 0.184326,0.10742 0.270996,0.3186 l -0.220948,0.0732 q -0.05981,-0.15014 -0.192871,-0.22949 -0.131836,-0.0793 -0.31372,-0.0793 z"
       id="path5439"
       style="fill:#ffffff" />
    <path
       d="m 56.02356,114 h -0.2417 l -0.701904,-1.71997 h 0.245361 l 0.476075,1.21094 0.102539,0.30395 0.102539,-0.30395 0.473633,-1.21094 h 0.245361 z"
       id="path5441"
       style="fill:#ffffff" />
  </g>
  <g
     aria-label="GATE"
     id="text2679"
     class="jack"
     style="font-size:2.5px;font-family:Roboto, 'Liberation Sans', sans-serif;text-anchor:middle;fill:#ffffff"
     transform="translate(0,-2.6458334)">
    <path
       d="m 65.815186,113.13208 q 0,-0.4187 0.224609,-0.64819 0.224609,-0.2295 0.631103,-0.2295 0.285645,0 0.463868,0.0964 0.178222,0.0964 0.274658,0.30884 l -0.222168,0.0659 q -0.07324,-0.14649 -0.202637,-0.21363 -0.128174,-0.0671 -0.319824,-0.0671 -0.297852,0 -0.455322,0.18067 -0.157471,0.17944 -0.157471,0.50659 0,0.32593 0.167236,0.51514 0.167237,0.18799 0.462647,0.18799 0.168457,0 0.31372,-0.0513 0.146485,-0.0513 0.236817,-0.13916 v -0.31006 h -0.513916 v -0.19532 h 0.72876 v 0.59327 q -0.136719,0.13916 -0.335694,0.21606 -0.197754,0.0757 -0.429687,0.0757 -0.269776,0 -0.465088,-0.10742 -0.195313,-0.10742 -0.299072,-0.30884 -0.102539,-0.20263 -0.102539,-0.47607 z"
       id="path5471"
       style="fill:#ffffff" />
    <path
       d="m 69.058594,114 -0.196533,-0.50293 H 68.078369 L 67.880615,114 h -0.241699 l 0.701904,-1.71997 h 0.264893 L 69.296631,114 Z m -0.588379,-1.54419 -0.01099,0.0342 q -0.03052,0.10132 -0.09033,0.26001 l -0.219726,0.56519 h 0.64331 l -0.220947,-0.56763 q -0.03418,-0.0842 -0.06836,-0.19043 z"
       id="path5473"
       style="fill:#ffffff" />
    <path
       d="M 69.994873,112.47046 V 114 h -0.231934 v -1.52954 h -0.59082 v -0.19043 h 1.413574 v 0.19043 z"
       id="path5475"
       style="fill:#ffffff" />
    <path
       d="m 70.848145,114 v -1.71997 h 1.304931 v 0.19043 h -1.071777 v 0.55176 h 0.998535 v 0.18799 h -0.998535 v 0.59936 h 1.121826 V 114 Z"
       id="path5477"
       style="fill:#ffffff" />
  </g>
  <g
     aria-label="AMBUSHED CAT DSP"
     id="text261"
     class="subtitle"
     style="font-size:2.4px;font-family:Roboto, 'Liberation Sans', sans-serif;text-anchor:middle;fill:#a7acb7"
     transform="translate(10.503207,-0.1940912)">
    <path
       d="m 19.623163,127 -0.188672,-0.48281 H 18.682148 L 18.492304,127 h -0.232032 l 0.673829,-1.65117 h 0.254297 L 19.851679,127 Z m -0.564844,-1.48242 -0.01055,0.0328 q -0.0293,0.0973 -0.08672,0.24961 l -0.210938,0.54258 h 0.617578 l -0.212109,-0.54492 q -0.03281,-0.0809 -0.06562,-0.18282 z"
       id="path438" />
    <path
       d="m 21.457148,127 v -1.10156 q 0,-0.18282 0.01055,-0.35157 -0.05742,0.20977 -0.103125,0.32813 L 20.938007,127 h -0.157031 l -0.432422,-1.125 -0.06563,-0.19922 -0.03867,-0.12891 0.0035,0.13008 0.0047,0.22149 V 127 h -0.199219 v -1.65117 h 0.294141 l 0.439453,1.14492 q 0.02344,0.0691 0.04453,0.14883 0.02227,0.0785 0.0293,0.11367 0.0094,-0.0469 0.03867,-0.1418 0.03047,-0.0961 0.04102,-0.1207 l 0.43125,-1.14492 H 21.65871 V 127 Z"
       id="path440" />
    <path
       d="m 23.329804,126.53477 q 0,0.22031 -0.160547,0.34335 Q 23.00871,127 22.722773,127 H 22.05246 v -1.65117 h 0.6 q 0.58125,0 0.58125,0.40078 0,0.14648 -0.08203,0.24609 -0.08203,0.0996 -0.232031,0.1336 0.196875,0.0234 0.303515,0.13242 0.106641,0.10781 0.106641,0.27305 z m -0.321094,-0.75821 q 0,-0.13359 -0.09141,-0.19101 -0.09141,-0.0574 -0.264844,-0.0574 h -0.376172 v 0.52266 h 0.376172 q 0.179297,0 0.267188,-0.0668 0.08906,-0.068 0.08906,-0.20742 z m 0.09492,0.74063 q 0,-0.2918 -0.410156,-0.2918 h -0.417188 v 0.59531 h 0.434766 q 0.205078,0 0.298828,-0.0762 0.09375,-0.0762 0.09375,-0.22734 z"
       id="path442" />
    <path
       d="m 24.313007,127.02344 q -0.202734,0 -0.353906,-0.0738 -0.151172,-0.0738 -0.234375,-0.21445 -0.0832,-0.14063 -0.0832,-0.33516 v -1.05117 h 0.223828 v 1.03242 q 0,0.22617 0.114843,0.34336 0.114844,0.11719 0.331641,0.11719 0.222656,0 0.345703,-0.12071 0.124219,-0.12187 0.124219,-0.35507 v -1.01719 h 0.222656 v 1.03008 q 0,0.20039 -0.08555,0.3457 -0.08438,0.14531 -0.240234,0.22266 -0.154687,0.0762 -0.365625,0.0762 z"
       id="path444" />
    <path
       d="m 26.680195,126.54414 q 0,0.22852 -0.179297,0.35391 -0.178125,0.12539 -0.502734,0.12539 -0.603516,0 -0.69961,-0.41953 l 0.216797,-0.0434 q 0.0375,0.14882 0.159375,0.21914 0.121875,0.0691 0.331641,0.0691 0.216797,0 0.333984,-0.0738 0.118359,-0.075 0.118359,-0.21914 0,-0.0809 -0.0375,-0.13125 -0.03633,-0.0504 -0.103125,-0.0832 -0.0668,-0.0328 -0.159375,-0.0551 -0.09258,-0.0223 -0.205078,-0.0481 -0.195703,-0.0434 -0.297656,-0.0867 -0.100781,-0.0434 -0.159375,-0.0961 -0.05859,-0.0539 -0.09023,-0.12539 -0.03047,-0.0715 -0.03047,-0.16406 0,-0.21211 0.161719,-0.32696 0.16289,-0.11484 0.465234,-0.11484 0.28125,0 0.430078,0.0867 0.148828,0.0855 0.208594,0.29297 l -0.220313,0.0387 q -0.03633,-0.13125 -0.138281,-0.18985 -0.101953,-0.0598 -0.282422,-0.0598 -0.198047,0 -0.302343,0.0656 -0.104297,0.0656 -0.104297,0.19571 0,0.0762 0.03984,0.12656 0.04102,0.0492 0.117188,0.0844 0.07617,0.034 0.303516,0.0844 0.07617,0.0176 0.151171,0.0363 0.07617,0.0176 0.145313,0.0434 0.06914,0.0246 0.128906,0.0586 0.06094,0.034 0.105469,0.0832 0.04453,0.0492 0.06914,0.11602 0.02578,0.0668 0.02578,0.15703 z"
       id="path446" />
    <path
       d="m 28.104023,127 v -0.76523 H 27.211054 V 127 h -0.223828 v -1.65117 h 0.223828 v 0.69844 h 0.892969 v -0.69844 h 0.223828 V 127 Z"
       id="path448" />
    <path
       d="m 28.720429,127 v -1.65117 h 1.252735 v 0.18281 h -1.028907 v 0.52969 h 0.958594 v 0.18047 h -0.958594 v 0.57539 H 30.02121 V 127 Z"
       id="path450" />
    <path
       d="m 31.742695,126.15742 q 0,0.25547 -0.09961,0.44766 -0.09961,0.19101 -0.282422,0.29297 Q 31.177851,127 30.938789,127 h -0.617578 v -1.65117 h 0.546093 q 0.419532,0 0.646875,0.21094 0.228516,0.20976 0.228516,0.59765 z m -0.225,0 q 0,-0.30703 -0.16875,-0.46758 -0.167578,-0.16172 -0.486328,-0.16172 h -0.317578 v 1.29258 h 0.367968 q 0.181641,0 0.31875,-0.0797 0.138282,-0.0797 0.21211,-0.22969 0.07383,-0.15 0.07383,-0.35391 z"
       id="path452" />
    <path
       d="m 33.45246,125.50703 q -0.274219,0 -0.426562,0.17695 -0.152344,0.17579 -0.152344,0.48282 0,0.30351 0.158203,0.48867 0.159375,0.18398 0.430078,0.18398 0.346875,0 0.521485,-0.34336 l 0.182812,0.0914 q -0.101953,0.21328 -0.287109,0.32461 -0.183985,0.11133 -0.427735,0.11133 -0.249609,0 -0.432422,-0.10313 -0.18164,-0.10429 -0.277734,-0.29648 -0.09492,-0.19336 -0.09492,-0.45703 0,-0.39493 0.213281,-0.61875 0.213282,-0.22383 0.590625,-0.22383 0.263672,0 0.440625,0.10312 0.176954,0.10313 0.260157,0.30586 l -0.21211,0.0703 q -0.05742,-0.14415 -0.185156,-0.22032 -0.126562,-0.0762 -0.301172,-0.0762 z"
       id="path454" />
    <path
       d="m 35.625116,127 -0.188672,-0.48281 H 34.684101 L 34.494257,127 h -0.232031 l 0.673828,-1.65117 h 0.254297 L 35.853632,127 Z m -0.564843,-1.48242 -0.01055,0.0328 q -0.0293,0.0973 -0.08672,0.24961 l -0.210938,0.54258 h 0.617579 l -0.21211,-0.54492 q -0.03281,-0.0809 -0.06563,-0.18282 z"
       id="path456" />
    <path
       d="M 36.523945,125.53164 V 127 h -0.222656 v -1.46836 h -0.567188 v -0.18281 h 1.357032 v 0.18281 z"
       id="path458" />
    <path
       d="m 39.388007,126.15742 q 0,0.25547 -0.09961,0.44766 -0.09961,0.19101 -0.282422,0.29297 Q 38.823164,127 38.584101,127 h -0.617578 v -1.65117 h 0.546094 q 0.419531,0 0.646875,0.21094 0.228515,0.20976 0.228515,0.59765 z m -0.225,0 q 0,-0.30703 -0.16875,-0.46758 -0.167578,-0.16172 -0.486328,-0.16172 h -0.317578 v 1.29258 h 0.367969 q 0.18164,0 0.31875,-0.0797 0.138281,-0.0797 0.212109,-0.22969 0.07383,-0.15 0.07383,-0.35391 z"
       id="path460" />
    <path
       d="m 40.993477,126.54414 q 0,0.22852 -0.179297,0.35391 -0.178125,0.12539 -0.502734,0.12539 -0.603516,0 -0.69961,-0.41953 l 0.216797,-0.0434 q 0.0375,0.14882 0.159375,0.21914 0.121875,0.0691 0.331641,0.0691 0.216797,0 0.333984,-0.0738 0.118359,-0.075 0.118359,-0.21914 0,-0.0809 -0.0375,-0.13125 -0.03633,-0.0504 -0.103125,-0.0832 -0.0668,-0.0328 -0.159375,-0.0551 -0.09258,-0.0223 -0.205078,-0.0481 -0.195703,-0.0434 -0.297656,-0.0867 -0.100781,-0.0434 -0.159375,-0.0961 -0.05859,-0.0539 -0.09023,-0.12539 -0.03047,-0.0715 -0.03047,-0.16406 0,-0.21211 0.161719,-0.32696 0.16289,-0.11484 0.465234,-0.11484 0.28125,0 0.430078,0.0867 0.148828,0.0855 0.208594,0.29297 l -0.220313,0.0387 q -0.03633,-0.13125 -0.138281,-0.18985 -0.101953,-0.0598 -0.282422,-0.0598 -0.198047,0 -0.302343,0.0656 -0.104297,0.0656 -0.104297,0.19571 0,0.0762 0.03984,0.12656 0.04102,0.0492 0.117188,0.0844 0.07617,0.034 0.303516,0.0844 0.07617,0.0176 0.151171,0.0363 0.07617,0.0176 0.145313,0.0434 0.06914,0.0246 0.128906,0.0586 0.06094,0.034 0.105469,0.0832 0.04453,0.0492 0.06914,0.11602 0.02578,0.0668 0.02578,0.15703 z"
       id="path462" />
    <path
       d="m 42.577851,125.8457 q 0,0.23438 -0.153516,0.37266 -0.152343,0.13828 -0.414843,0.13828 H 41.524335 V 127 h -0.223828 v -1.65117 h 0.694922 q 0.277735,0 0.430078,0.13008 0.152344,0.13007 0.152344,0.36679 z m -0.225,0.002 q 0,-0.31993 -0.384375,-0.31993 h -0.444141 v 0.65157 h 0.453516 q 0.375,0 0.375,-0.33164 z"
       id="path464" />
  </g>
</svg>
