<?xml version="1.0" encoding="UTF-8" standalone="no"?>
<svg
   width="30.48mm"
   height="128.5mm"
   viewBox="0 0 30.48 128.5"
   version="1.1"
   id="svg3304"
   sodipodi:docname="NergalAmp.svg"
   inkscape:version="1.2.2 (732a01da63, 2022-12-09)"
   xmlns:inkscape="http://www.inkscape.org/namespaces/inkscape"
   xmlns:sodipodi="http://sodipodi.sourceforge.net/DTD/sodipodi-0.dtd"
   xmlns:xlink="http://www.w3.org/1999/xlink"
   xmlns="http://www.w3.org/2000/svg"
   xmlns:svg="http://www.w3.org/2000/svg">
  <sodipodi:namedview
     id="namedview3306"
     pagecolor="#505050"
     bordercolor="#eeeeee"
     borderopacity="1"
     inkscape:showpageshadow="0"
     inkscape:pageopacity="0"
     inkscape:pagecheckerboard="0"
     inkscape:deskcolor="#505050"
     inkscape:document-units="mm"
     showgrid="false"
     inkscape:zoom="4.2292154"
     inkscape:cx="121.53555"
     inkscape:cy="205.47546"
     inkscape:window-width="1920"
     inkscape:window-height="1009"
     inkscape:window-x="5112"
     inkscape:window-y="229"
     inkscape:window-maximized="1"
     inkscape:current-layer="g3276" />
  <defs
     id="defs3268">
    <linearGradient
       id="panelGradient"
       x1="0"
       x2="0"
       y1="0"
       y2="1">
      <stop
         offset="0"
         stop-color="#1f1b2d"
         id="stop3261" />
      <stop
         offset="1"
         stop-color="#09070f"
         id="stop3263" />
    </linearGradient>
    <style
       type="text/css"
       id="style3266"><![CDATA[
      .panel-text { font-family: 'Futura', 'Helvetica', 'Arial', sans-serif; fill: #f5e6ff; letter-spacing: 0.6px; }
      .label { font-size: 3.2px; text-anchor: middle; }
      .title { font-size: 5.4px; text-anchor: middle; font-weight: bold; }
      .divider { stroke: #5c4d8a; stroke-width: 0.35; opacity: 0.6; }
      .indicator { fill: #3c2a64; stroke: #8d7bd1; stroke-width: 0.2; }
    ]]></style>
    <linearGradient
       inkscape:collect="always"
       xlink:href="#linearGradient3302"
       id="linearGradient3304"
       x1="0.086062297"
       y1="190.02573"
       x2="115.26184"
       y2="190.02573"
       gradientUnits="userSpaceOnUse"
       gradientTransform="matrix(0.26458333,0,0,0.33681606,-15.172157,-10.211888)" />
    <linearGradient
       id="linearGradient3302"
       inkscape:swatch="solid">
      <stop
         style="stop-color:#000000;stop-opacity:1;"
         offset="0"
         id="stop3300" />
    </linearGradient>
  </defs>
  <g
     transform="translate(15.24,10.645834)"
     id="g3276">
    <g
       aria-label="NERGAL"
       id="text3272"
       class="panel-text title"
       style="font-weight:bold;font-size:5.4px;font-family:Futura, Helvetica, Arial, sans-serif;letter-spacing:0.6px;text-anchor:middle;fill:#f5e6ff">
      <path
         d="m -12.499073,0 v -3.8654298 h 0.759375 l 1.582032,2.5813477 v -2.5813477 h 0.7250974 V 0 h -0.7831054 l -1.558301,-2.5207032 V 0 Z"
         id="path3314" />
      <path
         d="m -8.0072755,0 v -3.8654298 h 2.8661134 v 0.6539063 h -2.0856446 v 0.8569336 h 1.940625 v 0.6512696 h -1.940625 v 1.05205076 H -5.067334 V 0 Z"
         id="path3316" />
      <path
         d="m -3.8028813,0 v -3.8654298 h 1.6426758 q 0.6196289,0 0.8991211,0.1054688 0.28212893,0.102832 0.45087893,0.3691406 0.16875,0.2663086 0.16875,0.6090821 0,0.4350586 -0.25576172,0.7198242 -0.25576171,0.2821289 -0.76464841,0.355957 0.253125,0.1476563 0.4166015,0.3243165 0.1661133,0.1766601 0.44560551,0.62753902 L -0.32768593,0 H -1.2610844 l -0.5642578,-0.8411133 q -0.3005859,-0.4508789 -0.4113281,-0.5668945 -0.1107422,-0.1186524 -0.234668,-0.1608399 -0.1239258,-0.044824 -0.3928711,-0.044824 H -3.0224125 V 0 Z m 0.7804688,-2.2306641 h 0.5774414 q 0.5616211,0 0.7013672,-0.047461 0.1397461,-0.047461 0.2188476,-0.1634766 0.079102,-0.1160156 0.079102,-0.2900391 0,-0.1951172 -0.1054688,-0.3137695 -0.102832,-0.1212891 -0.2926757,-0.1529297 -0.094922,-0.013184 -0.5695313,-0.013184 h -0.609082 z"
         id="path3318" />
      <path
         d="M 2.4924314,-1.4211914 V -2.072461 H 4.174658 v 1.5398438 q -0.2452148,0.23730469 -0.7119141,0.41923829 -0.4640625,0.17929688 -0.9413086,0.17929688 -0.6064453,0 -1.0573242,-0.253125 Q 1.0132322,-0.44296876 0.78647436,-0.91494142 0.55971654,-1.3895508 0.55971654,-1.9458985 q 0,-0.6038086 0.253125,-1.0731445 0.25312496,-0.469336 0.74091796,-0.7198243 0.3717774,-0.1924804 0.9254883,-0.1924804 0.7198243,0 1.1232422,0.3032226 0.4060547,0.300586 0.5220704,0.8332032 L 3.349365,-2.6499024 Q 3.2676267,-2.934668 3.0408689,-3.0981446 2.8167478,-3.2642579 2.4792478,-3.2642579 q -0.5115234,0 -0.8147461,0.3243164 -0.3005859,0.3243165 -0.3005859,0.9624024 0,0.6881836 0.3058594,1.03359377 0.3058593,0.34277344 0.8015625,0.34277344 0.2452148,0 0.4904297,-0.0949219 0.2478515,-0.0975586 0.4245117,-0.23466798 V -1.4211914 Z"
         id="path3320" />
      <path
         d="M 8.9802244,0 H 8.131201 l -0.3375,-0.87802736 H 6.2485837 L 5.9295408,0 H 5.1016111 l 1.5055664,-3.8654298 h 0.825293 z m -1.4370117,-1.5292969 -0.5326172,-1.434375 -0.5220703,1.434375 z"
         id="path3322" />
      <path
         d="m 10.015284,0 v -3.8337891 h 0.780469 v 3.18251956 h 1.940625 V 0 Z"
         id="path3324" />
    </g>
    <g
       aria-label="AMP"
       id="text3274"
       class="panel-text title"
       style="font-weight:bold;font-size:5.4px;font-family:Futura, Helvetica, Arial, sans-serif;letter-spacing:0.6px;text-anchor:middle;fill:#f5e6ff">
      <path
         d="M -2.7212403,6 H -3.5702637 L -3.9077638,5.1219726 H -5.452881 L -5.7719239,6 h -0.8279297 l 1.5055664,-3.8654298 h 0.825293 z M -4.158252,4.4707031 -4.6908692,3.0363281 -5.2129396,4.4707031 Z"
         id="path3327" />
      <path
         d="M -1.7178222,6 V 2.1345702 h 1.16806643 L 0.15161143,4.771289 0.84506847,2.1345702 H 2.0157716 V 6 H 1.2906739 V 2.9572265 L 0.52338878,6 H -0.22807608 L -0.99272453,2.9572265 V 6 Z"
         id="path3329" />
      <path
         d="M 3.3909674,6 V 2.1345702 h 1.2524415 q 0.711914,0 0.928125,0.058008 0.3322266,0.087012 0.5563476,0.3796875 0.2241211,0.290039 0.2241211,0.7514648 0,0.3559571 -0.1291992,0.5985352 Q 6.0936042,4.1648437 5.8932136,4.3045898 5.6954597,4.4416992 5.4897956,4.4865234 5.2103034,4.5418945 4.6803229,4.5418945 H 4.1714362 V 6 Z M 4.1714362,2.7884765 v 1.096875 h 0.4271484 q 0.4614258,0 0.6169922,-0.060644 Q 5.3711433,3.7640635 5.458155,3.6348637 5.547803,3.5056645 5.547803,3.3342778 5.547803,3.1233403 5.4238772,2.9862309 5.2999518,2.849121 5.1101081,2.8148437 4.970362,2.7884765 4.548487,2.7884765 Z"
         id="path3331" />
    </g>
    <circle
       class="indicator"
       cx="9.6857548e-08"
       cy="10.229164"
       r="2.4000001"
       id="circle3302" />
    <rect
       width="30.473591"
       height="128.09999"
       fill="none"
       rx="0.74984229"
       ry="1.9937742"
       id="rect2506"
       x="-15.149386"
       y="-10.258151"
       style="display:inline;fill:none;fill-opacity:1;stroke:url(#linearGradient3304);stroke-width:1"
       sodipodi:insensitive="true" />
  </g>
</svg>
