<?xml version="1.0" encoding="UTF-8" standalone="no"?>
<svg
   width="30.48mm"
   height="128.5mm"
   viewBox="0 0 30.48 128.5"
   version="1.1"
   id="svg3304"
   sodipodi:docname="NergalAmp.svg"
   inkscape:version="1.2.2 (732a01da63, 2022-12-09)"
   xmlns:inkscape="http://www.inkscape.org/namespaces/inkscape"
   xmlns:sodipodi="http://sodipodi.sourceforge.net/DTD/sodipodi-0.dtd"
   xmlns:xlink="http://www.w3.org/1999/xlink"
   xmlns="http://www.w3.org/2000/svg"
   xmlns:svg="http://www.w3.org/2000/svg">
  <sodipodi:namedview
     id="namedview3306"
     pagecolor="#505050"
     bordercolor="#eeeeee"
     borderopacity="1"
     inkscape:showpageshadow="0"
     inkscape:pageopacity="0"
     inkscape:pagecheckerboard="0"
     inkscape:deskcolor="#505050"
     inkscape:document-units="mm"
     showgrid="false"
     inkscape:zoom="4.2292154"
     inkscape:cx="72.708522"
     inkscape:cy="470.7729"
     inkscape:window-width="2560"
     inkscape:window-height="1369"
     inkscape:window-x="2552"
     inkscape:window-y="212"
     inkscape:window-maximized="1"
     inkscape:current-layer="g3276" />
  <defs
     id="defs3268">
    <linearGradient
       id="panelGradient"
       x1="0"
       x2="0"
       y1="0"
       y2="1">
      <stop
         offset="0"
         stop-color="#1f1b2d"
         id="stop3261" />
      <stop
         offset="1"
         stop-color="#09070f"
         id="stop3263" />
    </linearGradient>
    <style
       type="text/css"
       id="style3266"><![CDATA[
      .panel-text { font-family: 'Futura', 'Helvetica', 'Arial', sans-serif; fill: #f5e6ff; letter-spacing: 0.6px; }
      .label { font-size: 3.2px; text-anchor: middle; }
      .title { font-size: 5.4px; text-anchor: middle; font-weight: bold; }
      .divider { stroke: #5c4d8a; stroke-width: 0.35; opacity: 0.6; }
      .indicator { fill: #3c2a64; stroke: #8d7bd1; stroke-width: 0.2; }
    ]]></style>
    <linearGradient
       inkscape:collect="always"
       xlink:href="#linearGradient3302"
       id="linearGradient3304"
       x1="0.086062297"
       y1="190.02573"
       x2="115.26184"
       y2="190.02573"
       gradientUnits="userSpaceOnUse"
       gradientTransform="matrix(0.26458333,0,0,0.33681606,-15.172157,-10.211888)" />
    <linearGradient
       id="linearGradient3302"
       inkscape:swatch="solid">
      <stop
         style="stop-color:#000000;stop-opacity:1;"
         offset="0"
         id="stop3300" />
    </linearGradient>
  </defs>
  <g
     transform="translate(15.24,10.645834)"
     id="g3276">
    <g
       aria-label="NERGAL"
       id="text3272"
       class="panel-text title"
       style="font-weight:bold;font-size:5.4px;font-family:Futura, Helvetica, Arial, sans-serif;letter-spacing:0.6px;text-anchor:middle;fill:#f5e6ff">
      <path
         d="m -12.499073,0 v -3.8654298 h 0.759375 l 1.582032,2.5813477 v -2.5813477 h 0.7250974 V 0 h -0.7831054 l -1.558301,-2.5207032 V 0 Z"
         id="path3314" />
      <path
         d="m -8.0072755,0 v -3.8654298 h 2.8661134 v 0.6539063 h -2.0856446 v 0.8569336 h 1.940625 v 0.6512696 h -1.940625 v 1.05205076 H -5.067334 V 0 Z"
         id="path3316" />
      <path
         d="m -3.8028813,0 v -3.8654298 h 1.6426758 q 0.6196289,0 0.8991211,0.1054688 0.28212893,0.102832 0.45087893,0.3691406 0.16875,0.2663086 0.16875,0.6090821 0,0.4350586 -0.25576172,0.7198242 -0.25576171,0.2821289 -0.76464841,0.355957 0.253125,0.1476563 0.4166015,0.3243165 0.1661133,0.1766601 0.44560551,0.62753902 L -0.32768593,0 H -1.2610844 l -0.5642578,-0.8411133 q -0.3005859,-0.4508789 -0.4113281,-0.5668945 -0.1107422,-0.1186524 -0.234668,-0.1608399 -0.1239258,-0.044824 -0.3928711,-0.044824 H -3.0224125 V 0 Z m 0.7804688,-2.2306641 h 0.5774414 q 0.5616211,0 0.7013672,-0.047461 0.1397461,-0.047461 0.2188476,-0.1634766 0.079102,-0.1160156 0.079102,-0.2900391 0,-0.1951172 -0.1054688,-0.3137695 -0.102832,-0.1212891 -0.2926757,-0.1529297 -0.094922,-0.013184 -0.5695313,-0.013184 h -0.609082 z"
         id="path3318" />
      <path
         d="M 2.4924314,-1.4211914 V -2.072461 H 4.174658 v 1.5398438 q -0.2452148,0.23730469 -0.7119141,0.41923829 -0.4640625,0.17929688 -0.9413086,0.17929688 -0.6064453,0 -1.0573242,-0.253125 Q 1.0132322,-0.44296876 0.78647436,-0.91494142 0.55971654,-1.3895508 0.55971654,-1.9458985 q 0,-0.6038086 0.253125,-1.0731445 0.25312496,-0.469336 0.74091796,-0.7198243 0.3717774,-0.1924804 0.9254883,-0.1924804 0.7198243,0 1.1232422,0.3032226 0.4060547,0.300586 0.5220704,0.8332032 L 3.349365,-2.6499024 Q 3.2676267,-2.934668 3.0408689,-3.0981446 2.8167478,-3.2642579 2.4792478,-3.2642579 q -0.5115234,0 -0.8147461,0.3243164 -0.3005859,0.3243165 -0.3005859,0.9624024 0,0.6881836 0.3058594,1.03359377 0.3058593,0.34277344 0.8015625,0.34277344 0.2452148,0 0.4904297,-0.0949219 0.2478515,-0.0975586 0.4245117,-0.23466798 V -1.4211914 Z"
         id="path3320" />
      <path
         d="M 8.9802244,0 H 8.131201 l -0.3375,-0.87802736 H 6.2485837 L 5.9295408,0 H 5.1016111 l 1.5055664,-3.8654298 h 0.825293 z m -1.4370117,-1.5292969 -0.5326172,-1.434375 -0.5220703,1.434375 z"
         id="path3322" />
      <path
         d="m 10.015284,0 v -3.8337891 h 0.780469 v 3.18251956 h 1.940625 V 0 Z"
         id="path3324" />
    </g>
    <g
       aria-label="AMP"
       id="text3274"
       class="panel-text title"
       style="font-weight:bold;font-size:5.4px;font-family:Futura, Helvetica, Arial, sans-serif;letter-spacing:0.6px;text-anchor:middle;fill:#f5e6ff">
      <path
         d="M -2.7212403,6 H -3.5702637 L -3.9077638,5.1219726 H -5.452881 L -5.7719239,6 h -0.8279297 l 1.5055664,-3.8654298 h 0.825293 z M -4.158252,4.4707031 -4.6908692,3.0363281 -5.2129396,4.4707031 Z"
         id="path3327" />
      <path
         d="M -1.7178222,6 V 2.1345702 h 1.16806643 L 0.15161143,4.771289 0.84506847,2.1345702 H 2.0157716 V 6 H 1.2906739 V 2.9572265 L 0.52338878,6 H -0.22807608 L -0.99272453,2.9572265 V 6 Z"
         id="path3329" />
      <path
         d="M 3.3909674,6 V 2.1345702 h 1.2524415 q 0.711914,0 0.928125,0.058008 0.3322266,0.087012 0.5563476,0.3796875 0.2241211,0.290039 0.2241211,0.7514648 0,0.3559571 -0.1291992,0.5985352 Q 6.0936042,4.1648437 5.8932136,4.3045898 5.6954597,4.4416992 5.4897956,4.4865234 5.2103034,4.5418945 4.6803229,4.5418945 H 4.1714362 V 6 Z M 4.1714362,2.7884765 v 1.096875 h 0.4271484 q 0.4614258,0 0.6169922,-0.060644 Q 5.3711433,3.7640635 5.458155,3.6348637 5.547803,3.5056645 5.547803,3.3342778 5.547803,3.1233403 5.4238772,2.9862309 5.2999518,2.849121 5.1101081,2.8148437 4.970362,2.7884765 4.548487,2.7884765 Z"
         id="path3331" />
    </g>
    <circle
       class="indicator"
       cx="9.6857548e-08"
       cy="10.229164"
       r="2.4000001"
       id="circle3302" />
    <rect
       width="30.473591"
       height="128.09999"
       fill="none"
       rx="0.74984229"
       ry="1.9937742"
       id="rect2506"
       x="-15.149386"
       y="-10.258151"
       style="display:inline;fill:none;fill-opacity:1;stroke:url(#linearGradient3304);stroke-width:1"
       sodipodi:insensitive="true" />
    <g
       aria-label="AMBUSHED CAT DSP"
       id="text261"
       class="subtitle"
       style="font-size:2.4px;font-family:Roboto, 'Liberation Sans', sans-serif;text-anchor:middle;fill:#a7acb7"
       transform="translate(-30.519334,-14.617487)">
      <path
         d="m 19.623163,127 -0.188672,-0.48281 H 18.682148 L 18.492304,127 h -0.232032 l 0.673829,-1.65117 h 0.254297 L 19.851679,127 Z m -0.564844,-1.48242 -0.01055,0.0328 q -0.0293,0.0973 -0.08672,0.24961 l -0.210938,0.54258 h 0.617578 l -0.212109,-0.54492 q -0.03281,-0.0809 -0.06562,-0.18282 z"
         id="path438" />
      <path
         d="m 21.457148,127 v -1.10156 q 0,-0.18282 0.01055,-0.35157 -0.05742,0.20977 -0.103125,0.32813 L 20.938007,127 h -0.157031 l -0.432422,-1.125 -0.06563,-0.19922 -0.03867,-0.12891 0.0035,0.13008 0.0047,0.22149 V 127 h -0.199219 v -1.65117 h 0.294141 l 0.439453,1.14492 q 0.02344,0.0691 0.04453,0.14883 0.02227,0.0785 0.0293,0.11367 0.0094,-0.0469 0.03867,-0.1418 0.03047,-0.0961 0.04102,-0.1207 l 0.43125,-1.14492 H 21.65871 V 127 Z"
         id="path440" />
      <path
         d="m 23.329804,126.53477 q 0,0.22031 -0.160547,0.34335 Q 23.00871,127 22.722773,127 H 22.05246 v -1.65117 h 0.6 q 0.58125,0 0.58125,0.40078 0,0.14648 -0.08203,0.24609 -0.08203,0.0996 -0.232031,0.1336 0.196875,0.0234 0.303515,0.13242 0.106641,0.10781 0.106641,0.27305 z m -0.321094,-0.75821 q 0,-0.13359 -0.09141,-0.19101 -0.09141,-0.0574 -0.264844,-0.0574 h -0.376172 v 0.52266 h 0.376172 q 0.179297,0 0.267188,-0.0668 0.08906,-0.068 0.08906,-0.20742 z m 0.09492,0.74063 q 0,-0.2918 -0.410156,-0.2918 h -0.417188 v 0.59531 h 0.434766 q 0.205078,0 0.298828,-0.0762 0.09375,-0.0762 0.09375,-0.22734 z"
         id="path442" />
      <path
         d="m 24.313007,127.02344 q -0.202734,0 -0.353906,-0.0738 -0.151172,-0.0738 -0.234375,-0.21445 -0.0832,-0.14063 -0.0832,-0.33516 v -1.05117 h 0.223828 v 1.03242 q 0,0.22617 0.114843,0.34336 0.114844,0.11719 0.331641,0.11719 0.222656,0 0.345703,-0.12071 0.124219,-0.12187 0.124219,-0.35507 v -1.01719 h 0.222656 v 1.03008 q 0,0.20039 -0.08555,0.3457 -0.08438,0.14531 -0.240234,0.22266 -0.154687,0.0762 -0.365625,0.0762 z"
         id="path444" />
      <path
         d="m 26.680195,126.54414 q 0,0.22852 -0.179297,0.35391 -0.178125,0.12539 -0.502734,0.12539 -0.603516,0 -0.69961,-0.41953 l 0.216797,-0.0434 q 0.0375,0.14882 0.159375,0.21914 0.121875,0.0691 0.331641,0.0691 0.216797,0 0.333984,-0.0738 0.118359,-0.075 0.118359,-0.21914 0,-0.0809 -0.0375,-0.13125 -0.03633,-0.0504 -0.103125,-0.0832 -0.0668,-0.0328 -0.159375,-0.0551 -0.09258,-0.0223 -0.205078,-0.0481 -0.195703,-0.0434 -0.297656,-0.0867 -0.100781,-0.0434 -0.159375,-0.0961 -0.05859,-0.0539 -0.09023,-0.12539 -0.03047,-0.0715 -0.03047,-0.16406 0,-0.21211 0.161719,-0.32696 0.16289,-0.11484 0.465234,-0.11484 0.28125,0 0.430078,0.0867 0.148828,0.0855 0.208594,0.29297 l -0.220313,0.0387 q -0.03633,-0.13125 -0.138281,-0.18985 -0.101953,-0.0598 -0.282422,-0.0598 -0.198047,0 -0.302343,0.0656 -0.104297,0.0656 -0.104297,0.19571 0,0.0762 0.03984,0.12656 0.04102,0.0492 0.117188,0.0844 0.07617,0.034 0.303516,0.0844 0.07617,0.0176 0.151171,0.0363 0.07617,0.0176 0.145313,0.0434 0.06914,0.0246 0.128906,0.0586 0.06094,0.034 0.105469,0.0832 0.04453,0.0492 0.06914,0.11602 0.02578,0.0668 0.02578,0.15703 z"
         id="path446" />
      <path
         d="m 28.104023,127 v -0.76523 H 27.211054 V 127 h -0.223828 v -1.65117 h 0.223828 v 0.69844 h 0.892969 v -0.69844 h 0.223828 V 127 Z"
         id="path448" />
      <path
         d="m 28.720429,127 v -1.65117 h 1.252735 v 0.18281 h -1.028907 v 0.52969 h 0.958594 v 0.18047 h -0.958594 v 0.57539 H 30.02121 V 127 Z"
         id="path450" />
      <path
         d="m 31.742695,126.15742 q 0,0.25547 -0.09961,0.44766 -0.09961,0.19101 -0.282422,0.29297 Q 31.177851,127 30.938789,127 h -0.617578 v -1.65117 h 0.546093 q 0.419532,0 0.646875,0.21094 0.228516,0.20976 0.228516,0.59765 z m -0.225,0 q 0,-0.30703 -0.16875,-0.46758 -0.167578,-0.16172 -0.486328,-0.16172 h -0.317578 v 1.29258 h 0.367968 q 0.181641,0 0.31875,-0.0797 0.138282,-0.0797 0.21211,-0.22969 0.07383,-0.15 0.07383,-0.35391 z"
         id="path452" />
      <path
         d="m 33.45246,125.50703 q -0.274219,0 -0.426562,0.17695 -0.152344,0.17579 -0.152344,0.48282 0,0.30351 0.158203,0.48867 0.159375,0.18398 0.430078,0.18398 0.346875,0 0.521485,-0.34336 l 0.182812,0.0914 q -0.101953,0.21328 -0.287109,0.32461 -0.183985,0.11133 -0.427735,0.11133 -0.249609,0 -0.432422,-0.10313 -0.18164,-0.10429 -0.277734,-0.29648 -0.09492,-0.19336 -0.09492,-0.45703 0,-0.39493 0.213281,-0.61875 0.213282,-0.22383 0.590625,-0.22383 0.263672,0 0.440625,0.10312 0.176954,0.10313 0.260157,0.30586 l -0.21211,0.0703 q -0.05742,-0.14415 -0.185156,-0.22032 -0.126562,-0.0762 -0.301172,-0.0762 z"
         id="path454" />
      <path
         d="m 35.625116,127 -0.188672,-0.48281 H 34.684101 L 34.494257,127 h -0.232031 l 0.673828,-1.65117 h 0.254297 L 35.853632,127 Z m -0.564843,-1.48242 -0.01055,0.0328 q -0.0293,0.0973 -0.08672,0.24961 l -0.210938,0.54258 h 0.617579 l -0.21211,-0.54492 q -0.03281,-0.0809 -0.06563,-0.18282 z"
         id="path456" />
      <path
         d="M 36.523945,125.53164 V 127 h -0.222656 v -1.46836 h -0.567188 v -0.18281 h 1.357032 v 0.18281 z"
         id="path458" />
      <path
         d="m 39.388007,126.15742 q 0,0.25547 -0.09961,0.44766 -0.09961,0.19101 -0.282422,0.29297 Q 38.823164,127 38.584101,127 h -0.617578 v -1.65117 h 0.546094 q 0.419531,0 0.646875,0.21094 0.228515,0.20976 0.228515,0.59765 z m -0.225,0 q 0,-0.30703 -0.16875,-0.46758 -0.167578,-0.16172 -0.486328,-0.16172 h -0.317578 v 1.29258 h 0.367969 q 0.18164,0 0.31875,-0.0797 0.138281,-0.0797 0.212109,-0.22969 0.07383,-0.15 0.07383,-0.35391 z"
         id="path460" />
      <path
         d="m 40.993477,126.54414 q 0,0.22852 -0.179297,0.35391 -0.178125,0.12539 -0.502734,0.12539 -0.603516,0 -0.69961,-0.41953 l 0.216797,-0.0434 q 0.0375,0.14882 0.159375,0.21914 0.121875,0.0691 0.331641,0.0691 0.216797,0 0.333984,-0.0738 0.118359,-0.075 0.118359,-0.21914 0,-0.0809 -0.0375,-0.13125 -0.03633,-0.0504 -0.103125,-0.0832 -0.0668,-0.0328 -0.159375,-0.0551 -0.09258,-0.0223 -0.205078,-0.0481 -0.195703,-0.0434 -0.297656,-0.0867 -0.100781,-0.0434 -0.159375,-0.0961 -0.05859,-0.0539 -0.09023,-0.12539 -0.03047,-0.0715 -0.03047,-0.16406 0,-0.21211 0.161719,-0.32696 0.16289,-0.11484 0.465234,-0.11484 0.28125,0 0.430078,0.0867 0.148828,0.0855 0.208594,0.29297 l -0.220313,0.0387 q -0.03633,-0.13125 -0.138281,-0.18985 -0.101953,-0.0598 -0.282422,-0.0598 -0.198047,0 -0.302343,0.0656 -0.104297,0.0656 -0.104297,0.19571 0,0.0762 0.03984,0.12656 0.04102,0.0492 0.117188,0.0844 0.07617,0.034 0.303516,0.0844 0.07617,0.0176 0.151171,0.0363 0.07617,0.0176 0.145313,0.0434 0.06914,0.0246 0.128906,0.0586 0.06094,0.034 0.105469,0.0832 0.04453,0.0492 0.06914,0.11602 0.02578,0.0668 0.02578,0.15703 z"
         id="path462" />
      <path
         d="m 42.577851,125.8457 q 0,0.23438 -0.153516,0.37266 -0.152343,0.13828 -0.414843,0.13828 H 41.524335 V 127 h -0.223828 v -1.65117 h 0.694922 q 0.277735,0 0.430078,0.13008 0.152344,0.13007 0.152344,0.36679 z m -0.225,0.002 q 0,-0.31993 -0.384375,-0.31993 h -0.444141 v 0.65157 h 0.453516 q 0.375,0 0.375,-0.33164 z"
         id="path464" />
    </g>
  </g>
</svg>
