<?xml version="1.0" encoding="UTF-8" standalone="no"?>
<svg
   width="60.96mm"
   height="128.5mm"
   viewBox="0 0 60.96 128.5"
   version="1.1"
   id="svg61"
   sodipodi:docname="SabnockOTT.svg"
   inkscape:version="1.2.2 (732a01da63, 2022-12-09)"
   xmlns:inkscape="http://www.inkscape.org/namespaces/inkscape"
   xmlns:sodipodi="http://sodipodi.sourceforge.net/DTD/sodipodi-0.dtd"
   xmlns="http://www.w3.org/2000/svg"
   xmlns:svg="http://www.w3.org/2000/svg">
  <sodipodi:namedview
     id="namedview63"
     pagecolor="#505050"
     bordercolor="#eeeeee"
     borderopacity="1"
     inkscape:showpageshadow="0"
     inkscape:pageopacity="0"
     inkscape:pagecheckerboard="0"
     inkscape:deskcolor="#505050"
     inkscape:document-units="mm"
     showgrid="false"
     inkscape:zoom="2.9905069"
     inkscape:cx="117.87299"
     inkscape:cy="126.06558"
     inkscape:window-width="2560"
     inkscape:window-height="1369"
     inkscape:window-x="2552"
     inkscape:window-y="212"
     inkscape:window-maximized="1"
     inkscape:current-layer="svg61" />
  <defs
     id="defs9">
    <linearGradient
       id="brushed"
       x1="0"
       x2="0"
       y1="0"
       y2="1">
      <stop
         offset="0"
         stop-color="#1a1d21"
         id="stop2" />
      <stop
         offset="1"
         stop-color="#0d0f11"
         id="stop4" />
    </linearGradient>
    <style
       type="text/css"
       id="style7"><![CDATA[
      .label {
        font-family: 'Roboto Condensed', 'Arial Narrow', sans-serif;
        letter-spacing: 0.8px;
        fill: #e8e9eb;
        text-transform: uppercase;
        text-anchor: middle;
      }
      .title { font-size: 6px; font-weight: 700; fill: #c8a2ff; }
      .subtitle { font-size: 3px; font-weight: 400; fill: #8899aa; }
      .large { font-size: 4.5px; font-weight: 600; }
      .medium { font-size: 3.5px; font-weight: 500; }
      .small { font-size: 2.5px; font-weight: 400; fill: #aabbcc; }
      .band { font-size: 3px; font-weight: 600; fill: #ffaa44; }
    ]]></style>
  </defs>
  <!-- Background -->
  <g
     aria-label="AMBUSHED CAT DSP"
     id="text261"
     class="subtitle"
     style="font-size:2.4px;font-family:Roboto, 'Liberation Sans', sans-serif;text-anchor:middle;fill:#a7acb7"
     transform="translate(4.4221345,-1.7063797)">
    <path
       d="m 15.199443,127.17695 -0.188672,-0.48281 h -0.752343 l -0.189844,0.48281 h -0.232032 l 0.673829,-1.65117 h 0.254297 l 0.663281,1.65117 z m -0.564844,-1.48242 -0.01055,0.0328 q -0.0293,0.0973 -0.08672,0.24961 l -0.210938,0.54258 h 0.617578 L 14.73186,125.9746 q -0.03281,-0.0809 -0.06562,-0.18282 z"
       id="path438" />
    <path
       d="m 17.033428,127.17695 v -1.10156 q 0,-0.18282 0.01055,-0.35157 -0.05742,0.20977 -0.103125,0.32813 l -0.426566,1.125 h -0.157031 l -0.432422,-1.125 -0.06563,-0.19922 -0.03867,-0.12891 0.0035,0.13008 0.0047,0.22149 v 1.10156 h -0.199219 v -1.65117 h 0.294141 l 0.439453,1.14492 q 0.02344,0.0691 0.04453,0.14883 0.02227,0.0785 0.0293,0.11367 0.0094,-0.0469 0.03867,-0.1418 0.03047,-0.0961 0.04102,-0.1207 l 0.43125,-1.14492 h 0.287111 v 1.65117 z"
       id="path440" />
    <path
       d="m 18.906084,126.71172 q 0,0.22031 -0.160547,0.34335 -0.160547,0.12188 -0.446484,0.12188 H 17.62874 v -1.65117 h 0.6 q 0.58125,0 0.58125,0.40078 0,0.14648 -0.08203,0.24609 -0.08203,0.0996 -0.232031,0.1336 0.196875,0.0234 0.303515,0.13242 0.106641,0.10781 0.106641,0.27305 z m -0.321094,-0.75821 q 0,-0.13359 -0.09141,-0.19101 -0.09141,-0.0574 -0.264844,-0.0574 h -0.376172 v 0.52266 h 0.376172 q 0.179297,0 0.267188,-0.0668 0.08906,-0.068 0.08906,-0.20742 z m 0.09492,0.74063 q 0,-0.2918 -0.410156,-0.2918 h -0.417188 v 0.59531 h 0.434766 q 0.205078,0 0.298828,-0.0762 0.09375,-0.0762 0.09375,-0.22734 z"
       id="path442" />
    <path
       d="m 19.889287,127.20039 q -0.202734,0 -0.353906,-0.0738 -0.151172,-0.0738 -0.234375,-0.21445 -0.0832,-0.14063 -0.0832,-0.33516 v -1.05117 h 0.223828 v 1.03242 q 0,0.22617 0.114843,0.34336 0.114844,0.11719 0.331641,0.11719 0.222656,0 0.345703,-0.12071 0.124219,-0.12187 0.124219,-0.35507 v -1.01719 h 0.222656 v 1.03008 q 0,0.20039 -0.08555,0.3457 -0.08438,0.14531 -0.240234,0.22266 -0.154687,0.0762 -0.365625,0.0762 z"
       id="path444" />
    <path
       d="m 22.256475,126.72109 q 0,0.22852 -0.179297,0.35391 -0.178125,0.12539 -0.502734,0.12539 -0.603516,0 -0.69961,-0.41953 l 0.216797,-0.0434 q 0.0375,0.14882 0.159375,0.21914 0.121875,0.0691 0.331641,0.0691 0.216797,0 0.333984,-0.0738 0.118359,-0.075 0.118359,-0.21914 0,-0.0809 -0.0375,-0.13125 -0.03633,-0.0504 -0.103125,-0.0832 -0.0668,-0.0328 -0.159375,-0.0551 -0.09258,-0.0223 -0.205078,-0.0481 -0.195703,-0.0434 -0.297656,-0.0867 -0.100781,-0.0434 -0.159375,-0.0961 -0.05859,-0.0539 -0.09023,-0.12539 -0.03047,-0.0715 -0.03047,-0.16406 0,-0.21211 0.161719,-0.32696 0.16289,-0.11484 0.465234,-0.11484 0.28125,0 0.430078,0.0867 0.148828,0.0855 0.208594,0.29297 l -0.220313,0.0387 q -0.03633,-0.13125 -0.138281,-0.18985 -0.101953,-0.0598 -0.282422,-0.0598 -0.198047,0 -0.302343,0.0656 -0.104297,0.0656 -0.104297,0.19571 0,0.0762 0.03984,0.12656 0.04102,0.0492 0.117188,0.0844 0.07617,0.034 0.303516,0.0844 0.07617,0.0176 0.151171,0.0363 0.07617,0.0176 0.145313,0.0434 0.06914,0.0246 0.128906,0.0586 0.06094,0.034 0.105469,0.0832 0.04453,0.0492 0.06914,0.11602 0.02578,0.0668 0.02578,0.15703 z"
       id="path446" />
    <path
       d="m 23.680303,127.17695 v -0.76523 h -0.892969 v 0.76523 h -0.223828 v -1.65117 h 0.223828 v 0.69844 h 0.892969 v -0.69844 h 0.223828 v 1.65117 z"
       id="path448" />
    <path
       d="m 24.296709,127.17695 v -1.65117 h 1.252735 v 0.18281 h -1.028907 v 0.52969 h 0.958594 v 0.18047 h -0.958594 v 0.57539 h 1.076953 v 0.18281 z"
       id="path450" />
    <path
       d="m 27.318975,126.33437 q 0,0.25547 -0.09961,0.44766 -0.09961,0.19101 -0.282422,0.29297 -0.182812,0.10195 -0.421874,0.10195 h -0.617578 v -1.65117 h 0.546093 q 0.419532,0 0.646875,0.21094 0.228516,0.20976 0.228516,0.59765 z m -0.225,0 q 0,-0.30703 -0.16875,-0.46758 -0.167578,-0.16172 -0.486328,-0.16172 h -0.317578 v 1.29258 h 0.367968 q 0.181641,0 0.31875,-0.0797 0.138282,-0.0797 0.21211,-0.22969 0.07383,-0.15 0.07383,-0.35391 z"
       id="path452" />
    <path
       d="m 29.02874,125.68398 q -0.274219,0 -0.426562,0.17695 -0.152344,0.17579 -0.152344,0.48282 0,0.30351 0.158203,0.48867 0.159375,0.18398 0.430078,0.18398 0.346875,0 0.521485,-0.34336 l 0.182812,0.0914 q -0.101953,0.21328 -0.287109,0.32461 -0.183985,0.11133 -0.427735,0.11133 -0.249609,0 -0.432422,-0.10313 -0.18164,-0.10429 -0.277734,-0.29648 -0.09492,-0.19336 -0.09492,-0.45703 0,-0.39493 0.213281,-0.61875 0.213282,-0.22383 0.590625,-0.22383 0.263672,0 0.440625,0.10312 0.176954,0.10313 0.260157,0.30586 l -0.21211,0.0703 q -0.05742,-0.14415 -0.185156,-0.22032 -0.126562,-0.0762 -0.301172,-0.0762 z"
       id="path454" />
    <path
       d="m 31.201396,127.17695 -0.188672,-0.48281 h -0.752343 l -0.189844,0.48281 h -0.232031 l 0.673828,-1.65117 h 0.254297 l 0.663281,1.65117 z m -0.564843,-1.48242 -0.01055,0.0328 q -0.0293,0.0973 -0.08672,0.24961 l -0.210938,0.54258 h 0.617579 l -0.21211,-0.54492 q -0.03281,-0.0809 -0.06563,-0.18282 z"
       id="path456" />
    <path
       d="m 32.100225,125.70859 v 1.46836 h -0.222656 v -1.46836 h -0.567188 v -0.18281 h 1.357032 v 0.18281 z"
       id="path458" />
    <path
       d="m 34.964287,126.33437 q 0,0.25547 -0.09961,0.44766 -0.09961,0.19101 -0.282422,0.29297 -0.182811,0.10195 -0.421874,0.10195 h -0.617578 v -1.65117 h 0.546094 q 0.419531,0 0.646875,0.21094 0.228515,0.20976 0.228515,0.59765 z m -0.225,0 q 0,-0.30703 -0.16875,-0.46758 -0.167578,-0.16172 -0.486328,-0.16172 h -0.317578 v 1.29258 H 34.1346 q 0.18164,0 0.31875,-0.0797 0.138281,-0.0797 0.212109,-0.22969 0.07383,-0.15 0.07383,-0.35391 z"
       id="path460" />
    <path
       d="m 36.569757,126.72109 q 0,0.22852 -0.179297,0.35391 -0.178125,0.12539 -0.502734,0.12539 -0.603516,0 -0.69961,-0.41953 l 0.216797,-0.0434 q 0.0375,0.14882 0.159375,0.21914 0.121875,0.0691 0.331641,0.0691 0.216797,0 0.333984,-0.0738 0.118359,-0.075 0.118359,-0.21914 0,-0.0809 -0.0375,-0.13125 -0.03633,-0.0504 -0.103125,-0.0832 -0.0668,-0.0328 -0.159375,-0.0551 -0.09258,-0.0223 -0.205078,-0.0481 -0.195703,-0.0434 -0.297656,-0.0867 -0.100781,-0.0434 -0.159375,-0.0961 -0.05859,-0.0539 -0.09023,-0.12539 -0.03047,-0.0715 -0.03047,-0.16406 0,-0.21211 0.161719,-0.32696 0.16289,-0.11484 0.465234,-0.11484 0.28125,0 0.430078,0.0867 0.148828,0.0855 0.208594,0.29297 l -0.220313,0.0387 q -0.03633,-0.13125 -0.138281,-0.18985 -0.101953,-0.0598 -0.282422,-0.0598 -0.198047,0 -0.302343,0.0656 -0.104297,0.0656 -0.104297,0.19571 0,0.0762 0.03984,0.12656 0.04102,0.0492 0.117188,0.0844 0.07617,0.034 0.303516,0.0844 0.07617,0.0176 0.151171,0.0363 0.07617,0.0176 0.145313,0.0434 0.06914,0.0246 0.128906,0.0586 0.06094,0.034 0.105469,0.0832 0.04453,0.0492 0.06914,0.11602 0.02578,0.0668 0.02578,0.15703 z"
       id="path462" />
    <path
       d="m 38.154131,126.02265 q 0,0.23438 -0.153516,0.37266 -0.152343,0.13828 -0.414843,0.13828 h -0.485157 v 0.64336 h -0.223828 v -1.65117 h 0.694922 q 0.277735,0 0.430078,0.13008 0.152344,0.13007 0.152344,0.36679 z m -0.225,0.002 q 0,-0.31993 -0.384375,-0.31993 h -0.444141 v 0.65157 h 0.453516 q 0.375,0 0.375,-0.33164 z"
       id="path464" />
  </g>
  <!-- Subtle accent line -->
  <!-- Title -->
  <g
     aria-label="SABNOCK"
     id="text15"
     style="font-weight:700;font-size:6px;font-family:'Roboto Condensed', 'Arial Narrow', sans-serif;letter-spacing:0.8px;text-transform:uppercase;text-anchor:middle;fill:#ffffff"
     class="label title"
     transform="translate(-5.4854135,-0.26542323)">
    <path
       d="m 23.255762,6.8105469 q 0,0.28125 -0.08496,0.5126953 -0.08203,0.2285156 -0.260742,0.3925781 -0.175782,0.1640625 -0.451172,0.2548828 -0.272461,0.087891 -0.653321,0.087891 -0.336914,0 -0.594726,-0.073242 Q 20.955957,7.9121094 20.771387,7.7685547 20.586816,7.625 20.472559,7.4140625 20.36123,7.2001953 20.308496,6.9248047 l 0.685547,-0.1376953 q 0.0293,0.1376953 0.08496,0.2519531 0.05566,0.1142578 0.152344,0.1992187 0.09668,0.082031 0.240234,0.1289063 0.146484,0.043945 0.354492,0.043945 0.360352,0 0.550781,-0.1318359 0.19043,-0.1347657 0.19043,-0.4189453 0,-0.1699219 -0.07617,-0.2783204 Q 22.414944,6.4736325 22.286036,6.40332 22.16006,6.333008 21.993067,6.2861325 q -0.164062,-0.046875 -0.345703,-0.09082 0,0 -0.290039,-0.084961 Q 21.21377,6.0664065 21.081935,6.0048827 20.953028,5.9433597 20.83877,5.8583983 20.727442,5.7734373 20.642481,5.6503905 20.560451,5.524414 20.513575,5.3574218 q -0.04687,-0.1669922 -0.04687,-0.3925782 0,-0.3076171 0.09961,-0.5273437 0.102539,-0.2197266 0.28125,-0.3574219 0.18164,-0.140625 0.427734,-0.2050781 0.246094,-0.064453 0.539062,-0.064453 0.331055,0 0.56836,0.064453 0.237304,0.061523 0.395508,0.1904297 0.161132,0.1289062 0.251953,0.3251953 0.09375,0.1933594 0.137695,0.4541016 L 22.482324,4.9589844 Q 22.42959,4.6923828 22.265527,4.5576172 22.104394,4.4228516 21.802637,4.4228516 q -0.1875,0 -0.313477,0.041016 -0.123047,0.038086 -0.196289,0.1054687 -0.07324,0.067383 -0.105469,0.1582032 -0.0293,0.087891 -0.0293,0.1875 0,0.1523437 0.05859,0.2519531 0.06152,0.09668 0.169922,0.1640625 0.108398,0.064453 0.257813,0.1113281 0.149414,0.043945 0.331054,0.09082 0.158203,0.041016 0.313477,0.087891 0.155273,0.043945 0.295898,0.1054688 0.143555,0.061523 0.266602,0.1494141 0.123047,0.087891 0.210937,0.2167968 0.09082,0.1259766 0.140625,0.3017578 0.05274,0.1757813 0.05274,0.4160157 z"
       id="path1286" />
    <path
       d="M 26.967871,8 26.669043,6.9453125 H 25.379981 L 25.081152,8 h -0.708984 l 1.233399,-4.1279297 h 0.83496 L 27.670996,8 Z M 26.176856,5.1083984 q 0,0 -0.05859,-0.2080078 -0.02637,-0.102539 -0.04687,-0.1875 l -0.03516,-0.1435547 q -0.01172,-0.055664 -0.01172,-0.061523 -0.0029,0.00879 -0.01465,0.064453 -0.01172,0.055664 -0.03223,0.140625 -0.02051,0.084961 -0.04687,0.1875 l -0.05859,0.2080078 -0.333984,1.1865235 h 0.972656 z"
       id="path1288" />
    <path
       d="m 31.928028,6.8222656 q 0,0.3134766 -0.105469,0.5390625 -0.102539,0.2226563 -0.28125,0.366211 -0.178711,0.140625 -0.416016,0.2080078 Q 30.887989,8 30.621387,8 H 28.928028 V 3.8720703 h 1.549804 q 0.298829,0 0.533204,0.064453 0.234375,0.061523 0.395507,0.1904297 0.161133,0.1289063 0.243164,0.3251953 0.08203,0.1933594 0.08203,0.4570313 0,0.3515625 -0.161133,0.5947265 -0.158203,0.2402344 -0.483399,0.3251954 0.410157,0.058594 0.624024,0.3164062 0.216797,0.2548828 0.216797,0.6767578 z M 31.019825,5.0263672 q 0,-0.2783203 -0.146485,-0.3955078 -0.143554,-0.1171875 -0.430664,-0.1171875 h -0.805664 v 1.0224609 h 0.811524 q 0.298828,0 0.433593,-0.1259766 0.137696,-0.1289062 0.137696,-0.383789 z m 0.196289,1.7285156 q 0,-0.1640625 -0.05274,-0.2753906 -0.05273,-0.1113281 -0.146484,-0.178711 -0.09082,-0.067383 -0.213867,-0.09668 -0.123047,-0.029297 -0.269532,-0.029297 h -0.896484 v 1.1835937 h 0.925781 q 0.140625,0 0.257813,-0.026367 0.120117,-0.029297 0.208008,-0.09668 0.08789,-0.070312 0.137695,-0.1875 0.04981,-0.1171875 0.04981,-0.2929681 z"
       id="path1290" />
    <path
       d="M 35.338378,8 33.864746,4.8212891 q 0.01172,0.1289062 0.02344,0.2578125 0.0088,0.1113281 0.01465,0.2402343 0.0059,0.1289063 0.0059,0.2460938 V 8 H 33.278808 V 3.8720703 h 0.808594 l 1.49707,3.2050781 q -0.01172,-0.1230468 -0.02051,-0.2578125 -0.0088,-0.1142578 -0.01758,-0.2578125 -0.0059,-0.1435547 -0.0059,-0.290039 V 3.8720703 H 36.17041 V 8 Z"
       id="path1292" />
    <path
       d="m 40.922559,5.9169922 q 0,0.4833984 -0.117187,0.8789062 -0.117188,0.3955078 -0.339844,0.6767578 -0.219726,0.28125 -0.539062,0.4335938 -0.316407,0.1523438 -0.717774,0.1523438 -0.424805,0 -0.74414,-0.1582032 Q 38.145216,7.7392578 37.931348,7.4550781 37.717481,7.1679687 37.609083,6.7753906 37.503614,6.3828125 37.503614,5.9169922 q 0,-0.4833985 0.111328,-0.8730469 0.111328,-0.3896484 0.328125,-0.6621094 0.219727,-0.2753906 0.536133,-0.421875 0.319336,-0.149414 0.732422,-0.149414 0.413086,0 0.732422,0.149414 0.319336,0.1494141 0.536133,0.4248047 0.216796,0.2753906 0.328125,0.6650391 0.114257,0.3867187 0.114257,0.8671875 z m -0.723632,0 q 0,-0.3251953 -0.06445,-0.5859375 -0.06152,-0.2636719 -0.1875,-0.4511719 -0.123046,-0.1875 -0.307617,-0.2871094 -0.18457,-0.102539 -0.427734,-0.102539 -0.249024,0 -0.433594,0.102539 -0.18457,0.099609 -0.310547,0.2871094 -0.125976,0.1875 -0.1875,0.4511719 -0.06152,0.2607422 -0.06152,0.5859375 0,0.3222656 0.06152,0.5917969 0.06445,0.2666015 0.1875,0.4599609 0.125977,0.1933594 0.310547,0.3017578 0.1875,0.1083984 0.430664,0.1083984 0.260742,0 0.445313,-0.1083984 0.1875,-0.1113281 0.307617,-0.3046875 0.123047,-0.1962891 0.178711,-0.4628906 0.05859,-0.2695313 0.05859,-0.5859375 z"
       id="path1294" />
    <path
       d="m 43.837793,7.3789062 q 0.199219,0 0.345703,-0.067383 0.146484,-0.070312 0.251953,-0.1816406 0.108399,-0.1113281 0.178711,-0.2519531 0.07031,-0.140625 0.117188,-0.2841797 l 0.615234,0.2841797 q -0.07324,0.2226562 -0.193359,0.4365234 -0.120118,0.2138672 -0.301758,0.3779297 -0.178711,0.1640625 -0.427735,0.2666016 -0.249023,0.099609 -0.585937,0.099609 -0.439453,0 -0.761719,-0.1582032 Q 42.756738,7.7392572 42.545801,7.4550775 42.334863,7.1679681 42.232324,6.77539 q -0.09961,-0.3925781 -0.09961,-0.8583984 0,-0.4833985 0.09961,-0.8730469 0.102539,-0.3896484 0.307617,-0.6621094 0.208008,-0.2753906 0.524414,-0.421875 0.316407,-0.149414 0.744141,-0.149414 0.331055,0 0.580078,0.084961 0.249024,0.084961 0.427735,0.2402344 0.18164,0.1523437 0.298828,0.3632812 0.120117,0.2080078 0.1875,0.459961 l -0.624024,0.2080078 q -0.03223,-0.131836 -0.102539,-0.2519531 -0.07031,-0.1230469 -0.178711,-0.2167969 -0.105469,-0.09375 -0.249023,-0.1494141 -0.143555,-0.058594 -0.325196,-0.058594 -0.257812,0 -0.442382,0.102539 -0.184571,0.099609 -0.304688,0.2871094 -0.117187,0.1875 -0.175781,0.4511719 -0.05566,0.2607422 -0.05566,0.5859375 0,0.3222656 0.05566,0.5917969 0.05859,0.2666015 0.178711,0.4599609 0.120117,0.1933594 0.307617,0.3017578 0.1875,0.1083984 0.451172,0.1083992 z"
       id="path1296" />
    <path
       d="M 48.950292,8 47.737402,6.1044922 47.318456,6.4941406 V 8 H 46.609472 V 3.8720703 h 0.708984 v 1.8720703 l 1.523438,-1.8720703 h 0.826172 L 48.22373,5.6181641 49.785253,8 Z"
       id="path1298" />
  </g>
  <g
     aria-label="MULTIBAND COMPRESSOR"
     id="text17"
     style="font-size:3px;font-family:'Roboto Condensed', 'Arial Narrow', sans-serif;letter-spacing:0.8px;text-transform:uppercase;text-anchor:middle;fill:#ffffff"
     class="label subtitle"
     transform="translate(-4.0698229,-0.44237205)">
    <path
       d="m 12.79917,12.5 v -1.376953 q 0,-0.07471 0.0015,-0.152344 0.0015,-0.07764 0.0029,-0.14209 0.0029,-0.07471 0.0073,-0.145019 -0.01611,0.07471 -0.03516,0.147949 0,0 -0.03516,0.133301 -0.01758,0.07178 -0.03662,0.128906 L 12.267432,12.5 h -0.161133 l -0.443848,-1.40625 q -0.0073,-0.02197 -0.01465,-0.05127 l -0.01611,-0.06299 -0.01904,-0.06738 -0.01758,-0.06738 q -0.02051,-0.07764 -0.03955,-0.161133 0.0015,0.08203 0.0044,0.162597 0.0029,0.06885 0.0029,0.14502 0.0015,0.07471 0.0015,0.131836 V 12.5 h -0.203614 v -2.063965 h 0.301758 l 0.449707,1.431153 q 0.0088,0.0293 0.02051,0.07617 0.01172,0.04541 0.02197,0.09375 0.01172,0.04834 0.02051,0.09229 0.0088,0.04248 0.01318,0.06592 0.0029,-0.02344 0.01172,-0.06738 0.01025,-0.04395 0.02344,-0.09228 l 0.0249,-0.09375 q 0.01172,-0.04541 0.02197,-0.07471 l 0.440918,-1.431153 h 0.294434 V 12.5 Z"
       id="path1301" />
    <path
       d="m 14.885303,12.529297 q -0.139161,0 -0.263672,-0.04541 -0.124512,-0.04541 -0.219727,-0.140625 -0.09375,-0.09668 -0.149414,-0.243164 Q 14.19683,11.952148 14.19683,11.75 v -1.313965 h 0.22998 v 1.290528 q 0,0.156738 0.03369,0.266601 0.03516,0.108399 0.09522,0.177246 0.06152,0.06885 0.145019,0.101074 0.0835,0.03076 0.183106,0.03076 0.09814,0 0.186035,-0.03223 0.08789,-0.03223 0.153808,-0.10254 0.06592,-0.07031 0.104004,-0.183105 0.03809,-0.114258 0.03809,-0.276855 v -1.271485 h 0.228516 v 1.287598 q 0,0.206543 -0.05713,0.358887 -0.05566,0.150878 -0.152344,0.250488 -0.09521,0.09961 -0.224121,0.147949 -0.128906,0.04834 -0.27539,0.04834 z"
       id="path1303" />
    <path
       d="m 16.7854,12.5 v -2.063965 h 0.228516 v 1.835449 h 0.855469 V 12.5 Z"
       id="path1305" />
    <path
       d="M 19.435498,10.664551 V 12.5 h -0.227051 v -1.835449 h -0.581543 v -0.228516 h 1.390137 v 0.228516 z"
       id="path1307" />
    <path
       d="m 21.10122,12.5 v -2.063965 h 0.229981 V 12.5 Z"
       id="path1309" />
    <path
       d="m 23.868506,11.918457 q 0,0.156738 -0.0498,0.268066 -0.0498,0.109864 -0.13623,0.180176 -0.08496,0.06885 -0.197754,0.101074 Q 23.371924,12.5 23.247412,12.5 H 22.5604 v -2.063965 h 0.615235 q 0.140625,0 0.250488,0.0293 0.109863,0.02783 0.186035,0.08936 0.07764,0.06152 0.117188,0.156738 0.04102,0.09375 0.04102,0.225586 0,0.08643 -0.02051,0.162597 -0.01904,0.07617 -0.06006,0.139161 -0.03955,0.06152 -0.101074,0.106933 -0.06006,0.04394 -0.140625,0.06592 0.102539,0.01465 0.18164,0.05713 0.0791,0.04248 0.131836,0.108398 0.05273,0.06592 0.0791,0.153809 0.02783,0.08643 0.02783,0.1875 z m -0.328125,-0.947754 q 0,-0.166992 -0.09375,-0.238769 -0.09375,-0.07178 -0.270996,-0.07178 h -0.386719 v 0.653321 h 0.386719 q 0.101074,0 0.169922,-0.02344 0.07031,-0.0249 0.112792,-0.06885 0.04395,-0.04541 0.06299,-0.108398 0.01904,-0.06299 0.01904,-0.14209 z m 0.09668,0.925781 q 0,-0.09814 -0.0293,-0.166992 -0.0293,-0.06885 -0.08496,-0.112793 -0.0542,-0.04395 -0.131836,-0.06445 -0.07764,-0.02051 -0.174317,-0.02051 h -0.427734 v 0.744141 h 0.446777 q 0.08789,0 0.161133,-0.01758 0.07324,-0.01758 0.125977,-0.06152 0.0542,-0.04395 0.0835,-0.117187 0.03076,-0.07324 0.03076,-0.183106 z"
       id="path1311" />
    <path
       d="M 26.200732,12.5 26.007373,11.896484 H 25.2354 L 25.042041,12.5 h -0.238769 l 0.691406,-2.063965 H 25.75542 L 26.435107,12.5 Z m -0.479003,-1.50293 q -0.01904,-0.05859 -0.03662,-0.118652 l -0.03076,-0.109863 -0.02344,-0.08203 q -0.0088,-0.03223 -0.0088,-0.03955 -0.0029,0.0073 -0.01172,0.04102 -0.0073,0.03369 -0.02051,0.0835 L 25.557666,10.881348 25.52251,11 25.305713,11.678223 h 0.632812 z"
       id="path1313" />
    <path
       d="m 28.538819,12.5 -0.905274,-1.757812 q 0,0 0.0059,0.142089 0.0029,0.06006 0.0044,0.127442 0.0015,0.06592 0.0015,0.117187 V 12.5 h -0.203613 v -2.063965 h 0.266601 l 0.914063,1.769531 q -0.0029,-0.07178 -0.0073,-0.143554 -0.0029,-0.06152 -0.0059,-0.133301 -0.0015,-0.07324 -0.0015,-0.13916 v -1.353516 h 0.206543 V 12.5 Z"
       id="path1315" />
    <path
       d="m 31.473095,11.446777 q 0,0.257813 -0.06445,0.455567 -0.06299,0.196289 -0.174316,0.32959 -0.109864,0.131836 -0.260743,0.200683 Q 30.822705,12.5 30.649853,12.5 h -0.632812 v -2.063965 h 0.55957 q 0.196289,0 0.360351,0.06006 0.164063,0.05859 0.282715,0.183105 0.120117,0.123047 0.186035,0.313477 0.06738,0.190429 0.06738,0.454101 z m -0.231445,0 q 0,-0.209472 -0.0498,-0.357422 -0.04834,-0.149414 -0.137695,-0.244628 -0.08789,-0.09522 -0.212402,-0.139161 -0.123047,-0.04541 -0.270997,-0.04541 h -0.325195 v 1.615723 h 0.37793 q 0.133301,0 0.246094,-0.05273 0.112793,-0.05274 0.194824,-0.156739 0.0835,-0.104004 0.130371,-0.259277 0.04687,-0.155274 0.04687,-0.360352 z"
       id="path1317" />
    <path
       d="m 34.825049,10.633789 q -0.143555,0 -0.254883,0.05859 -0.111328,0.05859 -0.186035,0.166992 -0.07471,0.108398 -0.114258,0.260742 -0.03809,0.152344 -0.03809,0.338379 0,0.186035 0.04102,0.341309 0.04248,0.153808 0.118652,0.265136 0.07764,0.111329 0.19043,0.172852 0.112793,0.06152 0.253418,0.06152 0.09814,0 0.178711,-0.03076 0.08057,-0.03223 0.146484,-0.08936 0.06592,-0.05713 0.117187,-0.134765 0.05127,-0.0791 0.09082,-0.174317 l 0.1875,0.114258 q -0.04541,0.115723 -0.112793,0.215332 -0.06738,0.09961 -0.158203,0.172852 -0.09082,0.07324 -0.205078,0.115722 -0.114258,0.04102 -0.256348,0.04102 -0.205078,0 -0.360352,-0.0791 -0.153808,-0.08057 -0.257812,-0.222656 -0.102539,-0.143555 -0.155274,-0.339844 -0.05127,-0.196289 -0.05127,-0.429199 0,-0.241699 0.0542,-0.436523 0.05566,-0.194825 0.159668,-0.331055 0.105469,-0.137695 0.259277,-0.210938 0.153809,-0.07471 0.350098,-0.07471 0.269531,0 0.451172,0.128907 0.181641,0.128906 0.266601,0.382324 l -0.216796,0.08789 q -0.02344,-0.07324 -0.06445,-0.139161 -0.04102,-0.06738 -0.102539,-0.118652 -0.06152,-0.05127 -0.143554,-0.08203 -0.08203,-0.03076 -0.1875,-0.03076 z"
       id="path1319" />
    <path
       d="m 38.247118,11.458496 q 0,0.241699 -0.05713,0.439453 -0.05713,0.197754 -0.165527,0.338379 -0.108398,0.140625 -0.265137,0.216797 -0.155273,0.07617 -0.354492,0.07617 -0.209473,0 -0.366211,-0.0791 -0.156738,-0.08057 -0.262207,-0.222656 -0.104004,-0.143555 -0.156738,-0.339844 -0.05274,-0.196289 -0.05274,-0.429199 0,-0.241699 0.0542,-0.436523 0.05566,-0.194825 0.162597,-0.331055 0.106934,-0.137695 0.263672,-0.210938 0.156739,-0.07471 0.360352,-0.07471 0.202148,0 0.358887,0.07471 0.156738,0.07471 0.262207,0.212403 0.106933,0.137695 0.162597,0.332519 0.05566,0.194825 0.05566,0.433594 z m -0.234375,0 q 0,-0.186035 -0.03955,-0.338379 -0.03955,-0.152344 -0.115722,-0.260742 -0.07617,-0.108398 -0.188965,-0.166992 -0.112793,-0.05859 -0.260742,-0.05859 -0.150879,0 -0.265137,0.05859 -0.114258,0.05859 -0.191894,0.166992 -0.07617,0.108398 -0.114258,0.260742 -0.03662,0.152344 -0.03662,0.338379 0,0.186035 0.03809,0.341309 0.03955,0.153808 0.115722,0.266601 0.07617,0.111328 0.188965,0.174317 0.114258,0.06152 0.262207,0.06152 0.158203,0 0.272461,-0.06299 0.115723,-0.06299 0.188965,-0.174317 0.07471,-0.112793 0.109863,-0.268066 0.03662,-0.155273 0.03662,-0.338379 z"
       id="path1321" />
    <path
       d="m 40.804932,12.5 v -1.376953 q 0,-0.07471 0.0015,-0.152344 0.0015,-0.07764 0.0029,-0.14209 0.0029,-0.07471 0.0073,-0.145019 -0.01611,0.07471 -0.03516,0.147949 0,0 -0.03516,0.133301 -0.01758,0.07178 -0.03662,0.128906 L 40.273194,12.5 h -0.161133 l -0.443848,-1.40625 q -0.0073,-0.02197 -0.01465,-0.05127 l -0.01611,-0.06299 -0.01904,-0.06738 -0.01758,-0.06738 q -0.02051,-0.07764 -0.03955,-0.161133 0.0015,0.08203 0.0044,0.162597 0.0029,0.06885 0.0029,0.14502 0.0015,0.07471 0.0015,0.131836 V 12.5 h -0.203614 v -2.063965 h 0.301758 l 0.449707,1.431153 q 0.0088,0.0293 0.02051,0.07617 0.01172,0.04541 0.02197,0.09375 0.01172,0.04834 0.02051,0.09229 0.0088,0.04248 0.01318,0.06592 0.0029,-0.02344 0.01172,-0.06738 0.01025,-0.04395 0.02344,-0.09228 l 0.0249,-0.09375 q 0.01172,-0.04541 0.02197,-0.07471 l 0.440918,-1.431153 h 0.294434 V 12.5 Z"
       id="path1323" />
    <path
       d="m 43.523876,11.057129 q 0,0.134766 -0.03662,0.251953 -0.03662,0.115723 -0.109863,0.202148 -0.07178,0.08496 -0.181641,0.134766 -0.108398,0.0498 -0.253418,0.0498 H 42.444287 V 12.5 h -0.228516 v -2.063965 h 0.711914 q 0.149414,0 0.260742,0.04541 0.112793,0.04395 0.1875,0.125977 0.07471,0.08057 0.111328,0.196289 0.03662,0.114258 0.03662,0.253418 z m -0.22998,0.0029 q 0,-0.196289 -0.09814,-0.297364 -0.09814,-0.102539 -0.295898,-0.102539 h -0.455566 v 0.814453 h 0.46582 q 0.197754,0 0.290039,-0.106933 0.09375,-0.106934 0.09375,-0.307617 z"
       id="path1325" />
    <path
       d="M 45.85171,12.5 45.412257,11.643066 H 44.884913 V 12.5 h -0.228516 v -2.063965 h 0.79541 q 0.143555,0 0.254883,0.04102 0.111328,0.03955 0.186035,0.115722 0.07617,0.07617 0.115723,0.186036 0.03955,0.109863 0.03955,0.247558 0,0.09814 -0.02344,0.19336 -0.02344,0.09521 -0.07471,0.174316 -0.0498,0.0791 -0.127441,0.13623 -0.07764,0.05713 -0.1875,0.08057 L 46.115382,12.5 Z m -0.03369,-1.470703 q 0,-0.09375 -0.02637,-0.162598 -0.02637,-0.06885 -0.07764,-0.114258 -0.0498,-0.04687 -0.121582,-0.06885 -0.07178,-0.02344 -0.164062,-0.02344 h -0.543457 v 0.761719 h 0.553711 q 0.09814,0 0.169922,-0.0293 0.07324,-0.03076 0.118652,-0.0835 0.04687,-0.05273 0.06885,-0.124512 0.02197,-0.07178 0.02197,-0.155273 z"
       id="path1327" />
    <path
       d="m 47.231787,12.5 v -2.063965 h 1.283203 v 0.228516 h -1.054687 v 0.662109 h 0.98291 v 0.225586 h -0.98291 v 0.719238 h 1.104492 V 12.5 Z"
       id="path1329" />
    <path
       d="m 50.998095,11.930176 q 0,0.130371 -0.04248,0.240234 -0.04101,0.109863 -0.127441,0.19043 -0.08643,0.0791 -0.218262,0.124512 -0.130371,0.04394 -0.310547,0.04394 -0.316406,0 -0.493652,-0.134766 -0.175781,-0.134765 -0.224121,-0.389648 l 0.222656,-0.0542 q 0.01611,0.08057 0.05127,0.146484 0.03516,0.06592 0.09375,0.114258 0.06006,0.04687 0.147949,0.07324 0.08789,0.02637 0.209473,0.02637 0.102539,0 0.1875,-0.02051 0.08642,-0.02197 0.146484,-0.06592 0.06152,-0.04394 0.09522,-0.112793 0.03516,-0.07031 0.03516,-0.166992 0,-0.101074 -0.03809,-0.164062 -0.03809,-0.06299 -0.106933,-0.104004 -0.06738,-0.04102 -0.162598,-0.06885 l -0.209473,-0.06006 q -0.07031,-0.01904 -0.14209,-0.04102 -0.07178,-0.02344 -0.137695,-0.0542 -0.06592,-0.03223 -0.123047,-0.07471 -0.05713,-0.04248 -0.09961,-0.101075 -0.04248,-0.06006 -0.06738,-0.137695 -0.02344,-0.0791 -0.02344,-0.18164 0,-0.146485 0.04834,-0.250489 0.0498,-0.105468 0.136231,-0.172851 0.08643,-0.06738 0.203613,-0.09814 0.118652,-0.03076 0.254883,-0.03076 0.156738,0 0.268066,0.03076 0.112793,0.0293 0.188965,0.08936 0.07764,0.06006 0.123047,0.149414 0.04687,0.08789 0.07471,0.205078 l -0.225586,0.04834 q -0.01611,-0.07471 -0.04834,-0.133301 -0.03223,-0.05859 -0.08496,-0.09814 -0.05127,-0.03955 -0.125976,-0.06006 -0.07324,-0.02051 -0.172852,-0.02051 -0.117187,0 -0.197754,0.02637 -0.0791,0.0249 -0.127441,0.06885 -0.04834,0.04395 -0.07031,0.104004 -0.02051,0.05859 -0.02051,0.127441 0,0.09229 0.03809,0.152344 0.03809,0.05859 0.102539,0.09814 0.06445,0.03955 0.149414,0.06592 0.08642,0.02637 0.18164,0.05273 0,0 0.155274,0.04541 0.07764,0.02197 0.147949,0.0542 0.07178,0.03076 0.133301,0.07324 0.06152,0.04248 0.106933,0.104004 0.04687,0.06152 0.07178,0.14502 0.02637,0.0835 0.02637,0.196289 z"
       id="path1331" />
    <path
       d="m 53.438719,11.930176 q 0,0.130371 -0.04248,0.240234 -0.04102,0.109863 -0.127442,0.19043 -0.08643,0.0791 -0.218262,0.124512 -0.130371,0.04394 -0.310546,0.04394 -0.316407,0 -0.493653,-0.134766 -0.175781,-0.134765 -0.224121,-0.389648 l 0.222656,-0.0542 q 0.01611,0.08057 0.05127,0.146484 0.03516,0.06592 0.09375,0.114258 0.06006,0.04687 0.147949,0.07324 0.08789,0.02637 0.209473,0.02637 0.102539,0 0.1875,-0.02051 0.08643,-0.02197 0.146484,-0.06592 0.06152,-0.04394 0.09522,-0.112793 0.03516,-0.07031 0.03516,-0.166992 0,-0.101074 -0.03809,-0.164062 -0.03809,-0.06299 -0.106933,-0.104004 -0.06738,-0.04102 -0.162598,-0.06885 l -0.209473,-0.06006 q -0.07031,-0.01904 -0.142089,-0.04102 -0.07178,-0.02344 -0.137696,-0.0542 -0.06592,-0.03223 -0.123047,-0.07471 -0.05713,-0.04248 -0.09961,-0.101075 -0.04248,-0.06006 -0.06738,-0.137695 -0.02344,-0.0791 -0.02344,-0.18164 0,-0.146485 0.04834,-0.250489 0.0498,-0.105468 0.13623,-0.172851 0.08643,-0.06738 0.203613,-0.09814 0.118653,-0.03076 0.254883,-0.03076 0.156738,0 0.268067,0.03076 0.112793,0.0293 0.188964,0.08936 0.07764,0.06006 0.123047,0.149414 0.04687,0.08789 0.07471,0.205078 l -0.225586,0.04834 q -0.01611,-0.07471 -0.04834,-0.133301 -0.03223,-0.05859 -0.08496,-0.09814 -0.05127,-0.03955 -0.125977,-0.06006 -0.07324,-0.02051 -0.172852,-0.02051 -0.117187,0 -0.197753,0.02637 -0.0791,0.0249 -0.127442,0.06885 -0.04834,0.04395 -0.07031,0.104004 -0.02051,0.05859 -0.02051,0.127441 0,0.09229 0.03809,0.152344 0.03809,0.05859 0.102539,0.09814 0.06445,0.03955 0.149414,0.06592 0.08643,0.02637 0.181641,0.05273 0,0 0.155273,0.04541 0.07764,0.02197 0.147949,0.0542 0.07178,0.03076 0.133301,0.07324 0.06152,0.04248 0.106934,0.104004 0.04687,0.06152 0.07178,0.14502 0.02637,0.0835 0.02637,0.196289 z"
       id="path1333" />
    <path
       d="m 56.148878,11.458496 q 0,0.241699 -0.05713,0.439453 -0.05713,0.197754 -0.165527,0.338379 -0.108398,0.140625 -0.265137,0.216797 -0.155273,0.07617 -0.354492,0.07617 -0.209472,0 -0.366211,-0.0791 -0.156738,-0.08057 -0.262207,-0.222656 -0.104004,-0.143555 -0.156738,-0.339844 -0.05273,-0.196289 -0.05273,-0.429199 0,-0.241699 0.0542,-0.436523 0.05566,-0.194825 0.162597,-0.331055 0.106934,-0.137695 0.263672,-0.210938 0.156739,-0.07471 0.360352,-0.07471 0.202148,0 0.358887,0.07471 0.156738,0.07471 0.262207,0.212403 0.106933,0.137695 0.162597,0.332519 0.05566,0.194825 0.05566,0.433594 z m -0.234375,0 q 0,-0.186035 -0.03955,-0.338379 -0.03955,-0.152344 -0.115723,-0.260742 -0.07617,-0.108398 -0.188965,-0.166992 -0.112793,-0.05859 -0.260742,-0.05859 -0.150879,0 -0.265137,0.05859 -0.114258,0.05859 -0.191894,0.166992 -0.07617,0.108398 -0.114258,0.260742 -0.03662,0.152344 -0.03662,0.338379 0,0.186035 0.03809,0.341309 0.03955,0.153808 0.115722,0.266601 0.07617,0.111328 0.188965,0.174317 0.114258,0.06152 0.262207,0.06152 0.158203,0 0.272461,-0.06299 0.115723,-0.06299 0.188965,-0.174317 0.07471,-0.112793 0.109863,-0.268066 0.03662,-0.155273 0.03662,-0.338379 z"
       id="path1335" />
    <path
       d="M 58.463526,12.5 58.024073,11.643066 H 57.496729 V 12.5 h -0.228515 v -2.063965 h 0.79541 q 0.143554,0 0.254883,0.04102 0.111328,0.03955 0.186035,0.115722 0.07617,0.07617 0.115722,0.186036 0.03955,0.109863 0.03955,0.247558 0,0.09814 -0.02344,0.19336 -0.02344,0.09521 -0.07471,0.174316 -0.0498,0.0791 -0.127442,0.13623 -0.07764,0.05713 -0.1875,0.08057 L 58.727198,12.5 Z m -0.03369,-1.470703 q 0,-0.09375 -0.02637,-0.162598 -0.02637,-0.06885 -0.07764,-0.114258 -0.0498,-0.04687 -0.121582,-0.06885 -0.07178,-0.02344 -0.164063,-0.02344 h -0.543457 v 0.761719 h 0.553711 q 0.09814,0 0.169922,-0.0293 0.07324,-0.03076 0.118652,-0.0835 0.04687,-0.05273 0.06885,-0.124512 0.02197,-0.07178 0.02197,-0.155273 z"
       id="path1337" />
  </g>
  <!-- TOP ROW - Classic OTT: 4 BIG KNOBS -->
  <!-- Decorative band separators -->
  <!-- LOW BAND -->
  <!-- MID BAND -->
  <!-- HIGH BAND -->
  <!-- I/O Section -->
  <rect
     width="60.959999"
     height="128.5"
     fill="url(#panelGradient)"
     rx="2"
     ry="2"
     id="rect191"
     style="fill:none;fill-opacity:1;stroke:#3a3d46;stroke-opacity:1"
     x="-0.026000001"
     y="0.062560059" />
</svg>
