<?xml version="1.0" encoding="UTF-8" standalone="no"?>
<svg
   width="30.48mm"
   height="132.60001mm"
   viewBox="0 0 115.19999 501.16542"
   version="1.1"
   id="svg502"
   sodipodi:docname="Sitri.svg"
   inkscape:version="1.2.2 (732a01da63, 2022-12-09)"
   xml:space="preserve"
   xmlns:inkscape="http://www.inkscape.org/namespaces/inkscape"
   xmlns:sodipodi="http://sodipodi.sourceforge.net/DTD/sodipodi-0.dtd"
   xmlns:xlink="http://www.w3.org/1999/xlink"
   xmlns="http://www.w3.org/2000/svg"
   xmlns:svg="http://www.w3.org/2000/svg"><defs
     id="defs506"><linearGradient
       id="linearGradient3302"
       inkscape:swatch="solid"><stop
         style="stop-color:#000000;stop-opacity:1;"
         offset="0"
         id="stop3300" /></linearGradient><linearGradient
       id="linearGradient3295"
       inkscape:swatch="solid"><stop
         style="stop-color:#808080;stop-opacity:1;"
         offset="0"
         id="stop3293" /></linearGradient><linearGradient
       id="e177933e-b46b-4a47-9930-05c1f1d4149c"
       x1="67.5"
       x2="67.5"
       y2="380"
       gradientUnits="userSpaceOnUse"><stop
         offset="0"
         stop-color="#ebebeb"
         id="stop2" /><stop
         offset="1"
         stop-color="#e1e1e1"
         id="stop4" /></linearGradient><linearGradient
       id="panelGradient"
       x1="0"
       x2="0"
       y1="0"
       y2="102.19824"
       gradientTransform="matrix(1.126984,0,0,3.7018487,0.08606336,-0.13735362)"
       gradientUnits="userSpaceOnUse"><stop
         offset="0"
         stop-color="#262830"
         id="stop2497" /><stop
         offset="1"
         stop-color="#1b1d22"
         id="stop2499" /></linearGradient><linearGradient
       inkscape:collect="always"
       xlink:href="#linearGradient3302"
       id="linearGradient3304"
       x1="0.086062297"
       y1="190.02573"
       x2="115.26184"
       y2="190.02573"
       gradientUnits="userSpaceOnUse"
       gradientTransform="matrix(1,0,0,1.2730056,-0.19629716,1.0646175)" /></defs><sodipodi:namedview
     id="namedview504"
     pagecolor="#505050"
     bordercolor="#eeeeee"
     borderopacity="1"
     inkscape:showpageshadow="0"
     inkscape:pageopacity="0"
     inkscape:pagecheckerboard="0"
     inkscape:deskcolor="#505050"
     showgrid="false"
     inkscape:zoom="4.2421053"
     inkscape:cx="73.666253"
     inkscape:cy="405.22333"
     inkscape:window-width="1920"
     inkscape:window-height="1009"
     inkscape:window-x="5112"
     inkscape:window-y="229"
     inkscape:window-maximized="1"
     inkscape:current-layer="svg502"
     inkscape:document-units="mm" /><!-- Background --><!-- Title --><rect
     width="115.17578"
     height="484.15747"
     fill="url(#panelGradient)"
     rx="2.8340497"
     ry="7.5355244"
     id="rect2506"
     x="-0.11023498"
     y="0.88976502"
     style="display:inline;fill:none;fill-opacity:1;stroke:url(#linearGradient3304);stroke-width:3.77953"
     sodipodi:insensitive="true" /><g
     aria-label="SITRI"
     id="text434"
     style="font-weight:bold;font-size:16px;font-family:'Fira Sans', sans-serif;letter-spacing:2;text-anchor:middle;fill:#e0e5ef"
     transform="translate(-2.000009,-4)"><path
       d="m 44.107995,31.832 q 0,1.52 -1.104,2.432 -1.088,0.896 -3.104,0.896 -1.808,0 -3.232,-0.688 v -2.256 q 0.816,0.352 1.68,0.656 0.88,0.288 1.744,0.288 0.896,0 1.264,-0.336 0.384,-0.352 0.384,-0.88 0,-0.432 -0.304,-0.736 -0.288,-0.304 -0.784,-0.56 -0.496,-0.272 -1.136,-0.576 -0.4,-0.192 -0.864,-0.448 -0.464,-0.272 -0.896,-0.656 -0.416,-0.4 -0.688,-0.96 -0.272,-0.56 -0.272,-1.344 0,-1.536 1.04,-2.384 1.04,-0.864 2.832,-0.864 0.896,0 1.696,0.208 0.8,0.208 1.696,0.592 l -0.784,1.888 q -0.784,-0.32 -1.408,-0.496 -0.624,-0.176 -1.28,-0.176 -0.688,0 -1.056,0.32 -0.368,0.32 -0.368,0.832 0,0.608 0.544,0.96 0.544,0.352 1.616,0.864 0.88,0.416 1.488,0.864 0.624,0.448 0.96,1.056 0.336,0.608 0.336,1.504 z"
       id="path913" /><path
       d="m 52.460005,35 h -5.2 v -1.376 l 1.392,-0.64 v -7.392 l -1.392,-0.64 v -1.376 h 5.2 v 1.376 l -1.392,0.64 v 7.392 l 1.392,0.64 z"
       id="path915" /><path
       d="m 60.812004,35 h -2.416 v -9.408 h -3.104 v -2.016 h 8.624 v 2.016 h -3.104 z"
       id="path917" /><path
       d="m 71.004012,23.576 q 2.336,0 3.44,0.848 1.12,0.848 1.12,2.576 0,0.784 -0.304,1.376 -0.288,0.576 -0.784,0.992 -0.48,0.4 -1.04,0.656 l 3.36,4.976 h -2.688 l -2.72,-4.384 h -1.296 V 35 h -2.416 V 23.576 Z m -0.176,1.984 h -0.736 v 3.088 h 0.784 q 1.2,0 1.712,-0.4 0.528,-0.4 0.528,-1.184 0,-0.816 -0.56,-1.152 -0.56,-0.352 -1.728,-0.352 z"
       id="path919" /><path
       d="m 84.508009,35 h -5.2 v -1.376 l 1.392,-0.64 v -7.392 l -1.392,-0.64 v -1.376 h 5.2 v 1.376 l -1.392,0.64 v 7.392 l 1.392,0.64 z"
       id="path921" /></g><g
     aria-label="ALGORITHMIC SEQUENCER"
     id="text436"
     style="font-size:7px;font-family:'Fira Sans', sans-serif;text-anchor:middle;fill:#ffffff"
     transform="translate(-1.99951,-4)"><path
       d="m 19.5225,46 -0.602,-1.547 h -1.981 L 16.3445,46 h -0.637 l 1.953,-5.019 h 0.567 L 20.1735,46 Z m -0.791,-2.107 -0.56,-1.512 q -0.021,-0.056 -0.07,-0.203 -0.049,-0.147 -0.098,-0.301 -0.042,-0.161 -0.07,-0.245 -0.056,0.217 -0.119,0.427 -0.056,0.203 -0.098,0.322 l -0.567,1.512 z"
       id="path872"
       style="fill:#ffffff" /><path
       d="m 20.8595,46 v -4.998 h 0.63 v 4.438 h 2.184 V 46 Z"
       id="path874"
       style="fill:#ffffff" /><path
       d="m 26.557498,43.361 h 1.729 v 2.45 q -0.406,0.133 -0.819,0.196 -0.413,0.063 -0.938,0.063 -0.777,0 -1.309,-0.308 -0.532,-0.315 -0.812,-0.889 -0.273,-0.581 -0.273,-1.372 0,-0.777 0.301,-1.351 0.308,-0.581 0.889,-0.896 0.581,-0.322 1.4,-0.322 0.42,0 0.791,0.077 0.378,0.077 0.7,0.217 l -0.238,0.546 q -0.266,-0.112 -0.602,-0.196 -0.329,-0.091 -0.686,-0.091 -0.896,0 -1.4,0.546 -0.497,0.539 -0.497,1.47 0,0.595 0.189,1.057 0.196,0.455 0.609,0.714 0.413,0.252 1.085,0.252 0.329,0 0.56,-0.035 0.231,-0.035 0.42,-0.084 v -1.484 h -1.099 z"
       id="path876"
       style="fill:#ffffff" /><path
       d="m 33.844502,43.494 q 0,0.777 -0.266,1.358 -0.259,0.574 -0.777,0.896 -0.511,0.322 -1.26,0.322 -0.777,0 -1.295,-0.322 -0.511,-0.322 -0.763,-0.903 -0.252,-0.581 -0.252,-1.358 0,-0.763 0.252,-1.337 0.252,-0.581 0.763,-0.903 0.518,-0.322 1.302,-0.322 0.749,0 1.26,0.322 0.511,0.315 0.77,0.896 0.266,0.574 0.266,1.351 z m -3.948,0 q 0,0.945 0.399,1.491 0.399,0.539 1.246,0.539 0.847,0 1.239,-0.539 0.399,-0.546 0.399,-1.491 0,-0.945 -0.392,-1.477 -0.392,-0.539 -1.239,-0.539 -0.854,0 -1.253,0.539 -0.399,0.532 -0.399,1.477 z"
       id="path878"
       style="fill:#ffffff" /><path
       d="m 36.329503,41.002 q 0.931,0 1.372,0.357 0.448,0.35 0.448,1.064 0,0.399 -0.147,0.665 -0.147,0.266 -0.378,0.427 -0.224,0.161 -0.476,0.245 l 1.372,2.24 h -0.735 l -1.211,-2.065 h -0.994 V 46 h -0.63 v -4.998 z m -0.035,0.546 h -0.714 v 1.855 h 0.749 q 0.609,0 0.889,-0.238 0.28,-0.245 0.28,-0.714 0,-0.49 -0.294,-0.693 -0.294,-0.21 -0.91,-0.21 z"
       id="path880"
       style="fill:#ffffff" /><path
       d="m 40.711502,46 h -1.806 v -0.364 l 0.588,-0.133 v -3.997 l -0.588,-0.14 v -0.364 h 1.806 v 0.364 l -0.588,0.14 v 3.997 l 0.588,0.133 z"
       id="path882"
       style="fill:#ffffff" /><path
       d="m 43.259507,46 h -0.63 v -4.445 h -1.561 v -0.553 h 3.745 v 0.553 h -1.554 z"
       id="path884"
       style="fill:#ffffff" /><path
       d="m 49.391505,46 h -0.63 v -2.331 h -2.562 V 46 h -0.63 v -4.998 h 0.63 v 2.114 h 2.562 v -2.114 h 0.63 z"
       id="path886"
       style="fill:#ffffff" /><path
       d="m 52.961499,46 -1.645,-4.382 h -0.028 q 0.021,0.217 0.035,0.588 0.014,0.364 0.014,0.763 V 46 h -0.581 v -4.998 h 0.931 l 1.54,4.095 h 0.028 l 1.568,-4.095 h 0.924 V 46 h -0.623 v -3.073 q 0,-0.364 0.014,-0.721 0.021,-0.357 0.035,-0.581 h -0.028 l -1.666,4.375 z"
       id="path888"
       style="fill:#ffffff" /><path
       d="m 58.512495,46 h -1.806 v -0.364 l 0.588,-0.133 v -3.997 l -0.588,-0.14 v -0.364 h 1.806 v 0.364 l -0.588,0.14 v 3.997 l 0.588,0.133 z"
       id="path890"
       style="fill:#ffffff" /><path
       d="m 61.620503,41.485 q -0.805,0 -1.267,0.539 -0.462,0.539 -0.462,1.477 0,0.931 0.427,1.477 0.434,0.539 1.295,0.539 0.322,0 0.616,-0.056 0.294,-0.056 0.581,-0.14 v 0.546 q -0.28,0.105 -0.581,0.154 -0.294,0.049 -0.707,0.049 -0.763,0 -1.274,-0.315 -0.511,-0.315 -0.77,-0.896 -0.252,-0.581 -0.252,-1.365 0,-0.756 0.273,-1.33 0.28,-0.581 0.819,-0.903 0.539,-0.329 1.309,-0.329 0.791,0 1.379,0.294 l -0.252,0.532 q -0.231,-0.105 -0.518,-0.189 -0.28,-0.084 -0.616,-0.084 z"
       id="path892"
       style="fill:#ffffff" /><path
       d="m 68.557503,44.663 q 0,0.665 -0.483,1.036 -0.483,0.371 -1.302,0.371 -0.42,0 -0.777,-0.063 -0.357,-0.063 -0.595,-0.175 V 45.23 q 0.252,0.112 0.623,0.203 0.378,0.091 0.777,0.091 0.553,0 0.84,-0.217 0.287,-0.217 0.287,-0.588 0,-0.245 -0.105,-0.413 -0.105,-0.168 -0.364,-0.308 -0.259,-0.14 -0.707,-0.308 -0.644,-0.231 -0.966,-0.567 -0.322,-0.336 -0.322,-0.917 0,-0.392 0.203,-0.679 0.203,-0.287 0.56,-0.441 0.357,-0.154 0.833,-0.154 0.406,0 0.749,0.077 0.343,0.077 0.63,0.203 l -0.196,0.539 q -0.259,-0.112 -0.567,-0.189 -0.308,-0.077 -0.63,-0.077 -0.469,0 -0.707,0.203 -0.238,0.196 -0.238,0.525 0,0.252 0.105,0.42 0.105,0.168 0.343,0.308 0.238,0.133 0.644,0.28 0.441,0.161 0.742,0.35 0.308,0.182 0.462,0.441 0.161,0.259 0.161,0.651 z"
       id="path894"
       style="fill:#ffffff" /><path
       d="m 72.358501,46 h -2.793 v -4.998 h 2.793 v 0.553 h -2.163 v 1.561 h 2.037 v 0.546 h -2.037 v 1.785 h 2.163 z"
       id="path896"
       style="fill:#ffffff" /><path
       d="m 77.8185,43.494 q 0,0.917 -0.371,1.568 -0.364,0.644 -1.085,0.882 l 1.197,1.246 h -0.903 l -0.966,-1.127 q -0.042,0 -0.091,0 -0.042,0.007 -0.084,0.007 -0.777,0 -1.295,-0.322 -0.511,-0.322 -0.763,-0.903 -0.252,-0.581 -0.252,-1.358 0,-0.763 0.252,-1.337 0.252,-0.581 0.763,-0.903 0.518,-0.322 1.302,-0.322 0.749,0 1.26,0.322 0.511,0.315 0.77,0.896 0.266,0.574 0.266,1.351 z m -3.948,0 q 0,0.945 0.399,1.491 0.399,0.539 1.246,0.539 0.847,0 1.239,-0.539 0.399,-0.546 0.399,-1.491 0,-0.945 -0.392,-1.477 -0.392,-0.539 -1.239,-0.539 -0.854,0 -1.253,0.539 -0.399,0.532 -0.399,1.477 z"
       id="path898"
       style="fill:#ffffff" /><path
       d="m 82.725502,41.002 v 3.234 q 0,0.518 -0.21,0.938 -0.21,0.413 -0.644,0.658 -0.434,0.238 -1.092,0.238 -0.938,0 -1.421,-0.504 -0.483,-0.511 -0.483,-1.344 v -3.22 h 0.63 v 3.241 q 0,0.609 0.322,0.945 0.329,0.336 0.987,0.336 0.679,0 0.98,-0.357 0.308,-0.364 0.308,-0.931 v -3.234 z"
       id="path900"
       style="fill:#ffffff" /><path
       d="m 86.834507,46 h -2.793 v -4.998 h 2.793 v 0.553 h -2.163 v 1.561 h 2.037 v 0.546 h -2.037 v 1.785 h 2.163 z"
       id="path902"
       style="fill:#ffffff" /><path
       d="m 91.895505,46 h -0.735 l -2.674,-4.151 h -0.028 q 0.014,0.245 0.035,0.609 0.021,0.364 0.021,0.749 V 46 h -0.581 v -4.998 h 0.728 l 2.667,4.137 h 0.028 q -0.007,-0.112 -0.021,-0.336 -0.007,-0.224 -0.021,-0.483 -0.007,-0.266 -0.007,-0.497 v -2.821 h 0.588 z"
       id="path904"
       style="fill:#ffffff" /><path
       d="m 95.395505,41.485 q -0.805,0 -1.267,0.539 -0.462,0.539 -0.462,1.477 0,0.931 0.427,1.477 0.434,0.539 1.295,0.539 0.322,0 0.616,-0.056 0.294,-0.056 0.581,-0.14 v 0.546 q -0.28,0.105 -0.581,0.154 -0.294,0.049 -0.707,0.049 -0.763,0 -1.274,-0.315 -0.511,-0.315 -0.77,-0.896 -0.252,-0.581 -0.252,-1.365 0,-0.756 0.273,-1.33 0.28,-0.581 0.819,-0.903 0.539,-0.329 1.309,-0.329 0.791,0 1.379,0.294 l -0.252,0.532 q -0.231,-0.105 -0.518,-0.189 -0.28,-0.084 -0.616,-0.084 z"
       id="path906"
       style="fill:#ffffff" /><path
       d="m 100.47051,46 h -2.793002 v -4.998 h 2.793002 v 0.553 h -2.163002 v 1.561 h 2.037002 v 0.546 h -2.037002 v 1.785 h 2.163002 z"
       id="path908"
       style="fill:#ffffff" /><path
       d="m 102.94851,41.002 q 0.931,0 1.372,0.357 0.448,0.35 0.448,1.064 0,0.399 -0.147,0.665 -0.147,0.266 -0.378,0.427 -0.224,0.161 -0.476,0.245 l 1.372,2.24 h -0.735 l -1.211,-2.065 h -0.994 V 46 h -0.63 v -4.998 z m -0.035,0.546 h -0.714 v 1.855 h 0.749 q 0.609,0 0.889,-0.238 0.28,-0.245 0.28,-0.714 0,-0.49 -0.294,-0.693 -0.294,-0.21 -0.91,-0.21 z"
       id="path910"
       style="fill:#ffffff" /></g><!-- Section dividers --><path
     id="line438"
     style="stroke:#353535;stroke-width:0.8"
     d="m 12,47 h 96" /><line
     x1="12"
     y1="143"
     x2="108"
     y2="143"
     stroke="#353535"
     stroke-width="0.8"
     id="line442" /><!-- Section labels --><!-- Parameter labels --><g
     aria-label="R"
     id="text462"
     style="font-weight:bold;font-size:7px;-inkscape-font-specification:'sans-serif, Bold';text-anchor:middle;fill:#e07060"
     transform="translate(-6,50)"><path
       d="m 102.78531,81.536119 q 1.022,0 1.505,0.371 0.49,0.371 0.49,1.127 0,0.343 -0.133,0.602 -0.126,0.252 -0.343,0.434 -0.21,0.175 -0.455,0.287 l 1.47,2.177 h -1.176 l -1.19,-1.918 h -0.567 v 1.918 h -1.057 v -4.998 z m -0.077,0.868 h -0.322 v 1.351 h 0.343 q 0.525,0 0.749,-0.175 0.231,-0.175 0.231,-0.518 0,-0.357 -0.245,-0.504 -0.245,-0.154 -0.756,-0.154 z"
       id="path1359" /></g><!-- I/O Labels --><!-- Footer --><g
     aria-label="SWAPPABLE ALGORITHMS"
     id="text500"
     style="font-size:6.5px;font-family:'Fira Sans', sans-serif;text-anchor:middle;fill:#a5a7c7;fill-opacity:1"
     transform="translate(-1.999742,-30)"
     inkscape:highlight-color="#aaaaaa"><path
       d="m 23.981759,366.7585 q 0,0.6175 -0.4485,0.962 -0.4485,0.3445 -1.209,0.3445 -0.39,0 -0.7215,-0.0585 -0.3315,-0.0585 -0.5525,-0.1625 v -0.559 q 0.234,0.104 0.5785,0.1885 0.351,0.0845 0.7215,0.0845 0.5135,0 0.78,-0.2015 0.2665,-0.2015 0.2665,-0.546 0,-0.2275 -0.0975,-0.3835 -0.0975,-0.156 -0.338,-0.286 -0.2405,-0.13 -0.6565,-0.286 -0.598,-0.2145 -0.897,-0.5265 -0.299,-0.312 -0.299,-0.8515 0,-0.364 0.1885,-0.6305 0.1885,-0.2665 0.52,-0.4095 0.3315,-0.143 0.7735,-0.143 0.377,0 0.6955,0.0715 0.3185,0.0715 0.585,0.1885 l -0.182,0.5005 q -0.2405,-0.104 -0.5265,-0.1755 -0.286,-0.0715 -0.585,-0.0715 -0.4355,0 -0.6565,0.1885 -0.221,0.182 -0.221,0.4875 0,0.234 0.0975,0.39 0.0975,0.156 0.3185,0.286 0.221,0.1235 0.598,0.26 0.4095,0.1495 0.689,0.325 0.286,0.169 0.429,0.4095 0.1495,0.2405 0.1495,0.6045 z"
       id="path924"
       style="fill:#a5a7c7;fill-opacity:1" /><path
       d="m 30.247757,363.359 -1.235,4.641 h -0.5915 l -0.9035,-3.042 q -0.0585,-0.182 -0.1105,-0.3705 -0.0455,-0.195 -0.0845,-0.338 -0.0325,-0.1495 -0.039,-0.208 -0.0065,0.0845 -0.0715,0.364 -0.065,0.273 -0.1495,0.572 L 26.185257,368 h -0.5915 l -1.2285,-4.641 h 0.611 l 0.7215,2.834 q 0.078,0.299 0.13,0.5785 0.0585,0.2795 0.091,0.5265 0.0325,-0.2535 0.0975,-0.5525 0.065,-0.299 0.1495,-0.585 l 0.819,-2.8015 h 0.6045 l 0.8515,2.821 q 0.091,0.299 0.156,0.598 0.065,0.299 0.0975,0.52 0.026,-0.2405 0.0845,-0.52 0.065,-0.286 0.143,-0.5915 l 0.715,-2.8275 z"
       id="path926"
       style="fill:#a5a7c7;fill-opacity:1" /><path
       d="m 33.614753,368 -0.559,-1.4365 h -1.8395 L 30.663753,368 h -0.5915 l 1.8135,-4.6605 h 0.5265 l 1.807,4.6605 z m -0.7345,-1.9565 -0.52,-1.404 q -0.0195,-0.052 -0.065,-0.1885 -0.0455,-0.1365 -0.091,-0.2795 -0.039,-0.1495 -0.065,-0.2275 -0.052,0.2015 -0.1105,0.3965 -0.052,0.1885 -0.091,0.299 l -0.5265,1.404 z"
       id="path928"
       style="fill:#a5a7c7;fill-opacity:1" /><path
       d="m 36.084753,363.359 q 0.91,0 1.326,0.3575 0.416,0.3575 0.416,1.0075 0,0.3835 -0.1755,0.7215 -0.169,0.3315 -0.5785,0.5395 -0.403,0.208 -1.0985,0.208 h -0.533 V 368 h -0.585 v -4.641 z m -0.052,0.5005 h -0.5915 v 1.833 h 0.468 q 0.663,0 0.988,-0.2145 0.325,-0.2145 0.325,-0.728 0,-0.4485 -0.2925,-0.6695 -0.286,-0.221 -0.897,-0.221 z"
       id="path930"
       style="fill:#a5a7c7;fill-opacity:1" /><path
       d="m 40.01725,363.359 q 0.91,0 1.326,0.3575 0.416,0.3575 0.416,1.0075 0,0.3835 -0.1755,0.7215 -0.169,0.3315 -0.5785,0.5395 -0.403,0.208 -1.0985,0.208 h -0.533 V 368 h -0.585 v -4.641 z m -0.052,0.5005 h -0.5915 v 1.833 h 0.468 q 0.663,0 0.988,-0.2145 0.325,-0.2145 0.325,-0.728 0,-0.4485 -0.2925,-0.6695 -0.286,-0.221 -0.897,-0.221 z"
       id="path932"
       style="fill:#a5a7c7;fill-opacity:1" /><path
       d="m 45.308252,368 -0.559,-1.4365 h -1.8395 L 42.357252,368 h -0.5915 l 1.8135,-4.6605 h 0.5265 l 1.807,4.6605 z m -0.7345,-1.9565 -0.52,-1.404 q -0.0195,-0.052 -0.065,-0.1885 -0.0455,-0.1365 -0.091,-0.2795 -0.039,-0.1495 -0.065,-0.2275 -0.052,0.2015 -0.1105,0.3965 -0.052,0.1885 -0.091,0.299 l -0.5265,1.404 z"
       id="path934"
       style="fill:#a5a7c7;fill-opacity:1" /><path
       d="m 46.549751,363.359 h 1.326 q 0.8645,0 1.313,0.26 0.4485,0.26 0.4485,0.8905 0,0.4095 -0.2275,0.6825 -0.2275,0.2665 -0.6565,0.3445 v 0.0325 q 0.2925,0.052 0.5265,0.1755 0.2405,0.1235 0.377,0.351 0.1365,0.2275 0.1365,0.585 0,0.6305 -0.4355,0.975 -0.429,0.3445 -1.1765,0.3445 h -1.6315 z m 0.585,1.976 h 0.858 q 0.5915,0 0.8125,-0.1885 0.2275,-0.195 0.2275,-0.572 0,-0.3835 -0.273,-0.546 -0.2665,-0.169 -0.858,-0.169 h -0.767 z m 0,0.4875 v 1.6835 h 0.936 q 0.6175,0 0.858,-0.2405 0.2405,-0.2405 0.2405,-0.6305 0,-0.364 -0.2535,-0.585 -0.247,-0.2275 -0.8905,-0.2275 z"
       id="path936"
       style="fill:#a5a7c7;fill-opacity:1" /><path
       d="m 50.77475,368 v -4.641 h 0.585 v 4.121 h 2.028 V 368 Z"
       id="path938"
       style="fill:#a5a7c7;fill-opacity:1" /><path
       d="m 56.774248,368 h -2.5935 v -4.641 h 2.5935 v 0.5135 h -2.0085 v 1.4495 h 1.8915 v 0.507 h -1.8915 v 1.6575 h 2.0085 z"
       id="path940"
       style="fill:#a5a7c7;fill-opacity:1" /><path
       d="m 62.396749,368 -0.559,-1.4365 h -1.8395 L 59.445749,368 h -0.5915 l 1.8135,-4.6605 h 0.5265 l 1.807,4.6605 z m -0.7345,-1.9565 -0.52,-1.404 q -0.0195,-0.052 -0.065,-0.1885 -0.0455,-0.1365 -0.091,-0.2795 -0.039,-0.1495 -0.065,-0.2275 -0.052,0.2015 -0.1105,0.3965 -0.052,0.1885 -0.091,0.299 l -0.5265,1.404 z"
       id="path942"
       style="fill:#a5a7c7;fill-opacity:1" /><path
       d="m 63.638249,368 v -4.641 h 0.585 v 4.121 h 2.028 V 368 Z"
       id="path944"
       style="fill:#a5a7c7;fill-opacity:1" /><path
       d="m 68.929246,365.5495 h 1.6055 v 2.275 q -0.377,0.1235 -0.7605,0.182 -0.3835,0.0585 -0.871,0.0585 -0.7215,0 -1.2155,-0.286 -0.494,-0.2925 -0.754,-0.8255 -0.2535,-0.5395 -0.2535,-1.274 0,-0.7215 0.2795,-1.2545 0.286,-0.5395 0.8255,-0.832 0.5395,-0.299 1.3,-0.299 0.39,0 0.7345,0.0715 0.351,0.0715 0.65,0.2015 l -0.221,0.507 q -0.247,-0.104 -0.559,-0.182 -0.3055,-0.0845 -0.637,-0.0845 -0.832,0 -1.3,0.507 -0.4615,0.5005 -0.4615,1.365 0,0.5525 0.1755,0.9815 0.182,0.4225 0.5655,0.663 0.3835,0.234 1.0075,0.234 0.3055,0 0.52,-0.0325 0.2145,-0.0325 0.39,-0.078 v -1.378 h -1.0205 z"
       id="path946"
       style="fill:#a5a7c7;fill-opacity:1" /><path
       d="m 75.695752,365.673 q 0,0.7215 -0.247,1.261 -0.2405,0.533 -0.7215,0.832 -0.4745,0.299 -1.17,0.299 -0.7215,0 -1.2025,-0.299 -0.4745,-0.299 -0.7085,-0.8385 -0.234,-0.5395 -0.234,-1.261 0,-0.7085 0.234,-1.2415 0.234,-0.5395 0.7085,-0.8385 0.481,-0.299 1.209,-0.299 0.6955,0 1.17,0.299 0.4745,0.2925 0.715,0.832 0.247,0.533 0.247,1.2545 z m -3.666,0 q 0,0.8775 0.3705,1.3845 0.3705,0.5005 1.157,0.5005 0.7865,0 1.1505,-0.5005 0.3705,-0.507 0.3705,-1.3845 0,-0.8775 -0.364,-1.3715 -0.364,-0.5005 -1.1505,-0.5005 -0.793,0 -1.1635,0.5005 -0.3705,0.494 -0.3705,1.3715 z"
       id="path948"
       style="fill:#a5a7c7;fill-opacity:1" /><path
       d="m 78.003252,363.359 q 0.8645,0 1.274,0.3315 0.416,0.325 0.416,0.988 0,0.3705 -0.1365,0.6175 -0.1365,0.247 -0.351,0.3965 -0.208,0.1495 -0.442,0.2275 l 1.274,2.08 h -0.6825 l -1.1245,-1.9175 h -0.923 V 368 h -0.585 v -4.641 z m -0.0325,0.507 h -0.663 v 1.7225 h 0.6955 q 0.5655,0 0.8255,-0.221 0.26,-0.2275 0.26,-0.663 0,-0.455 -0.273,-0.6435 -0.273,-0.195 -0.845,-0.195 z"
       id="path950"
       style="fill:#a5a7c7;fill-opacity:1" /><path
       d="m 82.072251,368 h -1.677 v -0.338 l 0.546,-0.1235 v -3.7115 l -0.546,-0.13 v -0.338 h 1.677 v 0.338 l -0.546,0.13 v 3.7115 l 0.546,0.1235 z"
       id="path952"
       style="fill:#a5a7c7;fill-opacity:1" /><path
       d="m 84.438254,368 h -0.585 v -4.1275 h -1.4495 v -0.5135 h 3.4775 v 0.5135 h -1.443 z"
       id="path954"
       style="fill:#a5a7c7;fill-opacity:1" /><path
       d="m 90.132252,368 h -0.585 v -2.1645 h -2.379 V 368 h -0.585 v -4.641 h 0.585 v 1.963 h 2.379 v -1.963 h 0.585 z"
       id="path956"
       style="fill:#a5a7c7;fill-opacity:1" /><path
       d="m 93.44725,368 -1.5275,-4.069 h -0.026 q 0.0195,0.2015 0.0325,0.546 0.013,0.338 0.013,0.7085 V 368 h -0.5395 v -4.641 h 0.8645 l 1.43,3.8025 h 0.026 l 1.456,-3.8025 h 0.858 V 368 h -0.5785 v -2.8535 q 0,-0.338 0.013,-0.6695 0.0195,-0.3315 0.0325,-0.5395 h -0.026 L 93.92825,368 Z"
       id="path958"
       style="fill:#a5a7c7;fill-opacity:1" /><path
       d="m 99.927742,366.7585 q 0,0.6175 -0.4485,0.962 -0.4485,0.3445 -1.209,0.3445 -0.39,0 -0.7215,-0.0585 -0.3315,-0.0585 -0.5525,-0.1625 v -0.559 q 0.234,0.104 0.5785,0.1885 0.351,0.0845 0.7215,0.0845 0.5135,0 0.78,-0.2015 0.2665,-0.2015 0.2665,-0.546 0,-0.2275 -0.0975,-0.3835 -0.0975,-0.156 -0.338,-0.286 -0.2405,-0.13 -0.6565,-0.286 -0.598,-0.2145 -0.897,-0.5265 -0.299,-0.312 -0.299,-0.8515 0,-0.364 0.1885,-0.6305 0.1885,-0.2665 0.52,-0.4095 0.3315,-0.143 0.7735,-0.143 0.377,0 0.6955,0.0715 0.3185,0.0715 0.585,0.1885 l -0.182,0.5005 q -0.2405,-0.104 -0.5265,-0.1755 -0.286,-0.0715 -0.585,-0.0715 -0.4355,0 -0.6565,0.1885 -0.221,0.182 -0.221,0.4875 0,0.234 0.0975,0.39 0.0975,0.156 0.3185,0.286 0.221,0.1235 0.598,0.26 0.4095,0.1495 0.689,0.325 0.286,0.169 0.429,0.4095 0.1495,0.2405 0.1495,0.6045 z"
       id="path960"
       style="fill:#a5a7c7;fill-opacity:1" /></g></svg>
