<?xml version="1.0" encoding="UTF-8" standalone="no"?>
<svg
   width="120.952"
   height="380"
   viewBox="0 0 120.952 380"
   version="1.1"
   id="svg2161"
   sodipodi:docname="Sitri.svg"
   inkscape:version="1.2.2 (732a01da63, 2022-12-09)"
   xmlns:inkscape="http://www.inkscape.org/namespaces/inkscape"
   xmlns:sodipodi="http://sodipodi.sourceforge.net/DTD/sodipodi-0.dtd"
   xmlns="http://www.w3.org/2000/svg"
   xmlns:svg="http://www.w3.org/2000/svg">
  <defs
     id="defs2165" />
  <sodipodi:namedview
     id="namedview2163"
     pagecolor="#505050"
     bordercolor="#eeeeee"
     borderopacity="1"
     inkscape:showpageshadow="0"
     inkscape:pageopacity="0"
     inkscape:pagecheckerboard="0"
     inkscape:deskcolor="#505050"
     showgrid="false"
     inkscape:zoom="2.7026316"
     inkscape:cx="94.907498"
     inkscape:cy="143.93379"
     inkscape:window-width="2560"
     inkscape:window-height="1369"
     inkscape:window-x="2552"
     inkscape:window-y="212"
     inkscape:window-maximized="1"
     inkscape:current-layer="svg2161" />
  <!-- Background -->
  <rect
     width="120.952"
     height="380"
     fill="#1a1a1a"
     id="rect2089" />
  <rect
     x="3"
     y="3"
     width="114.952"
     height="374"
     fill="#252525"
     stroke="#404040"
     stroke-width="1.2"
     id="rect2091" />
  <!-- Title -->
  <g
     aria-label="SITRI"
     id="text2093"
     style="font-weight:bold;font-size:16px;font-family:'Fira Sans', sans-serif;letter-spacing:2;text-anchor:middle;fill:#e0e5ef">
    <path
       d="m 44.107995,31.832 q 0,1.52 -1.104,2.432 -1.088,0.896 -3.104,0.896 -1.808,0 -3.232,-0.688 v -2.256 q 0.816,0.352 1.68,0.656 0.88,0.288 1.744,0.288 0.896,0 1.264,-0.336 0.384,-0.352 0.384,-0.88 0,-0.432 -0.304,-0.736 -0.288,-0.304 -0.784,-0.56 -0.496,-0.272 -1.136,-0.576 -0.4,-0.192 -0.864,-0.448 -0.464,-0.272 -0.896,-0.656 -0.416,-0.4 -0.688,-0.96 -0.272,-0.56 -0.272,-1.344 0,-1.536 1.04,-2.384 1.04,-0.864 2.832,-0.864 0.896,0 1.696,0.208 0.8,0.208 1.696,0.592 l -0.784,1.888 q -0.784,-0.32 -1.408,-0.496 -0.624,-0.176 -1.28,-0.176 -0.688,0 -1.056,0.32 -0.368,0.32 -0.368,0.832 0,0.608 0.544,0.96 0.544,0.352 1.616,0.864 0.88,0.416 1.488,0.864 0.624,0.448 0.96,1.056 0.336,0.608 0.336,1.504 z"
       id="path2577" />
    <path
       d="m 52.460005,35 h -5.2 v -1.376 l 1.392,-0.64 v -7.392 l -1.392,-0.64 v -1.376 h 5.2 v 1.376 l -1.392,0.64 v 7.392 l 1.392,0.64 z"
       id="path2579" />
    <path
       d="m 60.812004,35 h -2.416 v -9.408 h -3.104 v -2.016 h 8.624 v 2.016 h -3.104 z"
       id="path2581" />
    <path
       d="m 71.004012,23.576 q 2.336,0 3.44,0.848 1.12,0.848 1.12,2.576 0,0.784 -0.304,1.376 -0.288,0.576 -0.784,0.992 -0.48,0.4 -1.04,0.656 l 3.36,4.976 h -2.688 l -2.72,-4.384 h -1.296 V 35 h -2.416 V 23.576 Z m -0.176,1.984 h -0.736 v 3.088 h 0.784 q 1.2,0 1.712,-0.4 0.528,-0.4 0.528,-1.184 0,-0.816 -0.56,-1.152 -0.56,-0.352 -1.728,-0.352 z"
       id="path2583" />
    <path
       d="m 84.508009,35 h -5.2 v -1.376 l 1.392,-0.64 v -7.392 l -1.392,-0.64 v -1.376 h 5.2 v 1.376 l -1.392,0.64 v 7.392 l 1.392,0.64 z"
       id="path2585" />
  </g>
  <g
     aria-label="ALGORITHMIC SEQUENCER"
     id="text2095"
     style="font-size:7px;font-family:'Fira Sans', sans-serif;text-anchor:middle;fill:#808590">
    <path
       d="m 19.5225,46 -0.602,-1.547 h -1.981 L 16.3445,46 h -0.637 l 1.953,-5.019 h 0.567 L 20.1735,46 Z m -0.791,-2.107 -0.56,-1.512 q -0.021,-0.056 -0.07,-0.203 -0.049,-0.147 -0.098,-0.301 -0.042,-0.161 -0.07,-0.245 -0.056,0.217 -0.119,0.427 -0.056,0.203 -0.098,0.322 l -0.567,1.512 z"
       id="path2536" />
    <path
       d="m 20.8595,46 v -4.998 h 0.63 v 4.438 h 2.184 V 46 Z"
       id="path2538" />
    <path
       d="m 26.557498,43.361 h 1.729 v 2.45 q -0.406,0.133 -0.819,0.196 -0.413,0.063 -0.938,0.063 -0.777,0 -1.309,-0.308 -0.532,-0.315 -0.812,-0.889 -0.273,-0.581 -0.273,-1.372 0,-0.777 0.301,-1.351 0.308,-0.581 0.889,-0.896 0.581,-0.322 1.4,-0.322 0.42,0 0.791,0.077 0.378,0.077 0.7,0.217 l -0.238,0.546 q -0.266,-0.112 -0.602,-0.196 -0.329,-0.091 -0.686,-0.091 -0.896,0 -1.4,0.546 -0.497,0.539 -0.497,1.47 0,0.595 0.189,1.057 0.196,0.455 0.609,0.714 0.413,0.252 1.085,0.252 0.329,0 0.56,-0.035 0.231,-0.035 0.42,-0.084 v -1.484 h -1.099 z"
       id="path2540" />
    <path
       d="m 33.844502,43.494 q 0,0.777 -0.266,1.358 -0.259,0.574 -0.777,0.896 -0.511,0.322 -1.26,0.322 -0.777,0 -1.295,-0.322 -0.511,-0.322 -0.763,-0.903 -0.252,-0.581 -0.252,-1.358 0,-0.763 0.252,-1.337 0.252,-0.581 0.763,-0.903 0.518,-0.322 1.302,-0.322 0.749,0 1.26,0.322 0.511,0.315 0.77,0.896 0.266,0.574 0.266,1.351 z m -3.948,0 q 0,0.945 0.399,1.491 0.399,0.539 1.246,0.539 0.847,0 1.239,-0.539 0.399,-0.546 0.399,-1.491 0,-0.945 -0.392,-1.477 -0.392,-0.539 -1.239,-0.539 -0.854,0 -1.253,0.539 -0.399,0.532 -0.399,1.477 z"
       id="path2542" />
    <path
       d="m 36.329503,41.002 q 0.931,0 1.372,0.357 0.448,0.35 0.448,1.064 0,0.399 -0.147,0.665 -0.147,0.266 -0.378,0.427 -0.224,0.161 -0.476,0.245 l 1.372,2.24 h -0.735 l -1.211,-2.065 h -0.994 V 46 h -0.63 v -4.998 z m -0.035,0.546 h -0.714 v 1.855 h 0.749 q 0.609,0 0.889,-0.238 0.28,-0.245 0.28,-0.714 0,-0.49 -0.294,-0.693 -0.294,-0.21 -0.91,-0.21 z"
       id="path2544" />
    <path
       d="m 40.711502,46 h -1.806 v -0.364 l 0.588,-0.133 v -3.997 l -0.588,-0.14 v -0.364 h 1.806 v 0.364 l -0.588,0.14 v 3.997 l 0.588,0.133 z"
       id="path2546" />
    <path
       d="m 43.259507,46 h -0.63 v -4.445 h -1.561 v -0.553 h 3.745 v 0.553 h -1.554 z"
       id="path2548" />
    <path
       d="m 49.391505,46 h -0.63 v -2.331 h -2.562 V 46 h -0.63 v -4.998 h 0.63 v 2.114 h 2.562 v -2.114 h 0.63 z"
       id="path2550" />
    <path
       d="m 52.961499,46 -1.645,-4.382 h -0.028 q 0.021,0.217 0.035,0.588 0.014,0.364 0.014,0.763 V 46 h -0.581 v -4.998 h 0.931 l 1.54,4.095 h 0.028 l 1.568,-4.095 h 0.924 V 46 h -0.623 v -3.073 q 0,-0.364 0.014,-0.721 0.021,-0.357 0.035,-0.581 h -0.028 l -1.666,4.375 z"
       id="path2552" />
    <path
       d="m 58.512495,46 h -1.806 v -0.364 l 0.588,-0.133 v -3.997 l -0.588,-0.14 v -0.364 h 1.806 v 0.364 l -0.588,0.14 v 3.997 l 0.588,0.133 z"
       id="path2554" />
    <path
       d="m 61.620503,41.485 q -0.805,0 -1.267,0.539 -0.462,0.539 -0.462,1.477 0,0.931 0.427,1.477 0.434,0.539 1.295,0.539 0.322,0 0.616,-0.056 0.294,-0.056 0.581,-0.14 v 0.546 q -0.28,0.105 -0.581,0.154 -0.294,0.049 -0.707,0.049 -0.763,0 -1.274,-0.315 -0.511,-0.315 -0.77,-0.896 -0.252,-0.581 -0.252,-1.365 0,-0.756 0.273,-1.33 0.28,-0.581 0.819,-0.903 0.539,-0.329 1.309,-0.329 0.791,0 1.379,0.294 l -0.252,0.532 q -0.231,-0.105 -0.518,-0.189 -0.28,-0.084 -0.616,-0.084 z"
       id="path2556" />
    <path
       d="m 68.557503,44.663 q 0,0.665 -0.483,1.036 -0.483,0.371 -1.302,0.371 -0.42,0 -0.777,-0.063 -0.357,-0.063 -0.595,-0.175 V 45.23 q 0.252,0.112 0.623,0.203 0.378,0.091 0.777,0.091 0.553,0 0.84,-0.217 0.287,-0.217 0.287,-0.588 0,-0.245 -0.105,-0.413 -0.105,-0.168 -0.364,-0.308 -0.259,-0.14 -0.707,-0.308 -0.644,-0.231 -0.966,-0.567 -0.322,-0.336 -0.322,-0.917 0,-0.392 0.203,-0.679 0.203,-0.287 0.56,-0.441 0.357,-0.154 0.833,-0.154 0.406,0 0.749,0.077 0.343,0.077 0.63,0.203 l -0.196,0.539 q -0.259,-0.112 -0.567,-0.189 -0.308,-0.077 -0.63,-0.077 -0.469,0 -0.707,0.203 -0.238,0.196 -0.238,0.525 0,0.252 0.105,0.42 0.105,0.168 0.343,0.308 0.238,0.133 0.644,0.28 0.441,0.161 0.742,0.35 0.308,0.182 0.462,0.441 0.161,0.259 0.161,0.651 z"
       id="path2558" />
    <path
       d="m 72.358501,46 h -2.793 v -4.998 h 2.793 v 0.553 h -2.163 v 1.561 h 2.037 v 0.546 h -2.037 v 1.785 h 2.163 z"
       id="path2560" />
    <path
       d="m 77.8185,43.494 q 0,0.917 -0.371,1.568 -0.364,0.644 -1.085,0.882 l 1.197,1.246 h -0.903 l -0.966,-1.127 q -0.042,0 -0.091,0 -0.042,0.007 -0.084,0.007 -0.777,0 -1.295,-0.322 -0.511,-0.322 -0.763,-0.903 -0.252,-0.581 -0.252,-1.358 0,-0.763 0.252,-1.337 0.252,-0.581 0.763,-0.903 0.518,-0.322 1.302,-0.322 0.749,0 1.26,0.322 0.511,0.315 0.77,0.896 0.266,0.574 0.266,1.351 z m -3.948,0 q 0,0.945 0.399,1.491 0.399,0.539 1.246,0.539 0.847,0 1.239,-0.539 0.399,-0.546 0.399,-1.491 0,-0.945 -0.392,-1.477 -0.392,-0.539 -1.239,-0.539 -0.854,0 -1.253,0.539 -0.399,0.532 -0.399,1.477 z"
       id="path2562" />
    <path
       d="m 82.725502,41.002 v 3.234 q 0,0.518 -0.21,0.938 -0.21,0.413 -0.644,0.658 -0.434,0.238 -1.092,0.238 -0.938,0 -1.421,-0.504 -0.483,-0.511 -0.483,-1.344 v -3.22 h 0.63 v 3.241 q 0,0.609 0.322,0.945 0.329,0.336 0.987,0.336 0.679,0 0.98,-0.357 0.308,-0.364 0.308,-0.931 v -3.234 z"
       id="path2564" />
    <path
       d="m 86.834507,46 h -2.793 v -4.998 h 2.793 v 0.553 h -2.163 v 1.561 h 2.037 v 0.546 h -2.037 v 1.785 h 2.163 z"
       id="path2566" />
    <path
       d="m 91.895505,46 h -0.735 l -2.674,-4.151 h -0.028 q 0.014,0.245 0.035,0.609 0.021,0.364 0.021,0.749 V 46 h -0.581 v -4.998 h 0.728 l 2.667,4.137 h 0.028 q -0.007,-0.112 -0.021,-0.336 -0.007,-0.224 -0.021,-0.483 -0.007,-0.266 -0.007,-0.497 v -2.821 h 0.588 z"
       id="path2568" />
    <path
       d="m 95.395505,41.485 q -0.805,0 -1.267,0.539 -0.462,0.539 -0.462,1.477 0,0.931 0.427,1.477 0.434,0.539 1.295,0.539 0.322,0 0.616,-0.056 0.294,-0.056 0.581,-0.14 v 0.546 q -0.28,0.105 -0.581,0.154 -0.294,0.049 -0.707,0.049 -0.763,0 -1.274,-0.315 -0.511,-0.315 -0.77,-0.896 -0.252,-0.581 -0.252,-1.365 0,-0.756 0.273,-1.33 0.28,-0.581 0.819,-0.903 0.539,-0.329 1.309,-0.329 0.791,0 1.379,0.294 l -0.252,0.532 q -0.231,-0.105 -0.518,-0.189 -0.28,-0.084 -0.616,-0.084 z"
       id="path2570" />
    <path
       d="m 100.47051,46 h -2.793002 v -4.998 h 2.793002 v 0.553 h -2.163002 v 1.561 h 2.037002 v 0.546 h -2.037002 v 1.785 h 2.163002 z"
       id="path2572" />
    <path
       d="m 102.94851,41.002 q 0.931,0 1.372,0.357 0.448,0.35 0.448,1.064 0,0.399 -0.147,0.665 -0.147,0.266 -0.378,0.427 -0.224,0.161 -0.476,0.245 l 1.372,2.24 h -0.735 l -1.211,-2.065 h -0.994 V 46 h -0.63 v -4.998 z m -0.035,0.546 h -0.714 v 1.855 h 0.749 q 0.609,0 0.889,-0.238 0.28,-0.245 0.28,-0.714 0,-0.49 -0.294,-0.693 -0.294,-0.21 -0.91,-0.21 z"
       id="path2574" />
  </g>
  <!-- Section dividers -->
  <line
     x1="12"
     y1="55"
     x2="108"
     y2="55"
     stroke="#353535"
     stroke-width="0.8"
     id="line2097" />
  <line
     x1="12"
     y1="92"
     x2="108"
     y2="92"
     stroke="#353535"
     stroke-width="0.8"
     id="line2099" />
  <line
     x1="12"
     y1="141"
     x2="108"
     y2="141"
     stroke="#353535"
     stroke-width="0.8"
     id="line2101" />
  <line
     x1="12"
     y1="190"
     x2="108"
     y2="190"
     stroke="#353535"
     stroke-width="0.8"
     id="line2103" />
  <line
     x1="12"
     y1="278"
     x2="108"
     y2="278"
     stroke="#353535"
     stroke-width="0.8"
     id="line2105" />
  <!-- Section labels -->
  <g
     aria-label="ALGORITHM"
     id="text2107"
     style="font-weight:600;font-size:6.5px;font-family:'Fira Sans', sans-serif;fill:#70758f">
    <path
       d="m 18.4255,64 -0.338,-1.105 h -1.69 L 16.0595,64 H 15 l 1.638,-4.6605 h 1.2025 L 19.485,64 Z m -0.572,-1.9305 -0.338,-1.079 Q 17.483,60.88 17.431,60.711 17.379,60.542 17.327,60.3665 17.275,60.191 17.2425,60.061 q -0.0325,0.13 -0.091,0.325 -0.052,0.1885 -0.104,0.364 -0.0455,0.169 -0.0715,0.2405 l -0.3315,1.079 z"
       id="path2645" />
    <path
       d="m 20.070003,64 v -4.641 h 0.9815 v 3.8285 h 1.885 V 64 Z"
       id="path2647" />
    <path
       d="m 25.374004,61.3935 h 1.8395 v 2.405 q -0.364,0.1235 -0.7605,0.195 -0.3965,0.0715 -0.8905,0.0715 -1.04,0 -1.599,-0.611 -0.559,-0.611 -0.559,-1.781 0,-0.728 0.2795,-1.261 0.2795,-0.533 0.819,-0.8255 0.546,-0.2925 1.326,-0.2925 0.3705,0 0.728,0.078 0.3575,0.078 0.65,0.208 l -0.325,0.7865 q -0.2145,-0.1105 -0.4875,-0.182 -0.273,-0.0715 -0.572,-0.0715 -0.429,0 -0.7475,0.195 -0.312,0.195 -0.4875,0.5525 -0.169,0.3575 -0.169,0.832 0,0.455 0.1235,0.806 0.1235,0.351 0.39,0.5525 0.2665,0.195 0.6955,0.195 0.208,0 0.351,-0.0195 0.143,-0.0195 0.273,-0.0455 v -0.9685 h -0.8775 z"
       id="path2649" />
    <path
       d="m 32.53051,61.673 q 0,0.7215 -0.2405,1.261 -0.234,0.533 -0.728,0.832 -0.4875,0.299 -1.2415,0.299 -0.754,0 -1.248,-0.299 -0.4875,-0.299 -0.728,-0.8385 -0.234,-0.5395 -0.234,-1.261 0,-0.7215 0.234,-1.2545 0.2405,-0.533 0.728,-0.8255 0.494,-0.299 1.2545,-0.299 0.754,0 1.2415,0.299 0.4875,0.2925 0.7215,0.832 0.2405,0.533 0.2405,1.2545 z m -3.3865,0 q 0,0.728 0.2795,1.1505 0.2795,0.416 0.897,0.416 0.6305,0 0.9035,-0.416 0.273,-0.4225 0.273,-1.1505 0,-0.728 -0.273,-1.144 -0.273,-0.4225 -0.897,-0.4225 -0.624,0 -0.9035,0.4225 -0.2795,0.416 -0.2795,1.144 z"
       id="path2651" />
    <path
       d="m 34.844507,59.359 q 0.949,0 1.3975,0.3445 0.455,0.3445 0.455,1.0465 0,0.3185 -0.1235,0.559 -0.117,0.234 -0.3185,0.403 -0.195,0.1625 -0.4225,0.2665 l 1.365,2.0215 h -1.092 l -1.105,-1.781 h -0.5265 V 64 h -0.9815 v -4.641 z m -0.0715,0.806 h -0.299 v 1.2545 h 0.3185 q 0.4875,0 0.6955,-0.1625 0.2145,-0.1625 0.2145,-0.481 0,-0.3315 -0.2275,-0.468 -0.2275,-0.143 -0.702,-0.143 z"
       id="path2653" />
    <path
       d="m 39.518006,64 h -2.1125 v -0.559 l 0.5655,-0.26 v -3.003 l -0.5655,-0.26 v -0.559 h 2.1125 v 0.559 l -0.5655,0.26 v 3.003 l 0.5655,0.26 z"
       id="path2655" />
    <path
       d="m 42.098506,64 h -0.9815 v -3.822 h -1.261 v -0.819 h 3.5035 v 0.819 h -1.261 z"
       id="path2657" />
    <path
       d="m 47.87701,64 h -0.9815 v -2.002 h -1.8395 V 64 h -0.9815 v -4.641 h 0.9815 v 1.82 h 1.8395 v -1.82 h 0.9815 z"
       id="path2659" />
    <path
       d="m 51.010006,64 -1.118,-3.64 h -0.026 q 0.0065,0.13 0.0195,0.39 0.013,0.26 0.026,0.559 0.013,0.299 0.013,0.533 V 64 h -0.8775 v -4.641 h 1.339 l 1.0985,3.549 h 0.0195 l 1.1635,-3.549 h 1.339 V 64 h -0.9165 v -2.197 q 0,-0.221 0.0065,-0.507 0.013,-0.286 0.0195,-0.5395 0.013,-0.26 0.0195,-0.39 h -0.026 L 51.913506,64 Z"
       id="path2661" />
  </g>
  <g
     aria-label="SEQUENCE"
     id="text2109"
     style="font-weight:600;font-size:6.5px;font-family:'Fira Sans', sans-serif;fill:#70758f">
    <path
       d="m 18.3215,99.713 q 0,0.6175 -0.4485,0.988 -0.442,0.364 -1.261,0.364 -0.7345,0 -1.313,-0.2795 V 99.869 q 0.3315,0.143 0.6825,0.2665 0.3575,0.117 0.7085,0.117 0.364,0 0.5135,-0.1365 0.156,-0.143 0.156,-0.3575 0,-0.1755 -0.1235,-0.299 Q 17.119,99.336 16.9175,99.232 16.716,99.1215 16.456,98.998 16.2935,98.92 16.105,98.816 15.9165,98.7055 15.741,98.5495 15.572,98.387 15.4615,98.1595 15.351,97.932 15.351,97.6135 q 0,-0.624 0.4225,-0.9685 0.4225,-0.351 1.1505,-0.351 0.364,0 0.689,0.0845 0.325,0.0845 0.689,0.2405 l -0.3185,0.767 q -0.3185,-0.13 -0.572,-0.2015 -0.2535,-0.0715 -0.52,-0.0715 -0.2795,0 -0.429,0.13 -0.1495,0.13 -0.1495,0.338 0,0.247 0.221,0.39 0.221,0.143 0.6565,0.351 0.3575,0.169 0.6045,0.351 0.2535,0.182 0.39,0.429 0.1365,0.247 0.1365,0.611 z"
       id="path2628" />
    <path
       d="m 21.838004,101 h -2.6715 v -4.641 h 2.6715 v 0.806 h -1.69 v 1.0205 h 1.573 v 0.806 h -1.573 v 1.196 h 1.69 z"
       id="path2630" />
    <path
       d="m 27.0185,98.673 q 0,0.78 -0.2795,1.352 -0.2795,0.572 -0.8645,0.832 l 1.118,1.248 h -1.261 l -0.8515,-1.04 h -0.0715 q -0.754,0 -1.248,-0.299 -0.4875,-0.299 -0.728,-0.8385 -0.234,-0.5395 -0.234,-1.261 0,-0.7215 0.234,-1.2545 0.2405,-0.533 0.728,-0.8255 0.494,-0.299 1.2545,-0.299 0.754,0 1.2415,0.299 0.4875,0.2925 0.7215,0.832 0.2405,0.533 0.2405,1.2545 z m -3.3865,0 q 0,0.728 0.2795,1.1505 0.2795,0.416 0.897,0.416 0.6305,0 0.9035,-0.416 0.273,-0.4225 0.273,-1.1505 0,-0.728 -0.273,-1.144 -0.273,-0.4225 -0.897,-0.4225 -0.624,0 -0.9035,0.4225 -0.2795,0.416 -0.2795,1.144 z"
       id="path2632" />
    <path
       d="m 31.756997,96.359 v 3.003 q 0,0.481 -0.2145,0.871 -0.208,0.3835 -0.637,0.611 -0.429,0.221 -1.0725,0.221 -0.923,0 -1.404,-0.468 -0.481,-0.4745 -0.481,-1.248 v -2.99 h 0.9815 v 2.8405 q 0,0.5785 0.234,0.8125 0.234,0.2275 0.6955,0.2275 0.481,0 0.6955,-0.2535 0.221,-0.2535 0.221,-0.793 v -2.834 z"
       id="path2634" />
    <path
       d="m 35.566002,101 h -2.6715 v -4.641 h 2.6715 v 0.806 h -1.69 v 1.0205 h 1.573 v 0.806 h -1.573 v 1.196 h 1.69 z"
       id="path2636" />
    <path
       d="m 40.648997,101 h -1.248 l -2.0215,-3.51 h -0.026 q 0.013,0.3315 0.026,0.663 0.0195,0.3315 0.0325,0.663 V 101 h -0.8775 v -4.641 h 1.2415 l 2.015,3.4775 h 0.0195 q -0.013,-0.3185 -0.026,-0.637 -0.013,-0.3185 -0.0195,-0.6435 v -2.197 h 0.884 z"
       id="path2638" />
    <path
       d="m 43.788495,97.113 q -0.5655,0 -0.8645,0.4225 -0.299,0.4225 -0.299,1.157 0,0.741 0.273,1.1505 0.2795,0.403 0.8905,0.403 0.2795,0 0.5655,-0.065 0.286,-0.065 0.6175,-0.182 v 0.8255 q -0.3055,0.1235 -0.6045,0.182 -0.299,0.0585 -0.6695,0.0585 -0.7215,0 -1.183,-0.2925 -0.4615,-0.299 -0.6825,-0.832 -0.221,-0.5395 -0.221,-1.2545 0,-0.702 0.2535,-1.2415 0.2535,-0.5395 0.7345,-0.845 0.4875,-0.3055 1.1895,-0.3055 0.3445,0 0.689,0.091 0.351,0.0845 0.6695,0.234 l -0.3185,0.7995 q -0.26,-0.1235 -0.5265,-0.2145 -0.26,-0.091 -0.5135,-0.091 z"
       id="path2640" />
    <path
       d="m 48.630989,101 h -2.6715 v -4.641 h 2.6715 v 0.806 h -1.69 v 1.0205 h 1.573 v 0.806 h -1.573 v 1.196 h 1.69 z"
       id="path2642" />
  </g>
  <g
     aria-label="EXPRESSION"
     id="text2111"
     style="font-weight:600;font-size:6.5px;font-family:'Fira Sans', sans-serif;fill:#70758f">
    <path
       d="M 18.2565,150 H 15.585 v -4.641 h 2.6715 v 0.806 h -1.69 v 1.0205 h 1.573 v 0.806 h -1.573 v 1.196 h 1.69 z"
       id="path2607" />
    <path
       d="m 22.975497,150 h -1.1245 l -1.079,-1.755 -1.079,1.755 h -1.053 l 1.5405,-2.392 -1.443,-2.249 h 1.0855 l 1.001,1.6705 0.9815,-1.6705 h 1.0595 l -1.456,2.301 z"
       id="path2609" />
    <path
       d="m 25.042495,145.359 q 0.897,0 1.3065,0.39 0.416,0.3835 0.416,1.0595 0,0.4095 -0.169,0.7605 -0.169,0.351 -0.5655,0.5655 -0.39,0.2145 -1.066,0.2145 h -0.4225 V 150 h -0.9815 v -4.641 z m -0.052,0.806 h -0.4485 v 1.378 h 0.325 q 0.416,0 0.6565,-0.1625 0.247,-0.169 0.247,-0.5395 0,-0.676 -0.78,-0.676 z"
       id="path2611" />
    <path
       d="m 28.994497,145.359 q 0.949,0 1.3975,0.3445 0.455,0.3445 0.455,1.0465 0,0.3185 -0.1235,0.559 -0.117,0.234 -0.3185,0.403 -0.195,0.1625 -0.4225,0.2665 l 1.365,2.0215 h -1.092 l -1.105,-1.781 h -0.5265 V 150 h -0.9815 v -4.641 z m -0.0715,0.806 h -0.299 v 1.2545 h 0.3185 q 0.4875,0 0.6955,-0.1625 0.2145,-0.1625 0.2145,-0.481 0,-0.3315 -0.2275,-0.468 -0.2275,-0.143 -0.702,-0.143 z"
       id="path2613" />
    <path
       d="m 34.603996,150 h -2.6715 v -4.641 h 2.6715 v 0.806 h -1.69 v 1.0205 h 1.573 v 0.806 h -1.573 v 1.196 h 1.69 z"
       id="path2615" />
    <path
       d="m 38.308992,148.713 q 0,0.6175 -0.4485,0.988 -0.442,0.364 -1.261,0.364 -0.7345,0 -1.313,-0.2795 v -0.9165 q 0.3315,0.143 0.6825,0.2665 0.3575,0.117 0.7085,0.117 0.364,0 0.5135,-0.1365 0.156,-0.143 0.156,-0.3575 0,-0.1755 -0.1235,-0.299 -0.117,-0.1235 -0.3185,-0.2275 -0.2015,-0.1105 -0.4615,-0.234 -0.1625,-0.078 -0.351,-0.182 -0.1885,-0.1105 -0.364,-0.2665 -0.169,-0.1625 -0.2795,-0.39 -0.1105,-0.2275 -0.1105,-0.546 0,-0.624 0.4225,-0.9685 0.4225,-0.351 1.1505,-0.351 0.364,0 0.689,0.0845 0.325,0.0845 0.689,0.2405 l -0.3185,0.767 q -0.3185,-0.13 -0.572,-0.2015 -0.2535,-0.0715 -0.52,-0.0715 -0.2795,0 -0.429,0.13 -0.1495,0.13 -0.1495,0.338 0,0.247 0.221,0.39 0.221,0.143 0.6565,0.351 0.3575,0.169 0.6045,0.351 0.2535,0.182 0.39,0.429 0.1365,0.247 0.1365,0.611 z"
       id="path2617" />
    <path
       d="m 41.890496,148.713 q 0,0.6175 -0.4485,0.988 -0.442,0.364 -1.261,0.364 -0.7345,0 -1.313,-0.2795 v -0.9165 q 0.3315,0.143 0.6825,0.2665 0.3575,0.117 0.7085,0.117 0.364,0 0.5135,-0.1365 0.156,-0.143 0.156,-0.3575 0,-0.1755 -0.1235,-0.299 -0.117,-0.1235 -0.3185,-0.2275 -0.2015,-0.1105 -0.4615,-0.234 -0.1625,-0.078 -0.351,-0.182 -0.1885,-0.1105 -0.364,-0.2665 -0.169,-0.1625 -0.2795,-0.39 -0.1105,-0.2275 -0.1105,-0.546 0,-0.624 0.4225,-0.9685 0.4225,-0.351 1.1505,-0.351 0.364,0 0.689,0.0845 0.325,0.0845 0.689,0.2405 l -0.3185,0.767 q -0.3185,-0.13 -0.572,-0.2015 -0.2535,-0.0715 -0.52,-0.0715 -0.2795,0 -0.429,0.13 -0.1495,0.13 -0.1495,0.338 0,0.247 0.221,0.39 0.221,0.143 0.6565,0.351 0.3575,0.169 0.6045,0.351 0.2535,0.182 0.39,0.429 0.1365,0.247 0.1365,0.611 z"
       id="path2619" />
    <path
       d="m 44.471001,150 h -2.1125 v -0.559 l 0.5655,-0.26 v -3.003 l -0.5655,-0.26 v -0.559 h 2.1125 v 0.559 l -0.5655,0.26 v 3.003 l 0.5655,0.26 z"
       id="path2621" />
    <path
       d="m 49.476001,147.673 q 0,0.7215 -0.2405,1.261 -0.234,0.533 -0.728,0.832 -0.4875,0.299 -1.2415,0.299 -0.754,0 -1.248,-0.299 -0.4875,-0.299 -0.728,-0.8385 -0.234,-0.5395 -0.234,-1.261 0,-0.7215 0.234,-1.2545 0.2405,-0.533 0.728,-0.8255 0.494,-0.299 1.2545,-0.299 0.754,0 1.2415,0.299 0.4875,0.2925 0.7215,0.832 0.2405,0.533 0.2405,1.2545 z m -3.3865,0 q 0,0.728 0.2795,1.1505 0.2795,0.416 0.897,0.416 0.6305,0 0.9035,-0.416 0.273,-0.4225 0.273,-1.1505 0,-0.728 -0.273,-1.144 -0.273,-0.4225 -0.897,-0.4225 -0.624,0 -0.9035,0.4225 -0.2795,0.416 -0.2795,1.144 z"
       id="path2623" />
    <path
       d="m 54.552497,150 h -1.248 l -2.0215,-3.51 h -0.026 q 0.013,0.3315 0.026,0.663 0.0195,0.3315 0.0325,0.663 V 150 h -0.8775 v -4.641 h 1.2415 l 2.015,3.4775 h 0.0195 q -0.013,-0.3185 -0.026,-0.637 -0.013,-0.3185 -0.0195,-0.6435 v -2.197 h 0.884 z"
       id="path2625" />
  </g>
  <g
     aria-label="QUANTIZER"
     id="text2113"
     style="font-weight:600;font-size:6.5px;font-family:'Fira Sans', sans-serif;fill:#70758f">
    <path
       d="m 19.797,196.673 q 0,0.78 -0.2795,1.352 -0.2795,0.572 -0.8645,0.832 l 1.118,1.248 H 18.51 l -0.8515,-1.04 H 17.587 q -0.754,0 -1.248,-0.299 -0.4875,-0.299 -0.728,-0.8385 -0.234,-0.5395 -0.234,-1.261 0,-0.7215 0.234,-1.2545 0.2405,-0.533 0.728,-0.8255 0.494,-0.299 1.2545,-0.299 0.754,0 1.2415,0.299 0.4875,0.2925 0.7215,0.832 0.2405,0.533 0.2405,1.2545 z m -3.3865,0 q 0,0.728 0.2795,1.1505 0.2795,0.416 0.897,0.416 0.6305,0 0.9035,-0.416 0.273,-0.4225 0.273,-1.1505 0,-0.728 -0.273,-1.144 -0.273,-0.4225 -0.897,-0.4225 -0.624,0 -0.9035,0.4225 -0.2795,0.416 -0.2795,1.144 z"
       id="path2588" />
    <path
       d="m 24.535497,194.359 v 3.003 q 0,0.481 -0.2145,0.871 -0.208,0.3835 -0.637,0.611 -0.429,0.221 -1.0725,0.221 -0.923,0 -1.404,-0.468 -0.481,-0.4745 -0.481,-1.248 v -2.99 h 0.9815 v 2.8405 q 0,0.5785 0.234,0.8125 0.234,0.2275 0.6955,0.2275 0.481,0 0.6955,-0.2535 0.221,-0.2535 0.221,-0.793 v -2.834 z"
       id="path2590" />
    <path
       d="m 28.448499,199 -0.338,-1.105 h -1.69 l -0.338,1.105 h -1.0595 l 1.638,-4.6605 h 1.2025 l 1.6445,4.6605 z m -0.572,-1.9305 -0.338,-1.079 q -0.0325,-0.1105 -0.0845,-0.2795 -0.052,-0.169 -0.104,-0.3445 -0.052,-0.1755 -0.0845,-0.3055 -0.0325,0.13 -0.091,0.325 -0.052,0.1885 -0.104,0.364 -0.0455,0.169 -0.0715,0.2405 l -0.3315,1.079 z"
       id="path2592" />
    <path
       d="m 34.207502,199 h -1.248 l -2.0215,-3.51 h -0.026 q 0.013,0.3315 0.026,0.663 0.0195,0.3315 0.0325,0.663 V 199 h -0.8775 v -4.641 h 1.2415 l 2.015,3.4775 h 0.0195 q -0.013,-0.3185 -0.026,-0.637 -0.013,-0.3185 -0.0195,-0.6435 v -2.197 h 0.884 z"
       id="path2594" />
    <path
       d="m 37.165,199 h -0.9815 v -3.822 h -1.261 v -0.819 h 3.5035 v 0.819 h -1.261 z"
       id="path2596" />
    <path
       d="m 40.876504,199 h -2.1125 v -0.559 l 0.5655,-0.26 v -3.003 l -0.5655,-0.26 v -0.559 h 2.1125 v 0.559 l -0.5655,0.26 v 3.003 l 0.5655,0.26 z"
       id="path2598" />
    <path
       d="m 44.692003,199 h -3.4515 v -0.637 l 2.223,-3.1915 h -2.1645 v -0.8125 h 3.3345 v 0.637 l -2.223,3.1915 h 2.2815 z"
       id="path2600" />
    <path
       d="m 48.104507,199 h -2.6715 v -4.641 h 2.6715 v 0.806 h -1.69 v 1.0205 h 1.573 v 0.806 h -1.573 v 1.196 h 1.69 z"
       id="path2602" />
    <path
       d="m 50.425003,194.359 q 0.949,0 1.3975,0.3445 0.455,0.3445 0.455,1.0465 0,0.3185 -0.1235,0.559 -0.117,0.234 -0.3185,0.403 -0.195,0.1625 -0.4225,0.2665 l 1.365,2.0215 h -1.092 l -1.105,-1.781 h -0.5265 V 199 h -0.9815 v -4.641 z m -0.0715,0.806 h -0.299 v 1.2545 h 0.3185 q 0.4875,0 0.6955,-0.1625 0.2145,-0.1625 0.2145,-0.481 0,-0.3315 -0.2275,-0.468 -0.2275,-0.143 -0.702,-0.143 z"
       id="path2604" />
  </g>
  <g
     aria-label="I/O"
     id="text2115"
     inkscape:label="text2115"
     style="font-weight:600;font-size:6.5px;font-family:'Fira Sans', sans-serif;fill:#70758f">
    <path
       d="M 17.3205,287 H 15.208 v -0.559 l 0.5655,-0.26 v -3.003 l -0.5655,-0.26 v -0.559 h 2.1125 v 0.559 l -0.5655,0.26 v 3.003 l 0.5655,0.26 z"
       id="path2664" />
    <path
       d="M 20.1805,282.359 18.4515,287 H 17.574 l 1.729,-4.641 z"
       id="path2666" />
    <path
       d="m 25.01,284.673 q 0,0.7215 -0.2405,1.261 -0.234,0.533 -0.728,0.832 -0.4875,0.299 -1.2415,0.299 -0.754,0 -1.248,-0.299 -0.4875,-0.299 -0.728,-0.8385 -0.234,-0.5395 -0.234,-1.261 0,-0.7215 0.234,-1.2545 0.2405,-0.533 0.728,-0.8255 0.494,-0.299 1.2545,-0.299 0.754,0 1.2415,0.299 0.4875,0.2925 0.7215,0.832 0.2405,0.533 0.2405,1.2545 z m -3.3865,0 q 0,0.728 0.2795,1.1505 0.2795,0.416 0.897,0.416 0.6305,0 0.9035,-0.416 0.273,-0.4225 0.273,-1.1505 0,-0.728 -0.273,-1.144 -0.273,-0.4225 -0.897,-0.4225 -0.624,0 -0.9035,0.4225 -0.2795,0.416 -0.2795,1.144 z"
       id="path2668" />
  </g>
  <!-- Parameter labels -->
  <g
     aria-label="TYPE"
     id="text2117"
     style="font-size:6px;font-family:'Fira Sans', sans-serif;text-anchor:middle;fill:#60656f">
    <path
       d="m 32.589003,71 h -0.54 v -3.81 h -1.338 v -0.474 h 3.21 v 0.474 h -1.332 z"
       id="path2284" />
    <path
       d="m 35.685001,68.822 1.116,-2.106 h 0.582 l -1.428,2.622 V 71 h -0.54 v -1.638 l -1.428,-2.646 h 0.588 z"
       id="path2286" />
    <path
       d="m 39.099001,66.716 q 0.84,0 1.224,0.33 0.384,0.33 0.384,0.93 0,0.354 -0.162,0.666 -0.156,0.306 -0.534,0.498 -0.372,0.192 -1.014,0.192 h -0.492 V 71 h -0.54 v -4.284 z m -0.048,0.462 h -0.546 v 1.692 h 0.432 q 0.612,0 0.912,-0.198 0.3,-0.198 0.3,-0.672 0,-0.414 -0.27,-0.618 -0.264,-0.204 -0.828,-0.204 z"
       id="path2288" />
    <path
       d="m 43.988999,71 h -2.394 v -4.284 h 2.394 v 0.474 h -1.854 v 1.338 h 1.746 v 0.468 h -1.746 v 1.53 h 1.854 z"
       id="path2290" />
  </g>
  <g
     aria-label="SEED"
     id="text2119"
     style="font-size:6px;font-family:'Fira Sans', sans-serif;text-anchor:middle;fill:#60656f">
    <path
       d="m 70.839003,69.854 q 0,0.57 -0.414,0.888 -0.414,0.318 -1.116,0.318 -0.36,0 -0.666,-0.054 -0.306,-0.054 -0.51,-0.15 V 70.34 q 0.216,0.096 0.534,0.174 0.324,0.078 0.666,0.078 0.474,0 0.72,-0.186 0.246,-0.186 0.246,-0.504 0,-0.21 -0.09,-0.354 -0.09,-0.144 -0.312,-0.264 -0.222,-0.12 -0.606,-0.264 -0.552,-0.198 -0.828,-0.486 -0.276,-0.288 -0.276,-0.786 0,-0.336 0.174,-0.582 0.174,-0.246 0.48,-0.378 0.306,-0.132 0.714,-0.132 0.348,0 0.642,0.066 0.294,0.066 0.54,0.174 l -0.168,0.462 q -0.222,-0.096 -0.486,-0.162 -0.264,-0.066 -0.54,-0.066 -0.402,0 -0.606,0.174 -0.204,0.168 -0.204,0.45 0,0.216 0.09,0.36 0.09,0.144 0.294,0.264 0.204,0.114 0.552,0.24 0.378,0.138 0.636,0.3 0.264,0.156 0.396,0.378 0.138,0.222 0.138,0.558 z"
       id="path2293" />
    <path
       d="m 74.097002,71 h -2.394 v -4.284 h 2.394 v 0.474 h -1.854 v 1.338 h 1.746 v 0.468 h -1.746 v 1.53 h 1.854 z"
       id="path2295" />
    <path
       d="m 77.433001,71 h -2.394 v -4.284 h 2.394 v 0.474 h -1.854 v 1.338 h 1.746 v 0.468 h -1.746 v 1.53 h 1.854 z"
       id="path2297" />
    <path
       d="m 81.806999,68.816 q 0,1.086 -0.594,1.638 -0.588,0.546 -1.644,0.546 h -1.194 v -4.284 h 1.32 q 0.642,0 1.116,0.24 0.48,0.24 0.738,0.708 0.258,0.468 0.258,1.152 z m -0.57,0.018 q 0,-0.858 -0.426,-1.254 -0.42,-0.402 -1.194,-0.402 h -0.702 v 3.36 h 0.582 q 1.74,0 1.74,-1.704 z"
       id="path2299" />
  </g>
  <g
     aria-label="RESEED"
     id="text2121"
     style="font-weight:bold;font-size:7px;font-family:'Fira Sans', sans-serif;text-anchor:middle;fill:#e07060">
    <path
       d="m 49.377505,79.002 q 1.022,0 1.505,0.371 0.49,0.371 0.49,1.127 0,0.343 -0.133,0.602 -0.126,0.252 -0.343,0.434 -0.21,0.175 -0.455,0.287 l 1.47,2.177 h -1.176 l -1.19,-1.918 h -0.567 V 84 h -1.057 v -4.998 z m -0.077,0.868 h -0.322 v 1.351 h 0.343 q 0.525,0 0.749,-0.175 0.231,-0.175 0.231,-0.518 0,-0.357 -0.245,-0.504 -0.245,-0.154 -0.756,-0.154 z"
       id="path2302" />
    <path
       d="m 55.418504,84 h -2.877 v -4.998 h 2.877 v 0.868 h -1.82 v 1.099 h 1.694 v 0.868 h -1.694 v 1.288 h 1.82 z"
       id="path2304" />
    <path
       d="m 59.4085,82.614 q 0,0.665 -0.483,1.064 -0.476,0.392 -1.358,0.392 -0.791,0 -1.414,-0.301 v -0.987 q 0.357,0.154 0.735,0.287 0.385,0.126 0.763,0.126 0.392,0 0.553,-0.147 0.168,-0.154 0.168,-0.385 0,-0.189 -0.133,-0.322 -0.126,-0.133 -0.343,-0.245 -0.217,-0.119 -0.497,-0.252 -0.175,-0.084 -0.378,-0.196 -0.203,-0.119 -0.392,-0.287 -0.182,-0.175 -0.301,-0.42 -0.119,-0.245 -0.119,-0.588 0,-0.672 0.455,-1.043 0.455,-0.378 1.239,-0.378 0.392,0 0.742,0.091 0.35,0.091 0.742,0.259 l -0.343,0.826 q -0.343,-0.14 -0.616,-0.217 -0.273,-0.077 -0.56,-0.077 -0.301,0 -0.462,0.14 -0.161,0.14 -0.161,0.364 0,0.266 0.238,0.42 0.238,0.154 0.707,0.378 0.385,0.182 0.651,0.378 0.273,0.196 0.42,0.462 0.147,0.266 0.147,0.658 z"
       id="path2306" />
    <path
       d="m 63.195504,84 h -2.877 v -4.998 h 2.877 v 0.868 h -1.82 v 1.099 h 1.694 v 0.868 h -1.694 v 1.288 h 1.82 z"
       id="path2308" />
    <path
       d="m 67.1155,84 h -2.877 v -4.998 h 2.877 v 0.868 h -1.82 v 1.099 h 1.694 v 0.868 h -1.694 v 1.288 h 1.82 z"
       id="path2310" />
    <path
       d="m 72.302497,81.452 q 0,1.267 -0.721,1.911 -0.721,0.637 -2.009,0.637 h -1.414 v -4.998 h 1.568 q 0.784,0 1.358,0.28 0.581,0.28 0.896,0.826 0.322,0.546 0.322,1.344 z m -1.099,0.028 q 0,-0.826 -0.364,-1.218 -0.364,-0.392 -1.057,-0.392 h -0.567 v 3.255 h 0.455 q 1.533,0 1.533,-1.645 z"
       id="path2312" />
  </g>
  <g
     aria-label="STEPS"
     id="text2123"
     style="font-size:6px;font-family:'Fira Sans', sans-serif;text-anchor:middle;fill:#60656f">
    <path
       d="m 19.567004,106.854 q 0,0.57 -0.414,0.888 -0.414,0.318 -1.116,0.318 -0.36,0 -0.666,-0.054 -0.306,-0.054 -0.51,-0.15 v -0.516 q 0.216,0.096 0.534,0.174 0.324,0.078 0.666,0.078 0.474,0 0.72,-0.186 0.246,-0.186 0.246,-0.504 0,-0.21 -0.09,-0.354 -0.09,-0.144 -0.312,-0.264 -0.222,-0.12 -0.606,-0.264 -0.552,-0.198 -0.828,-0.486 -0.276,-0.288 -0.276,-0.786 0,-0.336 0.174,-0.582 0.174,-0.246 0.48,-0.378 0.306,-0.132 0.714,-0.132 0.348,0 0.642,0.066 0.294,0.066 0.54,0.174 l -0.168,0.462 q -0.222,-0.096 -0.486,-0.162 -0.264,-0.066 -0.54,-0.066 -0.402,0 -0.606,0.174 -0.204,0.168 -0.204,0.45 0,0.216 0.09,0.36 0.09,0.144 0.294,0.264 0.204,0.114 0.552,0.24 0.378,0.138 0.636,0.3 0.264,0.156 0.396,0.378 0.138,0.222 0.138,0.558 z"
       id="path2315" />
    <path
       d="m 21.787003,108 h -0.54 v -3.81 h -1.338 v -0.474 h 3.21 v 0.474 h -1.332 z"
       id="path2317" />
    <path
       d="m 26.161001,108 h -2.394 v -4.284 h 2.394 v 0.474 h -1.854 v 1.338 h 1.746 v 0.468 h -1.746 v 1.53 h 1.854 z"
       id="path2319" />
    <path
       d="m 28.237,103.716 q 0.84,0 1.224,0.33 0.384,0.33 0.384,0.93 0,0.354 -0.162,0.666 -0.156,0.306 -0.534,0.498 -0.372,0.192 -1.014,0.192 H 27.643 V 108 h -0.54 v -4.284 z m -0.048,0.462 h -0.546 v 1.692 h 0.432 q 0.612,0 0.912,-0.198 0.3,-0.198 0.3,-0.672 0,-0.414 -0.27,-0.618 -0.264,-0.204 -0.828,-0.204 z"
       id="path2321" />
    <path
       d="m 33.162997,106.854 q 0,0.57 -0.414,0.888 -0.414,0.318 -1.116,0.318 -0.36,0 -0.666,-0.054 -0.306,-0.054 -0.51,-0.15 v -0.516 q 0.216,0.096 0.534,0.174 0.324,0.078 0.666,0.078 0.474,0 0.72,-0.186 0.246,-0.186 0.246,-0.504 0,-0.21 -0.09,-0.354 -0.09,-0.144 -0.312,-0.264 -0.222,-0.12 -0.606,-0.264 -0.552,-0.198 -0.828,-0.486 -0.276,-0.288 -0.276,-0.786 0,-0.336 0.174,-0.582 0.174,-0.246 0.48,-0.378 0.306,-0.132 0.714,-0.132 0.348,0 0.642,0.066 0.294,0.066 0.54,0.174 l -0.168,0.462 q -0.222,-0.096 -0.486,-0.162 -0.264,-0.066 -0.54,-0.066 -0.402,0 -0.606,0.174 -0.204,0.168 -0.204,0.45 0,0.216 0.09,0.36 0.09,0.144 0.294,0.264 0.204,0.114 0.552,0.24 0.378,0.138 0.636,0.3 0.264,0.156 0.396,0.378 0.138,0.222 0.138,0.558 z"
       id="path2323" />
  </g>
  <g
     aria-label="OFST"
     id="text2125"
     style="font-size:6px;font-family:'Fira Sans', sans-serif;text-anchor:middle;fill:#60656f">
    <path
       d="m 52.105004,105.852 q 0,0.666 -0.228,1.164 -0.222,0.492 -0.666,0.768 -0.438,0.276 -1.08,0.276 -0.666,0 -1.11,-0.276 -0.438,-0.276 -0.654,-0.774 -0.216,-0.498 -0.216,-1.164 0,-0.654 0.216,-1.146 0.216,-0.498 0.654,-0.774 0.444,-0.276 1.116,-0.276 0.642,0 1.08,0.276 0.438,0.27 0.66,0.768 0.228,0.492 0.228,1.158 z m -3.384,0 q 0,0.81 0.342,1.278 0.342,0.462 1.068,0.462 0.726,0 1.062,-0.462 0.342,-0.468 0.342,-1.278 0,-0.81 -0.336,-1.266 -0.336,-0.462 -1.062,-0.462 -0.732,0 -1.074,0.462 -0.342,0.456 -0.342,1.266 z"
       id="path2326" />
    <path
       d="m 53.593004,108 h -0.54 v -4.284 h 2.394 v 0.474 h -1.854 v 1.518 h 1.74 v 0.474 h -1.74 z"
       id="path2328" />
    <path
       d="m 58.596999,106.854 q 0,0.57 -0.414,0.888 -0.414,0.318 -1.116,0.318 -0.36,0 -0.666,-0.054 -0.306,-0.054 -0.51,-0.15 v -0.516 q 0.216,0.096 0.534,0.174 0.324,0.078 0.666,0.078 0.474,0 0.72,-0.186 0.246,-0.186 0.246,-0.504 0,-0.21 -0.09,-0.354 -0.09,-0.144 -0.312,-0.264 -0.222,-0.12 -0.606,-0.264 -0.552,-0.198 -0.828,-0.486 -0.276,-0.288 -0.276,-0.786 0,-0.336 0.174,-0.582 0.174,-0.246 0.48,-0.378 0.306,-0.132 0.714,-0.132 0.348,0 0.642,0.066 0.294,0.066 0.54,0.174 l -0.168,0.462 q -0.222,-0.096 -0.486,-0.162 -0.264,-0.066 -0.54,-0.066 -0.402,0 -0.606,0.174 -0.204,0.168 -0.204,0.45 0,0.216 0.09,0.36 0.09,0.144 0.294,0.264 0.204,0.114 0.552,0.24 0.378,0.138 0.636,0.3 0.264,0.156 0.396,0.378 0.138,0.222 0.138,0.558 z"
       id="path2330" />
    <path
       d="m 60.816998,108 h -0.54 v -3.81 h -1.338 v -0.474 h 3.21 v 0.474 h -1.332 z"
       id="path2332" />
  </g>
  <g
     aria-label="DIV"
     id="text2127"
     style="font-size:6px;font-family:'Fira Sans', sans-serif;text-anchor:middle;fill:#60656f">
    <path
       d="m 24.006998,130.816 q 0,1.086 -0.594,1.638 -0.588,0.546 -1.644,0.546 h -1.194 v -4.284 h 1.32 q 0.642,0 1.116,0.24 0.48,0.24 0.738,0.708 0.258,0.468 0.258,1.152 z m -0.57,0.018 q 0,-0.858 -0.426,-1.254 -0.42,-0.402 -1.194,-0.402 h -0.702 v 3.36 h 0.582 q 1.74,0 1.74,-1.704 z"
       id="path2335" />
    <path
       d="m 26.160995,133 h -1.548 v -0.312 l 0.504,-0.114 v -3.426 l -0.504,-0.12 v -0.312 h 1.548 v 0.312 l -0.504,0.12 v 3.426 l 0.504,0.114 z"
       id="path2337" />
    <path
       d="M 30.007,128.716 28.477,133 h -0.54 l -1.53,-4.284 h 0.564 l 0.966,2.748 q 0.096,0.264 0.156,0.498 0.066,0.228 0.114,0.438 0.042,-0.21 0.108,-0.444 0.066,-0.234 0.162,-0.504 l 0.96,-2.736 z"
       id="path2339" />
  </g>
  <g
     aria-label="DIR"
     id="text2129"
     style="font-size:6px;font-family:'Fira Sans', sans-serif;text-anchor:middle;fill:#60656f">
    <path
       d="m 53.941,130.816 q 0,1.086 -0.594,1.638 Q 52.759,133 51.703,133 h -1.194 v -4.284 h 1.32 q 0.642,0 1.116,0.24 0.48,0.24 0.738,0.708 0.258,0.468 0.258,1.152 z m -0.57,0.018 q 0,-0.858 -0.426,-1.254 -0.42,-0.402 -1.194,-0.402 h -0.702 v 3.36 h 0.582 q 1.74,0 1.74,-1.704 z"
       id="path2342" />
    <path
       d="m 56.094997,133 h -1.548 v -0.312 l 0.504,-0.114 v -3.426 l -0.504,-0.12 v -0.312 h 1.548 v 0.312 l -0.504,0.12 v 3.426 l 0.504,0.114 z"
       id="path2344" />
    <path
       d="m 58.105002,128.716 q 0.798,0 1.176,0.306 0.384,0.3 0.384,0.912 0,0.342 -0.126,0.57 -0.126,0.228 -0.324,0.366 -0.192,0.138 -0.408,0.21 l 1.176,1.92 h -0.63 l -1.038,-1.77 h -0.852 V 133 h -0.54 v -4.284 z m -0.03,0.468 h -0.612 v 1.59 h 0.642 q 0.522,0 0.762,-0.204 0.24,-0.21 0.24,-0.612 0,-0.42 -0.252,-0.594 -0.252,-0.18 -0.78,-0.18 z"
       id="path2346" />
  </g>
  <g
     aria-label="DENS"
     id="text2131"
     style="font-size:6px;font-family:'Fira Sans', sans-serif;text-anchor:middle;fill:#60656f">
    <path
       d="m 21.229002,154.816 q 0,1.086 -0.594,1.638 -0.588,0.546 -1.644,0.546 h -1.194 v -4.284 h 1.32 q 0.642,0 1.116,0.24 0.48,0.24 0.738,0.708 0.258,0.468 0.258,1.152 z m -0.57,0.018 q 0,-0.858 -0.426,-1.254 -0.42,-0.402 -1.194,-0.402 h -0.702 v 3.36 h 0.582 q 1.74,0 1.74,-1.704 z"
       id="path2349" />
    <path
       d="m 24.570999,157 h -2.394 v -4.284 h 2.394 v 0.474 h -1.854 v 1.338 h 1.746 v 0.468 h -1.746 v 1.53 h 1.854 z"
       id="path2351" />
    <path
       d="m 28.908998,157 h -0.63 l -2.292,-3.558 h -0.024 q 0.012,0.21 0.03,0.522 0.018,0.312 0.018,0.642 V 157 h -0.498 v -4.284 h 0.624 l 2.286,3.546 h 0.024 q -0.006,-0.096 -0.018,-0.288 -0.006,-0.192 -0.018,-0.414 -0.006,-0.228 -0.006,-0.426 v -2.418 h 0.504 z"
       id="path2353" />
    <path
       d="m 32.502999,155.854 q 0,0.57 -0.414,0.888 -0.414,0.318 -1.116,0.318 -0.36,0 -0.666,-0.054 -0.306,-0.054 -0.51,-0.15 v -0.516 q 0.216,0.096 0.534,0.174 0.324,0.078 0.666,0.078 0.474,0 0.72,-0.186 0.246,-0.186 0.246,-0.504 0,-0.21 -0.09,-0.354 -0.09,-0.144 -0.312,-0.264 -0.222,-0.12 -0.606,-0.264 -0.552,-0.198 -0.828,-0.486 -0.276,-0.288 -0.276,-0.786 0,-0.336 0.174,-0.582 0.174,-0.246 0.48,-0.378 0.306,-0.132 0.714,-0.132 0.348,0 0.642,0.066 0.294,0.066 0.54,0.174 l -0.168,0.462 q -0.222,-0.096 -0.486,-0.162 -0.264,-0.066 -0.54,-0.066 -0.402,0 -0.606,0.174 -0.204,0.168 -0.204,0.45 0,0.216 0.09,0.36 0.09,0.144 0.294,0.264 0.204,0.114 0.552,0.24 0.378,0.138 0.636,0.3 0.264,0.156 0.396,0.378 0.138,0.222 0.138,0.558 z"
       id="path2355" />
  </g>
  <g
     aria-label="ACNT"
     id="text2133"
     style="font-size:6px;font-family:'Fira Sans', sans-serif;text-anchor:middle;fill:#60656f">
    <path
       d="m 50.569002,157 -0.516,-1.326 h -1.698 l -0.51,1.326 h -0.546 l 1.674,-4.302 h 0.486 l 1.668,4.302 z m -0.678,-1.806 -0.48,-1.296 q -0.018,-0.048 -0.06,-0.174 -0.042,-0.126 -0.084,-0.258 -0.036,-0.138 -0.06,-0.21 -0.048,0.186 -0.102,0.366 -0.048,0.174 -0.084,0.276 l -0.486,1.296 z"
       id="path2358" />
    <path
       d="m 53.430999,153.13 q -0.69,0 -1.086,0.462 -0.396,0.462 -0.396,1.266 0,0.798 0.366,1.266 0.372,0.462 1.11,0.462 0.276,0 0.528,-0.048 0.252,-0.048 0.498,-0.12 v 0.468 q -0.24,0.09 -0.498,0.132 -0.252,0.042 -0.606,0.042 -0.654,0 -1.092,-0.27 -0.438,-0.27 -0.66,-0.768 -0.216,-0.498 -0.216,-1.17 0,-0.648 0.234,-1.14 0.24,-0.498 0.702,-0.774 0.462,-0.282 1.122,-0.282 0.678,0 1.182,0.252 l -0.216,0.456 q -0.198,-0.09 -0.444,-0.162 -0.24,-0.072 -0.528,-0.072 z"
       id="path2360" />
    <path
       d="m 58.782998,157 h -0.63 l -2.292,-3.558 h -0.024 q 0.012,0.21 0.03,0.522 0.018,0.312 0.018,0.642 V 157 h -0.498 v -4.284 h 0.624 l 2.286,3.546 h 0.024 q -0.006,-0.096 -0.018,-0.288 -0.006,-0.192 -0.018,-0.414 -0.006,-0.228 -0.006,-0.426 v -2.418 h 0.504 z"
       id="path2362" />
    <path
       d="m 61.303,157 h -0.54 v -3.81 h -1.338 v -0.474 h 3.21 v 0.474 h -1.332 z"
       id="path2364" />
  </g>
  <g
     aria-label="GATE"
     id="text2135"
     style="font-size:6px;font-family:'Fira Sans', sans-serif;text-anchor:middle;fill:#60656f">
    <path
       d="m 20.214999,179.738 h 1.482 v 2.1 q -0.348,0.114 -0.702,0.168 -0.354,0.054 -0.804,0.054 -0.666,0 -1.122,-0.264 -0.456,-0.27 -0.696,-0.762 -0.234,-0.498 -0.234,-1.176 0,-0.666 0.258,-1.158 0.264,-0.498 0.762,-0.768 0.498,-0.276 1.2,-0.276 0.36,0 0.678,0.066 0.324,0.066 0.6,0.186 l -0.204,0.468 q -0.228,-0.096 -0.516,-0.168 -0.282,-0.078 -0.588,-0.078 -0.768,0 -1.2,0.468 -0.426,0.462 -0.426,1.26 0,0.51 0.162,0.906 0.168,0.39 0.522,0.612 0.354,0.216 0.93,0.216 0.282,0 0.48,-0.03 0.198,-0.03 0.36,-0.072 v -1.272 h -0.942 z"
       id="path2367" />
    <path
       d="m 25.411003,182 -0.516,-1.326 h -1.698 l -0.51,1.326 h -0.546 l 1.674,-4.302 h 0.486 l 1.668,4.302 z m -0.678,-1.806 -0.48,-1.296 q -0.018,-0.048 -0.06,-0.174 -0.042,-0.126 -0.084,-0.258 -0.036,-0.138 -0.06,-0.21 -0.048,0.186 -0.102,0.366 -0.048,0.174 -0.084,0.276 l -0.486,1.296 z"
       id="path2369" />
    <path
       d="m 27.493004,182 h -0.54 v -3.81 h -1.338 v -0.474 h 3.21 v 0.474 h -1.332 z"
       id="path2371" />
    <path
       d="m 31.867003,182 h -2.394 v -4.284 h 2.394 v 0.474 h -1.854 v 1.338 h 1.746 v 0.468 h -1.746 v 1.53 h 1.854 z"
       id="path2373" />
  </g>
  <g
     aria-label="SWNG"
     id="text2137"
     style="font-size:6px;font-family:'Fira Sans', sans-serif;text-anchor:middle;fill:#60656f">
    <path
       d="m 49.110997,180.854 q 0,0.57 -0.414,0.888 -0.414,0.318 -1.116,0.318 -0.36,0 -0.666,-0.054 -0.306,-0.054 -0.51,-0.15 v -0.516 q 0.216,0.096 0.534,0.174 0.324,0.078 0.666,0.078 0.474,0 0.72,-0.186 0.246,-0.186 0.246,-0.504 0,-0.21 -0.09,-0.354 -0.09,-0.144 -0.312,-0.264 -0.222,-0.12 -0.606,-0.264 -0.552,-0.198 -0.828,-0.486 -0.276,-0.288 -0.276,-0.786 0,-0.336 0.174,-0.582 0.174,-0.246 0.48,-0.378 0.306,-0.132 0.714,-0.132 0.348,0 0.642,0.066 0.294,0.066 0.54,0.174 l -0.168,0.462 q -0.222,-0.096 -0.486,-0.162 -0.264,-0.066 -0.54,-0.066 -0.402,0 -0.606,0.174 -0.204,0.168 -0.204,0.45 0,0.216 0.09,0.36 0.09,0.144 0.294,0.264 0.204,0.114 0.552,0.24 0.378,0.138 0.636,0.3 0.264,0.156 0.396,0.378 0.138,0.222 0.138,0.558 z"
       id="path2376" />
    <path
       d="m 54.894996,177.716 -1.14,4.284 h -0.546 l -0.834,-2.808 q -0.054,-0.168 -0.102,-0.342 -0.042,-0.18 -0.078,-0.312 -0.03,-0.138 -0.036,-0.192 -0.006,0.078 -0.066,0.336 -0.06,0.252 -0.138,0.528 l -0.81,2.79 h -0.546 l -1.134,-4.284 h 0.564 l 0.666,2.616 q 0.072,0.276 0.12,0.534 0.054,0.258 0.084,0.486 0.03,-0.234 0.09,-0.51 0.06,-0.276 0.138,-0.54 l 0.756,-2.586 h 0.558 l 0.786,2.604 q 0.084,0.276 0.144,0.552 0.06,0.276 0.09,0.48 0.024,-0.222 0.078,-0.48 0.06,-0.264 0.132,-0.546 l 0.66,-2.61 z"
       id="path2378" />
    <path
       d="m 58.950998,182 h -0.63 l -2.292,-3.558 h -0.024 q 0.012,0.21 0.03,0.522 0.018,0.312 0.018,0.642 V 182 h -0.498 v -4.284 h 0.624 l 2.286,3.546 h 0.024 q -0.006,-0.096 -0.018,-0.288 -0.006,-0.192 -0.018,-0.414 -0.006,-0.228 -0.006,-0.426 v -2.418 h 0.504 z"
       id="path2380" />
    <path
       d="m 61.974999,179.738 h 1.482 v 2.1 q -0.348,0.114 -0.702,0.168 -0.354,0.054 -0.804,0.054 -0.666,0 -1.122,-0.264 -0.456,-0.27 -0.696,-0.762 -0.234,-0.498 -0.234,-1.176 0,-0.666 0.258,-1.158 0.264,-0.498 0.762,-0.768 0.498,-0.276 1.2,-0.276 0.36,0 0.678,0.066 0.324,0.066 0.6,0.186 l -0.204,0.468 q -0.228,-0.096 -0.516,-0.168 -0.282,-0.078 -0.588,-0.078 -0.768,0 -1.2,0.468 -0.426,0.462 -0.426,1.26 0,0.51 0.162,0.906 0.168,0.39 0.522,0.612 0.354,0.216 0.93,0.216 0.282,0 0.48,-0.03 0.198,-0.03 0.36,-0.072 v -1.272 h -0.942 z"
       id="path2382" />
  </g>
  <g
     aria-label="ROOT"
     id="text2139"
     style="font-size:6px;font-family:'Fira Sans', sans-serif;text-anchor:middle;fill:#60656f">
    <path
       d="m 18.634003,201.716 q 0.798,0 1.176,0.306 0.384,0.3 0.384,0.912 0,0.342 -0.126,0.57 -0.126,0.228 -0.324,0.366 -0.192,0.138 -0.408,0.21 l 1.176,1.92 h -0.63 l -1.038,-1.77 h -0.852 V 206 h -0.54 v -4.284 z m -0.03,0.468 h -0.612 v 1.59 h 0.642 q 0.522,0 0.762,-0.204 0.24,-0.21 0.24,-0.612 0,-0.42 -0.252,-0.594 -0.252,-0.18 -0.78,-0.18 z"
       id="path2385" />
    <path
       d="m 24.922001,203.852 q 0,0.666 -0.228,1.164 -0.222,0.492 -0.666,0.768 -0.438,0.276 -1.08,0.276 -0.666,0 -1.11,-0.276 -0.438,-0.276 -0.654,-0.774 -0.216,-0.498 -0.216,-1.164 0,-0.654 0.216,-1.146 0.216,-0.498 0.654,-0.774 0.444,-0.276 1.116,-0.276 0.642,0 1.08,0.276 0.438,0.27 0.66,0.768 0.228,0.492 0.228,1.158 z m -3.384,0 q 0,0.81 0.342,1.278 0.342,0.462 1.068,0.462 0.726,0 1.062,-0.462 0.342,-0.468 0.342,-1.278 0,-0.81 -0.336,-1.266 -0.336,-0.462 -1.062,-0.462 -0.732,0 -1.074,0.462 -0.342,0.456 -0.342,1.266 z"
       id="path2387" />
    <path
       d="m 29.608002,203.852 q 0,0.666 -0.228,1.164 -0.222,0.492 -0.666,0.768 -0.438,0.276 -1.08,0.276 -0.666,0 -1.11,-0.276 -0.438,-0.276 -0.654,-0.774 -0.216,-0.498 -0.216,-1.164 0,-0.654 0.216,-1.146 0.216,-0.498 0.654,-0.774 0.444,-0.276 1.116,-0.276 0.642,0 1.08,0.276 0.438,0.27 0.66,0.768 0.228,0.492 0.228,1.158 z m -3.384,0 q 0,0.81 0.342,1.278 0.342,0.462 1.068,0.462 0.726,0 1.062,-0.462 0.342,-0.468 0.342,-1.278 0,-0.81 -0.336,-1.266 -0.336,-0.462 -1.062,-0.462 -0.732,0 -1.074,0.462 -0.342,0.456 -0.342,1.266 z"
       id="path2389" />
    <path
       d="m 31.731999,206 h -0.54 v -3.81 h -1.338 v -0.474 h 3.21 v 0.474 h -1.332 z"
       id="path2391" />
  </g>
  <g
     aria-label="SCAL"
     id="text2141"
     style="font-size:6px;font-family:'Fira Sans', sans-serif;text-anchor:middle;fill:#60656f">
    <path
       d="m 50.98,204.854 q 0,0.57 -0.414,0.888 -0.414,0.318 -1.116,0.318 -0.36,0 -0.666,-0.054 -0.306,-0.054 -0.51,-0.15 v -0.516 q 0.216,0.096 0.534,0.174 0.324,0.078 0.666,0.078 0.474,0 0.72,-0.186 0.246,-0.186 0.246,-0.504 0,-0.21 -0.09,-0.354 -0.09,-0.144 -0.312,-0.264 -0.222,-0.12 -0.606,-0.264 -0.552,-0.198 -0.828,-0.486 -0.276,-0.288 -0.276,-0.786 0,-0.336 0.174,-0.582 0.174,-0.246 0.48,-0.378 0.306,-0.132 0.714,-0.132 0.348,0 0.642,0.066 0.294,0.066 0.54,0.174 l -0.168,0.462 q -0.222,-0.096 -0.486,-0.162 -0.264,-0.066 -0.54,-0.066 -0.402,0 -0.606,0.174 -0.204,0.168 -0.204,0.45 0,0.216 0.09,0.36 0.09,0.144 0.294,0.264 0.204,0.114 0.552,0.24 0.378,0.138 0.636,0.3 0.264,0.156 0.396,0.378 0.138,0.222 0.138,0.558 z"
       id="path2394" />
    <path
       d="m 53.679999,202.13 q -0.69,0 -1.086,0.462 -0.396,0.462 -0.396,1.266 0,0.798 0.366,1.266 0.372,0.462 1.11,0.462 0.276,0 0.528,-0.048 0.252,-0.048 0.498,-0.12 v 0.468 q -0.24,0.09 -0.498,0.132 -0.252,0.042 -0.606,0.042 -0.654,0 -1.092,-0.27 -0.438,-0.27 -0.66,-0.768 -0.216,-0.498 -0.216,-1.17 0,-0.648 0.234,-1.14 0.24,-0.498 0.702,-0.774 0.462,-0.282 1.122,-0.282 0.678,0 1.182,0.252 l -0.216,0.456 q -0.198,-0.09 -0.444,-0.162 -0.24,-0.072 -0.528,-0.072 z"
       id="path2396" />
    <path
       d="m 58.323999,206 -0.516,-1.326 h -1.698 l -0.51,1.326 h -0.546 l 1.674,-4.302 h 0.486 l 1.668,4.302 z m -0.678,-1.806 -0.48,-1.296 q -0.018,-0.048 -0.06,-0.174 -0.042,-0.126 -0.084,-0.258 -0.036,-0.138 -0.06,-0.21 -0.048,0.186 -0.102,0.366 -0.048,0.174 -0.084,0.276 l -0.486,1.296 z"
       id="path2398" />
    <path
       d="m 59.469999,206 v -4.284 h 0.54 v 3.804 h 1.872 V 206 Z"
       id="path2400" />
  </g>
  <g
     aria-label="TRNS"
     id="text2143"
     style="font-size:6px;font-family:'Fira Sans', sans-serif;text-anchor:middle;fill:#60656f">
    <path
       d="m 34.477001,231 h -0.54 v -3.81 h -1.338 v -0.474 h 3.21 v 0.474 h -1.332 z"
       id="path2403" />
    <path
       d="m 37.639,226.716 q 0.798,0 1.176,0.306 0.384,0.3 0.384,0.912 0,0.342 -0.126,0.57 -0.126,0.228 -0.324,0.366 -0.192,0.138 -0.408,0.21 l 1.176,1.92 h -0.63 l -1.038,-1.77 H 36.997 V 231 h -0.54 v -4.284 z m -0.03,0.468 h -0.612 v 1.59 h 0.642 q 0.522,0 0.762,-0.204 0.24,-0.21 0.24,-0.612 0,-0.42 -0.252,-0.594 -0.252,-0.18 -0.78,-0.18 z"
       id="path2405" />
    <path
       d="m 43.584998,231 h -0.63 l -2.292,-3.558 h -0.024 q 0.012,0.21 0.03,0.522 0.018,0.312 0.018,0.642 V 231 h -0.498 v -4.284 h 0.624 l 2.286,3.546 h 0.024 q -0.006,-0.096 -0.018,-0.288 -0.006,-0.192 -0.018,-0.414 -0.006,-0.228 -0.006,-0.426 v -2.418 h 0.504 z"
       id="path2407" />
    <path
       d="m 47.179,229.854 q 0,0.57 -0.414,0.888 -0.414,0.318 -1.116,0.318 -0.36,0 -0.666,-0.054 -0.306,-0.054 -0.51,-0.15 v -0.516 q 0.216,0.096 0.534,0.174 0.324,0.078 0.666,0.078 0.474,0 0.72,-0.186 0.246,-0.186 0.246,-0.504 0,-0.21 -0.09,-0.354 -0.09,-0.144 -0.312,-0.264 -0.222,-0.12 -0.606,-0.264 -0.552,-0.198 -0.828,-0.486 -0.276,-0.288 -0.276,-0.786 0,-0.336 0.174,-0.582 0.174,-0.246 0.48,-0.378 0.306,-0.132 0.714,-0.132 0.348,0 0.642,0.066 0.294,0.066 0.54,0.174 l -0.168,0.462 q -0.222,-0.096 -0.486,-0.162 -0.264,-0.066 -0.54,-0.066 -0.402,0 -0.606,0.174 -0.204,0.168 -0.204,0.45 0,0.216 0.09,0.36 0.09,0.144 0.294,0.264 0.204,0.114 0.552,0.24 0.378,0.138 0.636,0.3 0.264,0.156 0.396,0.378 0.138,0.222 0.138,0.558 z"
       id="path2409" />
  </g>
  <!-- I/O Labels -->
  <g
     aria-label="CLK RST SED"
     id="text2145"
     style="font-size:5.5px;font-family:'Fira Sans', sans-serif;text-anchor:middle;fill:#50555f">
    <path
       d="m 11.109754,290.4525 q -0.6325,0 -0.9955,0.4235 -0.3629997,0.4235 -0.3629997,1.1605 0,0.7315 0.3354997,1.1605 0.341,0.4235 1.0175,0.4235 0.253,0 0.484,-0.044 0.231,-0.044 0.4565,-0.11 v 0.429 q -0.22,0.0825 -0.4565,0.121 -0.231,0.0385 -0.5555,0.0385 -0.5995,0 -1.001,-0.2475 -0.4014997,-0.2475 -0.6049997,-0.704 -0.198,-0.4565 -0.198,-1.0725 0,-0.594 0.2145,-1.045 0.22,-0.4565 0.6434997,-0.7095 0.4235,-0.2585 1.0285,-0.2585 0.6215,0 1.0835,0.231 l -0.198,0.418 q -0.1815,-0.0825 -0.407,-0.1485 -0.22,-0.066 -0.484,-0.066 z"
       id="path2412" />
    <path
       d="m 12.902754,294 v -3.927 h 0.495 v 3.487 h 1.716 V 294 Z"
       id="path2414" />
    <path
       d="m 18.655755,294 h -0.583 l -1.3915,-1.8755 -0.4015,0.352 V 294 h -0.495 v -3.927 h 0.495 v 1.936 q 0.165,-0.187 0.3355,-0.374 0.1705,-0.187 0.341,-0.374 l 1.0615,-1.188 h 0.5775 l -1.5565,1.7105 z"
       id="path2416" />
    <path
       d="m 21.702753,290.073 q 0.7315,0 1.078,0.2805 0.352,0.275 0.352,0.836 0,0.3135 -0.1155,0.5225 -0.1155,0.209 -0.297,0.3355 -0.176,0.1265 -0.374,0.1925 l 1.078,1.76 h -0.5775 l -0.9515,-1.6225 h -0.781 V 294 h -0.495 v -3.927 z m -0.0275,0.429 h -0.561 v 1.4575 h 0.5885 q 0.4785,0 0.6985,-0.187 0.22,-0.1925 0.22,-0.561 0,-0.385 -0.231,-0.5445 -0.231,-0.165 -0.715,-0.165 z"
       id="path2418" />
    <path
       d="m 26.267752,292.9495 q 0,0.5225 -0.3795,0.814 -0.3795,0.2915 -1.023,0.2915 -0.33,0 -0.6105,-0.0495 -0.2805,-0.0495 -0.4675,-0.1375 v -0.473 q 0.198,0.088 0.4895,0.1595 0.297,0.0715 0.6105,0.0715 0.4345,0 0.66,-0.1705 0.2255,-0.1705 0.2255,-0.462 0,-0.1925 -0.0825,-0.3245 -0.0825,-0.132 -0.286,-0.242 -0.2035,-0.11 -0.5555,-0.242 -0.506,-0.1815 -0.759,-0.4455 -0.253,-0.264 -0.253,-0.7205 0,-0.308 0.1595,-0.5335 0.1595,-0.2255 0.44,-0.3465 0.2805,-0.121 0.6545,-0.121 0.319,0 0.5885,0.0605 0.2695,0.0605 0.495,0.1595 l -0.154,0.4235 q -0.2035,-0.088 -0.4455,-0.1485 -0.242,-0.0605 -0.495,-0.0605 -0.3685,0 -0.5555,0.1595 -0.187,0.154 -0.187,0.4125 0,0.198 0.0825,0.33 0.0825,0.132 0.2695,0.242 0.187,0.1045 0.506,0.22 0.3465,0.1265 0.583,0.275 0.242,0.143 0.363,0.3465 0.1265,0.2035 0.1265,0.5115 z"
       id="path2420" />
    <path
       d="m 28.30275,294 h -0.495 v -3.4925 h -1.2265 v -0.4345 h 2.9425 v 0.4345 h -1.221 z"
       id="path2422" />
    <path
       d="m 33.775251,292.9495 q 0,0.5225 -0.3795,0.814 -0.3795,0.2915 -1.023,0.2915 -0.33,0 -0.6105,-0.0495 -0.2805,-0.0495 -0.4675,-0.1375 v -0.473 q 0.198,0.088 0.4895,0.1595 0.297,0.0715 0.6105,0.0715 0.4345,0 0.66,-0.1705 0.2255,-0.1705 0.2255,-0.462 0,-0.1925 -0.0825,-0.3245 -0.0825,-0.132 -0.286,-0.242 -0.2035,-0.11 -0.5555,-0.242 -0.506,-0.1815 -0.759,-0.4455 -0.253,-0.264 -0.253,-0.7205 0,-0.308 0.1595,-0.5335 0.1595,-0.2255 0.44,-0.3465 0.2805,-0.121 0.6545,-0.121 0.319,0 0.5885,0.0605 0.2695,0.0605 0.495,0.1595 l -0.154,0.4235 q -0.2035,-0.088 -0.4455,-0.1485 -0.242,-0.0605 -0.495,-0.0605 -0.3685,0 -0.5555,0.1595 -0.187,0.154 -0.187,0.4125 0,0.198 0.0825,0.33 0.0825,0.132 0.2695,0.242 0.187,0.1045 0.506,0.22 0.3465,0.1265 0.583,0.275 0.242,0.143 0.363,0.3465 0.1265,0.2035 0.1265,0.5115 z"
       id="path2424" />
    <path
       d="m 36.76175,294 h -2.1945 v -3.927 h 2.1945 v 0.4345 h -1.6995 v 1.2265 h 1.6005 v 0.429 h -1.6005 v 1.4025 h 1.6995 z"
       id="path2426" />
    <path
       d="m 40.771248,291.998 q 0,0.9955 -0.5445,1.5015 -0.539,0.5005 -1.507,0.5005 h -1.0945 v -3.927 h 1.21 q 0.5885,0 1.023,0.22 0.44,0.22 0.6765,0.649 0.2365,0.429 0.2365,1.056 z m -0.5225,0.0165 q 0,-0.7865 -0.3905,-1.1495 -0.385,-0.3685 -1.0945,-0.3685 h -0.6435 v 3.08 h 0.5335 q 1.595,0 1.595,-1.562 z"
       id="path2428" />
  </g>
  <g
     aria-label="DEN ACC GAT"
     id="text2147"
     style="font-size:5.5px;font-family:'Fira Sans', sans-serif;text-anchor:middle;fill:#50555f">
    <path
       d="m 11.404001,304.998 q 0,0.9955 -0.5445,1.5015 Q 10.320501,307 9.3525011,307 h -1.0945 v -3.927 h 1.21 q 0.5884999,0 1.0229999,0.22 0.44,0.22 0.6765,0.649 0.2365,0.429 0.2365,1.056 z m -0.5225,0.0165 q 0,-0.7865 -0.3905,-1.1495 -0.385,-0.3685 -1.0944999,-0.3685 h -0.6435 v 3.08 h 0.5335 q 1.5949999,0 1.5949999,-1.562 z"
       id="path2431" />
    <path
       d="m 14.467499,307 h -2.1945 v -3.927 h 2.1945 v 0.4345 h -1.6995 v 1.2265 h 1.6005 v 0.429 h -1.6005 v 1.4025 h 1.6995 z"
       id="path2433" />
    <path
       d="m 18.443997,307 h -0.5775 l -2.101,-3.2615 h -0.022 q 0.011,0.1925 0.0275,0.4785 0.0165,0.286 0.0165,0.5885 V 307 h -0.4565 v -3.927 h 0.572 l 2.0955,3.2505 h 0.022 q -0.0055,-0.088 -0.0165,-0.264 -0.0055,-0.176 -0.0165,-0.3795 -0.0055,-0.209 -0.0055,-0.3905 v -2.2165 h 0.462 z"
       id="path2435" />
    <path
       d="m 23.405,307 -0.473,-1.2155 H 21.3755 L 20.908,307 h -0.5005 l 1.5345,-3.9435 h 0.4455 L 23.9165,307 Z m -0.6215,-1.6555 -0.44,-1.188 q -0.0165,-0.044 -0.055,-0.1595 -0.0385,-0.1155 -0.077,-0.2365 -0.033,-0.1265 -0.055,-0.1925 -0.044,0.1705 -0.0935,0.3355 -0.044,0.1595 -0.077,0.253 l -0.4455,1.188 z"
       id="path2437" />
    <path
       d="m 26.028497,303.4525 q -0.6325,0 -0.9955,0.4235 -0.363,0.4235 -0.363,1.1605 0,0.7315 0.3355,1.1605 0.341,0.4235 1.0175,0.4235 0.253,0 0.484,-0.044 0.231,-0.044 0.4565,-0.11 v 0.429 q -0.22,0.0825 -0.4565,0.121 -0.231,0.0385 -0.5555,0.0385 -0.5995,0 -1.001,-0.2475 -0.4015,-0.2475 -0.605,-0.704 -0.198,-0.4565 -0.198,-1.0725 0,-0.594 0.2145,-1.045 0.22,-0.4565 0.6435,-0.7095 0.4235,-0.2585 1.0285,-0.2585 0.6215,0 1.0835,0.231 l -0.198,0.418 q -0.1815,-0.0825 -0.407,-0.1485 -0.22,-0.066 -0.484,-0.066 z"
       id="path2439" />
    <path
       d="m 29.394494,303.4525 q -0.6325,0 -0.9955,0.4235 -0.363,0.4235 -0.363,1.1605 0,0.7315 0.3355,1.1605 0.341,0.4235 1.0175,0.4235 0.253,0 0.484,-0.044 0.231,-0.044 0.4565,-0.11 v 0.429 q -0.22,0.0825 -0.4565,0.121 -0.231,0.0385 -0.5555,0.0385 -0.5995,0 -1.001,-0.2475 -0.4015,-0.2475 -0.605,-0.704 -0.198,-0.4565 -0.198,-1.0725 0,-0.594 0.2145,-1.045 0.22,-0.4565 0.6435,-0.7095 0.4235,-0.2585 1.0285,-0.2585 0.6215,0 1.0835,0.231 l -0.198,0.418 q -0.1815,-0.0825 -0.407,-0.1485 -0.22,-0.066 -0.484,-0.066 z"
       id="path2441" />
    <path
       d="m 34.322494,304.9265 h 1.3585 v 1.925 q -0.319,0.1045 -0.6435,0.154 -0.3245,0.0495 -0.737,0.0495 -0.6105,0 -1.0285,-0.242 -0.418,-0.2475 -0.638,-0.6985 -0.2145,-0.4565 -0.2145,-1.078 0,-0.6105 0.2365,-1.0615 0.242,-0.4565 0.6985,-0.704 0.4565,-0.253 1.1,-0.253 0.33,0 0.6215,0.0605 0.297,0.0605 0.55,0.1705 l -0.187,0.429 q -0.209,-0.088 -0.473,-0.154 -0.2585,-0.0715 -0.539,-0.0715 -0.704,0 -1.1,0.429 -0.3905,0.4235 -0.3905,1.155 0,0.4675 0.1485,0.8305 0.154,0.3575 0.4785,0.561 0.3245,0.198 0.8525,0.198 0.2585,0 0.44,-0.0275 0.1815,-0.0275 0.33,-0.066 v -1.166 h -0.8635 z"
       id="path2443" />
    <path
       d="m 39.0855,307 -0.473,-1.2155 H 37.056 L 36.5885,307 H 36.088 l 1.5345,-3.9435 H 38.068 L 39.597,307 Z m -0.6215,-1.6555 -0.44,-1.188 q -0.0165,-0.044 -0.055,-0.1595 -0.0385,-0.1155 -0.077,-0.2365 -0.033,-0.1265 -0.055,-0.1925 -0.044,0.1705 -0.0935,0.3355 -0.044,0.1595 -0.077,0.253 l -0.4455,1.188 z"
       id="path2445" />
    <path
       d="m 40.994001,307 h -0.495 v -3.4925 h -1.2265 v -0.4345 h 2.9425 v 0.4345 h -1.221 z"
       id="path2447" />
  </g>
  <g
     aria-label="RT TRNS"
     id="text2149"
     style="font-size:5.5px;font-family:'Fira Sans', sans-serif;text-anchor:middle;fill:#50555f">
    <path
       d="m 15.823252,316.073 q 0.7315,0 1.078,0.2805 0.352,0.275 0.352,0.836 0,0.3135 -0.1155,0.5225 -0.1155,0.209 -0.297,0.3355 -0.176,0.1265 -0.374,0.1925 l 1.078,1.76 h -0.5775 l -0.9515,-1.6225 h -0.781 V 320 h -0.495 v -3.927 z m -0.0275,0.429 h -0.561 v 1.4575 h 0.5885 q 0.4785,0 0.6985,-0.187 0.22,-0.1925 0.22,-0.561 0,-0.385 -0.231,-0.5445 -0.231,-0.165 -0.715,-0.165 z"
       id="path2450" />
    <path
       d="m 19.403751,320 h -0.495 v -3.4925 h -1.2265 v -0.4345 h 2.9425 v 0.4345 h -1.221 z"
       id="path2452" />
    <path
       d="m 23.891751,320 h -0.495 v -3.4925 h -1.2265 v -0.4345 h 2.9425 v 0.4345 h -1.221 z"
       id="path2454" />
    <path
       d="m 26.790249,316.073 q 0.7315,0 1.078,0.2805 0.352,0.275 0.352,0.836 0,0.3135 -0.1155,0.5225 -0.1155,0.209 -0.297,0.3355 -0.176,0.1265 -0.374,0.1925 l 1.078,1.76 h -0.5775 l -0.9515,-1.6225 h -0.781 V 320 h -0.495 v -3.927 z m -0.0275,0.429 h -0.561 v 1.4575 h 0.5885 q 0.4785,0 0.6985,-0.187 0.22,-0.1925 0.22,-0.561 0,-0.385 -0.231,-0.5445 -0.231,-0.165 -0.715,-0.165 z"
       id="path2456" />
    <path
       d="m 32.240748,320 h -0.5775 l -2.101,-3.2615 h -0.022 q 0.011,0.1925 0.0275,0.4785 0.0165,0.286 0.0165,0.5885 V 320 h -0.4565 v -3.927 h 0.572 l 2.0955,3.2505 h 0.022 q -0.0055,-0.088 -0.0165,-0.264 -0.0055,-0.176 -0.0165,-0.3795 -0.0055,-0.209 -0.0055,-0.3905 v -2.2165 h 0.462 z"
       id="path2458" />
    <path
       d="m 35.535249,318.9495 q 0,0.5225 -0.3795,0.814 -0.3795,0.2915 -1.023,0.2915 -0.33,0 -0.6105,-0.0495 -0.2805,-0.0495 -0.4675,-0.1375 v -0.473 q 0.198,0.088 0.4895,0.1595 0.297,0.0715 0.6105,0.0715 0.4345,0 0.66,-0.1705 0.2255,-0.1705 0.2255,-0.462 0,-0.1925 -0.0825,-0.3245 -0.0825,-0.132 -0.286,-0.242 -0.2035,-0.11 -0.5555,-0.242 -0.506,-0.1815 -0.759,-0.4455 -0.253,-0.264 -0.253,-0.7205 0,-0.308 0.1595,-0.5335 0.1595,-0.2255 0.44,-0.3465 0.2805,-0.121 0.6545,-0.121 0.319,0 0.5885,0.0605 0.2695,0.0605 0.495,0.1595 l -0.154,0.4235 q -0.2035,-0.088 -0.4455,-0.1485 -0.242,-0.0605 -0.495,-0.0605 -0.3685,0 -0.5555,0.1595 -0.187,0.154 -0.187,0.4125 0,0.198 0.0825,0.33 0.0825,0.132 0.2695,0.242 0.187,0.1045 0.506,0.22 0.3465,0.1265 0.583,0.275 0.242,0.143 0.363,0.3465 0.1265,0.2035 0.1265,0.5115 z"
       id="path2460" />
  </g>
  <g
     aria-label="PITCH"
     id="text2151"
     style="font-size:5.5px;font-family:'Fira Sans', sans-serif;text-anchor:middle;fill:#50555f">
    <path
       d="m 63.727253,290.073 q 0.77,0 1.122,0.3025 0.352,0.3025 0.352,0.8525 0,0.3245 -0.1485,0.6105 -0.143,0.2805 -0.4895,0.4565 -0.341,0.176 -0.9295,0.176 h -0.451 V 294 h -0.495 v -3.927 z m -0.044,0.4235 h -0.5005 v 1.551 h 0.396 q 0.561,0 0.836,-0.1815 0.275,-0.1815 0.275,-0.616 0,-0.3795 -0.2475,-0.5665 -0.242,-0.187 -0.759,-0.187 z"
       id="path2463" />
    <path
       d="m 67.120751,294 h -1.419 v -0.286 l 0.462,-0.1045 v -3.1405 l -0.462,-0.11 v -0.286 h 1.419 v 0.286 l -0.462,0.11 v 3.1405 l 0.462,0.1045 z"
       id="path2465" />
    <path
       d="m 69.122755,294 h -0.495 v -3.4925 h -1.2265 v -0.4345 h 2.9425 v 0.4345 h -1.221 z"
       id="path2467" />
    <path
       d="m 72.510751,290.4525 q -0.6325,0 -0.9955,0.4235 -0.363,0.4235 -0.363,1.1605 0,0.7315 0.3355,1.1605 0.341,0.4235 1.0175,0.4235 0.253,0 0.484,-0.044 0.231,-0.044 0.4565,-0.11 v 0.429 q -0.22,0.0825 -0.4565,0.121 -0.231,0.0385 -0.5555,0.0385 -0.5995,0 -1.001,-0.2475 -0.4015,-0.2475 -0.605,-0.704 -0.198,-0.4565 -0.198,-1.0725 0,-0.594 0.2145,-1.045 0.22,-0.4565 0.6435,-0.7095 0.4235,-0.2585 1.0285,-0.2585 0.6215,0 1.0835,0.231 l -0.198,0.418 q -0.1815,-0.0825 -0.407,-0.1485 -0.22,-0.066 -0.484,-0.066 z"
       id="path2469" />
    <path
       d="m 77.306751,294 h -0.495 v -1.8315 h -2.013 V 294 h -0.495 v -3.927 h 0.495 v 1.661 h 2.013 v -1.661 h 0.495 z"
       id="path2471" />
  </g>
  <g
     aria-label="GATE"
     id="text2153"
     style="font-size:5.5px;font-family:'Fira Sans', sans-serif;text-anchor:middle;fill:#50555f">
    <path
       d="m 65.613749,304.9265 h 1.3585 v 1.925 q -0.319,0.1045 -0.6435,0.154 -0.3245,0.0495 -0.737,0.0495 -0.6105,0 -1.0285,-0.242 -0.418,-0.2475 -0.638,-0.6985 -0.2145,-0.4565 -0.2145,-1.078 0,-0.6105 0.2365,-1.0615 0.242,-0.4565 0.6985,-0.704 0.4565,-0.253 1.1,-0.253 0.33,0 0.6215,0.0605 0.297,0.0605 0.55,0.1705 l -0.187,0.429 q -0.209,-0.088 -0.473,-0.154 -0.2585,-0.0715 -0.539,-0.0715 -0.704,0 -1.1,0.429 -0.3905,0.4235 -0.3905,1.155 0,0.4675 0.1485,0.8305 0.154,0.3575 0.4785,0.561 0.3245,0.198 0.8525,0.198 0.2585,0 0.44,-0.0275 0.1815,-0.0275 0.33,-0.066 v -1.166 h -0.8635 z"
       id="path2474" />
    <path
       d="m 70.376752,307 -0.473,-1.2155 h -1.5565 L 67.879752,307 h -0.5005 l 1.5345,-3.9435 h 0.4455 l 1.529,3.9435 z m -0.6215,-1.6555 -0.44,-1.188 q -0.0165,-0.044 -0.055,-0.1595 -0.0385,-0.1155 -0.077,-0.2365 -0.033,-0.1265 -0.055,-0.1925 -0.044,0.1705 -0.0935,0.3355 -0.044,0.1595 -0.077,0.253 l -0.4455,1.188 z"
       id="path2476" />
    <path
       d="m 72.285254,307 h -0.495 v -3.4925 h -1.2265 v -0.4345 h 2.9425 v 0.4345 h -1.221 z"
       id="path2478" />
    <path
       d="m 76.294752,307 h -2.1945 v -3.927 h 2.1945 v 0.4345 h -1.6995 v 1.2265 h 1.6005 v 0.429 h -1.6005 v 1.4025 h 1.6995 z"
       id="path2480" />
  </g>
  <g
     aria-label="VEL"
     id="text2155"
     style="font-size:5.5px;font-family:'Fira Sans', sans-serif;text-anchor:middle;fill:#50555f">
    <path
       d="m 68.679999,316.073 -1.4025,3.927 h -0.495 l -1.4025,-3.927 h 0.517 l 0.8855,2.519 q 0.088,0.242 0.143,0.4565 0.0605,0.209 0.1045,0.4015 0.0385,-0.1925 0.099,-0.407 0.0605,-0.2145 0.1485,-0.462 l 0.88,-2.508 z"
       id="path2483" />
    <path
       d="m 71.408001,320 h -2.1945 v -3.927 h 2.1945 v 0.4345 h -1.6995 v 1.2265 h 1.6005 v 0.429 h -1.6005 v 1.4025 h 1.6995 z"
       id="path2485" />
    <path
       d="m 72.2715,320 v -3.927 h 0.495 v 3.487 h 1.716 V 320 Z"
       id="path2487" />
  </g>
  <g
     aria-label="EOC"
     id="text2157"
     style="font-size:5.5px;font-family:'Fira Sans', sans-serif;text-anchor:middle;fill:#50555f">
    <path
       d="m 52.31325,320 h -2.1945 v -3.927 h 2.1945 v 0.4345 h -1.6995 v 1.2265 h 1.6005 v 0.429 h -1.6005 v 1.4025 h 1.6995 z"
       id="path2490" />
    <path
       d="m 56.603249,318.031 q 0,0.6105 -0.209,1.067 -0.2035,0.451 -0.6105,0.704 -0.4015,0.253 -0.99,0.253 -0.6105,0 -1.0175,-0.253 -0.4015,-0.253 -0.5995,-0.7095 -0.198,-0.4565 -0.198,-1.067 0,-0.5995 0.198,-1.0505 0.198,-0.4565 0.5995,-0.7095 0.407,-0.253 1.023,-0.253 0.5885,0 0.99,0.253 0.4015,0.2475 0.605,0.704 0.209,0.451 0.209,1.0615 z m -3.102,0 q 0,0.7425 0.3135,1.1715 0.3135,0.4235 0.979,0.4235 0.6655,0 0.9735,-0.4235 0.3135,-0.429 0.3135,-1.1715 0,-0.7425 -0.308,-1.1605 -0.308,-0.4235 -0.9735,-0.4235 -0.671,0 -0.9845,0.4235 -0.3135,0.418 -0.3135,1.1605 z"
       id="path2492" />
    <path
       d="m 59.15525,316.4525 q -0.6325,0 -0.9955,0.4235 -0.363,0.4235 -0.363,1.1605 0,0.7315 0.3355,1.1605 0.341,0.4235 1.0175,0.4235 0.253,0 0.484,-0.044 0.231,-0.044 0.4565,-0.11 v 0.429 q -0.22,0.0825 -0.4565,0.121 -0.231,0.0385 -0.5555,0.0385 -0.5995,0 -1.001,-0.2475 -0.4015,-0.2475 -0.605,-0.704 -0.198,-0.4565 -0.198,-1.0725 0,-0.594 0.2145,-1.045 0.22,-0.4565 0.6435,-0.7095 0.4235,-0.2585 1.0285,-0.2585 0.6215,0 1.0835,0.231 l -0.198,0.418 q -0.1815,-0.0825 -0.407,-0.1485 -0.22,-0.066 -0.484,-0.066 z"
       id="path2494" />
  </g>
  <!-- Footer -->
  <g
     aria-label="SWAPPABLE ALGORITHMS"
     id="text2159"
     style="font-size:6.5px;font-family:'Fira Sans', sans-serif;text-anchor:middle;fill:#40454f">
    <path
       d="m 23.981759,366.7585 q 0,0.6175 -0.4485,0.962 -0.4485,0.3445 -1.209,0.3445 -0.39,0 -0.7215,-0.0585 -0.3315,-0.0585 -0.5525,-0.1625 v -0.559 q 0.234,0.104 0.5785,0.1885 0.351,0.0845 0.7215,0.0845 0.5135,0 0.78,-0.2015 0.2665,-0.2015 0.2665,-0.546 0,-0.2275 -0.0975,-0.3835 -0.0975,-0.156 -0.338,-0.286 -0.2405,-0.13 -0.6565,-0.286 -0.598,-0.2145 -0.897,-0.5265 -0.299,-0.312 -0.299,-0.8515 0,-0.364 0.1885,-0.6305 0.1885,-0.2665 0.52,-0.4095 0.3315,-0.143 0.7735,-0.143 0.377,0 0.6955,0.0715 0.3185,0.0715 0.585,0.1885 l -0.182,0.5005 q -0.2405,-0.104 -0.5265,-0.1755 -0.286,-0.0715 -0.585,-0.0715 -0.4355,0 -0.6565,0.1885 -0.221,0.182 -0.221,0.4875 0,0.234 0.0975,0.39 0.0975,0.156 0.3185,0.286 0.221,0.1235 0.598,0.26 0.4095,0.1495 0.689,0.325 0.286,0.169 0.429,0.4095 0.1495,0.2405 0.1495,0.6045 z"
       id="path2497" />
    <path
       d="m 30.247757,363.359 -1.235,4.641 h -0.5915 l -0.9035,-3.042 q -0.0585,-0.182 -0.1105,-0.3705 -0.0455,-0.195 -0.0845,-0.338 -0.0325,-0.1495 -0.039,-0.208 -0.0065,0.0845 -0.0715,0.364 -0.065,0.273 -0.1495,0.572 L 26.185257,368 h -0.5915 l -1.2285,-4.641 h 0.611 l 0.7215,2.834 q 0.078,0.299 0.13,0.5785 0.0585,0.2795 0.091,0.5265 0.0325,-0.2535 0.0975,-0.5525 0.065,-0.299 0.1495,-0.585 l 0.819,-2.8015 h 0.6045 l 0.8515,2.821 q 0.091,0.299 0.156,0.598 0.065,0.299 0.0975,0.52 0.026,-0.2405 0.0845,-0.52 0.065,-0.286 0.143,-0.5915 l 0.715,-2.8275 z"
       id="path2499" />
    <path
       d="m 33.614753,368 -0.559,-1.4365 h -1.8395 L 30.663753,368 h -0.5915 l 1.8135,-4.6605 h 0.5265 l 1.807,4.6605 z m -0.7345,-1.9565 -0.52,-1.404 q -0.0195,-0.052 -0.065,-0.1885 -0.0455,-0.1365 -0.091,-0.2795 -0.039,-0.1495 -0.065,-0.2275 -0.052,0.2015 -0.1105,0.3965 -0.052,0.1885 -0.091,0.299 l -0.5265,1.404 z"
       id="path2501" />
    <path
       d="m 36.084753,363.359 q 0.91,0 1.326,0.3575 0.416,0.3575 0.416,1.0075 0,0.3835 -0.1755,0.7215 -0.169,0.3315 -0.5785,0.5395 -0.403,0.208 -1.0985,0.208 h -0.533 V 368 h -0.585 v -4.641 z m -0.052,0.5005 h -0.5915 v 1.833 h 0.468 q 0.663,0 0.988,-0.2145 0.325,-0.2145 0.325,-0.728 0,-0.4485 -0.2925,-0.6695 -0.286,-0.221 -0.897,-0.221 z"
       id="path2503" />
    <path
       d="m 40.01725,363.359 q 0.91,0 1.326,0.3575 0.416,0.3575 0.416,1.0075 0,0.3835 -0.1755,0.7215 -0.169,0.3315 -0.5785,0.5395 -0.403,0.208 -1.0985,0.208 h -0.533 V 368 h -0.585 v -4.641 z m -0.052,0.5005 h -0.5915 v 1.833 h 0.468 q 0.663,0 0.988,-0.2145 0.325,-0.2145 0.325,-0.728 0,-0.4485 -0.2925,-0.6695 -0.286,-0.221 -0.897,-0.221 z"
       id="path2505" />
    <path
       d="m 45.308252,368 -0.559,-1.4365 h -1.8395 L 42.357252,368 h -0.5915 l 1.8135,-4.6605 h 0.5265 l 1.807,4.6605 z m -0.7345,-1.9565 -0.52,-1.404 q -0.0195,-0.052 -0.065,-0.1885 -0.0455,-0.1365 -0.091,-0.2795 -0.039,-0.1495 -0.065,-0.2275 -0.052,0.2015 -0.1105,0.3965 -0.052,0.1885 -0.091,0.299 l -0.5265,1.404 z"
       id="path2507" />
    <path
       d="m 46.549751,363.359 h 1.326 q 0.8645,0 1.313,0.26 0.4485,0.26 0.4485,0.8905 0,0.4095 -0.2275,0.6825 -0.2275,0.2665 -0.6565,0.3445 v 0.0325 q 0.2925,0.052 0.5265,0.1755 0.2405,0.1235 0.377,0.351 0.1365,0.2275 0.1365,0.585 0,0.6305 -0.4355,0.975 -0.429,0.3445 -1.1765,0.3445 h -1.6315 z m 0.585,1.976 h 0.858 q 0.5915,0 0.8125,-0.1885 0.2275,-0.195 0.2275,-0.572 0,-0.3835 -0.273,-0.546 -0.2665,-0.169 -0.858,-0.169 h -0.767 z m 0,0.4875 v 1.6835 h 0.936 q 0.6175,0 0.858,-0.2405 0.2405,-0.2405 0.2405,-0.6305 0,-0.364 -0.2535,-0.585 -0.247,-0.2275 -0.8905,-0.2275 z"
       id="path2509" />
    <path
       d="m 50.77475,368 v -4.641 h 0.585 v 4.121 h 2.028 V 368 Z"
       id="path2511" />
    <path
       d="m 56.774248,368 h -2.5935 v -4.641 h 2.5935 v 0.5135 h -2.0085 v 1.4495 h 1.8915 v 0.507 h -1.8915 v 1.6575 h 2.0085 z"
       id="path2513" />
    <path
       d="m 62.396749,368 -0.559,-1.4365 h -1.8395 L 59.445749,368 h -0.5915 l 1.8135,-4.6605 h 0.5265 l 1.807,4.6605 z m -0.7345,-1.9565 -0.52,-1.404 q -0.0195,-0.052 -0.065,-0.1885 -0.0455,-0.1365 -0.091,-0.2795 -0.039,-0.1495 -0.065,-0.2275 -0.052,0.2015 -0.1105,0.3965 -0.052,0.1885 -0.091,0.299 l -0.5265,1.404 z"
       id="path2515" />
    <path
       d="m 63.638249,368 v -4.641 h 0.585 v 4.121 h 2.028 V 368 Z"
       id="path2517" />
    <path
       d="m 68.929246,365.5495 h 1.6055 v 2.275 q -0.377,0.1235 -0.7605,0.182 -0.3835,0.0585 -0.871,0.0585 -0.7215,0 -1.2155,-0.286 -0.494,-0.2925 -0.754,-0.8255 -0.2535,-0.5395 -0.2535,-1.274 0,-0.7215 0.2795,-1.2545 0.286,-0.5395 0.8255,-0.832 0.5395,-0.299 1.3,-0.299 0.39,0 0.7345,0.0715 0.351,0.0715 0.65,0.2015 l -0.221,0.507 q -0.247,-0.104 -0.559,-0.182 -0.3055,-0.0845 -0.637,-0.0845 -0.832,0 -1.3,0.507 -0.4615,0.5005 -0.4615,1.365 0,0.5525 0.1755,0.9815 0.182,0.4225 0.5655,0.663 0.3835,0.234 1.0075,0.234 0.3055,0 0.52,-0.0325 0.2145,-0.0325 0.39,-0.078 v -1.378 h -1.0205 z"
       id="path2519" />
    <path
       d="m 75.695752,365.673 q 0,0.7215 -0.247,1.261 -0.2405,0.533 -0.7215,0.832 -0.4745,0.299 -1.17,0.299 -0.7215,0 -1.2025,-0.299 -0.4745,-0.299 -0.7085,-0.8385 -0.234,-0.5395 -0.234,-1.261 0,-0.7085 0.234,-1.2415 0.234,-0.5395 0.7085,-0.8385 0.481,-0.299 1.209,-0.299 0.6955,0 1.17,0.299 0.4745,0.2925 0.715,0.832 0.247,0.533 0.247,1.2545 z m -3.666,0 q 0,0.8775 0.3705,1.3845 0.3705,0.5005 1.157,0.5005 0.7865,0 1.1505,-0.5005 0.3705,-0.507 0.3705,-1.3845 0,-0.8775 -0.364,-1.3715 -0.364,-0.5005 -1.1505,-0.5005 -0.793,0 -1.1635,0.5005 -0.3705,0.494 -0.3705,1.3715 z"
       id="path2521" />
    <path
       d="m 78.003252,363.359 q 0.8645,0 1.274,0.3315 0.416,0.325 0.416,0.988 0,0.3705 -0.1365,0.6175 -0.1365,0.247 -0.351,0.3965 -0.208,0.1495 -0.442,0.2275 l 1.274,2.08 h -0.6825 l -1.1245,-1.9175 h -0.923 V 368 h -0.585 v -4.641 z m -0.0325,0.507 h -0.663 v 1.7225 h 0.6955 q 0.5655,0 0.8255,-0.221 0.26,-0.2275 0.26,-0.663 0,-0.455 -0.273,-0.6435 -0.273,-0.195 -0.845,-0.195 z"
       id="path2523" />
    <path
       d="m 82.072251,368 h -1.677 v -0.338 l 0.546,-0.1235 v -3.7115 l -0.546,-0.13 v -0.338 h 1.677 v 0.338 l -0.546,0.13 v 3.7115 l 0.546,0.1235 z"
       id="path2525" />
    <path
       d="m 84.438254,368 h -0.585 v -4.1275 h -1.4495 v -0.5135 h 3.4775 v 0.5135 h -1.443 z"
       id="path2527" />
    <path
       d="m 90.132252,368 h -0.585 v -2.1645 h -2.379 V 368 h -0.585 v -4.641 h 0.585 v 1.963 h 2.379 v -1.963 h 0.585 z"
       id="path2529" />
    <path
       d="m 93.44725,368 -1.5275,-4.069 h -0.026 q 0.0195,0.2015 0.0325,0.546 0.013,0.338 0.013,0.7085 V 368 h -0.5395 v -4.641 h 0.8645 l 1.43,3.8025 h 0.026 l 1.456,-3.8025 h 0.858 V 368 h -0.5785 v -2.8535 q 0,-0.338 0.013,-0.6695 0.0195,-0.3315 0.0325,-0.5395 h -0.026 L 93.92825,368 Z"
       id="path2531" />
    <path
       d="m 99.927742,366.7585 q 0,0.6175 -0.4485,0.962 -0.4485,0.3445 -1.209,0.3445 -0.39,0 -0.7215,-0.0585 -0.3315,-0.0585 -0.5525,-0.1625 v -0.559 q 0.234,0.104 0.5785,0.1885 0.351,0.0845 0.7215,0.0845 0.5135,0 0.78,-0.2015 0.2665,-0.2015 0.2665,-0.546 0,-0.2275 -0.0975,-0.3835 -0.0975,-0.156 -0.338,-0.286 -0.2405,-0.13 -0.6565,-0.286 -0.598,-0.2145 -0.897,-0.5265 -0.299,-0.312 -0.299,-0.8515 0,-0.364 0.1885,-0.6305 0.1885,-0.2665 0.52,-0.4095 0.3315,-0.143 0.7735,-0.143 0.377,0 0.6955,0.0715 0.3185,0.0715 0.585,0.1885 l -0.182,0.5005 q -0.2405,-0.104 -0.5265,-0.1755 -0.286,-0.0715 -0.585,-0.0715 -0.4355,0 -0.6565,0.1885 -0.221,0.182 -0.221,0.4875 0,0.234 0.0975,0.39 0.0975,0.156 0.3185,0.286 0.221,0.1235 0.598,0.26 0.4095,0.1495 0.689,0.325 0.286,0.169 0.429,0.4095 0.1495,0.2405 0.1495,0.6045 z"
       id="path2533" />
  </g>
</svg>
