<?xml version="1.0" encoding="UTF-8" standalone="no"?>
<!-- Created with Inkscape (http://www.inkscape.org/) -->

<svg
   width="60.959999mm"
   height="128.5mm"
   viewBox="0 0 60.960004 128.50002"
   version="1.1"
   id="svg8"
   inkscape:version="1.2.2 (732a01da63, 2022-12-09)"
   sodipodi:docname="Tape.svg"
   xmlns:inkscape="http://www.inkscape.org/namespaces/inkscape"
   xmlns:sodipodi="http://sodipodi.sourceforge.net/DTD/sodipodi-0.dtd"
   xmlns="http://www.w3.org/2000/svg"
   xmlns:svg="http://www.w3.org/2000/svg"
   xmlns:rdf="http://www.w3.org/1999/02/22-rdf-syntax-ns#"
   xmlns:cc="http://creativecommons.org/ns#"
   xmlns:dc="http://purl.org/dc/elements/1.1/">
  <defs
     id="defs2" />
  <sodipodi:namedview
     id="base"
     pagecolor="#ffffff"
     bordercolor="#666666"
     borderopacity="1.0"
     inkscape:pageopacity="0.0"
     inkscape:pageshadow="2"
     inkscape:zoom="1.4"
     inkscape:cx="193.92857"
     inkscape:cy="349.28571"
     inkscape:document-units="mm"
     inkscape:current-layer="layer1"
     showgrid="false"
     units="mm"
     inkscape:snap-bbox="true"
     inkscape:snap-page="true"
     inkscape:bbox-nodes="false"
     inkscape:snap-bbox-edge-midpoints="false"
     inkscape:window-width="2560"
     inkscape:window-height="1369"
     inkscape:window-x="2552"
     inkscape:window-y="212"
     inkscape:window-maximized="1"
     inkscape:snap-bbox-midpoints="true"
     inkscape:snap-nodes="false"
     inkscape:showpageshadow="0"
     inkscape:pagecheckerboard="0"
     inkscape:deskcolor="#d1d1d1" />
  <metadata
     id="metadata5">
    <rdf:RDF>
      <cc:Work
         rdf:about="">
        <dc:format>image/svg+xml</dc:format>
        <dc:type
           rdf:resource="http://purl.org/dc/dcmitype/StillImage" />
      </cc:Work>
    </rdf:RDF>
  </metadata>
  <g
     inkscape:label="Layer 1"
     inkscape:groupmode="layer"
     id="layer1"
     transform="translate(0,-168.49998)">
    <rect
       style="display:inline;opacity:1;fill:#e6e6e6;fill-opacity:1;fill-rule:evenodd;stroke:none;stroke-width:0.918;stroke-linecap:butt;stroke-linejoin:miter;stroke-miterlimit:4;stroke-dasharray:none;stroke-dashoffset:0;stroke-opacity:1;paint-order:normal"
       id="rect420"
       width="60.959999"
       height="128.5"
       x="5.9211732e-17"
       y="168.49997"
       inkscape:transform-center-x="0.37797625"
       inkscape:transform-center-y="0.18898812" />
    <g
       aria-label="Tape Machine"
       id="text8163"
       style="font-size:3.175px;stroke-width:0.918001">
      <path
         d="m 21.625228,174.16962 h -0.28575 v -2.01613 h -0.708025 v -0.25082 h 1.698625 v 0.25082 h -0.70485 z"
         style="stroke-width:0.918"
         id="path182" />
      <path
         d="m 23.025402,172.43924 q 0.31115,0 0.460375,0.13653 0.149225,0.13652 0.149225,0.43497 v 1.15888 h -0.2032 l -0.05398,-0.2413 h -0.0127 q -0.111125,0.1397 -0.23495,0.20637 -0.123825,0.0667 -0.33655,0.0667 -0.231775,0 -0.384175,-0.12065 -0.1524,-0.12383 -0.1524,-0.38418 0,-0.254 0.200025,-0.39052 0.200025,-0.1397 0.61595,-0.1524 l 0.288925,-0.01 v -0.1016 q 0,-0.21272 -0.09207,-0.29527 -0.09208,-0.0825 -0.26035,-0.0825 -0.13335,0 -0.254,0.0413 -0.12065,0.0381 -0.225425,0.0889 l -0.08573,-0.20955 q 0.111125,-0.0603 0.263525,-0.1016 0.1524,-0.0444 0.3175,-0.0444 z m 0.333375,0.89853 -0.250825,0.01 q -0.3175,0.0127 -0.441325,0.1016 -0.12065,0.0889 -0.12065,0.25083 0,0.14287 0.08573,0.20955 0.0889,0.0667 0.225425,0.0667 0.212725,0 0.3556,-0.11747 0.14605,-0.12065 0.14605,-0.3683 z"
         style="stroke-width:0.918"
         id="path184" />
      <path
         d="m 24.97168,172.43607 q 0.314325,0 0.504825,0.21907 0.193675,0.21908 0.193675,0.6604 0,0.43498 -0.193675,0.6604 -0.1905,0.22543 -0.508,0.22543 -0.19685,0 -0.327025,-0.073 -0.127,-0.073 -0.200025,-0.17462 h -0.01905 q 0.0032,0.054 0.0095,0.13652 0.0095,0.0825 0.0095,0.14288 v 0.6985 h -0.2794 v -2.4638 h 0.2286 l 0.0381,0.23177 h 0.0127 q 0.0762,-0.11112 0.200025,-0.18732 0.123825,-0.0762 0.3302,-0.0762 z m -0.0508,0.23495 q -0.26035,0 -0.3683,0.14605 -0.10795,0.14605 -0.111125,0.4445 v 0.054 q 0,0.31433 0.1016,0.48578 0.104775,0.16827 0.384175,0.16827 0.1524,0 0.254,-0.0825 0.1016,-0.0857 0.149225,-0.23495 0.0508,-0.14922 0.0508,-0.33972 0,-0.2921 -0.1143,-0.46673 -0.111125,-0.17462 -0.346075,-0.17462 z"
         style="stroke-width:0.918"
         id="path186" />
      <path
         d="m 26.771904,172.43607 q 0.2159,0 0.37465,0.0952 0.15875,0.0952 0.2413,0.26987 0.08573,0.17145 0.08573,0.40323 v 0.16827 h -1.165225 q 0.0063,0.28893 0.14605,0.44133 0.142875,0.14922 0.396875,0.14922 0.161925,0 0.28575,-0.0286 0.127,-0.0318 0.26035,-0.0889 v 0.24447 q -0.130175,0.0572 -0.257175,0.0825 -0.127,0.0286 -0.301625,0.0286 -0.244475,0 -0.428625,-0.0984 -0.18415,-0.0984 -0.288925,-0.2921 -0.1016,-0.19367 -0.1016,-0.47942 0,-0.2794 0.09208,-0.47943 0.09525,-0.20002 0.263525,-0.30797 0.17145,-0.10795 0.396875,-0.10795 z m -0.0032,0.2286 q -0.200025,0 -0.3175,0.13017 -0.1143,0.127 -0.136525,0.3556 h 0.866775 q -0.0032,-0.2159 -0.1016,-0.34925 -0.09842,-0.13652 -0.31115,-0.13652 z"
         style="stroke-width:0.918"
         id="path188" />
      <path
         d="m 29.769102,174.16962 -0.746125,-1.98755 h -0.0127 q 0.0095,0.0984 0.01588,0.2667 0.0064,0.1651 0.0064,0.34607 v 1.37478 h -0.263525 v -2.26695 h 0.422275 l 0.6985,1.85737 h 0.0127 l 0.7112,-1.85737 h 0.4191 v 2.26695 h -0.282575 v -1.39383 q 0,-0.1651 0.0063,-0.32702 0.0095,-0.16193 0.01588,-0.26353 h -0.0127 l -0.75565,1.98438 z"
         style="stroke-width:0.918"
         id="path190" />
      <path
         d="m 32.255126,172.43924 q 0.31115,0 0.460375,0.13653 0.149225,0.13652 0.149225,0.43497 v 1.15888 h -0.2032 l -0.05398,-0.2413 h -0.0127 q -0.111125,0.1397 -0.23495,0.20637 -0.123825,0.0667 -0.33655,0.0667 -0.231775,0 -0.384175,-0.12065 -0.1524,-0.12383 -0.1524,-0.38418 0,-0.254 0.200025,-0.39052 0.200025,-0.1397 0.61595,-0.1524 l 0.288925,-0.01 v -0.1016 q 0,-0.21272 -0.09208,-0.29527 -0.09208,-0.0825 -0.26035,-0.0825 -0.13335,0 -0.254,0.0413 -0.12065,0.0381 -0.225425,0.0889 l -0.08573,-0.20955 q 0.111125,-0.0603 0.263525,-0.1016 0.1524,-0.0444 0.3175,-0.0444 z m 0.333375,0.89853 -0.250825,0.01 q -0.3175,0.0127 -0.441325,0.1016 -0.12065,0.0889 -0.12065,0.25083 0,0.14287 0.08573,0.20955 0.0889,0.0667 0.225425,0.0667 0.212725,0 0.3556,-0.11747 0.14605,-0.12065 0.14605,-0.3683 z"
         style="stroke-width:0.918"
         id="path192" />
      <path
         d="m 34.074403,174.20137 q -0.2286,0 -0.403225,-0.0921 -0.174625,-0.0921 -0.276225,-0.28575 -0.09842,-0.19367 -0.09842,-0.4953 0,-0.31432 0.1016,-0.51117 0.104775,-0.19685 0.28575,-0.28893 0.180975,-0.0921 0.409575,-0.0921 0.127,0 0.24765,0.0286 0.123825,0.0254 0.200025,0.0635 l -0.08573,0.23178 q -0.0762,-0.0286 -0.1778,-0.054 -0.1016,-0.0254 -0.1905,-0.0254 -0.50165,0 -0.50165,0.64453 0,0.30797 0.12065,0.47307 0.123825,0.16193 0.365125,0.16193 0.136525,0 0.244475,-0.0286 0.10795,-0.0286 0.19685,-0.0699 v 0.24765 q -0.08572,0.0445 -0.1905,0.0667 -0.1016,0.0254 -0.24765,0.0254 z"
         style="stroke-width:0.918"
         id="path194" />
      <path
         d="m 35.195177,171.75662 v 0.70802 q 0,0.127 -0.01588,0.23813 h 0.01905 q 0.08255,-0.13018 0.22225,-0.19685 0.142875,-0.0667 0.307975,-0.0667 0.307975,0 0.46355,0.14923 0.15875,0.14605 0.15875,0.47307 v 1.10808 h -0.276225 v -1.08903 q 0,-0.40957 -0.381,-0.40957 -0.28575,0 -0.3937,0.16192 -0.104775,0.15875 -0.104775,0.4572 v 0.87948 h -0.2794 v -2.413 z"
         style="stroke-width:0.918"
         id="path196" />
      <path
         d="m 37.020801,171.82964 q 0.0635,0 0.111125,0.0444 0.0508,0.0413 0.0508,0.13335 0,0.0921 -0.0508,0.13653 -0.04762,0.0413 -0.111125,0.0413 -0.06985,0 -0.117475,-0.0413 -0.04762,-0.0444 -0.04762,-0.13653 0,-0.0921 0.04762,-0.13335 0.04763,-0.0444 0.117475,-0.0444 z m 0.136525,0.63818 v 1.7018 h -0.2794 v -1.7018 z"
         style="stroke-width:0.918"
         id="path198" />
      <path
         d="m 38.516225,172.43607 q 0.3048,0 0.460375,0.14922 0.155575,0.14923 0.155575,0.47625 v 1.10808 H 38.85595 v -1.08903 q 0,-0.40957 -0.381,-0.40957 -0.282575,0 -0.390525,0.15875 -0.10795,0.15875 -0.10795,0.4572 v 0.88265 h -0.2794 v -1.7018 H 37.9225 l 0.04127,0.23177 h 0.01588 q 0.08255,-0.13335 0.2286,-0.19685 0.14605,-0.0667 0.307975,-0.0667 z"
         style="stroke-width:0.918"
         id="path200" />
      <path
         d="m 40.316451,172.43607 q 0.2159,0 0.37465,0.0952 0.15875,0.0952 0.2413,0.26987 0.08573,0.17145 0.08573,0.40323 v 0.16827 h -1.165225 q 0.0063,0.28893 0.14605,0.44133 0.142875,0.14922 0.396875,0.14922 0.161925,0 0.28575,-0.0286 0.127,-0.0318 0.26035,-0.0889 v 0.24447 q -0.130175,0.0572 -0.257175,0.0825 -0.127,0.0286 -0.301625,0.0286 -0.244475,0 -0.428625,-0.0984 -0.18415,-0.0984 -0.288925,-0.2921 -0.1016,-0.19367 -0.1016,-0.47942 0,-0.2794 0.09208,-0.47943 0.09525,-0.20002 0.263525,-0.30797 0.17145,-0.10795 0.396875,-0.10795 z m -0.0032,0.2286 q -0.200025,0 -0.3175,0.13017 -0.1143,0.127 -0.136525,0.3556 h 0.866775 q -0.0032,-0.2159 -0.1016,-0.34925 -0.09842,-0.13652 -0.31115,-0.13652 z"
         style="stroke-width:0.918"
         id="path202" />
    </g>
  </g>
  <g
     inkscape:groupmode="layer"
     id="layer2"
     inkscape:label="components"
     style="display:inline" />
</svg>
