<svg xmlns="http://www.w3.org/2000/svg" width="450" height="380" viewBox="0 0 450 380">
  <defs>
    <linearGradient id="bg" x1="0%" y1="0%" x2="0%" y2="100%">
      <stop offset="0%" stop-color="#10141a" />
      <stop offset="100%" stop-color="#1a1f27" />
    </linearGradient>
    <linearGradient id="accent" x1="0%" y1="0%" x2="100%" y2="0%">
      <stop offset="0%" stop-color="#2d5a85" stop-opacity="0.0" />
      <stop offset="50%" stop-color="#3e7cb1" stop-opacity="0.35" />
      <stop offset="100%" stop-color="#2d5a85" stop-opacity="0.0" />
    </linearGradient>
  </defs>
  <rect x="0" y="0" width="450" height="380" fill="url(#bg)" />
  <rect x="20" y="12" width="410" height="356" fill="none" stroke="#25303d" stroke-width="2" />
  <rect x="20" y="12" width="410" height="356" fill="url(#accent)" opacity="0.6" />
  <g fill="#9fb7ce" font-family="'Segoe UI', 'Liberation Sans', sans-serif" font-size="18" font-weight="600" text-anchor="middle">
    <text x="225" y="34">Xezbeth:4X</text>
    <text x="225" y="54" font-size="11" font-weight="400" fill="#7a93aa">Stereo Summing Console</text>
  </g>
  <g stroke="#2f3c4c" stroke-width="1">
    <line x1="75" y1="70" x2="75" y2="350" />
    <line x1="150" y1="70" x2="150" y2="350" />
    <line x1="225" y1="70" x2="225" y2="350" />
    <line x1="300" y1="70" x2="300" y2="350" />
    <line x1="360" y1="70" x2="360" y2="350" />
    <line x1="405" y1="70" x2="405" y2="350" />
  </g>
  <g fill="#5e768d" font-family="'Segoe UI', 'Liberation Sans', sans-serif" font-size="10" text-anchor="middle">
    <text x="55" y="70">CH1</text>
    <text x="130" y="70">CH2</text>
    <text x="205" y="70">CH3</text>
    <text x="280" y="70">CH4</text>
    <text x="372" y="70">MASTER</text>
  </g>
  <g fill="#3e556b" font-family="'Segoe UI', 'Liberation Sans', sans-serif" font-size="9" text-anchor="middle">
    <text x="372" y="94">TRIM</text>
    <text x="372" y="152">MONO</text>
    <text x="372" y="166">DIM</text>
    <text x="372" y="180">CLIP</text>
    <text x="372" y="194">SAFE</text>
    <text x="372" y="220">OUT</text>
    <text x="404" y="220">PFL</text>
    <text x="436" y="220">POST</text>
  </g>
</svg>
