<?xml version="1.0" encoding="UTF-8" standalone="no"?>
<svg
   width="57mm"
   height="128.5mm"
   viewBox="0 0 57 128.5"
   version="1.1"
   id="svg139"
   sodipodi:docname="Xezbeth4X.svg"
   inkscape:version="1.2.2 (732a01da63, 2022-12-09)"
   xmlns:inkscape="http://www.inkscape.org/namespaces/inkscape"
   xmlns:sodipodi="http://sodipodi.sourceforge.net/DTD/sodipodi-0.dtd"
   xmlns="http://www.w3.org/2000/svg"
   xmlns:svg="http://www.w3.org/2000/svg">
  <sodipodi:namedview
     id="namedview141"
     pagecolor="#505050"
     bordercolor="#eeeeee"
     borderopacity="1"
     inkscape:showpageshadow="0"
     inkscape:pageopacity="0"
     inkscape:pagecheckerboard="0"
     inkscape:deskcolor="#505050"
     inkscape:document-units="mm"
     showgrid="false"
     inkscape:zoom="2.9905068"
     inkscape:cx="86.941785"
     inkscape:cy="189.43277"
     inkscape:window-width="1346"
     inkscape:window-height="1000"
     inkscape:window-x="710"
     inkscape:window-y="231"
     inkscape:window-maximized="0"
     inkscape:current-layer="svg139" />
  <defs
     id="defs21">
    <linearGradient
       id="bg"
       x1="0"
       x2="0"
       y1="0"
       y2="1">
      <stop
         offset="0"
         stop-color="#0e1014"
         id="stop2" />
      <stop
         offset="1"
         stop-color="#1a1e24"
         id="stop4" />
    </linearGradient>
    <linearGradient
       id="strip"
       x1="0"
       x2="1"
       y1="0"
       y2="0">
      <stop
         offset="0"
         stop-color="#1e2228"
         stop-opacity="0.4"
         id="stop7" />
      <stop
         offset="0.5"
         stop-color="#2a2f38"
         stop-opacity="0.7"
         id="stop9" />
      <stop
         offset="1"
         stop-color="#1e2228"
         stop-opacity="0.4"
         id="stop11" />
    </linearGradient>
    <linearGradient
       id="meter"
       x1="0"
       x2="0"
       y1="0"
       y2="1">
      <stop
         offset="0"
         stop-color="#0a0c0e"
         id="stop14" />
      <stop
         offset="1"
         stop-color="#14161a"
         id="stop16" />
    </linearGradient>
    <style
       id="style19">
      .title { font-family: 'Roboto Condensed', 'Arial Narrow', sans-serif; font-size: 4.5px; fill: #f0f4f8; font-weight: 800; letter-spacing: 1.8px; }
      .sub { font-family: 'Roboto', Arial, sans-serif; font-size: 1.7px; fill: #7a8593; text-anchor: middle; letter-spacing: 0.3px; }
      .ch { font-family: 'Roboto', Arial, sans-serif; font-size: 3.5px; fill: #c8d0dc; text-anchor: middle; font-weight: 700; }
      .lbl { font-family: 'Roboto Condensed', 'Arial Narrow', sans-serif; font-size: 1.6px; fill: #98a2b0; text-anchor: middle; font-weight: 600; }
      .tiny { font-family: 'Roboto', Arial, sans-serif; font-size: 1.4px; fill: #6a7482; text-anchor: start; }
      .line { stroke: #2a3038; stroke-width: 0.15; }
    </style>
  </defs>
  <!-- Background -->
  <rect
     width="57"
     height="128.5"
     fill="url(#bg)"
     id="rect23"
     style="fill:none;fill-opacity:1;stroke:#282e36;stroke-opacity:1" />
  <!-- Header -->
  <rect
     x="1"
     y="1"
     width="55"
     height="11"
     fill="#12151a"
     stroke="#282e36"
     stroke-width="0.25"
     rx="0.6"
     id="rect25"
     style="fill:none" />
  <g
     aria-label="XEZBETH:4X"
     id="text27"
     class="title"
     style="font-weight:800;font-size:4.5px;font-family:'Roboto Condensed', 'Arial Narrow', sans-serif;letter-spacing:1.8px;text-anchor:middle;fill:#f0f4f8"
     transform="translate(0,1.0583333)">
    <path
       d="M 10.790259,7 10.153052,5.767334 9.5158449,7 h -0.5625 L 9.8322512,5.3718262 9.0258547,3.9040527 h 0.5625 l 0.5646973,1.0942383 0.5625,-1.0942383 h 0.560303 L 10.504614,5.3718262 11.348364,7 Z"
       id="path482" />
    <path
       d="M 13.427417,7 V 3.9040527 h 1.997315 v 0.5009766 h -1.465576 v 0.777832 h 1.355713 v 0.5009766 h -1.355713 v 0.8151855 h 1.538086 V 7 Z"
       id="path484" />
    <path
       d="M 19.591187,7 H 17.552125 V 6.5407715 L 18.925416,4.4116211 H 17.688355 V 3.9040527 h 1.828125 v 0.4504395 l -1.373291,2.1379394 h 1.447998 z"
       id="path486" />
    <path
       d="m 23.992749,6.1166992 q 0,0.2351074 -0.0791,0.4042969 -0.0769,0.1669922 -0.210937,0.2746582 Q 23.568677,6.901123 23.390698,6.9516602 23.21272,7 23.012768,7 H 21.742749 V 3.9040527 h 1.162353 q 0.224121,0 0.399903,0.04834 0.175781,0.046143 0.296631,0.1428222 0.120849,0.09668 0.182373,0.2438965 0.06152,0.1450196 0.06152,0.3427735 0,0.2636718 -0.12085,0.4460449 -0.118652,0.1801758 -0.362548,0.2438965 0.307617,0.043945 0.468017,0.2373047 0.162598,0.1911621 0.162598,0.5075683 z M 23.311597,4.7697754 q 0,-0.2087402 -0.109864,-0.2966309 -0.107666,-0.087891 -0.322998,-0.087891 h -0.604248 v 0.7668457 h 0.608643 q 0.224121,0 0.325195,-0.094482 0.103272,-0.09668 0.103272,-0.2878418 z m 0.147216,1.2963867 q 0,-0.1230469 -0.03955,-0.206543 -0.03955,-0.083496 -0.109864,-0.1340332 -0.06811,-0.050537 -0.1604,-0.07251 -0.09229,-0.021973 -0.202149,-0.021973 h -0.672363 v 0.8876953 h 0.694336 q 0.105469,0 0.193359,-0.019775 0.09009,-0.021973 0.156006,-0.07251 0.06592,-0.052734 0.103272,-0.140625 0.03735,-0.087891 0.03735,-0.2197266 z"
       id="path488" />
    <path
       d="M 26.205836,7 V 3.9040527 h 1.997314 v 0.5009766 h -1.465576 v 0.777832 h 1.355713 V 5.6838379 H 26.737574 V 6.4990234 H 28.27566 V 7 Z"
       id="path490" />
    <path
       d="M 31.613745,4.4050293 V 7 H 31.082007 V 4.4050293 h -0.81958 V 3.9040527 h 2.173096 v 0.5009766 z"
       id="path492" />
    <path
       d="M 36.158129,7 V 5.6728516 H 35.052905 V 7 H 34.521166 V 3.9040527 h 0.531739 v 1.232666 h 1.105224 v -1.232666 h 0.531739 V 7 Z"
       id="path494" />
    <path
       d="M 39.09192,5.3476562 V 4.7280273 h 0.520751 V 5.3476562 Z M 39.09192,7 V 6.3825684 h 0.520751 V 7 Z"
       id="path496" />
    <path
       d="M 43.460524,6.3693848 V 7 H 42.977126 V 6.3693848 H 41.821364 V 5.9057617 l 1.072266,-2.001709 h 0.566894 v 2.0061035 h 0.338379 v 0.4592286 z m -0.483398,-1.472168 q 0,-0.037354 0,-0.09668 0.0022,-0.061523 0.0044,-0.1252441 0.0022,-0.063721 0.0044,-0.1208496 0.0044,-0.059326 0.0066,-0.092285 -0.0088,0.02417 -0.02857,0.068115 l -0.04395,0.09668 q -0.02417,0.052734 -0.05054,0.1032715 l -0.04614,0.087891 -0.588867,1.092041 h 0.742676 z"
       id="path498" />
    <path
       d="M 47.488551,7 46.851344,5.767334 46.214137,7 h -0.5625 L 46.530543,5.3718262 45.724146,3.9040527 h 0.5625 l 0.564698,1.0942383 0.5625,-1.0942383 h 0.560302 L 47.202906,5.3718262 48.046656,7 Z"
       id="path500" />
  </g>
  <g
     aria-label="TAPE-STYLE SUMMING"
     id="text29"
     class="sub"
     style="font-size:1.7px;font-family:Roboto, Arial, sans-serif;letter-spacing:0.3px;text-anchor:middle;fill:#ffffff"
     transform="translate(0,1.0583333)">
    <path
       d="M 16.913769,9.5 V 8.426709 H 16.512841 V 8.2831054 h 0.964551 V 8.426709 H 17.074804 V 9.5 Z"
       id="path447"
       style="fill:#ffffff" />
    <path
       d="m 17.682763,9.5 0.467334,-1.2168946 h 0.173487 L 18.821631,9.5 H 18.638183 L 18.49624,9.1314453 H 17.987402 L 17.853759,9.5 Z m 0.351123,-0.499707 h 0.412549 L 18.319433,8.6632812 q -0.05811,-0.1535644 -0.08633,-0.2523437 -0.02324,0.117041 -0.06558,0.2324219 z"
       id="path449"
       style="fill:#ffffff" />
    <path
       d="M 19.250293,9.5 V 8.2831054 h 0.459033 q 0.121191,0 0.185107,0.011621 0.08965,0.014941 0.150244,0.057275 0.0606,0.041504 0.09712,0.117041 0.03735,0.075537 0.03735,0.1660157 0,0.1552246 -0.09878,0.2631347 -0.09878,0.1070801 -0.356934,0.1070801 H 19.411328 V 9.5 Z m 0.161035,-0.6383301 h 0.314599 q 0.156055,0 0.221631,-0.058105 0.06558,-0.058105 0.06558,-0.1635254 0,-0.076367 -0.03901,-0.1303222 -0.03818,-0.054785 -0.10127,-0.072217 -0.04067,-0.010791 -0.150244,-0.010791 h -0.311279 z"
       id="path451"
       style="fill:#ffffff" />
    <path
       d="M 20.6875,9.5 V 8.2831054 h 0.879883 V 8.426709 h -0.718848 v 0.372705 h 0.673193 v 0.1427735 h -0.673193 v 0.414209 h 0.74707 V 9.5 Z"
       id="path453"
       style="fill:#ffffff" />
    <path
       d="M 22.040869,9.1347656 V 8.9845215 h 0.459033 v 0.1502441 z"
       id="path455"
       style="fill:#ffffff" />
    <path
       d="m 22.929394,9.1090332 0.151904,-0.013281 q 0.01079,0.091309 0.0498,0.1502442 0.03984,0.058105 0.122852,0.094629 0.08301,0.035693 0.186767,0.035693 0.09214,0 0.162696,-0.027393 0.07056,-0.027393 0.104589,-0.074707 0.03486,-0.048145 0.03486,-0.1045898 0,-0.057275 -0.0332,-0.099609 -0.0332,-0.043164 -0.109571,-0.072217 -0.04897,-0.019092 -0.21665,-0.058935 -0.167676,-0.040674 -0.234912,-0.076367 -0.08716,-0.045654 -0.130323,-0.1128906 -0.04233,-0.068067 -0.04233,-0.1519043 0,-0.092139 0.05229,-0.1718262 0.0523,-0.080518 0.152735,-0.1220215 0.100439,-0.041504 0.223291,-0.041504 0.135303,0 0.238232,0.043994 0.10376,0.043164 0.159375,0.1278321 0.05561,0.084668 0.05977,0.191748 l -0.154395,0.011621 q -0.01245,-0.1153809 -0.08467,-0.1743164 -0.07139,-0.058936 -0.21167,-0.058936 -0.146093,0 -0.21333,0.053955 -0.06641,0.053125 -0.06641,0.1286621 0,0.065576 0.04732,0.1079102 0.04648,0.042334 0.242382,0.087158 0.196729,0.043994 0.269776,0.077197 0.10625,0.048975 0.156885,0.1245117 0.05063,0.074707 0.05063,0.1726562 0,0.097119 -0.05562,0.1834473 -0.05561,0.085498 -0.160205,0.1336426 -0.10376,0.047315 -0.234082,0.047315 -0.165186,0 -0.277246,-0.048145 -0.111231,-0.048144 -0.175147,-0.1444336 -0.06309,-0.097119 -0.06641,-0.2191406 z"
       id="path457"
       style="fill:#ffffff" />
    <path
       d="M 24.727685,9.5 V 8.426709 H 24.326758 V 8.2831054 h 0.96455 V 8.426709 H 24.888721 V 9.5 Z"
       id="path459"
       style="fill:#ffffff" />
    <path
       d="M 26.099316,9.5 V 8.9845215 L 25.630322,8.2831054 H 25.82622 L 26.066113,8.65 q 0.06641,0.1029297 0.123682,0.2058594 0.05478,-0.095459 0.132812,-0.2149903 l 0.235742,-0.3577637 h 0.187598 L 26.260351,8.9845215 V 9.5 Z"
       id="path461"
       style="fill:#ffffff" />
    <path
       d="M 27.18374,9.5 V 8.2831054 h 0.161035 v 1.0732911 h 0.599316 V 9.5 Z"
       id="path463"
       style="fill:#ffffff" />
    <path
       d="M 28.43916,9.5 V 8.2831054 h 0.879883 V 8.426709 h -0.718848 v 0.372705 h 0.673194 v 0.1427735 h -0.673194 v 0.414209 h 0.747071 V 9.5 Z"
       id="path465"
       style="fill:#ffffff" />
    <path
       d="m 30.587255,9.1090332 0.151905,-0.013281 q 0.01079,0.091309 0.0498,0.1502442 0.03984,0.058105 0.122852,0.094629 0.08301,0.035693 0.186767,0.035693 0.09214,0 0.162696,-0.027393 0.07056,-0.027393 0.10459,-0.074707 0.03486,-0.048145 0.03486,-0.1045898 0,-0.057275 -0.0332,-0.099609 -0.0332,-0.043164 -0.109571,-0.072217 -0.04897,-0.019092 -0.21665,-0.058935 Q 30.873628,8.8981936 30.806392,8.8625006 30.719232,8.8168466 30.67607,8.74961 30.63374,8.681543 30.63374,8.5977057 q 0,-0.092139 0.0523,-0.1718262 0.0523,-0.080518 0.152734,-0.1220215 0.100439,-0.041504 0.223291,-0.041504 0.135303,0 0.238232,0.043994 0.10376,0.043164 0.159375,0.1278321 0.05562,0.084668 0.05977,0.191748 l -0.154394,0.011621 q -0.01245,-0.1153809 -0.08467,-0.1743164 -0.07139,-0.058936 -0.21167,-0.058936 -0.146094,0 -0.21333,0.053955 -0.06641,0.053125 -0.06641,0.1286621 0,0.065576 0.04732,0.1079102 0.04648,0.042334 0.242383,0.087158 0.196728,0.043994 0.269775,0.077197 0.10625,0.048975 0.156885,0.1245117 0.05063,0.074707 0.05063,0.1726562 0,0.097119 -0.05562,0.1834473 -0.05561,0.085498 -0.160205,0.1336426 -0.10376,0.047315 -0.234082,0.047315 -0.165185,0 -0.277246,-0.048145 -0.11123,-0.048144 -0.175146,-0.1444336 -0.06309,-0.097119 -0.06641,-0.2191406 z"
       id="path467"
       style="fill:#ffffff" />
    <path
       d="m 32.874462,8.2831054 h 0.161035 v 0.7030762 q 0,0.1834473 -0.0415,0.2913575 -0.0415,0.1079101 -0.150244,0.1759765 -0.10791,0.067236 -0.283886,0.067236 -0.170997,0 -0.279737,-0.058936 -0.10874,-0.058936 -0.155224,-0.170166 -0.04648,-0.1120606 -0.04648,-0.3054688 V 8.2831054 h 0.161035 v 0.7022461 q 0,0.158545 0.02905,0.2340821 0.02988,0.074707 0.10127,0.1153808 0.07222,0.040674 0.175976,0.040674 0.177637,0 0.253174,-0.080518 0.07554,-0.080518 0.07554,-0.3096192 z"
       id="path469"
       style="fill:#ffffff" />
    <path
       d="M 33.598632,9.5 V 8.2831054 h 0.242383 l 0.288037,0.8616212 q 0.03984,0.1203613 0.0581,0.1801269 0.02075,-0.066406 0.06475,-0.1950684 L 34.54326,8.2831054 h 0.21665 V 9.5 H 34.604686 V 8.4814941 L 34.251073,9.5 H 34.105809 L 33.753856,8.4640625 V 9.5 Z"
       id="path471"
       style="fill:#ffffff" />
    <path
       d="M 35.314746,9.5 V 8.2831054 h 0.242383 l 0.288037,0.8616212 q 0.03984,0.1203613 0.0581,0.1801269 0.02075,-0.066406 0.06475,-0.1950684 l 0.291358,-0.8466797 h 0.21665 V 9.5 H 36.3208 V 8.4814941 L 35.967187,9.5 H 35.821923 L 35.46997,8.4640625 V 9.5 Z"
       id="path473"
       style="fill:#ffffff" />
    <path
       d="M 37.063233,9.5 V 8.2831054 h 0.161035 V 9.5 Z"
       id="path475"
       style="fill:#ffffff" />
    <path
       d="M 37.806494,9.5 V 8.2831054 h 0.165186 l 0.63916,0.95542 v -0.95542 h 0.154394 V 9.5 H 38.600049 L 37.960889,8.54375 V 9.5 Z"
       id="path477"
       style="fill:#ffffff" />
    <path
       d="M 39.905273,9.0227051 V 8.8799316 l 0.515479,-8.301e-4 v 0.4515626 q -0.118702,0.094629 -0.244873,0.1427734 -0.126172,0.047315 -0.258985,0.047315 -0.179297,0 -0.326221,-0.076367 -0.146093,-0.077197 -0.2208,-0.222461 -0.07471,-0.1452637 -0.07471,-0.3245605 0,-0.1776368 0.07388,-0.3312012 0.07471,-0.1543946 0.21416,-0.2291016 0.139453,-0.074707 0.32124,-0.074707 0.131982,0 0.238232,0.043164 0.107081,0.042334 0.167676,0.1187012 0.0606,0.076367 0.09214,0.1992188 l -0.145264,0.039844 q -0.02739,-0.092969 -0.06807,-0.1460937 -0.04067,-0.053125 -0.116211,-0.084668 -0.07554,-0.032373 -0.167676,-0.032373 -0.1104,0 -0.190918,0.034033 -0.08052,0.033203 -0.130322,0.087988 -0.04897,0.054785 -0.07637,0.1203614 -0.04648,0.1128906 -0.04648,0.244873 0,0.1626953 0.05562,0.2722657 0.05645,0.1095703 0.163525,0.1626953 0.10708,0.053125 0.227441,0.053125 0.10459,0 0.2042,-0.039844 0.09961,-0.040674 0.151074,-0.086328 V 9.0227051 Z"
       id="path479"
       style="fill:#ffffff" />
  </g>
  <!-- Channel strip area -->
  <rect
     x="1"
     y="14"
     width="45"
     height="113.5"
     fill="url(#strip)"
     id="rect33"
     style="fill:none;fill-opacity:1" />
  <!-- Vertical channel dividers -->
  <!-- Master section -->
  <!-- Channel numbers -->
  <!-- Section labels left side -->
  <!-- Master labels -->
  <!-- Meter backgrounds - ultra-thin channel meters -->
  <!-- Master meter backgrounds -->
  <!-- Output section -->
  <!-- Input port hints (L/R staggered) -->
  <!-- Decorative accents -->
  <rect
     x="1"
     y="126.5"
     width="55"
     height="0.8"
     fill="#2a3038"
     opacity="0.25"
     id="rect135" />
  <!-- Footer -->
  <g
     aria-label="AMBUSHED CAT DSP"
     id="text137"
     style="font-size:1.7px;font-family:Roboto, Arial, sans-serif;-inkscape-font-specification:'Roboto, Arial, sans-serif, Normal';letter-spacing:0.3px;text-anchor:middle;fill:#7a8593"
     class="sub">
    <path
       d="m 17.588549,127.3 0.467334,-1.21689 H 18.22937 L 18.727417,127.3 h -0.183448 l -0.141943,-0.36855 H 17.893188 L 17.759546,127.3 Z m 0.351124,-0.4997 h 0.412548 l -0.127002,-0.33702 q -0.0581,-0.15356 -0.08633,-0.25234 -0.02324,0.11704 -0.06558,0.23242 z"
       id="path11392" />
    <path
       d="m 19.151098,127.3 v -1.21689 h 0.242383 l 0.288037,0.86162 q 0.03984,0.12036 0.05811,0.18013 0.02075,-0.0664 0.06475,-0.19507 l 0.291357,-0.84668 h 0.216651 V 127.3 h -0.155225 v -1.0185 L 19.80354,127.3 h -0.145264 l -0.351953,-1.03593 V 127.3 Z"
       id="path11394" />
    <path
       d="m 20.865552,127.3 v -1.21689 h 0.456543 q 0.139453,0 0.223291,0.0373 0.08467,0.0365 0.131982,0.11372 0.04814,0.0764 0.04814,0.16021 0,0.078 -0.04233,0.14692 -0.04233,0.0689 -0.127833,0.11123 0.110401,0.0324 0.169336,0.1104 0.05977,0.078 0.05977,0.18428 0,0.0855 -0.03652,0.15937 -0.03569,0.0731 -0.08882,0.1129 -0.05313,0.0398 -0.133642,0.0606 -0.07969,0.0199 -0.195899,0.0199 z m 0.161035,-0.70556 h 0.263134 q 0.107081,0 0.153565,-0.0141 0.06143,-0.0183 0.09214,-0.0606 0.03154,-0.0423 0.03154,-0.10625 0,-0.0606 -0.02905,-0.10625 -0.02905,-0.0465 -0.08301,-0.0631 -0.05395,-0.0174 -0.185107,-0.0174 h -0.243213 z m 0,0.56196 h 0.302978 q 0.07803,0 0.109571,-0.006 0.05561,-0.01 0.09297,-0.0332 0.03735,-0.0233 0.06143,-0.0672 0.02407,-0.0448 0.02407,-0.10293 0,-0.0681 -0.03486,-0.11787 -0.03486,-0.0506 -0.09712,-0.0706 -0.06143,-0.0208 -0.177637,-0.0208 h -0.281396 z"
       id="path11396" />
    <path
       d="m 23.104614,126.08311 h 0.161035 v 0.70307 q 0,0.18345 -0.0415,0.29136 -0.0415,0.10791 -0.150244,0.17598 -0.10791,0.0672 -0.283887,0.0672 -0.170996,0 -0.279736,-0.0589 -0.10874,-0.0589 -0.155225,-0.17017 -0.04648,-0.11206 -0.04648,-0.30547 v -0.70307 h 0.161035 v 0.70224 q 0,0.15855 0.02905,0.23409 0.02988,0.0747 0.101269,0.11538 0.07222,0.0407 0.175977,0.0407 0.177637,0 0.253174,-0.0805 0.07554,-0.0805 0.07554,-0.30962 z"
       id="path11398" />
    <path
       d="m 23.778979,126.90904 0.151904,-0.0133 q 0.01079,0.0913 0.0498,0.15025 0.03984,0.0581 0.122852,0.0946 0.08301,0.0357 0.186767,0.0357 0.09214,0 0.162696,-0.0274 0.07056,-0.0274 0.104589,-0.0747 0.03486,-0.0481 0.03486,-0.10459 0,-0.0573 -0.0332,-0.0996 -0.0332,-0.0432 -0.109571,-0.0722 -0.04897,-0.0191 -0.21665,-0.0589 -0.167676,-0.0407 -0.234912,-0.0764 -0.08716,-0.0456 -0.130322,-0.11289 -0.04233,-0.0681 -0.04233,-0.1519 0,-0.0921 0.05229,-0.17183 0.0523,-0.0805 0.152735,-0.12202 0.100439,-0.0415 0.223291,-0.0415 0.135303,0 0.238232,0.044 0.10376,0.0432 0.159375,0.12783 0.05562,0.0847 0.05977,0.19175 l -0.154395,0.0116 q -0.01245,-0.11538 -0.08467,-0.17431 -0.07139,-0.0589 -0.21167,-0.0589 -0.146093,0 -0.21333,0.054 -0.06641,0.0531 -0.06641,0.12867 0,0.0656 0.04731,0.10791 0.04648,0.0423 0.242382,0.0872 0.196729,0.044 0.269776,0.0772 0.10625,0.049 0.156885,0.12451 0.05063,0.0747 0.05063,0.17266 0,0.0971 -0.05561,0.18345 -0.05561,0.0855 -0.160205,0.13364 -0.10376,0.0473 -0.234082,0.0473 -0.165186,0 -0.277246,-0.0482 -0.111231,-0.0481 -0.175147,-0.14443 -0.06309,-0.0971 -0.06641,-0.21914 z"
       id="path11400" />
    <path
       d="m 25.272632,127.3 v -1.21689 h 0.161035 v 0.49971 h 0.63252 v -0.49971 h 0.161035 V 127.3 h -0.161035 v -0.57358 h -0.63252 V 127.3 Z"
       id="path11402" />
    <path
       d="m 26.798657,127.3 v -1.21689 h 0.879883 v 0.1436 h -0.718848 v 0.37271 h 0.673194 v 0.14277 h -0.673194 v 0.41421 h 0.747071 V 127.3 Z"
       id="path11404" />
    <path
       d="m 28.229223,127.3 v -1.21689 h 0.41919 q 0.141943,0 0.21665,0.0174 0.10459,0.0241 0.178467,0.0872 0.09629,0.0813 0.143604,0.20835 0.04814,0.12617 0.04814,0.28887 0,0.13862 -0.03237,0.2457 -0.03237,0.10708 -0.08301,0.17763 -0.05063,0.0697 -0.11123,0.11041 -0.05977,0.0398 -0.145264,0.0606 -0.08467,0.0207 -0.195068,0.0207 z m 0.161036,-0.1436 h 0.259814 q 0.120361,0 0.188428,-0.0224 0.0689,-0.0224 0.10957,-0.0631 0.05728,-0.0573 0.08882,-0.15356 0.03237,-0.0971 0.03237,-0.23492 0,-0.19091 -0.06309,-0.29301 -0.06226,-0.10293 -0.151905,-0.1378 -0.06475,-0.0249 -0.208349,-0.0249 h -0.255664 z"
       id="path11406" />
    <path
       d="m 31.397485,126.87334 0.161036,0.0407 q -0.05063,0.19839 -0.182618,0.30298 -0.131152,0.10376 -0.32124,0.10376 -0.196728,0 -0.32041,-0.0797 -0.122852,-0.0805 -0.187598,-0.23242 -0.06392,-0.15191 -0.06392,-0.32623 0,-0.19008 0.07222,-0.3312 0.07305,-0.14194 0.20669,-0.21499 0.134472,-0.0739 0.295507,-0.0739 0.182618,0 0.307129,0.093 0.124512,0.093 0.173487,0.26147 l -0.158545,0.0374 q -0.04233,-0.13281 -0.122852,-0.1934 -0.08052,-0.0606 -0.202539,-0.0606 -0.140283,0 -0.234912,0.0672 -0.0938,0.0672 -0.131982,0.18095 -0.03818,0.11289 -0.03818,0.23325 0,0.15523 0.04482,0.27144 0.04565,0.11538 0.141113,0.17266 0.09546,0.0573 0.20669,0.0573 0.135303,0 0.229101,-0.078 0.0938,-0.078 0.127002,-0.23159 z"
       id="path11408" />
    <path
       d="m 31.923266,127.3 0.467334,-1.21689 h 0.173487 L 33.062133,127.3 h -0.183447 l -0.141943,-0.36855 H 32.227905 L 32.094262,127.3 Z m 0.351123,-0.4997 h 0.412549 l -0.127002,-0.33702 q -0.0581,-0.15356 -0.08633,-0.25234 -0.02324,0.11704 -0.06558,0.23242 z"
       id="path11410" />
    <path
       d="m 33.674243,127.3 v -1.07329 h -0.400927 v -0.1436 h 0.96455 v 0.1436 H 33.835279 V 127.3 Z"
       id="path11412" />
    <path
       d="m 35.444654,127.3 v -1.21689 h 0.419189 q 0.141944,0 0.216651,0.0174 0.104589,0.0241 0.178466,0.0872 0.09629,0.0813 0.143604,0.20835 0.04814,0.12617 0.04814,0.28887 0,0.13862 -0.03237,0.2457 -0.03237,0.10708 -0.08301,0.17763 -0.05063,0.0697 -0.111231,0.11041 -0.05976,0.0398 -0.145264,0.0606 -0.08467,0.0207 -0.195068,0.0207 z m 0.161035,-0.1436 h 0.259814 q 0.120362,0 0.188428,-0.0224 0.0689,-0.0224 0.10957,-0.0631 0.05728,-0.0573 0.08882,-0.15356 0.03237,-0.0971 0.03237,-0.23492 0,-0.19091 -0.06309,-0.29301 -0.06226,-0.10293 -0.151904,-0.1378 -0.06475,-0.0249 -0.20835,-0.0249 h -0.255664 z"
       id="path11414" />
    <path
       d="m 36.917554,126.90904 0.151904,-0.0133 q 0.01079,0.0913 0.0498,0.15025 0.03984,0.0581 0.122851,0.0946 0.08301,0.0357 0.186768,0.0357 0.09214,0 0.162695,-0.0274 0.07056,-0.0274 0.10459,-0.0747 0.03486,-0.0481 0.03486,-0.10459 0,-0.0573 -0.0332,-0.0996 -0.0332,-0.0432 -0.10957,-0.0722 -0.04897,-0.0191 -0.21665,-0.0589 -0.167676,-0.0407 -0.234913,-0.0764 -0.08716,-0.0456 -0.130322,-0.11289 -0.04233,-0.0681 -0.04233,-0.1519 0,-0.0921 0.0523,-0.17183 0.05229,-0.0805 0.152734,-0.12202 0.10044,-0.0415 0.223291,-0.0415 0.135303,0 0.238233,0.044 0.10376,0.0432 0.159375,0.12783 0.05562,0.0847 0.05977,0.19175 l -0.154395,0.0116 q -0.01245,-0.11538 -0.08467,-0.17431 -0.07139,-0.0589 -0.21167,-0.0589 -0.146094,0 -0.21333,0.054 -0.06641,0.0531 -0.06641,0.12867 0,0.0656 0.04731,0.10791 0.04649,0.0423 0.242383,0.0872 0.196729,0.044 0.269775,0.0772 0.10625,0.049 0.156885,0.12451 0.05063,0.0747 0.05063,0.17266 0,0.0971 -0.05561,0.18345 -0.05562,0.0855 -0.160205,0.13364 -0.10376,0.0473 -0.234082,0.0473 -0.165186,0 -0.277246,-0.0482 -0.111231,-0.0481 -0.175147,-0.14443 -0.06309,-0.0971 -0.06641,-0.21914 z"
       id="path11416" />
    <path
       d="m 38.406226,127.3 v -1.21689 h 0.459034 q 0.121191,0 0.185107,0.0116 0.08965,0.0149 0.150244,0.0573 0.0606,0.0415 0.09712,0.11705 0.03735,0.0755 0.03735,0.16601 0,0.15523 -0.09878,0.26314 -0.09878,0.10708 -0.356934,0.10708 H 38.567262 V 127.3 Z m 0.161036,-0.63833 h 0.314599 q 0.156055,0 0.221631,-0.0581 0.06558,-0.0581 0.06558,-0.16353 0,-0.0764 -0.03901,-0.13032 -0.03818,-0.0548 -0.10127,-0.0722 -0.04067,-0.0108 -0.150244,-0.0108 h -0.311279 z"
       id="path11418" />
  </g>
</svg>
